ISO-10303-21;
HEADER;
/* Generated by software containing ST-Developer
 * from STEP Tools, Inc. (www.steptools.com) 
 */
/* OPTION: using custom renumber hook */

FILE_DESCRIPTION(
/* description */ ('STEP AP242 Edition 2',
'CAx-IF Rec.Pracs.---Representation and Presentation of Product Manufa
cturing Information (PMI)---4.0---2014-10-13',
'CAx-IF Rec.Pracs.---3D Tessellated Geometry---0.4---2014-09-14','2;1',
'CAx-IF Rec.Pracs.---User Defined Attributes---1.5---2016-08-15'),
/* implementation_level */ '2;1');

FILE_NAME(
/* name */ '69554f9104e23e7371ddeceb',
/* time_stamp */ '2025-12-31T16:30:10Z',
/* author */ (''),
/* organization */ (''),
/* preprocessor_version */ 'ST-DEVELOPER v20',
/* originating_system */ 'ONSHAPE BY PTC INC, 1.208',
/* authorisation */ '  ');

FILE_SCHEMA (('AP242_MANAGED_MODEL_BASED_3D_ENGINEERING_MIM_LF { 1 0 10303 442 3 1 4 }'));
ENDSEC;

DATA;
#10=SHAPE_REPRESENTATION_RELATIONSHIP('','',#855,#11);
#11=ADVANCED_BREP_SHAPE_REPRESENTATION('',(#853),#1505);
#12=ORIENTED_CLOSED_SHELL('',*,#823,.F.);
#13=ORIENTED_CLOSED_SHELL('',*,#824,.F.);
#14=ORIENTED_CLOSED_SHELL('',*,#825,.F.);
#15=ORIENTED_CLOSED_SHELL('',*,#826,.F.);
#16=ORIENTED_CLOSED_SHELL('',*,#827,.F.);
#17=ORIENTED_CLOSED_SHELL('',*,#828,.F.);
#18=ORIENTED_CLOSED_SHELL('',*,#829,.F.);
#19=ORIENTED_CLOSED_SHELL('',*,#830,.F.);
#20=ORIENTED_CLOSED_SHELL('',*,#831,.F.);
#21=ORIENTED_CLOSED_SHELL('',*,#832,.F.);
#22=ORIENTED_CLOSED_SHELL('',*,#833,.F.);
#23=ORIENTED_CLOSED_SHELL('',*,#834,.F.);
#24=ORIENTED_CLOSED_SHELL('',*,#835,.F.);
#25=ORIENTED_CLOSED_SHELL('',*,#836,.F.);
#26=ORIENTED_CLOSED_SHELL('',*,#837,.F.);
#27=ORIENTED_CLOSED_SHELL('',*,#838,.F.);
#28=ORIENTED_CLOSED_SHELL('',*,#839,.F.);
#29=ORIENTED_CLOSED_SHELL('',*,#840,.F.);
#30=ORIENTED_CLOSED_SHELL('',*,#841,.F.);
#31=ORIENTED_CLOSED_SHELL('',*,#842,.F.);
#32=ORIENTED_CLOSED_SHELL('',*,#843,.F.);
#33=ORIENTED_CLOSED_SHELL('',*,#844,.F.);
#34=CYLINDRICAL_SURFACE('',#872,0.00275);
#35=CYLINDRICAL_SURFACE('',#874,0.00275);
#36=CYLINDRICAL_SURFACE('',#875,0.0003);
#37=CYLINDRICAL_SURFACE('',#880,0.0003);
#38=CYLINDRICAL_SURFACE('',#885,0.0003);
#39=CYLINDRICAL_SURFACE('',#890,0.0003);
#40=CYLINDRICAL_SURFACE('',#895,0.0003);
#41=CYLINDRICAL_SURFACE('',#900,0.0003);
#42=CYLINDRICAL_SURFACE('',#905,0.0003);
#43=CYLINDRICAL_SURFACE('',#910,0.0003);
#44=CYLINDRICAL_SURFACE('',#915,0.0003);
#45=CYLINDRICAL_SURFACE('',#920,0.0003);
#46=CYLINDRICAL_SURFACE('',#925,0.0003);
#47=CYLINDRICAL_SURFACE('',#930,0.0003);
#48=CYLINDRICAL_SURFACE('',#935,0.0003);
#49=CYLINDRICAL_SURFACE('',#940,0.0003);
#50=CYLINDRICAL_SURFACE('',#945,0.0003);
#51=CYLINDRICAL_SURFACE('',#950,0.0003);
#52=CYLINDRICAL_SURFACE('',#955,0.0003);
#53=CYLINDRICAL_SURFACE('',#960,0.0003);
#54=CYLINDRICAL_SURFACE('',#965,0.0003);
#55=CYLINDRICAL_SURFACE('',#970,0.0003);
#56=CYLINDRICAL_SURFACE('',#975,0.0003);
#57=CYLINDRICAL_SURFACE('',#980,0.0003);
#58=CIRCLE('',#858,0.00275);
#59=CIRCLE('',#859,0.00275);
#60=CIRCLE('',#861,0.00275);
#61=CIRCLE('',#862,0.00275);
#62=CIRCLE('',#876,0.0003);
#63=CIRCLE('',#877,0.0003);
#64=CIRCLE('',#881,0.0003);
#65=CIRCLE('',#882,0.0003);
#66=CIRCLE('',#886,0.0003);
#67=CIRCLE('',#887,0.0003);
#68=CIRCLE('',#891,0.0003);
#69=CIRCLE('',#892,0.0003);
#70=CIRCLE('',#896,0.0003);
#71=CIRCLE('',#897,0.0003);
#72=CIRCLE('',#901,0.0003);
#73=CIRCLE('',#902,0.0003);
#74=CIRCLE('',#906,0.0003);
#75=CIRCLE('',#907,0.0003);
#76=CIRCLE('',#911,0.0003);
#77=CIRCLE('',#912,0.0003);
#78=CIRCLE('',#916,0.0003);
#79=CIRCLE('',#917,0.0003);
#80=CIRCLE('',#921,0.0003);
#81=CIRCLE('',#922,0.0003);
#82=CIRCLE('',#926,0.0003);
#83=CIRCLE('',#927,0.0003);
#84=CIRCLE('',#931,0.0003);
#85=CIRCLE('',#932,0.0003);
#86=CIRCLE('',#936,0.0003);
#87=CIRCLE('',#937,0.0003);
#88=CIRCLE('',#941,0.0003);
#89=CIRCLE('',#942,0.0003);
#90=CIRCLE('',#946,0.0003);
#91=CIRCLE('',#947,0.0003);
#92=CIRCLE('',#951,0.0003);
#93=CIRCLE('',#952,0.0003);
#94=CIRCLE('',#956,0.0003);
#95=CIRCLE('',#957,0.0003);
#96=CIRCLE('',#961,0.0003);
#97=CIRCLE('',#962,0.0003);
#98=CIRCLE('',#966,0.0003);
#99=CIRCLE('',#967,0.0003);
#100=CIRCLE('',#971,0.0003);
#101=CIRCLE('',#972,0.0003);
#102=CIRCLE('',#976,0.0003);
#103=CIRCLE('',#977,0.0003);
#104=CIRCLE('',#981,0.0003);
#105=CIRCLE('',#982,0.0003);
#106=ORIENTED_EDGE('',*,*,#266,.F.);
#107=ORIENTED_EDGE('',*,*,#267,.F.);
#108=ORIENTED_EDGE('',*,*,#268,.T.);
#109=ORIENTED_EDGE('',*,*,#269,.T.);
#110=ORIENTED_EDGE('',*,*,#270,.F.);
#111=ORIENTED_EDGE('',*,*,#271,.T.);
#112=ORIENTED_EDGE('',*,*,#272,.F.);
#113=ORIENTED_EDGE('',*,*,#273,.T.);
#114=ORIENTED_EDGE('',*,*,#274,.F.);
#115=ORIENTED_EDGE('',*,*,#275,.F.);
#116=ORIENTED_EDGE('',*,*,#276,.T.);
#117=ORIENTED_EDGE('',*,*,#277,.T.);
#118=ORIENTED_EDGE('',*,*,#278,.F.);
#119=ORIENTED_EDGE('',*,*,#279,.T.);
#120=ORIENTED_EDGE('',*,*,#280,.F.);
#121=ORIENTED_EDGE('',*,*,#281,.T.);
#122=ORIENTED_EDGE('',*,*,#282,.F.);
#123=ORIENTED_EDGE('',*,*,#269,.F.);
#124=ORIENTED_EDGE('',*,*,#283,.T.);
#125=ORIENTED_EDGE('',*,*,#284,.T.);
#126=ORIENTED_EDGE('',*,*,#285,.F.);
#127=ORIENTED_EDGE('',*,*,#277,.F.);
#128=ORIENTED_EDGE('',*,*,#286,.T.);
#129=ORIENTED_EDGE('',*,*,#267,.T.);
#130=ORIENTED_EDGE('',*,*,#287,.F.);
#131=ORIENTED_EDGE('',*,*,#288,.F.);
#132=ORIENTED_EDGE('',*,*,#289,.T.);
#133=ORIENTED_EDGE('',*,*,#275,.T.);
#134=ORIENTED_EDGE('',*,*,#290,.F.);
#135=ORIENTED_EDGE('',*,*,#291,.F.);
#136=ORIENTED_EDGE('',*,*,#292,.T.);
#137=ORIENTED_EDGE('',*,*,#288,.T.);
#138=ORIENTED_EDGE('',*,*,#293,.F.);
#139=ORIENTED_EDGE('',*,*,#294,.F.);
#140=ORIENTED_EDGE('',*,*,#295,.T.);
#141=ORIENTED_EDGE('',*,*,#291,.T.);
#142=ORIENTED_EDGE('',*,*,#296,.F.);
#143=ORIENTED_EDGE('',*,*,#284,.F.);
#144=ORIENTED_EDGE('',*,*,#297,.T.);
#145=ORIENTED_EDGE('',*,*,#294,.T.);
#146=ORIENTED_EDGE('',*,*,#283,.F.);
#147=ORIENTED_EDGE('',*,*,#268,.F.);
#148=ORIENTED_EDGE('',*,*,#286,.F.);
#149=ORIENTED_EDGE('',*,*,#276,.F.);
#150=ORIENTED_EDGE('',*,*,#289,.F.);
#151=ORIENTED_EDGE('',*,*,#292,.F.);
#152=ORIENTED_EDGE('',*,*,#295,.F.);
#153=ORIENTED_EDGE('',*,*,#297,.F.);
#154=ORIENTED_EDGE('',*,*,#282,.T.);
#155=ORIENTED_EDGE('',*,*,#296,.T.);
#156=ORIENTED_EDGE('',*,*,#293,.T.);
#157=ORIENTED_EDGE('',*,*,#290,.T.);
#158=ORIENTED_EDGE('',*,*,#287,.T.);
#159=ORIENTED_EDGE('',*,*,#274,.T.);
#160=ORIENTED_EDGE('',*,*,#285,.T.);
#161=ORIENTED_EDGE('',*,*,#266,.T.);
#162=ORIENTED_EDGE('',*,*,#298,.T.);
#163=ORIENTED_EDGE('',*,*,#279,.F.);
#164=ORIENTED_EDGE('',*,*,#299,.F.);
#165=ORIENTED_EDGE('',*,*,#271,.F.);
#166=ORIENTED_EDGE('',*,*,#272,.T.);
#167=ORIENTED_EDGE('',*,*,#299,.T.);
#168=ORIENTED_EDGE('',*,*,#278,.T.);
#169=ORIENTED_EDGE('',*,*,#300,.F.);
#170=ORIENTED_EDGE('',*,*,#300,.T.);
#171=ORIENTED_EDGE('',*,*,#281,.F.);
#172=ORIENTED_EDGE('',*,*,#301,.F.);
#173=ORIENTED_EDGE('',*,*,#273,.F.);
#174=ORIENTED_EDGE('',*,*,#270,.T.);
#175=ORIENTED_EDGE('',*,*,#301,.T.);
#176=ORIENTED_EDGE('',*,*,#280,.T.);
#177=ORIENTED_EDGE('',*,*,#298,.F.);
#178=ORIENTED_EDGE('',*,*,#302,.F.);
#179=ORIENTED_EDGE('',*,*,#303,.T.);
#180=ORIENTED_EDGE('',*,*,#302,.T.);
#181=ORIENTED_EDGE('',*,*,#303,.F.);
#182=ORIENTED_EDGE('',*,*,#304,.F.);
#183=ORIENTED_EDGE('',*,*,#305,.T.);
#184=ORIENTED_EDGE('',*,*,#304,.T.);
#185=ORIENTED_EDGE('',*,*,#305,.F.);
#186=ORIENTED_EDGE('',*,*,#306,.F.);
#187=ORIENTED_EDGE('',*,*,#307,.T.);
#188=ORIENTED_EDGE('',*,*,#306,.T.);
#189=ORIENTED_EDGE('',*,*,#307,.F.);
#190=ORIENTED_EDGE('',*,*,#308,.F.);
#191=ORIENTED_EDGE('',*,*,#309,.T.);
#192=ORIENTED_EDGE('',*,*,#308,.T.);
#193=ORIENTED_EDGE('',*,*,#309,.F.);
#194=ORIENTED_EDGE('',*,*,#310,.F.);
#195=ORIENTED_EDGE('',*,*,#311,.T.);
#196=ORIENTED_EDGE('',*,*,#310,.T.);
#197=ORIENTED_EDGE('',*,*,#311,.F.);
#198=ORIENTED_EDGE('',*,*,#312,.F.);
#199=ORIENTED_EDGE('',*,*,#313,.T.);
#200=ORIENTED_EDGE('',*,*,#312,.T.);
#201=ORIENTED_EDGE('',*,*,#313,.F.);
#202=ORIENTED_EDGE('',*,*,#314,.F.);
#203=ORIENTED_EDGE('',*,*,#315,.T.);
#204=ORIENTED_EDGE('',*,*,#314,.T.);
#205=ORIENTED_EDGE('',*,*,#315,.F.);
#206=ORIENTED_EDGE('',*,*,#316,.F.);
#207=ORIENTED_EDGE('',*,*,#317,.T.);
#208=ORIENTED_EDGE('',*,*,#316,.T.);
#209=ORIENTED_EDGE('',*,*,#317,.F.);
#210=ORIENTED_EDGE('',*,*,#318,.F.);
#211=ORIENTED_EDGE('',*,*,#319,.T.);
#212=ORIENTED_EDGE('',*,*,#318,.T.);
#213=ORIENTED_EDGE('',*,*,#319,.F.);
#214=ORIENTED_EDGE('',*,*,#320,.F.);
#215=ORIENTED_EDGE('',*,*,#321,.T.);
#216=ORIENTED_EDGE('',*,*,#320,.T.);
#217=ORIENTED_EDGE('',*,*,#321,.F.);
#218=ORIENTED_EDGE('',*,*,#322,.F.);
#219=ORIENTED_EDGE('',*,*,#323,.T.);
#220=ORIENTED_EDGE('',*,*,#322,.T.);
#221=ORIENTED_EDGE('',*,*,#323,.F.);
#222=ORIENTED_EDGE('',*,*,#324,.F.);
#223=ORIENTED_EDGE('',*,*,#325,.T.);
#224=ORIENTED_EDGE('',*,*,#324,.T.);
#225=ORIENTED_EDGE('',*,*,#325,.F.);
#226=ORIENTED_EDGE('',*,*,#326,.F.);
#227=ORIENTED_EDGE('',*,*,#327,.T.);
#228=ORIENTED_EDGE('',*,*,#326,.T.);
#229=ORIENTED_EDGE('',*,*,#327,.F.);
#230=ORIENTED_EDGE('',*,*,#328,.F.);
#231=ORIENTED_EDGE('',*,*,#329,.T.);
#232=ORIENTED_EDGE('',*,*,#328,.T.);
#233=ORIENTED_EDGE('',*,*,#329,.F.);
#234=ORIENTED_EDGE('',*,*,#330,.F.);
#235=ORIENTED_EDGE('',*,*,#331,.T.);
#236=ORIENTED_EDGE('',*,*,#330,.T.);
#237=ORIENTED_EDGE('',*,*,#331,.F.);
#238=ORIENTED_EDGE('',*,*,#332,.F.);
#239=ORIENTED_EDGE('',*,*,#333,.T.);
#240=ORIENTED_EDGE('',*,*,#332,.T.);
#241=ORIENTED_EDGE('',*,*,#333,.F.);
#242=ORIENTED_EDGE('',*,*,#334,.F.);
#243=ORIENTED_EDGE('',*,*,#335,.T.);
#244=ORIENTED_EDGE('',*,*,#334,.T.);
#245=ORIENTED_EDGE('',*,*,#335,.F.);
#246=ORIENTED_EDGE('',*,*,#336,.F.);
#247=ORIENTED_EDGE('',*,*,#337,.T.);
#248=ORIENTED_EDGE('',*,*,#336,.T.);
#249=ORIENTED_EDGE('',*,*,#337,.F.);
#250=ORIENTED_EDGE('',*,*,#338,.F.);
#251=ORIENTED_EDGE('',*,*,#339,.T.);
#252=ORIENTED_EDGE('',*,*,#338,.T.);
#253=ORIENTED_EDGE('',*,*,#339,.F.);
#254=ORIENTED_EDGE('',*,*,#340,.F.);
#255=ORIENTED_EDGE('',*,*,#341,.T.);
#256=ORIENTED_EDGE('',*,*,#340,.T.);
#257=ORIENTED_EDGE('',*,*,#341,.F.);
#258=ORIENTED_EDGE('',*,*,#342,.F.);
#259=ORIENTED_EDGE('',*,*,#343,.T.);
#260=ORIENTED_EDGE('',*,*,#342,.T.);
#261=ORIENTED_EDGE('',*,*,#343,.F.);
#262=ORIENTED_EDGE('',*,*,#344,.F.);
#263=ORIENTED_EDGE('',*,*,#345,.T.);
#264=ORIENTED_EDGE('',*,*,#344,.T.);
#265=ORIENTED_EDGE('',*,*,#345,.F.);
#266=EDGE_CURVE('',#346,#347,#414,.T.);
#267=EDGE_CURVE('',#348,#346,#415,.T.);
#268=EDGE_CURVE('',#348,#349,#416,.T.);
#269=EDGE_CURVE('',#349,#347,#417,.T.);
#270=EDGE_CURVE('',#350,#351,#58,.T.);
#271=EDGE_CURVE('',#350,#352,#418,.T.);
#272=EDGE_CURVE('',#353,#352,#59,.T.);
#273=EDGE_CURVE('',#353,#351,#419,.T.);
#274=EDGE_CURVE('',#354,#355,#420,.T.);
#275=EDGE_CURVE('',#356,#354,#421,.T.);
#276=EDGE_CURVE('',#356,#357,#422,.T.);
#277=EDGE_CURVE('',#357,#355,#423,.T.);
#278=EDGE_CURVE('',#358,#359,#60,.T.);
#279=EDGE_CURVE('',#358,#360,#424,.T.);
#280=EDGE_CURVE('',#361,#360,#61,.T.);
#281=EDGE_CURVE('',#361,#359,#425,.T.);
#282=EDGE_CURVE('',#347,#362,#426,.T.);
#283=EDGE_CURVE('',#349,#363,#427,.T.);
#284=EDGE_CURVE('',#363,#362,#428,.T.);
#285=EDGE_CURVE('',#355,#346,#429,.T.);
#286=EDGE_CURVE('',#357,#348,#430,.T.);
#287=EDGE_CURVE('',#364,#354,#431,.T.);
#288=EDGE_CURVE('',#365,#364,#432,.T.);
#289=EDGE_CURVE('',#365,#356,#433,.T.);
#290=EDGE_CURVE('',#366,#364,#434,.T.);
#291=EDGE_CURVE('',#367,#366,#435,.T.);
#292=EDGE_CURVE('',#367,#365,#436,.T.);
#293=EDGE_CURVE('',#368,#366,#437,.T.);
#294=EDGE_CURVE('',#369,#368,#438,.T.);
#295=EDGE_CURVE('',#369,#367,#439,.T.);
#296=EDGE_CURVE('',#362,#368,#440,.T.);
#297=EDGE_CURVE('',#363,#369,#441,.T.);
#298=EDGE_CURVE('',#350,#360,#442,.T.);
#299=EDGE_CURVE('',#352,#358,#443,.T.);
#300=EDGE_CURVE('',#353,#359,#444,.T.);
#301=EDGE_CURVE('',#351,#361,#445,.T.);
#302=EDGE_CURVE('',#370,#370,#62,.T.);
#303=EDGE_CURVE('',#371,#371,#63,.T.);
#304=EDGE_CURVE('',#372,#372,#64,.T.);
#305=EDGE_CURVE('',#373,#373,#65,.T.);
#306=EDGE_CURVE('',#374,#374,#66,.T.);
#307=EDGE_CURVE('',#375,#375,#67,.T.);
#308=EDGE_CURVE('',#376,#376,#68,.T.);
#309=EDGE_CURVE('',#377,#377,#69,.T.);
#310=EDGE_CURVE('',#378,#378,#70,.T.);
#311=EDGE_CURVE('',#379,#379,#71,.T.);
#312=EDGE_CURVE('',#380,#380,#72,.T.);
#313=EDGE_CURVE('',#381,#381,#73,.T.);
#314=EDGE_CURVE('',#382,#382,#74,.T.);
#315=EDGE_CURVE('',#383,#383,#75,.T.);
#316=EDGE_CURVE('',#384,#384,#76,.T.);
#317=EDGE_CURVE('',#385,#385,#77,.T.);
#318=EDGE_CURVE('',#386,#386,#78,.T.);
#319=EDGE_CURVE('',#387,#387,#79,.T.);
#320=EDGE_CURVE('',#388,#388,#80,.T.);
#321=EDGE_CURVE('',#389,#389,#81,.T.);
#322=EDGE_CURVE('',#390,#390,#82,.T.);
#323=EDGE_CURVE('',#391,#391,#83,.T.);
#324=EDGE_CURVE('',#392,#392,#84,.T.);
#325=EDGE_CURVE('',#393,#393,#85,.T.);
#326=EDGE_CURVE('',#394,#394,#86,.T.);
#327=EDGE_CURVE('',#395,#395,#87,.T.);
#328=EDGE_CURVE('',#396,#396,#88,.T.);
#329=EDGE_CURVE('',#397,#397,#89,.T.);
#330=EDGE_CURVE('',#398,#398,#90,.T.);
#331=EDGE_CURVE('',#399,#399,#91,.T.);
#332=EDGE_CURVE('',#400,#400,#92,.T.);
#333=EDGE_CURVE('',#401,#401,#93,.T.);
#334=EDGE_CURVE('',#402,#402,#94,.T.);
#335=EDGE_CURVE('',#403,#403,#95,.T.);
#336=EDGE_CURVE('',#404,#404,#96,.T.);
#337=EDGE_CURVE('',#405,#405,#97,.T.);
#338=EDGE_CURVE('',#406,#406,#98,.T.);
#339=EDGE_CURVE('',#407,#407,#99,.T.);
#340=EDGE_CURVE('',#408,#408,#100,.T.);
#341=EDGE_CURVE('',#409,#409,#101,.T.);
#342=EDGE_CURVE('',#410,#410,#102,.T.);
#343=EDGE_CURVE('',#411,#411,#103,.T.);
#344=EDGE_CURVE('',#412,#412,#104,.T.);
#345=EDGE_CURVE('',#413,#413,#105,.T.);
#346=VERTEX_POINT('',#1278);
#347=VERTEX_POINT('',#1279);
#348=VERTEX_POINT('',#1281);
#349=VERTEX_POINT('',#1283);
#350=VERTEX_POINT('',#1286);
#351=VERTEX_POINT('',#1287);
#352=VERTEX_POINT('',#1289);
#353=VERTEX_POINT('',#1291);
#354=VERTEX_POINT('',#1295);
#355=VERTEX_POINT('',#1296);
#356=VERTEX_POINT('',#1298);
#357=VERTEX_POINT('',#1300);
#358=VERTEX_POINT('',#1303);
#359=VERTEX_POINT('',#1304);
#360=VERTEX_POINT('',#1306);
#361=VERTEX_POINT('',#1308);
#362=VERTEX_POINT('',#1312);
#363=VERTEX_POINT('',#1314);
#364=VERTEX_POINT('',#1321);
#365=VERTEX_POINT('',#1323);
#366=VERTEX_POINT('',#1327);
#367=VERTEX_POINT('',#1329);
#368=VERTEX_POINT('',#1333);
#369=VERTEX_POINT('',#1335);
#370=VERTEX_POINT('',#1352);
#371=VERTEX_POINT('',#1354);
#372=VERTEX_POINT('',#1359);
#373=VERTEX_POINT('',#1361);
#374=VERTEX_POINT('',#1366);
#375=VERTEX_POINT('',#1368);
#376=VERTEX_POINT('',#1373);
#377=VERTEX_POINT('',#1375);
#378=VERTEX_POINT('',#1380);
#379=VERTEX_POINT('',#1382);
#380=VERTEX_POINT('',#1387);
#381=VERTEX_POINT('',#1389);
#382=VERTEX_POINT('',#1394);
#383=VERTEX_POINT('',#1396);
#384=VERTEX_POINT('',#1401);
#385=VERTEX_POINT('',#1403);
#386=VERTEX_POINT('',#1408);
#387=VERTEX_POINT('',#1410);
#388=VERTEX_POINT('',#1415);
#389=VERTEX_POINT('',#1417);
#390=VERTEX_POINT('',#1422);
#391=VERTEX_POINT('',#1424);
#392=VERTEX_POINT('',#1429);
#393=VERTEX_POINT('',#1431);
#394=VERTEX_POINT('',#1436);
#395=VERTEX_POINT('',#1438);
#396=VERTEX_POINT('',#1443);
#397=VERTEX_POINT('',#1445);
#398=VERTEX_POINT('',#1450);
#399=VERTEX_POINT('',#1452);
#400=VERTEX_POINT('',#1457);
#401=VERTEX_POINT('',#1459);
#402=VERTEX_POINT('',#1464);
#403=VERTEX_POINT('',#1466);
#404=VERTEX_POINT('',#1471);
#405=VERTEX_POINT('',#1473);
#406=VERTEX_POINT('',#1478);
#407=VERTEX_POINT('',#1480);
#408=VERTEX_POINT('',#1485);
#409=VERTEX_POINT('',#1487);
#410=VERTEX_POINT('',#1492);
#411=VERTEX_POINT('',#1494);
#412=VERTEX_POINT('',#1499);
#413=VERTEX_POINT('',#1501);
#414=LINE('',#1277,#446);
#415=LINE('',#1280,#447);
#416=LINE('',#1282,#448);
#417=LINE('',#1284,#449);
#418=LINE('',#1288,#450);
#419=LINE('',#1292,#451);
#420=LINE('',#1294,#452);
#421=LINE('',#1297,#453);
#422=LINE('',#1299,#454);
#423=LINE('',#1301,#455);
#424=LINE('',#1305,#456);
#425=LINE('',#1309,#457);
#426=LINE('',#1311,#458);
#427=LINE('',#1313,#459);
#428=LINE('',#1315,#460);
#429=LINE('',#1317,#461);
#430=LINE('',#1318,#462);
#431=LINE('',#1320,#463);
#432=LINE('',#1322,#464);
#433=LINE('',#1324,#465);
#434=LINE('',#1326,#466);
#435=LINE('',#1328,#467);
#436=LINE('',#1330,#468);
#437=LINE('',#1332,#469);
#438=LINE('',#1334,#470);
#439=LINE('',#1336,#471);
#440=LINE('',#1338,#472);
#441=LINE('',#1339,#473);
#442=LINE('',#1343,#474);
#443=LINE('',#1344,#475);
#444=LINE('',#1346,#476);
#445=LINE('',#1348,#477);
#446=VECTOR('',#989,1.);
#447=VECTOR('',#990,1.);
#448=VECTOR('',#991,1.);
#449=VECTOR('',#992,1.);
#450=VECTOR('',#995,1.);
#451=VECTOR('',#998,1.);
#452=VECTOR('',#1001,1.);
#453=VECTOR('',#1002,1.);
#454=VECTOR('',#1003,1.);
#455=VECTOR('',#1004,1.);
#456=VECTOR('',#1007,1.);
#457=VECTOR('',#1010,1.);
#458=VECTOR('',#1013,1.);
#459=VECTOR('',#1014,1.);
#460=VECTOR('',#1015,1.);
#461=VECTOR('',#1018,1.);
#462=VECTOR('',#1019,1.);
#463=VECTOR('',#1022,1.);
#464=VECTOR('',#1023,1.);
#465=VECTOR('',#1024,1.);
#466=VECTOR('',#1027,1.);
#467=VECTOR('',#1028,1.);
#468=VECTOR('',#1029,1.);
#469=VECTOR('',#1032,1.);
#470=VECTOR('',#1033,1.);
#471=VECTOR('',#1034,1.);
#472=VECTOR('',#1037,1.);
#473=VECTOR('',#1038,1.);
#474=VECTOR('',#1045,1.);
#475=VECTOR('',#1046,1.);
#476=VECTOR('',#1049,1.);
#477=VECTOR('',#1052,1.);
#478=EDGE_LOOP('',(#106,#107,#108,#109));
#479=EDGE_LOOP('',(#110,#111,#112,#113));
#480=EDGE_LOOP('',(#114,#115,#116,#117));
#481=EDGE_LOOP('',(#118,#119,#120,#121));
#482=EDGE_LOOP('',(#122,#123,#124,#125));
#483=EDGE_LOOP('',(#126,#127,#128,#129));
#484=EDGE_LOOP('',(#130,#131,#132,#133));
#485=EDGE_LOOP('',(#134,#135,#136,#137));
#486=EDGE_LOOP('',(#138,#139,#140,#141));
#487=EDGE_LOOP('',(#142,#143,#144,#145));
#488=EDGE_LOOP('',(#146,#147,#148,#149,#150,#151,#152,#153));
#489=EDGE_LOOP('',(#154,#155,#156,#157,#158,#159,#160,#161));
#490=EDGE_LOOP('',(#162,#163,#164,#165));
#491=EDGE_LOOP('',(#166,#167,#168,#169));
#492=EDGE_LOOP('',(#170,#171,#172,#173));
#493=EDGE_LOOP('',(#174,#175,#176,#177));
#494=EDGE_LOOP('',(#178));
#495=EDGE_LOOP('',(#179));
#496=EDGE_LOOP('',(#180));
#497=EDGE_LOOP('',(#181));
#498=EDGE_LOOP('',(#182));
#499=EDGE_LOOP('',(#183));
#500=EDGE_LOOP('',(#184));
#501=EDGE_LOOP('',(#185));
#502=EDGE_LOOP('',(#186));
#503=EDGE_LOOP('',(#187));
#504=EDGE_LOOP('',(#188));
#505=EDGE_LOOP('',(#189));
#506=EDGE_LOOP('',(#190));
#507=EDGE_LOOP('',(#191));
#508=EDGE_LOOP('',(#192));
#509=EDGE_LOOP('',(#193));
#510=EDGE_LOOP('',(#194));
#511=EDGE_LOOP('',(#195));
#512=EDGE_LOOP('',(#196));
#513=EDGE_LOOP('',(#197));
#514=EDGE_LOOP('',(#198));
#515=EDGE_LOOP('',(#199));
#516=EDGE_LOOP('',(#200));
#517=EDGE_LOOP('',(#201));
#518=EDGE_LOOP('',(#202));
#519=EDGE_LOOP('',(#203));
#520=EDGE_LOOP('',(#204));
#521=EDGE_LOOP('',(#205));
#522=EDGE_LOOP('',(#206));
#523=EDGE_LOOP('',(#207));
#524=EDGE_LOOP('',(#208));
#525=EDGE_LOOP('',(#209));
#526=EDGE_LOOP('',(#210));
#527=EDGE_LOOP('',(#211));
#528=EDGE_LOOP('',(#212));
#529=EDGE_LOOP('',(#213));
#530=EDGE_LOOP('',(#214));
#531=EDGE_LOOP('',(#215));
#532=EDGE_LOOP('',(#216));
#533=EDGE_LOOP('',(#217));
#534=EDGE_LOOP('',(#218));
#535=EDGE_LOOP('',(#219));
#536=EDGE_LOOP('',(#220));
#537=EDGE_LOOP('',(#221));
#538=EDGE_LOOP('',(#222));
#539=EDGE_LOOP('',(#223));
#540=EDGE_LOOP('',(#224));
#541=EDGE_LOOP('',(#225));
#542=EDGE_LOOP('',(#226));
#543=EDGE_LOOP('',(#227));
#544=EDGE_LOOP('',(#228));
#545=EDGE_LOOP('',(#229));
#546=EDGE_LOOP('',(#230));
#547=EDGE_LOOP('',(#231));
#548=EDGE_LOOP('',(#232));
#549=EDGE_LOOP('',(#233));
#550=EDGE_LOOP('',(#234));
#551=EDGE_LOOP('',(#235));
#552=EDGE_LOOP('',(#236));
#553=EDGE_LOOP('',(#237));
#554=EDGE_LOOP('',(#238));
#555=EDGE_LOOP('',(#239));
#556=EDGE_LOOP('',(#240));
#557=EDGE_LOOP('',(#241));
#558=EDGE_LOOP('',(#242));
#559=EDGE_LOOP('',(#243));
#560=EDGE_LOOP('',(#244));
#561=EDGE_LOOP('',(#245));
#562=EDGE_LOOP('',(#246));
#563=EDGE_LOOP('',(#247));
#564=EDGE_LOOP('',(#248));
#565=EDGE_LOOP('',(#249));
#566=EDGE_LOOP('',(#250));
#567=EDGE_LOOP('',(#251));
#568=EDGE_LOOP('',(#252));
#569=EDGE_LOOP('',(#253));
#570=EDGE_LOOP('',(#254));
#571=EDGE_LOOP('',(#255));
#572=EDGE_LOOP('',(#256));
#573=EDGE_LOOP('',(#257));
#574=EDGE_LOOP('',(#258));
#575=EDGE_LOOP('',(#259));
#576=EDGE_LOOP('',(#260));
#577=EDGE_LOOP('',(#261));
#578=EDGE_LOOP('',(#262));
#579=EDGE_LOOP('',(#263));
#580=EDGE_LOOP('',(#264));
#581=EDGE_LOOP('',(#265));
#582=FACE_BOUND('',#478,.T.);
#583=FACE_BOUND('',#479,.T.);
#584=FACE_BOUND('',#480,.T.);
#585=FACE_BOUND('',#481,.T.);
#586=FACE_BOUND('',#482,.T.);
#587=FACE_BOUND('',#483,.T.);
#588=FACE_BOUND('',#484,.T.);
#589=FACE_BOUND('',#485,.T.);
#590=FACE_BOUND('',#486,.T.);
#591=FACE_BOUND('',#487,.T.);
#592=FACE_BOUND('',#488,.T.);
#593=FACE_BOUND('',#489,.T.);
#594=FACE_BOUND('',#490,.T.);
#595=FACE_BOUND('',#491,.T.);
#596=FACE_BOUND('',#492,.T.);
#597=FACE_BOUND('',#493,.T.);
#598=FACE_BOUND('',#494,.T.);
#599=FACE_BOUND('',#495,.T.);
#600=FACE_BOUND('',#496,.T.);
#601=FACE_BOUND('',#497,.T.);
#602=FACE_BOUND('',#498,.T.);
#603=FACE_BOUND('',#499,.T.);
#604=FACE_BOUND('',#500,.T.);
#605=FACE_BOUND('',#501,.T.);
#606=FACE_BOUND('',#502,.T.);
#607=FACE_BOUND('',#503,.T.);
#608=FACE_BOUND('',#504,.T.);
#609=FACE_BOUND('',#505,.T.);
#610=FACE_BOUND('',#506,.T.);
#611=FACE_BOUND('',#507,.T.);
#612=FACE_BOUND('',#508,.T.);
#613=FACE_BOUND('',#509,.T.);
#614=FACE_BOUND('',#510,.T.);
#615=FACE_BOUND('',#511,.T.);
#616=FACE_BOUND('',#512,.T.);
#617=FACE_BOUND('',#513,.T.);
#618=FACE_BOUND('',#514,.T.);
#619=FACE_BOUND('',#515,.T.);
#620=FACE_BOUND('',#516,.T.);
#621=FACE_BOUND('',#517,.T.);
#622=FACE_BOUND('',#518,.T.);
#623=FACE_BOUND('',#519,.T.);
#624=FACE_BOUND('',#520,.T.);
#625=FACE_BOUND('',#521,.T.);
#626=FACE_BOUND('',#522,.T.);
#627=FACE_BOUND('',#523,.T.);
#628=FACE_BOUND('',#524,.T.);
#629=FACE_BOUND('',#525,.T.);
#630=FACE_BOUND('',#526,.T.);
#631=FACE_BOUND('',#527,.T.);
#632=FACE_BOUND('',#528,.T.);
#633=FACE_BOUND('',#529,.T.);
#634=FACE_BOUND('',#530,.T.);
#635=FACE_BOUND('',#531,.T.);
#636=FACE_BOUND('',#532,.T.);
#637=FACE_BOUND('',#533,.T.);
#638=FACE_BOUND('',#534,.T.);
#639=FACE_BOUND('',#535,.T.);
#640=FACE_BOUND('',#536,.T.);
#641=FACE_BOUND('',#537,.T.);
#642=FACE_BOUND('',#538,.T.);
#643=FACE_BOUND('',#539,.T.);
#644=FACE_BOUND('',#540,.T.);
#645=FACE_BOUND('',#541,.T.);
#646=FACE_BOUND('',#542,.T.);
#647=FACE_BOUND('',#543,.T.);
#648=FACE_BOUND('',#544,.T.);
#649=FACE_BOUND('',#545,.T.);
#650=FACE_BOUND('',#546,.T.);
#651=FACE_BOUND('',#547,.T.);
#652=FACE_BOUND('',#548,.T.);
#653=FACE_BOUND('',#549,.T.);
#654=FACE_BOUND('',#550,.T.);
#655=FACE_BOUND('',#551,.T.);
#656=FACE_BOUND('',#552,.T.);
#657=FACE_BOUND('',#553,.T.);
#658=FACE_BOUND('',#554,.T.);
#659=FACE_BOUND('',#555,.T.);
#660=FACE_BOUND('',#556,.T.);
#661=FACE_BOUND('',#557,.T.);
#662=FACE_BOUND('',#558,.T.);
#663=FACE_BOUND('',#559,.T.);
#664=FACE_BOUND('',#560,.T.);
#665=FACE_BOUND('',#561,.T.);
#666=FACE_BOUND('',#562,.T.);
#667=FACE_BOUND('',#563,.T.);
#668=FACE_BOUND('',#564,.T.);
#669=FACE_BOUND('',#565,.T.);
#670=FACE_BOUND('',#566,.T.);
#671=FACE_BOUND('',#567,.T.);
#672=FACE_BOUND('',#568,.T.);
#673=FACE_BOUND('',#569,.T.);
#674=FACE_BOUND('',#570,.T.);
#675=FACE_BOUND('',#571,.T.);
#676=FACE_BOUND('',#572,.T.);
#677=FACE_BOUND('',#573,.T.);
#678=FACE_BOUND('',#574,.T.);
#679=FACE_BOUND('',#575,.T.);
#680=FACE_BOUND('',#576,.T.);
#681=FACE_BOUND('',#577,.T.);
#682=FACE_BOUND('',#578,.T.);
#683=FACE_BOUND('',#579,.T.);
#684=FACE_BOUND('',#580,.T.);
#685=FACE_BOUND('',#581,.T.);
#686=PLANE('',#857);
#687=PLANE('',#860);
#688=PLANE('',#863);
#689=PLANE('',#864);
#690=PLANE('',#865);
#691=PLANE('',#866);
#692=PLANE('',#867);
#693=PLANE('',#868);
#694=PLANE('',#869);
#695=PLANE('',#870);
#696=PLANE('',#871);
#697=PLANE('',#873);
#698=PLANE('',#878);
#699=PLANE('',#879);
#700=PLANE('',#883);
#701=PLANE('',#884);
#702=PLANE('',#888);
#703=PLANE('',#889);
#704=PLANE('',#893);
#705=PLANE('',#894);
#706=PLANE('',#898);
#707=PLANE('',#899);
#708=PLANE('',#903);
#709=PLANE('',#904);
#710=PLANE('',#908);
#711=PLANE('',#909);
#712=PLANE('',#913);
#713=PLANE('',#914);
#714=PLANE('',#918);
#715=PLANE('',#919);
#716=PLANE('',#923);
#717=PLANE('',#924);
#718=PLANE('',#928);
#719=PLANE('',#929);
#720=PLANE('',#933);
#721=PLANE('',#934);
#722=PLANE('',#938);
#723=PLANE('',#939);
#724=PLANE('',#943);
#725=PLANE('',#944);
#726=PLANE('',#948);
#727=PLANE('',#949);
#728=PLANE('',#953);
#729=PLANE('',#954);
#730=PLANE('',#958);
#731=PLANE('',#959);
#732=PLANE('',#963);
#733=PLANE('',#964);
#734=PLANE('',#968);
#735=PLANE('',#969);
#736=PLANE('',#973);
#737=PLANE('',#974);
#738=PLANE('',#978);
#739=PLANE('',#979);
#740=PLANE('',#983);
#741=PLANE('',#984);
#742=ADVANCED_FACE('',(#582,#583),#686,.T.);
#743=ADVANCED_FACE('',(#584,#585),#687,.T.);
#744=ADVANCED_FACE('',(#586),#688,.T.);
#745=ADVANCED_FACE('',(#587),#689,.T.);
#746=ADVANCED_FACE('',(#588),#690,.T.);
#747=ADVANCED_FACE('',(#589),#691,.T.);
#748=ADVANCED_FACE('',(#590),#692,.T.);
#749=ADVANCED_FACE('',(#591),#693,.T.);
#750=ADVANCED_FACE('',(#592),#694,.T.);
#751=ADVANCED_FACE('',(#593),#695,.F.);
#752=ADVANCED_FACE('',(#594),#696,.T.);
#753=ADVANCED_FACE('',(#595),#34,.F.);
#754=ADVANCED_FACE('',(#596),#697,.T.);
#755=ADVANCED_FACE('',(#597),#35,.F.);
#756=ADVANCED_FACE('',(#598,#599),#36,.F.);
#757=ADVANCED_FACE('',(#600),#698,.T.);
#758=ADVANCED_FACE('',(#601),#699,.F.);
#759=ADVANCED_FACE('',(#602,#603),#37,.F.);
#760=ADVANCED_FACE('',(#604),#700,.T.);
#761=ADVANCED_FACE('',(#605),#701,.F.);
#762=ADVANCED_FACE('',(#606,#607),#38,.F.);
#763=ADVANCED_FACE('',(#608),#702,.T.);
#764=ADVANCED_FACE('',(#609),#703,.F.);
#765=ADVANCED_FACE('',(#610,#611),#39,.F.);
#766=ADVANCED_FACE('',(#612),#704,.T.);
#767=ADVANCED_FACE('',(#613),#705,.F.);
#768=ADVANCED_FACE('',(#614,#615),#40,.F.);
#769=ADVANCED_FACE('',(#616),#706,.T.);
#770=ADVANCED_FACE('',(#617),#707,.F.);
#771=ADVANCED_FACE('',(#618,#619),#41,.F.);
#772=ADVANCED_FACE('',(#620),#708,.T.);
#773=ADVANCED_FACE('',(#621),#709,.F.);
#774=ADVANCED_FACE('',(#622,#623),#42,.F.);
#775=ADVANCED_FACE('',(#624),#710,.T.);
#776=ADVANCED_FACE('',(#625),#711,.F.);
#777=ADVANCED_FACE('',(#626,#627),#43,.F.);
#778=ADVANCED_FACE('',(#628),#712,.T.);
#779=ADVANCED_FACE('',(#629),#713,.F.);
#780=ADVANCED_FACE('',(#630,#631),#44,.F.);
#781=ADVANCED_FACE('',(#632),#714,.T.);
#782=ADVANCED_FACE('',(#633),#715,.F.);
#783=ADVANCED_FACE('',(#634,#635),#45,.F.);
#784=ADVANCED_FACE('',(#636),#716,.T.);
#785=ADVANCED_FACE('',(#637),#717,.F.);
#786=ADVANCED_FACE('',(#638,#639),#46,.F.);
#787=ADVANCED_FACE('',(#640),#718,.T.);
#788=ADVANCED_FACE('',(#641),#719,.F.);
#789=ADVANCED_FACE('',(#642,#643),#47,.F.);
#790=ADVANCED_FACE('',(#644),#720,.T.);
#791=ADVANCED_FACE('',(#645),#721,.F.);
#792=ADVANCED_FACE('',(#646,#647),#48,.F.);
#793=ADVANCED_FACE('',(#648),#722,.T.);
#794=ADVANCED_FACE('',(#649),#723,.F.);
#795=ADVANCED_FACE('',(#650,#651),#49,.F.);
#796=ADVANCED_FACE('',(#652),#724,.T.);
#797=ADVANCED_FACE('',(#653),#725,.F.);
#798=ADVANCED_FACE('',(#654,#655),#50,.F.);
#799=ADVANCED_FACE('',(#656),#726,.T.);
#800=ADVANCED_FACE('',(#657),#727,.F.);
#801=ADVANCED_FACE('',(#658,#659),#51,.F.);
#802=ADVANCED_FACE('',(#660),#728,.T.);
#803=ADVANCED_FACE('',(#661),#729,.F.);
#804=ADVANCED_FACE('',(#662,#663),#52,.F.);
#805=ADVANCED_FACE('',(#664),#730,.T.);
#806=ADVANCED_FACE('',(#665),#731,.F.);
#807=ADVANCED_FACE('',(#666,#667),#53,.F.);
#808=ADVANCED_FACE('',(#668),#732,.T.);
#809=ADVANCED_FACE('',(#669),#733,.F.);
#810=ADVANCED_FACE('',(#670,#671),#54,.F.);
#811=ADVANCED_FACE('',(#672),#734,.T.);
#812=ADVANCED_FACE('',(#673),#735,.F.);
#813=ADVANCED_FACE('',(#674,#675),#55,.F.);
#814=ADVANCED_FACE('',(#676),#736,.T.);
#815=ADVANCED_FACE('',(#677),#737,.F.);
#816=ADVANCED_FACE('',(#678,#679),#56,.F.);
#817=ADVANCED_FACE('',(#680),#738,.T.);
#818=ADVANCED_FACE('',(#681),#739,.F.);
#819=ADVANCED_FACE('',(#682,#683),#57,.F.);
#820=ADVANCED_FACE('',(#684),#740,.T.);
#821=ADVANCED_FACE('',(#685),#741,.F.);
#822=CLOSED_SHELL('',(#742,#743,#744,#745,#746,#747,#748,#749,#750,#751,
#752,#753,#754,#755));
#823=CLOSED_SHELL('',(#756,#757,#758));
#824=CLOSED_SHELL('',(#759,#760,#761));
#825=CLOSED_SHELL('',(#762,#763,#764));
#826=CLOSED_SHELL('',(#765,#766,#767));
#827=CLOSED_SHELL('',(#768,#769,#770));
#828=CLOSED_SHELL('',(#771,#772,#773));
#829=CLOSED_SHELL('',(#774,#775,#776));
#830=CLOSED_SHELL('',(#777,#778,#779));
#831=CLOSED_SHELL('',(#780,#781,#782));
#832=CLOSED_SHELL('',(#783,#784,#785));
#833=CLOSED_SHELL('',(#786,#787,#788));
#834=CLOSED_SHELL('',(#789,#790,#791));
#835=CLOSED_SHELL('',(#792,#793,#794));
#836=CLOSED_SHELL('',(#795,#796,#797));
#837=CLOSED_SHELL('',(#798,#799,#800));
#838=CLOSED_SHELL('',(#801,#802,#803));
#839=CLOSED_SHELL('',(#804,#805,#806));
#840=CLOSED_SHELL('',(#807,#808,#809));
#841=CLOSED_SHELL('',(#810,#811,#812));
#842=CLOSED_SHELL('',(#813,#814,#815));
#843=CLOSED_SHELL('',(#816,#817,#818));
#844=CLOSED_SHELL('',(#819,#820,#821));
#845=STYLED_ITEM('',(#846),#853);
#846=PRESENTATION_STYLE_ASSIGNMENT((#847));
#847=SURFACE_STYLE_USAGE(.BOTH.,#848);
#848=SURFACE_SIDE_STYLE('',(#849));
#849=SURFACE_STYLE_FILL_AREA(#850);
#850=FILL_AREA_STYLE('',(#851));
#851=FILL_AREA_STYLE_COLOUR('',#852);
#852=COLOUR_RGB('',0.615686274509804,0.811764705882353,0.929411764705882);
#853=BREP_WITH_VOIDS('Part 1',#822,(#12,#13,#14,#15,#16,#17,#18,#19,#20,
#21,#22,#23,#24,#25,#26,#27,#28,#29,#30,#31,#32,#33));
#854=SHAPE_DEFINITION_REPRESENTATION(#1510,#855);
#855=SHAPE_REPRESENTATION('Part 1',(#856),#1505);
#856=AXIS2_PLACEMENT_3D('',#1275,#985,#986);
#857=AXIS2_PLACEMENT_3D('',#1276,#987,#988);
#858=AXIS2_PLACEMENT_3D('',#1285,#993,#994);
#859=AXIS2_PLACEMENT_3D('',#1290,#996,#997);
#860=AXIS2_PLACEMENT_3D('',#1293,#999,#1000);
#861=AXIS2_PLACEMENT_3D('',#1302,#1005,#1006);
#862=AXIS2_PLACEMENT_3D('',#1307,#1008,#1009);
#863=AXIS2_PLACEMENT_3D('',#1310,#1011,#1012);
#864=AXIS2_PLACEMENT_3D('',#1316,#1016,#1017);
#865=AXIS2_PLACEMENT_3D('',#1319,#1020,#1021);
#866=AXIS2_PLACEMENT_3D('',#1325,#1025,#1026);
#867=AXIS2_PLACEMENT_3D('',#1331,#1030,#1031);
#868=AXIS2_PLACEMENT_3D('',#1337,#1035,#1036);
#869=AXIS2_PLACEMENT_3D('',#1340,#1039,#1040);
#870=AXIS2_PLACEMENT_3D('',#1341,#1041,#1042);
#871=AXIS2_PLACEMENT_3D('',#1342,#1043,#1044);
#872=AXIS2_PLACEMENT_3D('',#1345,#1047,#1048);
#873=AXIS2_PLACEMENT_3D('',#1347,#1050,#1051);
#874=AXIS2_PLACEMENT_3D('',#1349,#1053,#1054);
#875=AXIS2_PLACEMENT_3D('',#1350,#1055,#1056);
#876=AXIS2_PLACEMENT_3D('',#1351,#1057,#1058);
#877=AXIS2_PLACEMENT_3D('',#1353,#1059,#1060);
#878=AXIS2_PLACEMENT_3D('',#1355,#1061,#1062);
#879=AXIS2_PLACEMENT_3D('',#1356,#1063,#1064);
#880=AXIS2_PLACEMENT_3D('',#1357,#1065,#1066);
#881=AXIS2_PLACEMENT_3D('',#1358,#1067,#1068);
#882=AXIS2_PLACEMENT_3D('',#1360,#1069,#1070);
#883=AXIS2_PLACEMENT_3D('',#1362,#1071,#1072);
#884=AXIS2_PLACEMENT_3D('',#1363,#1073,#1074);
#885=AXIS2_PLACEMENT_3D('',#1364,#1075,#1076);
#886=AXIS2_PLACEMENT_3D('',#1365,#1077,#1078);
#887=AXIS2_PLACEMENT_3D('',#1367,#1079,#1080);
#888=AXIS2_PLACEMENT_3D('',#1369,#1081,#1082);
#889=AXIS2_PLACEMENT_3D('',#1370,#1083,#1084);
#890=AXIS2_PLACEMENT_3D('',#1371,#1085,#1086);
#891=AXIS2_PLACEMENT_3D('',#1372,#1087,#1088);
#892=AXIS2_PLACEMENT_3D('',#1374,#1089,#1090);
#893=AXIS2_PLACEMENT_3D('',#1376,#1091,#1092);
#894=AXIS2_PLACEMENT_3D('',#1377,#1093,#1094);
#895=AXIS2_PLACEMENT_3D('',#1378,#1095,#1096);
#896=AXIS2_PLACEMENT_3D('',#1379,#1097,#1098);
#897=AXIS2_PLACEMENT_3D('',#1381,#1099,#1100);
#898=AXIS2_PLACEMENT_3D('',#1383,#1101,#1102);
#899=AXIS2_PLACEMENT_3D('',#1384,#1103,#1104);
#900=AXIS2_PLACEMENT_3D('',#1385,#1105,#1106);
#901=AXIS2_PLACEMENT_3D('',#1386,#1107,#1108);
#902=AXIS2_PLACEMENT_3D('',#1388,#1109,#1110);
#903=AXIS2_PLACEMENT_3D('',#1390,#1111,#1112);
#904=AXIS2_PLACEMENT_3D('',#1391,#1113,#1114);
#905=AXIS2_PLACEMENT_3D('',#1392,#1115,#1116);
#906=AXIS2_PLACEMENT_3D('',#1393,#1117,#1118);
#907=AXIS2_PLACEMENT_3D('',#1395,#1119,#1120);
#908=AXIS2_PLACEMENT_3D('',#1397,#1121,#1122);
#909=AXIS2_PLACEMENT_3D('',#1398,#1123,#1124);
#910=AXIS2_PLACEMENT_3D('',#1399,#1125,#1126);
#911=AXIS2_PLACEMENT_3D('',#1400,#1127,#1128);
#912=AXIS2_PLACEMENT_3D('',#1402,#1129,#1130);
#913=AXIS2_PLACEMENT_3D('',#1404,#1131,#1132);
#914=AXIS2_PLACEMENT_3D('',#1405,#1133,#1134);
#915=AXIS2_PLACEMENT_3D('',#1406,#1135,#1136);
#916=AXIS2_PLACEMENT_3D('',#1407,#1137,#1138);
#917=AXIS2_PLACEMENT_3D('',#1409,#1139,#1140);
#918=AXIS2_PLACEMENT_3D('',#1411,#1141,#1142);
#919=AXIS2_PLACEMENT_3D('',#1412,#1143,#1144);
#920=AXIS2_PLACEMENT_3D('',#1413,#1145,#1146);
#921=AXIS2_PLACEMENT_3D('',#1414,#1147,#1148);
#922=AXIS2_PLACEMENT_3D('',#1416,#1149,#1150);
#923=AXIS2_PLACEMENT_3D('',#1418,#1151,#1152);
#924=AXIS2_PLACEMENT_3D('',#1419,#1153,#1154);
#925=AXIS2_PLACEMENT_3D('',#1420,#1155,#1156);
#926=AXIS2_PLACEMENT_3D('',#1421,#1157,#1158);
#927=AXIS2_PLACEMENT_3D('',#1423,#1159,#1160);
#928=AXIS2_PLACEMENT_3D('',#1425,#1161,#1162);
#929=AXIS2_PLACEMENT_3D('',#1426,#1163,#1164);
#930=AXIS2_PLACEMENT_3D('',#1427,#1165,#1166);
#931=AXIS2_PLACEMENT_3D('',#1428,#1167,#1168);
#932=AXIS2_PLACEMENT_3D('',#1430,#1169,#1170);
#933=AXIS2_PLACEMENT_3D('',#1432,#1171,#1172);
#934=AXIS2_PLACEMENT_3D('',#1433,#1173,#1174);
#935=AXIS2_PLACEMENT_3D('',#1434,#1175,#1176);
#936=AXIS2_PLACEMENT_3D('',#1435,#1177,#1178);
#937=AXIS2_PLACEMENT_3D('',#1437,#1179,#1180);
#938=AXIS2_PLACEMENT_3D('',#1439,#1181,#1182);
#939=AXIS2_PLACEMENT_3D('',#1440,#1183,#1184);
#940=AXIS2_PLACEMENT_3D('',#1441,#1185,#1186);
#941=AXIS2_PLACEMENT_3D('',#1442,#1187,#1188);
#942=AXIS2_PLACEMENT_3D('',#1444,#1189,#1190);
#943=AXIS2_PLACEMENT_3D('',#1446,#1191,#1192);
#944=AXIS2_PLACEMENT_3D('',#1447,#1193,#1194);
#945=AXIS2_PLACEMENT_3D('',#1448,#1195,#1196);
#946=AXIS2_PLACEMENT_3D('',#1449,#1197,#1198);
#947=AXIS2_PLACEMENT_3D('',#1451,#1199,#1200);
#948=AXIS2_PLACEMENT_3D('',#1453,#1201,#1202);
#949=AXIS2_PLACEMENT_3D('',#1454,#1203,#1204);
#950=AXIS2_PLACEMENT_3D('',#1455,#1205,#1206);
#951=AXIS2_PLACEMENT_3D('',#1456,#1207,#1208);
#952=AXIS2_PLACEMENT_3D('',#1458,#1209,#1210);
#953=AXIS2_PLACEMENT_3D('',#1460,#1211,#1212);
#954=AXIS2_PLACEMENT_3D('',#1461,#1213,#1214);
#955=AXIS2_PLACEMENT_3D('',#1462,#1215,#1216);
#956=AXIS2_PLACEMENT_3D('',#1463,#1217,#1218);
#957=AXIS2_PLACEMENT_3D('',#1465,#1219,#1220);
#958=AXIS2_PLACEMENT_3D('',#1467,#1221,#1222);
#959=AXIS2_PLACEMENT_3D('',#1468,#1223,#1224);
#960=AXIS2_PLACEMENT_3D('',#1469,#1225,#1226);
#961=AXIS2_PLACEMENT_3D('',#1470,#1227,#1228);
#962=AXIS2_PLACEMENT_3D('',#1472,#1229,#1230);
#963=AXIS2_PLACEMENT_3D('',#1474,#1231,#1232);
#964=AXIS2_PLACEMENT_3D('',#1475,#1233,#1234);
#965=AXIS2_PLACEMENT_3D('',#1476,#1235,#1236);
#966=AXIS2_PLACEMENT_3D('',#1477,#1237,#1238);
#967=AXIS2_PLACEMENT_3D('',#1479,#1239,#1240);
#968=AXIS2_PLACEMENT_3D('',#1481,#1241,#1242);
#969=AXIS2_PLACEMENT_3D('',#1482,#1243,#1244);
#970=AXIS2_PLACEMENT_3D('',#1483,#1245,#1246);
#971=AXIS2_PLACEMENT_3D('',#1484,#1247,#1248);
#972=AXIS2_PLACEMENT_3D('',#1486,#1249,#1250);
#973=AXIS2_PLACEMENT_3D('',#1488,#1251,#1252);
#974=AXIS2_PLACEMENT_3D('',#1489,#1253,#1254);
#975=AXIS2_PLACEMENT_3D('',#1490,#1255,#1256);
#976=AXIS2_PLACEMENT_3D('',#1491,#1257,#1258);
#977=AXIS2_PLACEMENT_3D('',#1493,#1259,#1260);
#978=AXIS2_PLACEMENT_3D('',#1495,#1261,#1262);
#979=AXIS2_PLACEMENT_3D('',#1496,#1263,#1264);
#980=AXIS2_PLACEMENT_3D('',#1497,#1265,#1266);
#981=AXIS2_PLACEMENT_3D('',#1498,#1267,#1268);
#982=AXIS2_PLACEMENT_3D('',#1500,#1269,#1270);
#983=AXIS2_PLACEMENT_3D('',#1502,#1271,#1272);
#984=AXIS2_PLACEMENT_3D('',#1503,#1273,#1274);
#985=DIRECTION('',(0.,0.,1.));
#986=DIRECTION('',(1.,0.,0.));
#987=DIRECTION('',(1.,3.04811282539024E-17,0.));
#988=DIRECTION('',(-3.04811282539024E-17,1.,0.));
#989=DIRECTION('',(3.04811282539024E-17,-1.,0.));
#990=DIRECTION('',(0.,0.,-1.));
#991=DIRECTION('',(3.04811282539024E-17,-1.,0.));
#992=DIRECTION('',(0.,0.,-1.));
#993=DIRECTION('',(1.,3.04811282539024E-17,0.));
#994=DIRECTION('',(-3.04811282539024E-17,1.,0.));
#995=DIRECTION('',(-3.04811282539024E-17,1.,-1.7347234759768E-16));
#996=DIRECTION('',(1.,3.04811282539024E-17,0.));
#997=DIRECTION('',(-3.04811282539024E-17,1.,0.));
#998=DIRECTION('',(3.04811282539024E-17,-1.,1.3010426069826E-16));
#999=DIRECTION('',(-1.,0.,0.));
#1000=DIRECTION('',(0.,0.,1.));
#1001=DIRECTION('',(0.,1.,0.));
#1002=DIRECTION('',(0.,0.,-1.));
#1003=DIRECTION('',(0.,1.,0.));
#1004=DIRECTION('',(0.,0.,-1.));
#1005=DIRECTION('',(-1.,0.,0.));
#1006=DIRECTION('',(0.,0.,1.));
#1007=DIRECTION('',(0.,-1.,1.7347234759768E-16));
#1008=DIRECTION('',(-1.,0.,0.));
#1009=DIRECTION('',(0.,0.,1.));
#1010=DIRECTION('',(0.,1.,-1.3010426069826E-16));
#1011=DIRECTION('',(0.,1.,0.));
#1012=DIRECTION('',(0.,0.,1.));
#1013=DIRECTION('',(1.,0.,0.));
#1014=DIRECTION('',(1.,0.,0.));
#1015=DIRECTION('',(0.,0.,-1.));
#1016=DIRECTION('',(0.,1.,0.));
#1017=DIRECTION('',(0.,0.,1.));
#1018=DIRECTION('',(1.,0.,0.));
#1019=DIRECTION('',(1.,0.,0.));
#1020=DIRECTION('',(1.23908819712629E-16,-1.,0.));
#1021=DIRECTION('',(1.,1.23908819712629E-16,0.));
#1022=DIRECTION('',(-1.,-1.23908819712629E-16,0.));
#1023=DIRECTION('',(0.,0.,-1.));
#1024=DIRECTION('',(-1.,-1.23908819712629E-16,0.));
#1025=DIRECTION('',(1.,0.,0.));
#1026=DIRECTION('',(0.,0.,-1.));
#1027=DIRECTION('',(0.,-1.,0.));
#1028=DIRECTION('',(0.,0.,-1.));
#1029=DIRECTION('',(0.,-1.,0.));
#1030=DIRECTION('',(0.,1.,0.));
#1031=DIRECTION('',(0.,0.,1.));
#1032=DIRECTION('',(1.,0.,0.));
#1033=DIRECTION('',(0.,0.,-1.));
#1034=DIRECTION('',(1.,0.,0.));
#1035=DIRECTION('',(-1.,0.,0.));
#1036=DIRECTION('',(0.,0.,1.));
#1037=DIRECTION('',(0.,1.,0.));
#1038=DIRECTION('',(0.,1.,0.));
#1039=DIRECTION('',(0.,0.,1.));
#1040=DIRECTION('',(1.,0.,0.));
#1041=DIRECTION('',(0.,0.,1.));
#1042=DIRECTION('',(1.,0.,0.));
#1043=DIRECTION('',(0.,-1.7347234759768E-16,-1.));
#1044=DIRECTION('',(0.,1.,-1.7347234759768E-16));
#1045=DIRECTION('',(-1.,0.,0.));
#1046=DIRECTION('',(-1.,0.,0.));
#1047=DIRECTION('',(-1.,0.,0.));
#1048=DIRECTION('',(0.,0.,1.));
#1049=DIRECTION('',(-1.,0.,0.));
#1050=DIRECTION('',(0.,1.3010426069826E-16,1.));
#1051=DIRECTION('',(0.,-1.,1.3010426069826E-16));
#1052=DIRECTION('',(-1.,0.,0.));
#1053=DIRECTION('',(-1.,0.,0.));
#1054=DIRECTION('',(0.,0.,1.));
#1055=DIRECTION('',(0.,0.,-1.));
#1056=DIRECTION('',(-1.,0.,0.));
#1057=DIRECTION('',(0.,0.,-1.));
#1058=DIRECTION('',(-1.,0.,0.));
#1059=DIRECTION('',(0.,0.,-1.));
#1060=DIRECTION('',(-1.,0.,0.));
#1061=DIRECTION('',(0.,0.,-1.));
#1062=DIRECTION('',(1.,0.,0.));
#1063=DIRECTION('',(0.,0.,-1.));
#1064=DIRECTION('',(1.,0.,0.));
#1065=DIRECTION('',(0.,0.,-1.));
#1066=DIRECTION('',(-1.,0.,0.));
#1067=DIRECTION('',(0.,0.,-1.));
#1068=DIRECTION('',(-1.,0.,0.));
#1069=DIRECTION('',(0.,0.,-1.));
#1070=DIRECTION('',(-1.,0.,0.));
#1071=DIRECTION('',(0.,0.,-1.));
#1072=DIRECTION('',(1.,0.,0.));
#1073=DIRECTION('',(0.,0.,-1.));
#1074=DIRECTION('',(1.,0.,0.));
#1075=DIRECTION('',(0.,0.,-1.));
#1076=DIRECTION('',(-1.,0.,0.));
#1077=DIRECTION('',(0.,0.,-1.));
#1078=DIRECTION('',(-1.,0.,0.));
#1079=DIRECTION('',(0.,0.,-1.));
#1080=DIRECTION('',(-1.,0.,0.));
#1081=DIRECTION('',(0.,0.,-1.));
#1082=DIRECTION('',(1.,0.,0.));
#1083=DIRECTION('',(0.,0.,-1.));
#1084=DIRECTION('',(1.,0.,0.));
#1085=DIRECTION('',(0.,0.,-1.));
#1086=DIRECTION('',(-1.,0.,0.));
#1087=DIRECTION('',(0.,0.,-1.));
#1088=DIRECTION('',(-1.,0.,0.));
#1089=DIRECTION('',(0.,0.,-1.));
#1090=DIRECTION('',(-1.,0.,0.));
#1091=DIRECTION('',(0.,0.,-1.));
#1092=DIRECTION('',(1.,0.,0.));
#1093=DIRECTION('',(0.,0.,-1.));
#1094=DIRECTION('',(1.,0.,0.));
#1095=DIRECTION('',(0.,0.,-1.));
#1096=DIRECTION('',(-1.,0.,0.));
#1097=DIRECTION('',(0.,0.,-1.));
#1098=DIRECTION('',(-1.,0.,0.));
#1099=DIRECTION('',(0.,0.,-1.));
#1100=DIRECTION('',(-1.,0.,0.));
#1101=DIRECTION('',(0.,0.,-1.));
#1102=DIRECTION('',(1.,0.,0.));
#1103=DIRECTION('',(0.,0.,-1.));
#1104=DIRECTION('',(1.,0.,0.));
#1105=DIRECTION('',(0.,0.,-1.));
#1106=DIRECTION('',(-1.,0.,0.));
#1107=DIRECTION('',(0.,0.,-1.));
#1108=DIRECTION('',(-1.,0.,0.));
#1109=DIRECTION('',(0.,0.,-1.));
#1110=DIRECTION('',(-1.,0.,0.));
#1111=DIRECTION('',(0.,0.,-1.));
#1112=DIRECTION('',(1.,0.,0.));
#1113=DIRECTION('',(0.,0.,-1.));
#1114=DIRECTION('',(1.,0.,0.));
#1115=DIRECTION('',(0.,0.,-1.));
#1116=DIRECTION('',(-1.,0.,0.));
#1117=DIRECTION('',(0.,0.,-1.));
#1118=DIRECTION('',(-1.,0.,0.));
#1119=DIRECTION('',(0.,0.,-1.));
#1120=DIRECTION('',(-1.,0.,0.));
#1121=DIRECTION('',(0.,0.,-1.));
#1122=DIRECTION('',(1.,0.,0.));
#1123=DIRECTION('',(0.,0.,-1.));
#1124=DIRECTION('',(1.,0.,0.));
#1125=DIRECTION('',(0.,0.,-1.));
#1126=DIRECTION('',(-1.,0.,0.));
#1127=DIRECTION('',(0.,0.,-1.));
#1128=DIRECTION('',(-1.,0.,0.));
#1129=DIRECTION('',(0.,0.,-1.));
#1130=DIRECTION('',(-1.,0.,0.));
#1131=DIRECTION('',(0.,0.,-1.));
#1132=DIRECTION('',(1.,0.,0.));
#1133=DIRECTION('',(0.,0.,-1.));
#1134=DIRECTION('',(1.,0.,0.));
#1135=DIRECTION('',(0.,0.,-1.));
#1136=DIRECTION('',(-1.,0.,0.));
#1137=DIRECTION('',(0.,0.,-1.));
#1138=DIRECTION('',(-1.,0.,0.));
#1139=DIRECTION('',(0.,0.,-1.));
#1140=DIRECTION('',(-1.,0.,0.));
#1141=DIRECTION('',(0.,0.,-1.));
#1142=DIRECTION('',(1.,0.,0.));
#1143=DIRECTION('',(0.,0.,-1.));
#1144=DIRECTION('',(1.,0.,0.));
#1145=DIRECTION('',(0.,0.,-1.));
#1146=DIRECTION('',(-1.,0.,0.));
#1147=DIRECTION('',(0.,0.,-1.));
#1148=DIRECTION('',(-1.,0.,0.));
#1149=DIRECTION('',(0.,0.,-1.));
#1150=DIRECTION('',(-1.,0.,0.));
#1151=DIRECTION('',(0.,0.,-1.));
#1152=DIRECTION('',(1.,0.,0.));
#1153=DIRECTION('',(0.,0.,-1.));
#1154=DIRECTION('',(1.,0.,0.));
#1155=DIRECTION('',(0.,0.,-1.));
#1156=DIRECTION('',(-1.,0.,0.));
#1157=DIRECTION('',(0.,0.,-1.));
#1158=DIRECTION('',(-1.,0.,0.));
#1159=DIRECTION('',(0.,0.,-1.));
#1160=DIRECTION('',(-1.,0.,0.));
#1161=DIRECTION('',(0.,0.,-1.));
#1162=DIRECTION('',(1.,0.,0.));
#1163=DIRECTION('',(0.,0.,-1.));
#1164=DIRECTION('',(1.,0.,0.));
#1165=DIRECTION('',(0.,0.,-1.));
#1166=DIRECTION('',(-1.,0.,0.));
#1167=DIRECTION('',(0.,0.,-1.));
#1168=DIRECTION('',(-1.,0.,0.));
#1169=DIRECTION('',(0.,0.,-1.));
#1170=DIRECTION('',(-1.,0.,0.));
#1171=DIRECTION('',(0.,0.,-1.));
#1172=DIRECTION('',(1.,0.,0.));
#1173=DIRECTION('',(0.,0.,-1.));
#1174=DIRECTION('',(1.,0.,0.));
#1175=DIRECTION('',(0.,0.,-1.));
#1176=DIRECTION('',(-1.,0.,0.));
#1177=DIRECTION('',(0.,0.,-1.));
#1178=DIRECTION('',(-1.,0.,0.));
#1179=DIRECTION('',(0.,0.,-1.));
#1180=DIRECTION('',(-1.,0.,0.));
#1181=DIRECTION('',(0.,0.,-1.));
#1182=DIRECTION('',(1.,0.,0.));
#1183=DIRECTION('',(0.,0.,-1.));
#1184=DIRECTION('',(1.,0.,0.));
#1185=DIRECTION('',(0.,0.,-1.));
#1186=DIRECTION('',(-1.,0.,0.));
#1187=DIRECTION('',(0.,0.,-1.));
#1188=DIRECTION('',(-1.,0.,0.));
#1189=DIRECTION('',(0.,0.,-1.));
#1190=DIRECTION('',(-1.,0.,0.));
#1191=DIRECTION('',(0.,0.,-1.));
#1192=DIRECTION('',(1.,0.,0.));
#1193=DIRECTION('',(0.,0.,-1.));
#1194=DIRECTION('',(1.,0.,0.));
#1195=DIRECTION('',(0.,0.,-1.));
#1196=DIRECTION('',(-1.,0.,0.));
#1197=DIRECTION('',(0.,0.,-1.));
#1198=DIRECTION('',(-1.,0.,0.));
#1199=DIRECTION('',(0.,0.,-1.));
#1200=DIRECTION('',(-1.,0.,0.));
#1201=DIRECTION('',(0.,0.,-1.));
#1202=DIRECTION('',(1.,0.,0.));
#1203=DIRECTION('',(0.,0.,-1.));
#1204=DIRECTION('',(1.,0.,0.));
#1205=DIRECTION('',(0.,0.,-1.));
#1206=DIRECTION('',(-1.,0.,0.));
#1207=DIRECTION('',(0.,0.,-1.));
#1208=DIRECTION('',(-1.,0.,0.));
#1209=DIRECTION('',(0.,0.,-1.));
#1210=DIRECTION('',(-1.,0.,0.));
#1211=DIRECTION('',(0.,0.,-1.));
#1212=DIRECTION('',(1.,0.,0.));
#1213=DIRECTION('',(0.,0.,-1.));
#1214=DIRECTION('',(1.,0.,0.));
#1215=DIRECTION('',(0.,0.,-1.));
#1216=DIRECTION('',(-1.,0.,0.));
#1217=DIRECTION('',(0.,0.,-1.));
#1218=DIRECTION('',(-1.,0.,0.));
#1219=DIRECTION('',(0.,0.,-1.));
#1220=DIRECTION('',(-1.,0.,0.));
#1221=DIRECTION('',(0.,0.,-1.));
#1222=DIRECTION('',(1.,0.,0.));
#1223=DIRECTION('',(0.,0.,-1.));
#1224=DIRECTION('',(1.,0.,0.));
#1225=DIRECTION('',(0.,0.,-1.));
#1226=DIRECTION('',(-1.,0.,0.));
#1227=DIRECTION('',(0.,0.,-1.));
#1228=DIRECTION('',(-1.,0.,0.));
#1229=DIRECTION('',(0.,0.,-1.));
#1230=DIRECTION('',(-1.,0.,0.));
#1231=DIRECTION('',(0.,0.,-1.));
#1232=DIRECTION('',(1.,0.,0.));
#1233=DIRECTION('',(0.,0.,-1.));
#1234=DIRECTION('',(1.,0.,0.));
#1235=DIRECTION('',(0.,0.,-1.));
#1236=DIRECTION('',(-1.,0.,0.));
#1237=DIRECTION('',(0.,0.,-1.));
#1238=DIRECTION('',(-1.,0.,0.));
#1239=DIRECTION('',(0.,0.,-1.));
#1240=DIRECTION('',(-1.,0.,0.));
#1241=DIRECTION('',(0.,0.,-1.));
#1242=DIRECTION('',(1.,0.,0.));
#1243=DIRECTION('',(0.,0.,-1.));
#1244=DIRECTION('',(1.,0.,0.));
#1245=DIRECTION('',(0.,0.,-1.));
#1246=DIRECTION('',(-1.,0.,0.));
#1247=DIRECTION('',(0.,0.,-1.));
#1248=DIRECTION('',(-1.,0.,0.));
#1249=DIRECTION('',(0.,0.,-1.));
#1250=DIRECTION('',(-1.,0.,0.));
#1251=DIRECTION('',(0.,0.,-1.));
#1252=DIRECTION('',(1.,0.,0.));
#1253=DIRECTION('',(0.,0.,-1.));
#1254=DIRECTION('',(1.,0.,0.));
#1255=DIRECTION('',(0.,0.,-1.));
#1256=DIRECTION('',(-1.,0.,0.));
#1257=DIRECTION('',(0.,0.,-1.));
#1258=DIRECTION('',(-1.,0.,0.));
#1259=DIRECTION('',(0.,0.,-1.));
#1260=DIRECTION('',(-1.,0.,0.));
#1261=DIRECTION('',(0.,0.,-1.));
#1262=DIRECTION('',(1.,0.,0.));
#1263=DIRECTION('',(0.,0.,-1.));
#1264=DIRECTION('',(1.,0.,0.));
#1265=DIRECTION('',(0.,0.,-1.));
#1266=DIRECTION('',(-1.,0.,0.));
#1267=DIRECTION('',(0.,0.,-1.));
#1268=DIRECTION('',(-1.,0.,0.));
#1269=DIRECTION('',(0.,0.,-1.));
#1270=DIRECTION('',(-1.,0.,0.));
#1271=DIRECTION('',(0.,0.,-1.));
#1272=DIRECTION('',(1.,0.,0.));
#1273=DIRECTION('',(0.,0.,-1.));
#1274=DIRECTION('',(1.,0.,0.));
#1275=CARTESIAN_POINT('',(0.,0.,0.));
#1276=CARTESIAN_POINT('',(-1.17352343777524E-18,0.0385,0.015));
#1277=CARTESIAN_POINT('',(-1.17352343777524E-18,0.0385,0.));
#1278=CARTESIAN_POINT('',(-2.34704687555049E-18,0.077,0.));
#1279=CARTESIAN_POINT('',(5.77778983316171E-34,-1.38777878078145E-17,0.));
#1280=CARTESIAN_POINT('',(-2.34704687555049E-18,0.077,0.015));
#1281=CARTESIAN_POINT('',(-2.34704687555049E-18,0.077,0.015));
#1282=CARTESIAN_POINT('',(-1.17352343777524E-18,0.0385,0.015));
#1283=CARTESIAN_POINT('',(5.77778983316171E-34,-1.38777878078145E-17,0.015));
#1284=CARTESIAN_POINT('',(5.77778983316171E-34,-1.38777878078145E-17,0.015));
#1285=CARTESIAN_POINT('',(0.,0.051,0.0075));
#1286=CARTESIAN_POINT('',(0.,0.051,0.01025));
#1287=CARTESIAN_POINT('',(0.,0.051,0.00475));
#1288=CARTESIAN_POINT('',(-1.17352343777524E-18,0.0385,0.01025));
#1289=CARTESIAN_POINT('',(0.,0.071,0.01025));
#1290=CARTESIAN_POINT('',(0.,0.071,0.0075));
#1291=CARTESIAN_POINT('',(-3.46944695195361E-18,0.071,0.00475));
#1292=CARTESIAN_POINT('',(-1.17352343777524E-18,0.0385,0.00475));
#1293=CARTESIAN_POINT('',(-0.002,0.0385,0.015));
#1294=CARTESIAN_POINT('',(-0.002,0.0385,0.));
#1295=CARTESIAN_POINT('',(-0.002,-0.002,0.));
#1296=CARTESIAN_POINT('',(-0.002,0.077,0.));
#1297=CARTESIAN_POINT('',(-0.002,-0.002,0.015));
#1298=CARTESIAN_POINT('',(-0.002,-0.002,0.015));
#1299=CARTESIAN_POINT('',(-0.002,0.0385,0.015));
#1300=CARTESIAN_POINT('',(-0.002,0.077,0.015));
#1301=CARTESIAN_POINT('',(-0.002,0.077,0.015));
#1302=CARTESIAN_POINT('',(-0.002,0.071,0.0075));
#1303=CARTESIAN_POINT('',(-0.002,0.071,0.01025));
#1304=CARTESIAN_POINT('',(-0.002,0.071,0.00475));
#1305=CARTESIAN_POINT('',(-0.002,0.061,0.01025));
#1306=CARTESIAN_POINT('',(-0.002,0.051,0.01025));
#1307=CARTESIAN_POINT('',(-0.002,0.051,0.0075));
#1308=CARTESIAN_POINT('',(-0.002,0.051,0.00475));
#1309=CARTESIAN_POINT('',(-0.002,0.061,0.00475));
#1310=CARTESIAN_POINT('',(0.01375,0.,0.015));
#1311=CARTESIAN_POINT('',(0.01375,0.,0.));
#1312=CARTESIAN_POINT('',(0.0275,0.,0.));
#1313=CARTESIAN_POINT('',(0.01375,0.,0.015));
#1314=CARTESIAN_POINT('',(0.0275,0.,0.015));
#1315=CARTESIAN_POINT('',(0.0275,0.,0.015));
#1316=CARTESIAN_POINT('',(-0.001,0.077,0.015));
#1317=CARTESIAN_POINT('',(-0.001,0.077,0.));
#1318=CARTESIAN_POINT('',(-0.001,0.077,0.015));
#1319=CARTESIAN_POINT('',(0.01375,-0.002,0.015));
#1320=CARTESIAN_POINT('',(0.01375,-0.002,0.));
#1321=CARTESIAN_POINT('',(0.0295,-0.002,0.));
#1322=CARTESIAN_POINT('',(0.0295,-0.002,0.015));
#1323=CARTESIAN_POINT('',(0.0295,-0.002,0.015));
#1324=CARTESIAN_POINT('',(0.01375,-0.002,0.015));
#1325=CARTESIAN_POINT('',(0.0295,0.005,0.015));
#1326=CARTESIAN_POINT('',(0.0295,0.005,0.));
#1327=CARTESIAN_POINT('',(0.0295,0.012,0.));
#1328=CARTESIAN_POINT('',(0.0295,0.012,0.015));
#1329=CARTESIAN_POINT('',(0.0295,0.012,0.015));
#1330=CARTESIAN_POINT('',(0.0295,0.005,0.015));
#1331=CARTESIAN_POINT('',(0.0285,0.012,0.015));
#1332=CARTESIAN_POINT('',(0.0285,0.012,0.));
#1333=CARTESIAN_POINT('',(0.0275,0.012,0.));
#1334=CARTESIAN_POINT('',(0.0275,0.012,0.015));
#1335=CARTESIAN_POINT('',(0.0275,0.012,0.015));
#1336=CARTESIAN_POINT('',(0.0285,0.012,0.015));
#1337=CARTESIAN_POINT('',(0.0275,0.006,0.015));
#1338=CARTESIAN_POINT('',(0.0275,0.006,0.));
#1339=CARTESIAN_POINT('',(0.0275,0.006,0.015));
#1340=CARTESIAN_POINT('',(0.01375,0.0375,0.015));
#1341=CARTESIAN_POINT('',(0.01375,0.0375,0.));
#1342=CARTESIAN_POINT('',(0.023,0.061,0.01025));
#1343=CARTESIAN_POINT('',(0.023,0.051,0.01025));
#1344=CARTESIAN_POINT('',(0.023,0.071,0.01025));
#1345=CARTESIAN_POINT('',(0.023,0.071,0.0075));
#1346=CARTESIAN_POINT('',(0.023,0.071,0.00475));
#1347=CARTESIAN_POINT('',(0.023,0.061,0.00475));
#1348=CARTESIAN_POINT('',(0.023,0.051,0.00475));
#1349=CARTESIAN_POINT('',(0.023,0.051,0.0075));
#1350=CARTESIAN_POINT('',(-0.001,0.00492463448891983,0.014));
#1351=CARTESIAN_POINT('',(-0.001,0.00492463448891983,0.014));
#1352=CARTESIAN_POINT('',(-0.0013,0.00492463448891983,0.014));
#1353=CARTESIAN_POINT('',(-0.001,0.00492463448891983,0.001));
#1354=CARTESIAN_POINT('',(-0.0013,0.00492463448891983,0.001));
#1355=CARTESIAN_POINT('',(0.01375,0.0375,0.014));
#1356=CARTESIAN_POINT('',(0.01375,0.0375,0.001));
#1357=CARTESIAN_POINT('',(-0.001,0.00402463448891983,0.014));
#1358=CARTESIAN_POINT('',(-0.001,0.00402463448891983,0.014));
#1359=CARTESIAN_POINT('',(-0.0013,0.00402463448891983,0.014));
#1360=CARTESIAN_POINT('',(-0.001,0.00402463448891983,0.001));
#1361=CARTESIAN_POINT('',(-0.0013,0.00402463448891983,0.001));
#1362=CARTESIAN_POINT('',(0.01375,0.0375,0.014));
#1363=CARTESIAN_POINT('',(0.01375,0.0375,0.001));
#1364=CARTESIAN_POINT('',(-0.001,0.00312463448891983,0.014));
#1365=CARTESIAN_POINT('',(-0.001,0.00312463448891983,0.014));
#1366=CARTESIAN_POINT('',(-0.0013,0.00312463448891983,0.014));
#1367=CARTESIAN_POINT('',(-0.001,0.00312463448891983,0.001));
#1368=CARTESIAN_POINT('',(-0.0013,0.00312463448891983,0.001));
#1369=CARTESIAN_POINT('',(0.01375,0.0375,0.014));
#1370=CARTESIAN_POINT('',(0.01375,0.0375,0.001));
#1371=CARTESIAN_POINT('',(-0.001,0.00222463448891982,0.014));
#1372=CARTESIAN_POINT('',(-0.001,0.00222463448891982,0.014));
#1373=CARTESIAN_POINT('',(-0.0013,0.00222463448891982,0.014));
#1374=CARTESIAN_POINT('',(-0.001,0.00222463448891982,0.001));
#1375=CARTESIAN_POINT('',(-0.0013,0.00222463448891982,0.001));
#1376=CARTESIAN_POINT('',(0.01375,0.0375,0.014));
#1377=CARTESIAN_POINT('',(0.01375,0.0375,0.001));
#1378=CARTESIAN_POINT('',(0.00682981190159911,-0.001,0.014));
#1379=CARTESIAN_POINT('',(0.00682981190159911,-0.001,0.014));
#1380=CARTESIAN_POINT('',(0.00652981190159911,-0.001,0.014));
#1381=CARTESIAN_POINT('',(0.00682981190159911,-0.001,0.001));
#1382=CARTESIAN_POINT('',(0.00652981190159911,-0.001,0.001));
#1383=CARTESIAN_POINT('',(0.01375,0.0375,0.014));
#1384=CARTESIAN_POINT('',(0.01375,0.0375,0.001));
#1385=CARTESIAN_POINT('',(0.00772981190159911,-0.001,0.014));
#1386=CARTESIAN_POINT('',(0.00772981190159911,-0.001,0.014));
#1387=CARTESIAN_POINT('',(0.00742981190159911,-0.001,0.014));
#1388=CARTESIAN_POINT('',(0.00772981190159911,-0.001,0.001));
#1389=CARTESIAN_POINT('',(0.00742981190159911,-0.001,0.001));
#1390=CARTESIAN_POINT('',(0.01375,0.0375,0.014));
#1391=CARTESIAN_POINT('',(0.01375,0.0375,0.001));
#1392=CARTESIAN_POINT('',(0.00862981190159911,-0.001,0.014));
#1393=CARTESIAN_POINT('',(0.00862981190159911,-0.001,0.014));
#1394=CARTESIAN_POINT('',(0.00832981190159911,-0.001,0.014));
#1395=CARTESIAN_POINT('',(0.00862981190159911,-0.001,0.001));
#1396=CARTESIAN_POINT('',(0.00832981190159911,-0.001,0.001));
#1397=CARTESIAN_POINT('',(0.01375,0.0375,0.014));
#1398=CARTESIAN_POINT('',(0.01375,0.0375,0.001));
#1399=CARTESIAN_POINT('',(-0.001,0.00132463448891983,0.014));
#1400=CARTESIAN_POINT('',(-0.001,0.00132463448891983,0.014));
#1401=CARTESIAN_POINT('',(-0.0013,0.00132463448891983,0.014));
#1402=CARTESIAN_POINT('',(-0.001,0.00132463448891983,0.001));
#1403=CARTESIAN_POINT('',(-0.0013,0.00132463448891983,0.001));
#1404=CARTESIAN_POINT('',(0.01375,0.0375,0.014));
#1405=CARTESIAN_POINT('',(0.01375,0.0375,0.001));
#1406=CARTESIAN_POINT('',(0.00592981190159911,-0.001,0.014));
#1407=CARTESIAN_POINT('',(0.00592981190159911,-0.001,0.014));
#1408=CARTESIAN_POINT('',(0.00562981190159911,-0.001,0.014));
#1409=CARTESIAN_POINT('',(0.00592981190159911,-0.001,0.001));
#1410=CARTESIAN_POINT('',(0.00562981190159911,-0.001,0.001));
#1411=CARTESIAN_POINT('',(0.01375,0.0375,0.014));
#1412=CARTESIAN_POINT('',(0.01375,0.0375,0.001));
#1413=CARTESIAN_POINT('',(0.00502981190159911,-0.001,0.014));
#1414=CARTESIAN_POINT('',(0.00502981190159911,-0.001,0.014));
#1415=CARTESIAN_POINT('',(0.00472981190159911,-0.001,0.014));
#1416=CARTESIAN_POINT('',(0.00502981190159911,-0.001,0.001));
#1417=CARTESIAN_POINT('',(0.00472981190159911,-0.001,0.001));
#1418=CARTESIAN_POINT('',(0.01375,0.0375,0.014));
#1419=CARTESIAN_POINT('',(0.01375,0.0375,0.001));
#1420=CARTESIAN_POINT('',(0.0041298119015991,-0.001,0.014));
#1421=CARTESIAN_POINT('',(0.0041298119015991,-0.001,0.014));
#1422=CARTESIAN_POINT('',(0.00382981190159911,-0.001,0.014));
#1423=CARTESIAN_POINT('',(0.0041298119015991,-0.001,0.001));
#1424=CARTESIAN_POINT('',(0.00382981190159911,-0.001,0.001));
#1425=CARTESIAN_POINT('',(0.01375,0.0375,0.014));
#1426=CARTESIAN_POINT('',(0.01375,0.0375,0.001));
#1427=CARTESIAN_POINT('',(0.0032298119015991,-0.001,0.014));
#1428=CARTESIAN_POINT('',(0.0032298119015991,-0.001,0.014));
#1429=CARTESIAN_POINT('',(0.0029298119015991,-0.001,0.014));
#1430=CARTESIAN_POINT('',(0.0032298119015991,-0.001,0.001));
#1431=CARTESIAN_POINT('',(0.0029298119015991,-0.001,0.001));
#1432=CARTESIAN_POINT('',(0.01375,0.0375,0.014));
#1433=CARTESIAN_POINT('',(0.01375,0.0375,0.001));
#1434=CARTESIAN_POINT('',(0.00232981190159911,-0.001,0.014));
#1435=CARTESIAN_POINT('',(0.00232981190159911,-0.001,0.014));
#1436=CARTESIAN_POINT('',(0.00202981190159911,-0.001,0.014));
#1437=CARTESIAN_POINT('',(0.00232981190159911,-0.001,0.001));
#1438=CARTESIAN_POINT('',(0.00202981190159911,-0.001,0.001));
#1439=CARTESIAN_POINT('',(0.01375,0.0375,0.014));
#1440=CARTESIAN_POINT('',(0.01375,0.0375,0.001));
#1441=CARTESIAN_POINT('',(0.0014298119015991,-0.001,0.014));
#1442=CARTESIAN_POINT('',(0.0014298119015991,-0.001,0.014));
#1443=CARTESIAN_POINT('',(0.0011298119015991,-0.001,0.014));
#1444=CARTESIAN_POINT('',(0.0014298119015991,-0.001,0.001));
#1445=CARTESIAN_POINT('',(0.0011298119015991,-0.001,0.001));
#1446=CARTESIAN_POINT('',(0.01375,0.0375,0.014));
#1447=CARTESIAN_POINT('',(0.01375,0.0375,0.001));
#1448=CARTESIAN_POINT('',(0.000529811901599105,-0.001,0.014));
#1449=CARTESIAN_POINT('',(0.000529811901599105,-0.001,0.014));
#1450=CARTESIAN_POINT('',(0.000229811901599105,-0.001,0.014));
#1451=CARTESIAN_POINT('',(0.000529811901599105,-0.001,0.001));
#1452=CARTESIAN_POINT('',(0.000229811901599105,-0.001,0.001));
#1453=CARTESIAN_POINT('',(0.01375,0.0375,0.014));
#1454=CARTESIAN_POINT('',(0.01375,0.0375,0.001));
#1455=CARTESIAN_POINT('',(-0.001,0.000424634488919827,0.014));
#1456=CARTESIAN_POINT('',(-0.001,0.000424634488919827,0.014));
#1457=CARTESIAN_POINT('',(-0.0013,0.000424634488919827,0.014));
#1458=CARTESIAN_POINT('',(-0.001,0.000424634488919827,0.001));
#1459=CARTESIAN_POINT('',(-0.0013,0.000424634488919827,0.001));
#1460=CARTESIAN_POINT('',(0.01375,0.0375,0.014));
#1461=CARTESIAN_POINT('',(0.01375,0.0375,0.001));
#1462=CARTESIAN_POINT('',(-0.001,0.00582463448891983,0.014));
#1463=CARTESIAN_POINT('',(-0.001,0.00582463448891983,0.014));
#1464=CARTESIAN_POINT('',(-0.0013,0.00582463448891983,0.014));
#1465=CARTESIAN_POINT('',(-0.001,0.00582463448891983,0.001));
#1466=CARTESIAN_POINT('',(-0.0013,0.00582463448891983,0.001));
#1467=CARTESIAN_POINT('',(0.01375,0.0375,0.014));
#1468=CARTESIAN_POINT('',(0.01375,0.0375,0.001));
#1469=CARTESIAN_POINT('',(-0.001,0.00672463448891983,0.014));
#1470=CARTESIAN_POINT('',(-0.001,0.00672463448891983,0.014));
#1471=CARTESIAN_POINT('',(-0.0013,0.00672463448891983,0.014));
#1472=CARTESIAN_POINT('',(-0.001,0.00672463448891983,0.001));
#1473=CARTESIAN_POINT('',(-0.0013,0.00672463448891983,0.001));
#1474=CARTESIAN_POINT('',(0.01375,0.0375,0.014));
#1475=CARTESIAN_POINT('',(0.01375,0.0375,0.001));
#1476=CARTESIAN_POINT('',(-0.001,0.00762463448891983,0.014));
#1477=CARTESIAN_POINT('',(-0.001,0.00762463448891983,0.014));
#1478=CARTESIAN_POINT('',(-0.0013,0.00762463448891983,0.014));
#1479=CARTESIAN_POINT('',(-0.001,0.00762463448891983,0.001));
#1480=CARTESIAN_POINT('',(-0.0013,0.00762463448891983,0.001));
#1481=CARTESIAN_POINT('',(0.01375,0.0375,0.014));
#1482=CARTESIAN_POINT('',(0.01375,0.0375,0.001));
#1483=CARTESIAN_POINT('',(-0.001,0.00852463448891983,0.014));
#1484=CARTESIAN_POINT('',(-0.001,0.00852463448891983,0.014));
#1485=CARTESIAN_POINT('',(-0.0013,0.00852463448891983,0.014));
#1486=CARTESIAN_POINT('',(-0.001,0.00852463448891983,0.001));
#1487=CARTESIAN_POINT('',(-0.0013,0.00852463448891983,0.001));
#1488=CARTESIAN_POINT('',(0.01375,0.0375,0.014));
#1489=CARTESIAN_POINT('',(0.01375,0.0375,0.001));
#1490=CARTESIAN_POINT('',(-0.001,-0.001,0.014));
#1491=CARTESIAN_POINT('',(-0.001,-0.001,0.014));
#1492=CARTESIAN_POINT('',(-0.0013,-0.001,0.014));
#1493=CARTESIAN_POINT('',(-0.001,-0.001,0.001));
#1494=CARTESIAN_POINT('',(-0.0013,-0.001,0.001));
#1495=CARTESIAN_POINT('',(0.01375,0.0375,0.014));
#1496=CARTESIAN_POINT('',(0.01375,0.0375,0.001));
#1497=CARTESIAN_POINT('',(-0.000509613630129019,-0.00050961363012903,0.014));
#1498=CARTESIAN_POINT('',(-0.000509613630129019,-0.00050961363012903,0.014));
#1499=CARTESIAN_POINT('',(-0.000809613630129019,-0.00050961363012903,0.014));
#1500=CARTESIAN_POINT('',(-0.000509613630129019,-0.00050961363012903,0.001));
#1501=CARTESIAN_POINT('',(-0.000809613630129019,-0.00050961363012903,0.001));
#1502=CARTESIAN_POINT('',(0.01375,0.0375,0.014));
#1503=CARTESIAN_POINT('',(0.01375,0.0375,0.001));
#1504=MECHANICAL_DESIGN_GEOMETRIC_PRESENTATION_REPRESENTATION('',(#845),
#1505);
#1505=(
GEOMETRIC_REPRESENTATION_CONTEXT(3)
GLOBAL_UNCERTAINTY_ASSIGNED_CONTEXT((#1506))
GLOBAL_UNIT_ASSIGNED_CONTEXT((#1509,#1508,#1507))
REPRESENTATION_CONTEXT('Part 1','TOP_LEVEL_ASSEMBLY_PART')
);
#1506=UNCERTAINTY_MEASURE_WITH_UNIT(LENGTH_MEASURE(1.E-8),#1509,
'DISTANCE_ACCURACY_VALUE','Maximum Tolerance applied to model');
#1507=(
NAMED_UNIT(*)
SI_UNIT($,.STERADIAN.)
SOLID_ANGLE_UNIT()
);
#1508=(
NAMED_UNIT(*)
PLANE_ANGLE_UNIT()
SI_UNIT($,.RADIAN.)
);
#1509=(
LENGTH_UNIT()
NAMED_UNIT(*)
SI_UNIT($,.METRE.)
);
#1510=PRODUCT_DEFINITION_SHAPE('','',#1511);
#1511=PRODUCT_DEFINITION('','',#1513,#1512);
#1512=PRODUCT_DEFINITION_CONTEXT('',#1519,'design');
#1513=PRODUCT_DEFINITION_FORMATION_WITH_SPECIFIED_SOURCE('','',#1515,
 .NOT_KNOWN.);
#1514=PRODUCT_RELATED_PRODUCT_CATEGORY('','',(#1515));
#1515=PRODUCT('Part 1','Part 1','Part 1',(#1517));
#1516=PRODUCT_CATEGORY('','');
#1517=PRODUCT_CONTEXT('',#1519,'mechanical');
#1518=APPLICATION_PROTOCOL_DEFINITION('international standard',
'ap242_managed_model_based_3d_engineering',2020,#1519);
#1519=APPLICATION_CONTEXT('managed model based 3d engineering');
ENDSEC;
END-ISO-10303-21;
