ISO-10303-21;
HEADER;
/* Generated by software containing ST-Developer
 * from STEP Tools, Inc. (www.steptools.com) 
 */
/* OPTION: using custom renumber hook */

FILE_DESCRIPTION(
/* description */ ('STEP AP242 Edition 2',
'CAx-IF Rec.Pracs.---Representation and Presentation of Product Manufa
cturing Information (PMI)---4.0---2014-10-13',
'CAx-IF Rec.Pracs.---3D Tessellated Geometry---0.4---2014-09-14','2;1',
'CAx-IF Rec.Pracs.---User Defined Attributes---1.5---2016-08-15'),
/* implementation_level */ '2;1');

FILE_NAME(
/* name */ '69554f4944b2cdb18115f193',
/* time_stamp */ '2025-12-31T16:28:57Z',
/* author */ (''),
/* organization */ (''),
/* preprocessor_version */ 'ST-DEVELOPER v20',
/* originating_system */ 'ONSHAPE BY PTC INC, 1.208',
/* authorisation */ '  ');

FILE_SCHEMA (('AP242_MANAGED_MODEL_BASED_3D_ENGINEERING_MIM_LF { 1 0 10303 442 3 1 4 }'));
ENDSEC;

DATA;
#10=SHAPE_REPRESENTATION_RELATIONSHIP('','',#244,#11);
#11=ADVANCED_BREP_SHAPE_REPRESENTATION('',(#242),#403);
#12=CONICAL_SURFACE('',#268,0.00325,0.528074448426359);
#13=CONICAL_SURFACE('',#269,0.00325,0.528074448426359);
#14=PLANE('',#249);
#15=PLANE('',#250);
#16=PLANE('',#251);
#17=PLANE('',#260);
#18=PLANE('',#263);
#19=PLANE('',#264);
#20=PLANE('',#265);
#21=PLANE('',#266);
#22=PLANE('',#267);
#23=CIRCLE('',#247,0.0125);
#24=CIRCLE('',#248,0.0125);
#25=CIRCLE('',#252,0.00325);
#26=CIRCLE('',#253,0.00325);
#27=CIRCLE('',#254,0.0125);
#28=CIRCLE('',#256,0.0125);
#29=CIRCLE('',#257,0.0125);
#30=CIRCLE('',#258,0.0125);
#31=CIRCLE('',#259,0.0125);
#32=CIRCLE('',#261,0.0015);
#33=CIRCLE('',#262,0.0015);
#34=ORIENTED_EDGE('',*,*,#92,.F.);
#35=ORIENTED_EDGE('',*,*,#93,.T.);
#36=ORIENTED_EDGE('',*,*,#94,.T.);
#37=ORIENTED_EDGE('',*,*,#95,.F.);
#38=ORIENTED_EDGE('',*,*,#96,.F.);
#39=ORIENTED_EDGE('',*,*,#97,.T.);
#40=ORIENTED_EDGE('',*,*,#92,.T.);
#41=ORIENTED_EDGE('',*,*,#98,.F.);
#42=ORIENTED_EDGE('',*,*,#94,.F.);
#43=ORIENTED_EDGE('',*,*,#99,.T.);
#44=ORIENTED_EDGE('',*,*,#100,.T.);
#45=ORIENTED_EDGE('',*,*,#101,.F.);
#46=ORIENTED_EDGE('',*,*,#102,.T.);
#47=ORIENTED_EDGE('',*,*,#103,.T.);
#48=ORIENTED_EDGE('',*,*,#95,.T.);
#49=ORIENTED_EDGE('',*,*,#101,.T.);
#50=ORIENTED_EDGE('',*,*,#104,.T.);
#51=ORIENTED_EDGE('',*,*,#98,.T.);
#52=ORIENTED_EDGE('',*,*,#100,.F.);
#53=ORIENTED_EDGE('',*,*,#105,.T.);
#54=ORIENTED_EDGE('',*,*,#106,.T.);
#55=ORIENTED_EDGE('',*,*,#107,.F.);
#56=ORIENTED_EDGE('',*,*,#108,.F.);
#57=ORIENTED_EDGE('',*,*,#109,.T.);
#58=ORIENTED_EDGE('',*,*,#96,.T.);
#59=ORIENTED_EDGE('',*,*,#104,.F.);
#60=ORIENTED_EDGE('',*,*,#110,.T.);
#61=ORIENTED_EDGE('',*,*,#111,.F.);
#62=ORIENTED_EDGE('',*,*,#112,.F.);
#63=ORIENTED_EDGE('',*,*,#110,.F.);
#64=ORIENTED_EDGE('',*,*,#107,.T.);
#65=ORIENTED_EDGE('',*,*,#113,.T.);
#66=ORIENTED_EDGE('',*,*,#114,.T.);
#67=ORIENTED_EDGE('',*,*,#115,.T.);
#68=ORIENTED_EDGE('',*,*,#97,.F.);
#69=ORIENTED_EDGE('',*,*,#109,.F.);
#70=ORIENTED_EDGE('',*,*,#116,.F.);
#71=ORIENTED_EDGE('',*,*,#117,.F.);
#72=ORIENTED_EDGE('',*,*,#118,.F.);
#73=ORIENTED_EDGE('',*,*,#105,.F.);
#74=ORIENTED_EDGE('',*,*,#99,.F.);
#75=ORIENTED_EDGE('',*,*,#93,.F.);
#76=ORIENTED_EDGE('',*,*,#114,.F.);
#77=ORIENTED_EDGE('',*,*,#119,.F.);
#78=ORIENTED_EDGE('',*,*,#117,.T.);
#79=ORIENTED_EDGE('',*,*,#120,.T.);
#80=ORIENTED_EDGE('',*,*,#113,.F.);
#81=ORIENTED_EDGE('',*,*,#106,.F.);
#82=ORIENTED_EDGE('',*,*,#118,.T.);
#83=ORIENTED_EDGE('',*,*,#119,.T.);
#84=ORIENTED_EDGE('',*,*,#115,.F.);
#85=ORIENTED_EDGE('',*,*,#120,.F.);
#86=ORIENTED_EDGE('',*,*,#116,.T.);
#87=ORIENTED_EDGE('',*,*,#108,.T.);
#88=ORIENTED_EDGE('',*,*,#112,.T.);
#89=ORIENTED_EDGE('',*,*,#103,.F.);
#90=ORIENTED_EDGE('',*,*,#111,.T.);
#91=ORIENTED_EDGE('',*,*,#102,.F.);
#92=EDGE_CURVE('',#121,#122,#142,.T.);
#93=EDGE_CURVE('',#121,#123,#23,.T.);
#94=EDGE_CURVE('',#123,#124,#143,.T.);
#95=EDGE_CURVE('',#122,#124,#24,.T.);
#96=EDGE_CURVE('',#125,#126,#144,.T.);
#97=EDGE_CURVE('',#125,#121,#145,.T.);
#98=EDGE_CURVE('',#126,#122,#146,.T.);
#99=EDGE_CURVE('',#123,#127,#147,.T.);
#100=EDGE_CURVE('',#127,#128,#148,.T.);
#101=EDGE_CURVE('',#124,#128,#149,.T.);
#102=EDGE_CURVE('',#129,#129,#25,.F.);
#103=EDGE_CURVE('',#130,#130,#26,.F.);
#104=EDGE_CURVE('',#128,#126,#27,.T.);
#105=EDGE_CURVE('',#127,#131,#28,.T.);
#106=EDGE_CURVE('',#131,#132,#150,.T.);
#107=EDGE_CURVE('',#133,#132,#29,.T.);
#108=EDGE_CURVE('',#134,#133,#151,.T.);
#109=EDGE_CURVE('',#134,#125,#30,.T.);
#110=EDGE_CURVE('',#135,#135,#31,.T.);
#111=EDGE_CURVE('',#136,#136,#32,.F.);
#112=EDGE_CURVE('',#137,#137,#33,.F.);
#113=EDGE_CURVE('',#132,#138,#152,.T.);
#114=EDGE_CURVE('',#138,#139,#153,.T.);
#115=EDGE_CURVE('',#139,#133,#154,.T.);
#116=EDGE_CURVE('',#140,#134,#155,.T.);
#117=EDGE_CURVE('',#141,#140,#156,.T.);
#118=EDGE_CURVE('',#131,#141,#157,.T.);
#119=EDGE_CURVE('',#141,#138,#158,.T.);
#120=EDGE_CURVE('',#140,#139,#159,.T.);
#121=VERTEX_POINT('',#341);
#122=VERTEX_POINT('',#342);
#123=VERTEX_POINT('',#344);
#124=VERTEX_POINT('',#346);
#125=VERTEX_POINT('',#350);
#126=VERTEX_POINT('',#351);
#127=VERTEX_POINT('',#356);
#128=VERTEX_POINT('',#358);
#129=VERTEX_POINT('',#362);
#130=VERTEX_POINT('',#364);
#131=VERTEX_POINT('',#368);
#132=VERTEX_POINT('',#370);
#133=VERTEX_POINT('',#372);
#134=VERTEX_POINT('',#374);
#135=VERTEX_POINT('',#377);
#136=VERTEX_POINT('',#380);
#137=VERTEX_POINT('',#382);
#138=VERTEX_POINT('',#385);
#139=VERTEX_POINT('',#387);
#140=VERTEX_POINT('',#391);
#141=VERTEX_POINT('',#393);
#142=LINE('',#340,#160);
#143=LINE('',#345,#161);
#144=LINE('',#349,#162);
#145=LINE('',#352,#163);
#146=LINE('',#353,#164);
#147=LINE('',#355,#165);
#148=LINE('',#357,#166);
#149=LINE('',#359,#167);
#150=LINE('',#369,#168);
#151=LINE('',#373,#169);
#152=LINE('',#384,#170);
#153=LINE('',#386,#171);
#154=LINE('',#388,#172);
#155=LINE('',#390,#173);
#156=LINE('',#392,#174);
#157=LINE('',#394,#175);
#158=LINE('',#396,#176);
#159=LINE('',#397,#177);
#160=VECTOR('',#274,1.);
#161=VECTOR('',#277,1.);
#162=VECTOR('',#282,1.);
#163=VECTOR('',#283,1.);
#164=VECTOR('',#284,1.);
#165=VECTOR('',#287,1.);
#166=VECTOR('',#288,1.);
#167=VECTOR('',#289,1.);
#168=VECTOR('',#302,1.);
#169=VECTOR('',#305,1.);
#170=VECTOR('',#318,1.);
#171=VECTOR('',#319,1.);
#172=VECTOR('',#320,1.);
#173=VECTOR('',#323,1.);
#174=VECTOR('',#324,1.);
#175=VECTOR('',#325,1.);
#176=VECTOR('',#328,1.);
#177=VECTOR('',#329,1.);
#178=EDGE_LOOP('',(#34,#35,#36,#37));
#179=EDGE_LOOP('',(#38,#39,#40,#41));
#180=EDGE_LOOP('',(#42,#43,#44,#45));
#181=EDGE_LOOP('',(#46));
#182=EDGE_LOOP('',(#47));
#183=EDGE_LOOP('',(#48,#49,#50,#51));
#184=EDGE_LOOP('',(#52,#53,#54,#55,#56,#57,#58,#59));
#185=EDGE_LOOP('',(#60));
#186=EDGE_LOOP('',(#61));
#187=EDGE_LOOP('',(#62));
#188=EDGE_LOOP('',(#63));
#189=EDGE_LOOP('',(#64,#65,#66,#67));
#190=EDGE_LOOP('',(#68,#69,#70,#71,#72,#73,#74,#75));
#191=EDGE_LOOP('',(#76,#77,#78,#79));
#192=EDGE_LOOP('',(#80,#81,#82,#83));
#193=EDGE_LOOP('',(#84,#85,#86,#87));
#194=EDGE_LOOP('',(#88));
#195=EDGE_LOOP('',(#89));
#196=EDGE_LOOP('',(#90));
#197=EDGE_LOOP('',(#91));
#198=FACE_BOUND('',#178,.T.);
#199=FACE_BOUND('',#179,.T.);
#200=FACE_BOUND('',#180,.T.);
#201=FACE_BOUND('',#181,.T.);
#202=FACE_BOUND('',#182,.T.);
#203=FACE_BOUND('',#183,.T.);
#204=FACE_BOUND('',#184,.T.);
#205=FACE_BOUND('',#185,.T.);
#206=FACE_BOUND('',#186,.T.);
#207=FACE_BOUND('',#187,.T.);
#208=FACE_BOUND('',#188,.T.);
#209=FACE_BOUND('',#189,.T.);
#210=FACE_BOUND('',#190,.T.);
#211=FACE_BOUND('',#191,.T.);
#212=FACE_BOUND('',#192,.T.);
#213=FACE_BOUND('',#193,.T.);
#214=FACE_BOUND('',#194,.T.);
#215=FACE_BOUND('',#195,.T.);
#216=FACE_BOUND('',#196,.T.);
#217=FACE_BOUND('',#197,.T.);
#218=CYLINDRICAL_SURFACE('',#246,0.0125);
#219=CYLINDRICAL_SURFACE('',#255,0.0125);
#220=ADVANCED_FACE('',(#198),#218,.F.);
#221=ADVANCED_FACE('',(#199),#14,.T.);
#222=ADVANCED_FACE('',(#200),#15,.T.);
#223=ADVANCED_FACE('',(#201,#202,#203),#16,.T.);
#224=ADVANCED_FACE('',(#204,#205),#219,.T.);
#225=ADVANCED_FACE('',(#206,#207,#208),#17,.F.);
#226=ADVANCED_FACE('',(#209),#18,.T.);
#227=ADVANCED_FACE('',(#210),#19,.F.);
#228=ADVANCED_FACE('',(#211),#20,.T.);
#229=ADVANCED_FACE('',(#212),#21,.T.);
#230=ADVANCED_FACE('',(#213),#22,.T.);
#231=ADVANCED_FACE('',(#214,#215),#12,.F.);
#232=ADVANCED_FACE('',(#216,#217),#13,.F.);
#233=CLOSED_SHELL('',(#220,#221,#222,#223,#224,#225,#226,#227,#228,#229,
#230,#231,#232));
#234=STYLED_ITEM('',(#235),#242);
#235=PRESENTATION_STYLE_ASSIGNMENT((#236));
#236=SURFACE_STYLE_USAGE(.BOTH.,#237);
#237=SURFACE_SIDE_STYLE('',(#238));
#238=SURFACE_STYLE_FILL_AREA(#239);
#239=FILL_AREA_STYLE('',(#240));
#240=FILL_AREA_STYLE_COLOUR('',#241);
#241=COLOUR_RGB('',0.615686274509804,0.811764705882353,0.929411764705882);
#242=MANIFOLD_SOLID_BREP('Part 1',#233);
#243=SHAPE_DEFINITION_REPRESENTATION(#408,#244);
#244=SHAPE_REPRESENTATION('Part 1',(#245),#403);
#245=AXIS2_PLACEMENT_3D('',#338,#270,#271);
#246=AXIS2_PLACEMENT_3D('',#339,#272,#273);
#247=AXIS2_PLACEMENT_3D('',#343,#275,#276);
#248=AXIS2_PLACEMENT_3D('',#347,#278,#279);
#249=AXIS2_PLACEMENT_3D('',#348,#280,#281);
#250=AXIS2_PLACEMENT_3D('',#354,#285,#286);
#251=AXIS2_PLACEMENT_3D('',#360,#290,#291);
#252=AXIS2_PLACEMENT_3D('',#361,#292,#293);
#253=AXIS2_PLACEMENT_3D('',#363,#294,#295);
#254=AXIS2_PLACEMENT_3D('',#365,#296,#297);
#255=AXIS2_PLACEMENT_3D('',#366,#298,#299);
#256=AXIS2_PLACEMENT_3D('',#367,#300,#301);
#257=AXIS2_PLACEMENT_3D('',#371,#303,#304);
#258=AXIS2_PLACEMENT_3D('',#375,#306,#307);
#259=AXIS2_PLACEMENT_3D('',#376,#308,#309);
#260=AXIS2_PLACEMENT_3D('',#378,#310,#311);
#261=AXIS2_PLACEMENT_3D('',#379,#312,#313);
#262=AXIS2_PLACEMENT_3D('',#381,#314,#315);
#263=AXIS2_PLACEMENT_3D('',#383,#316,#317);
#264=AXIS2_PLACEMENT_3D('',#389,#321,#322);
#265=AXIS2_PLACEMENT_3D('',#395,#326,#327);
#266=AXIS2_PLACEMENT_3D('',#398,#330,#331);
#267=AXIS2_PLACEMENT_3D('',#399,#332,#333);
#268=AXIS2_PLACEMENT_3D('',#400,#334,#335);
#269=AXIS2_PLACEMENT_3D('',#401,#336,#337);
#270=DIRECTION('',(0.,0.,1.));
#271=DIRECTION('',(1.,0.,0.));
#272=DIRECTION('',(0.,0.,-1.));
#273=DIRECTION('',(-1.,0.,0.));
#274=DIRECTION('',(0.,0.,-1.));
#275=DIRECTION('',(0.,0.,1.));
#276=DIRECTION('',(1.,0.,0.));
#277=DIRECTION('',(0.,0.,-1.));
#278=DIRECTION('',(0.,0.,1.));
#279=DIRECTION('',(1.,0.,0.));
#280=DIRECTION('',(1.,0.,0.));
#281=DIRECTION('',(0.,0.,-1.));
#282=DIRECTION('',(0.,0.,-1.));
#283=DIRECTION('',(0.,-1.,0.));
#284=DIRECTION('',(0.,-1.,0.));
#285=DIRECTION('',(-1.,0.,0.));
#286=DIRECTION('',(0.,0.,1.));
#287=DIRECTION('',(0.,1.,0.));
#288=DIRECTION('',(0.,0.,-1.));
#289=DIRECTION('',(0.,1.,0.));
#290=DIRECTION('',(0.,0.,1.));
#291=DIRECTION('',(1.,0.,0.));
#292=DIRECTION('',(0.,0.,1.));
#293=DIRECTION('',(1.,0.,0.));
#294=DIRECTION('',(0.,0.,1.));
#295=DIRECTION('',(1.,0.,0.));
#296=DIRECTION('',(0.,0.,1.));
#297=DIRECTION('',(1.,0.,0.));
#298=DIRECTION('',(0.,0.,-1.));
#299=DIRECTION('',(-1.,0.,0.));
#300=DIRECTION('',(0.,0.,1.));
#301=DIRECTION('',(1.,0.,0.));
#302=DIRECTION('',(0.,0.,1.));
#303=DIRECTION('',(0.,0.,1.));
#304=DIRECTION('',(1.,0.,0.));
#305=DIRECTION('',(0.,0.,1.));
#306=DIRECTION('',(0.,0.,1.));
#307=DIRECTION('',(1.,0.,0.));
#308=DIRECTION('',(0.,0.,1.));
#309=DIRECTION('',(1.,0.,0.));
#310=DIRECTION('',(0.,0.,1.));
#311=DIRECTION('',(1.,0.,0.));
#312=DIRECTION('',(0.,0.,1.));
#313=DIRECTION('',(1.,0.,0.));
#314=DIRECTION('',(0.,0.,1.));
#315=DIRECTION('',(1.,0.,0.));
#316=DIRECTION('',(0.,0.,1.));
#317=DIRECTION('',(1.,0.,0.));
#318=DIRECTION('',(0.,-1.,0.));
#319=DIRECTION('',(-1.,-1.31418445149758E-16,0.));
#320=DIRECTION('',(0.,1.,0.));
#321=DIRECTION('',(0.,0.,1.));
#322=DIRECTION('',(1.,0.,0.));
#323=DIRECTION('',(0.,1.,0.));
#324=DIRECTION('',(-1.,-1.31418445149758E-16,0.));
#325=DIRECTION('',(0.,-1.,0.));
#326=DIRECTION('',(-1.31418445149758E-16,1.,0.));
#327=DIRECTION('',(-1.,-1.31418445149758E-16,0.));
#328=DIRECTION('',(0.,0.,1.));
#329=DIRECTION('',(0.,0.,1.));
#330=DIRECTION('',(-1.,0.,0.));
#331=DIRECTION('',(0.,0.,1.));
#332=DIRECTION('',(1.,0.,0.));
#333=DIRECTION('',(0.,0.,-1.));
#334=DIRECTION('',(0.,0.,1.));
#335=DIRECTION('',(1.,0.,0.));
#336=DIRECTION('',(0.,0.,1.));
#337=DIRECTION('',(1.,0.,0.));
#338=CARTESIAN_POINT('',(0.,0.,0.));
#339=CARTESIAN_POINT('',(-8.67361737988404E-19,0.002,0.0062));
#340=CARTESIAN_POINT('',(-0.009,-0.00667467578644874,0.0062));
#341=CARTESIAN_POINT('',(-0.009,-0.00667467578644874,0.006));
#342=CARTESIAN_POINT('',(-0.009,-0.00667467578644874,0.003));
#343=CARTESIAN_POINT('',(-8.67361737988404E-19,0.002,0.006));
#344=CARTESIAN_POINT('',(0.009,-0.00667467578644874,0.006));
#345=CARTESIAN_POINT('',(0.009,-0.00667467578644874,0.0062));
#346=CARTESIAN_POINT('',(0.009,-0.00667467578644874,0.003));
#347=CARTESIAN_POINT('',(-8.67361737988404E-19,0.002,0.003));
#348=CARTESIAN_POINT('',(-0.009,-0.00333733789322437,0.0062));
#349=CARTESIAN_POINT('',(-0.009,0.00867467578644874,0.0062));
#350=CARTESIAN_POINT('',(-0.009,0.00867467578644874,0.006));
#351=CARTESIAN_POINT('',(-0.009,0.00867467578644874,0.003));
#352=CARTESIAN_POINT('',(-0.009,-0.00333733789322437,0.006));
#353=CARTESIAN_POINT('',(-0.009,-0.00333733789322437,0.003));
#354=CARTESIAN_POINT('',(0.009,0.00433733789322437,0.0062));
#355=CARTESIAN_POINT('',(0.009,0.00433733789322437,0.006));
#356=CARTESIAN_POINT('',(0.009,0.00867467578644873,0.006));
#357=CARTESIAN_POINT('',(0.009,0.00867467578644873,0.0062));
#358=CARTESIAN_POINT('',(0.009,0.00867467578644873,0.003));
#359=CARTESIAN_POINT('',(0.009,0.00433733789322437,0.003));
#360=CARTESIAN_POINT('',(0.,0.,0.003));
#361=CARTESIAN_POINT('',(0.,-0.003,0.003));
#362=CARTESIAN_POINT('',(0.00325,-0.003,0.003));
#363=CARTESIAN_POINT('',(0.,0.007,0.003));
#364=CARTESIAN_POINT('',(0.00325,0.007,0.003));
#365=CARTESIAN_POINT('',(5.5914421188895E-19,-5.20417042793042E-18,0.003));
#366=CARTESIAN_POINT('',(5.5914421188895E-19,-5.20417042793042E-18,0.003));
#367=CARTESIAN_POINT('',(0.,7.65404249467096E-19,0.006));
#368=CARTESIAN_POINT('',(0.0066,0.0106155546251715,0.006));
#369=CARTESIAN_POINT('',(0.0066,0.0106155546251715,0.006));
#370=CARTESIAN_POINT('',(0.0066,0.0106155546251715,0.009));
#371=CARTESIAN_POINT('',(0.,7.65404249467096E-19,0.009));
#372=CARTESIAN_POINT('',(-0.0066,0.0106155546251715,0.009));
#373=CARTESIAN_POINT('',(-0.0066,0.0106155546251715,0.006));
#374=CARTESIAN_POINT('',(-0.0066,0.0106155546251715,0.006));
#375=CARTESIAN_POINT('',(0.,7.65404249467096E-19,0.006));
#376=CARTESIAN_POINT('',(5.5914421188895E-19,-5.20417042793042E-18,0.));
#377=CARTESIAN_POINT('',(0.0125,-5.20417042793042E-18,0.));
#378=CARTESIAN_POINT('',(0.,0.,0.));
#379=CARTESIAN_POINT('',(0.,-0.003,0.));
#380=CARTESIAN_POINT('',(0.0015,-0.003,0.));
#381=CARTESIAN_POINT('',(0.,0.007,0.));
#382=CARTESIAN_POINT('',(0.0015,0.007,0.));
#383=CARTESIAN_POINT('',(0.,0.,0.009));
#384=CARTESIAN_POINT('',(0.0066,-0.0033,0.009));
#385=CARTESIAN_POINT('',(0.0066,-0.0066,0.009));
#386=CARTESIAN_POINT('',(-0.0033,-0.0066,0.009));
#387=CARTESIAN_POINT('',(-0.0066,-0.0066,0.009));
#388=CARTESIAN_POINT('',(-0.0066,0.00530777731258575,0.009));
#389=CARTESIAN_POINT('',(0.,0.,0.006));
#390=CARTESIAN_POINT('',(-0.0066,0.00530777731258575,0.006));
#391=CARTESIAN_POINT('',(-0.0066,-0.0066,0.006));
#392=CARTESIAN_POINT('',(-0.0033,-0.0066,0.006));
#393=CARTESIAN_POINT('',(0.0066,-0.0066,0.006));
#394=CARTESIAN_POINT('',(0.0066,-0.0033,0.006));
#395=CARTESIAN_POINT('',(-0.0033,-0.0066,0.006));
#396=CARTESIAN_POINT('',(0.0066,-0.0066,0.006));
#397=CARTESIAN_POINT('',(-0.0066,-0.0066,0.006));
#398=CARTESIAN_POINT('',(0.0066,-0.0033,0.006));
#399=CARTESIAN_POINT('',(-0.0066,0.00530777731258575,0.006));
#400=CARTESIAN_POINT('',(0.,0.007,0.003));
#401=CARTESIAN_POINT('',(0.,-0.003,0.003));
#402=MECHANICAL_DESIGN_GEOMETRIC_PRESENTATION_REPRESENTATION('',(#234),
#403);
#403=(
GEOMETRIC_REPRESENTATION_CONTEXT(3)
GLOBAL_UNCERTAINTY_ASSIGNED_CONTEXT((#404))
GLOBAL_UNIT_ASSIGNED_CONTEXT((#407,#406,#405))
REPRESENTATION_CONTEXT('Part 1','TOP_LEVEL_ASSEMBLY_PART')
);
#404=UNCERTAINTY_MEASURE_WITH_UNIT(LENGTH_MEASURE(1.E-8),#407,
'DISTANCE_ACCURACY_VALUE','Maximum Tolerance applied to model');
#405=(
NAMED_UNIT(*)
SI_UNIT($,.STERADIAN.)
SOLID_ANGLE_UNIT()
);
#406=(
NAMED_UNIT(*)
PLANE_ANGLE_UNIT()
SI_UNIT($,.RADIAN.)
);
#407=(
LENGTH_UNIT()
NAMED_UNIT(*)
SI_UNIT($,.METRE.)
);
#408=PRODUCT_DEFINITION_SHAPE('','',#409);
#409=PRODUCT_DEFINITION('','',#411,#410);
#410=PRODUCT_DEFINITION_CONTEXT('',#417,'design');
#411=PRODUCT_DEFINITION_FORMATION_WITH_SPECIFIED_SOURCE('','',#413,
 .NOT_KNOWN.);
#412=PRODUCT_RELATED_PRODUCT_CATEGORY('','',(#413));
#413=PRODUCT('Part 1','Part 1','Part 1',(#415));
#414=PRODUCT_CATEGORY('','');
#415=PRODUCT_CONTEXT('',#417,'mechanical');
#416=APPLICATION_PROTOCOL_DEFINITION('international standard',
'ap242_managed_model_based_3d_engineering',2020,#417);
#417=APPLICATION_CONTEXT('managed model based 3d engineering');
ENDSEC;
END-ISO-10303-21;
