ISO-10303-21;
HEADER;
/* Generated by software containing ST-Developer
 * from STEP Tools, Inc. (www.steptools.com) 
 */
/* OPTION: using custom renumber hook */

FILE_DESCRIPTION(
/* description */ ('STEP AP242 Edition 2',
'CAx-IF Rec.Pracs.---Representation and Presentation of Product Manufa
cturing Information (PMI)---4.0---2014-10-13',
'CAx-IF Rec.Pracs.---3D Tessellated Geometry---0.4---2014-09-14','2;1',
'CAx-IF Rec.Pracs.---User Defined Attributes---1.5---2016-08-15'),
/* implementation_level */ '2;1');

FILE_NAME(
/* name */ '69554f3144b2cdb18115f13d',
/* time_stamp */ '2025-12-31T16:28:33Z',
/* author */ (''),
/* organization */ (''),
/* preprocessor_version */ 'ST-DEVELOPER v20',
/* originating_system */ 'ONSHAPE BY PTC INC, 1.208',
/* authorisation */ '  ');

FILE_SCHEMA (('AP242_MANAGED_MODEL_BASED_3D_ENGINEERING_MIM_LF { 1 0 10303 442 3 1 4 }'));
ENDSEC;

DATA;
#10=SHAPE_REPRESENTATION_RELATIONSHIP('','',#507,#11);
#11=ADVANCED_BREP_SHAPE_REPRESENTATION('',(#505),#907);
#12=B_SPLINE_CURVE_WITH_KNOTS('',3,(#862,#863,#864,#865,#866),
 .UNSPECIFIED.,.F.,.F.,(4,1,4),(0.,0.00174804506746343,0.00349609013492685),
 .UNSPECIFIED.);
#13=B_SPLINE_CURVE_WITH_KNOTS('',3,(#871,#872,#873,#874,#875),
 .UNSPECIFIED.,.F.,.F.,(4,1,4),(0.,0.00174804506746343,0.00349609013492685),
 .UNSPECIFIED.);
#14=B_SPLINE_CURVE_WITH_KNOTS('',3,(#881,#882,#883,#884,#885),
 .UNSPECIFIED.,.F.,.F.,(4,1,4),(0.,0.00174804506746343,0.00349609013492685),
 .UNSPECIFIED.);
#15=B_SPLINE_CURVE_WITH_KNOTS('',3,(#891,#892,#893,#894,#895),
 .UNSPECIFIED.,.F.,.F.,(4,1,4),(0.,0.00174804506746342,0.00349609013492685),
 .UNSPECIFIED.);
#16=TOROIDAL_SURFACE('',#554,0.016,0.002);
#17=TOROIDAL_SURFACE('',#559,0.016,0.002);
#18=TOROIDAL_SURFACE('',#564,0.016,0.002);
#19=TOROIDAL_SURFACE('',#569,0.016,0.002);
#20=SPHERICAL_SURFACE('',#552,0.002);
#21=SPHERICAL_SURFACE('',#561,0.002);
#22=SPHERICAL_SURFACE('',#566,0.002);
#23=SPHERICAL_SURFACE('',#571,0.002);
#24=ELLIPSE('',#534,0.00282842712474619,0.002);
#25=ELLIPSE('',#536,0.00282842712474619,0.002);
#26=ELLIPSE('',#544,0.00282842712474619,0.002);
#27=ELLIPSE('',#546,0.00282842712474619,0.002);
#28=PLANE('',#512);
#29=PLANE('',#513);
#30=PLANE('',#517);
#31=PLANE('',#521);
#32=PLANE('',#522);
#33=PLANE('',#527);
#34=PLANE('',#572);
#35=PLANE('',#576);
#36=CIRCLE('',#510,0.018);
#37=CIRCLE('',#511,0.018);
#38=CIRCLE('',#515,0.018);
#39=CIRCLE('',#516,0.018);
#40=CIRCLE('',#519,0.013);
#41=CIRCLE('',#520,0.013);
#42=CIRCLE('',#523,0.016);
#43=CIRCLE('',#524,0.016);
#44=CIRCLE('',#525,0.002);
#45=CIRCLE('',#526,0.002);
#46=CIRCLE('',#528,0.016);
#47=CIRCLE('',#529,0.002);
#48=CIRCLE('',#530,0.002);
#49=CIRCLE('',#531,0.016);
#50=CIRCLE('',#533,0.002);
#51=CIRCLE('',#538,0.002);
#52=CIRCLE('',#539,0.002);
#53=CIRCLE('',#541,0.002);
#54=CIRCLE('',#543,0.002);
#55=CIRCLE('',#548,0.002);
#56=CIRCLE('',#549,0.002);
#57=CIRCLE('',#551,0.002);
#58=CIRCLE('',#553,0.002);
#59=CIRCLE('',#556,0.002);
#60=CIRCLE('',#558,0.002);
#61=CIRCLE('',#560,0.002);
#62=CIRCLE('',#563,0.002);
#63=CIRCLE('',#565,0.002);
#64=CIRCLE('',#568,0.002);
#65=CIRCLE('',#570,0.002);
#66=CIRCLE('',#573,0.00175);
#67=CIRCLE('',#575,0.00175);
#68=ORIENTED_EDGE('',*,*,#208,.F.);
#69=ORIENTED_EDGE('',*,*,#209,.T.);
#70=ORIENTED_EDGE('',*,*,#210,.T.);
#71=ORIENTED_EDGE('',*,*,#211,.T.);
#72=ORIENTED_EDGE('',*,*,#212,.T.);
#73=ORIENTED_EDGE('',*,*,#213,.F.);
#74=ORIENTED_EDGE('',*,*,#214,.T.);
#75=ORIENTED_EDGE('',*,*,#208,.T.);
#76=ORIENTED_EDGE('',*,*,#215,.F.);
#77=ORIENTED_EDGE('',*,*,#216,.T.);
#78=ORIENTED_EDGE('',*,*,#217,.T.);
#79=ORIENTED_EDGE('',*,*,#218,.T.);
#80=ORIENTED_EDGE('',*,*,#219,.T.);
#81=ORIENTED_EDGE('',*,*,#220,.T.);
#82=ORIENTED_EDGE('',*,*,#215,.T.);
#83=ORIENTED_EDGE('',*,*,#221,.T.);
#84=ORIENTED_EDGE('',*,*,#222,.T.);
#85=ORIENTED_EDGE('',*,*,#223,.T.);
#86=ORIENTED_EDGE('',*,*,#224,.T.);
#87=ORIENTED_EDGE('',*,*,#225,.T.);
#88=ORIENTED_EDGE('',*,*,#226,.T.);
#89=ORIENTED_EDGE('',*,*,#227,.T.);
#90=ORIENTED_EDGE('',*,*,#228,.F.);
#91=ORIENTED_EDGE('',*,*,#229,.T.);
#92=ORIENTED_EDGE('',*,*,#230,.T.);
#93=ORIENTED_EDGE('',*,*,#231,.T.);
#94=ORIENTED_EDGE('',*,*,#232,.T.);
#95=ORIENTED_EDGE('',*,*,#233,.T.);
#96=ORIENTED_EDGE('',*,*,#234,.T.);
#97=ORIENTED_EDGE('',*,*,#235,.T.);
#98=ORIENTED_EDGE('',*,*,#236,.F.);
#99=ORIENTED_EDGE('',*,*,#237,.T.);
#100=ORIENTED_EDGE('',*,*,#238,.T.);
#101=ORIENTED_EDGE('',*,*,#239,.T.);
#102=ORIENTED_EDGE('',*,*,#240,.T.);
#103=ORIENTED_EDGE('',*,*,#226,.F.);
#104=ORIENTED_EDGE('',*,*,#241,.T.);
#105=ORIENTED_EDGE('',*,*,#242,.T.);
#106=ORIENTED_EDGE('',*,*,#243,.T.);
#107=ORIENTED_EDGE('',*,*,#244,.T.);
#108=ORIENTED_EDGE('',*,*,#245,.T.);
#109=ORIENTED_EDGE('',*,*,#246,.T.);
#110=ORIENTED_EDGE('',*,*,#228,.T.);
#111=ORIENTED_EDGE('',*,*,#247,.T.);
#112=ORIENTED_EDGE('',*,*,#248,.T.);
#113=ORIENTED_EDGE('',*,*,#249,.T.);
#114=ORIENTED_EDGE('',*,*,#250,.T.);
#115=ORIENTED_EDGE('',*,*,#251,.T.);
#116=ORIENTED_EDGE('',*,*,#224,.F.);
#117=ORIENTED_EDGE('',*,*,#252,.T.);
#118=ORIENTED_EDGE('',*,*,#248,.F.);
#119=ORIENTED_EDGE('',*,*,#253,.F.);
#120=ORIENTED_EDGE('',*,*,#227,.F.);
#121=ORIENTED_EDGE('',*,*,#240,.F.);
#122=ORIENTED_EDGE('',*,*,#254,.F.);
#123=ORIENTED_EDGE('',*,*,#225,.F.);
#124=ORIENTED_EDGE('',*,*,#253,.T.);
#125=ORIENTED_EDGE('',*,*,#247,.F.);
#126=ORIENTED_EDGE('',*,*,#223,.F.);
#127=ORIENTED_EDGE('',*,*,#255,.T.);
#128=ORIENTED_EDGE('',*,*,#219,.F.);
#129=ORIENTED_EDGE('',*,*,#256,.T.);
#130=ORIENTED_EDGE('',*,*,#239,.F.);
#131=ORIENTED_EDGE('',*,*,#257,.T.);
#132=ORIENTED_EDGE('',*,*,#222,.F.);
#133=ORIENTED_EDGE('',*,*,#254,.T.);
#134=ORIENTED_EDGE('',*,*,#245,.F.);
#135=ORIENTED_EDGE('',*,*,#258,.T.);
#136=ORIENTED_EDGE('',*,*,#230,.F.);
#137=ORIENTED_EDGE('',*,*,#259,.F.);
#138=ORIENTED_EDGE('',*,*,#259,.T.);
#139=ORIENTED_EDGE('',*,*,#233,.F.);
#140=ORIENTED_EDGE('',*,*,#260,.F.);
#141=ORIENTED_EDGE('',*,*,#241,.F.);
#142=ORIENTED_EDGE('',*,*,#229,.F.);
#143=ORIENTED_EDGE('',*,*,#246,.F.);
#144=ORIENTED_EDGE('',*,*,#210,.F.);
#145=ORIENTED_EDGE('',*,*,#261,.T.);
#146=ORIENTED_EDGE('',*,*,#231,.F.);
#147=ORIENTED_EDGE('',*,*,#262,.T.);
#148=ORIENTED_EDGE('',*,*,#232,.F.);
#149=ORIENTED_EDGE('',*,*,#263,.T.);
#150=ORIENTED_EDGE('',*,*,#242,.F.);
#151=ORIENTED_EDGE('',*,*,#260,.T.);
#152=ORIENTED_EDGE('',*,*,#264,.F.);
#153=ORIENTED_EDGE('',*,*,#263,.F.);
#154=ORIENTED_EDGE('',*,*,#261,.F.);
#155=ORIENTED_EDGE('',*,*,#264,.T.);
#156=ORIENTED_EDGE('',*,*,#209,.F.);
#157=ORIENTED_EDGE('',*,*,#265,.F.);
#158=ORIENTED_EDGE('',*,*,#234,.F.);
#159=ORIENTED_EDGE('',*,*,#214,.F.);
#160=ORIENTED_EDGE('',*,*,#266,.F.);
#161=ORIENTED_EDGE('',*,*,#235,.F.);
#162=ORIENTED_EDGE('',*,*,#265,.T.);
#163=ORIENTED_EDGE('',*,*,#237,.F.);
#164=ORIENTED_EDGE('',*,*,#267,.F.);
#165=ORIENTED_EDGE('',*,*,#216,.F.);
#166=ORIENTED_EDGE('',*,*,#268,.F.);
#167=ORIENTED_EDGE('',*,*,#269,.F.);
#168=ORIENTED_EDGE('',*,*,#238,.F.);
#169=ORIENTED_EDGE('',*,*,#268,.T.);
#170=ORIENTED_EDGE('',*,*,#220,.F.);
#171=ORIENTED_EDGE('',*,*,#269,.T.);
#172=ORIENTED_EDGE('',*,*,#255,.F.);
#173=ORIENTED_EDGE('',*,*,#257,.F.);
#174=ORIENTED_EDGE('',*,*,#243,.F.);
#175=ORIENTED_EDGE('',*,*,#270,.F.);
#176=ORIENTED_EDGE('',*,*,#212,.F.);
#177=ORIENTED_EDGE('',*,*,#271,.F.);
#178=ORIENTED_EDGE('',*,*,#272,.F.);
#179=ORIENTED_EDGE('',*,*,#244,.F.);
#180=ORIENTED_EDGE('',*,*,#271,.T.);
#181=ORIENTED_EDGE('',*,*,#211,.F.);
#182=ORIENTED_EDGE('',*,*,#262,.F.);
#183=ORIENTED_EDGE('',*,*,#258,.F.);
#184=ORIENTED_EDGE('',*,*,#272,.T.);
#185=ORIENTED_EDGE('',*,*,#218,.F.);
#186=ORIENTED_EDGE('',*,*,#273,.F.);
#187=ORIENTED_EDGE('',*,*,#250,.F.);
#188=ORIENTED_EDGE('',*,*,#274,.F.);
#189=ORIENTED_EDGE('',*,*,#275,.F.);
#190=ORIENTED_EDGE('',*,*,#221,.F.);
#191=ORIENTED_EDGE('',*,*,#274,.T.);
#192=ORIENTED_EDGE('',*,*,#249,.F.);
#193=ORIENTED_EDGE('',*,*,#275,.T.);
#194=ORIENTED_EDGE('',*,*,#252,.F.);
#195=ORIENTED_EDGE('',*,*,#256,.F.);
#196=ORIENTED_EDGE('',*,*,#276,.F.);
#197=ORIENTED_EDGE('',*,*,#267,.T.);
#198=ORIENTED_EDGE('',*,*,#236,.T.);
#199=ORIENTED_EDGE('',*,*,#266,.T.);
#200=ORIENTED_EDGE('',*,*,#213,.T.);
#201=ORIENTED_EDGE('',*,*,#270,.T.);
#202=ORIENTED_EDGE('',*,*,#251,.F.);
#203=ORIENTED_EDGE('',*,*,#273,.T.);
#204=ORIENTED_EDGE('',*,*,#217,.F.);
#205=ORIENTED_EDGE('',*,*,#277,.F.);
#206=ORIENTED_EDGE('',*,*,#276,.T.);
#207=ORIENTED_EDGE('',*,*,#277,.T.);
#208=EDGE_CURVE('',#278,#279,#320,.T.);
#209=EDGE_CURVE('',#278,#280,#36,.F.);
#210=EDGE_CURVE('',#280,#281,#321,.T.);
#211=EDGE_CURVE('',#281,#279,#37,.T.);
#212=EDGE_CURVE('',#279,#282,#322,.F.);
#213=EDGE_CURVE('',#283,#282,#323,.T.);
#214=EDGE_CURVE('',#283,#278,#324,.T.);
#215=EDGE_CURVE('',#284,#285,#325,.T.);
#216=EDGE_CURVE('',#284,#286,#326,.T.);
#217=EDGE_CURVE('',#286,#287,#327,.T.);
#218=EDGE_CURVE('',#287,#285,#328,.F.);
#219=EDGE_CURVE('',#288,#289,#329,.F.);
#220=EDGE_CURVE('',#289,#284,#38,.F.);
#221=EDGE_CURVE('',#285,#288,#39,.T.);
#222=EDGE_CURVE('',#290,#291,#330,.T.);
#223=EDGE_CURVE('',#291,#292,#331,.F.);
#224=EDGE_CURVE('',#292,#293,#332,.F.);
#225=EDGE_CURVE('',#293,#290,#333,.F.);
#226=EDGE_CURVE('',#294,#295,#40,.T.);
#227=EDGE_CURVE('',#295,#296,#334,.T.);
#228=EDGE_CURVE('',#297,#296,#41,.T.);
#229=EDGE_CURVE('',#297,#294,#335,.F.);
#230=EDGE_CURVE('',#298,#299,#336,.T.);
#231=EDGE_CURVE('',#299,#300,#337,.F.);
#232=EDGE_CURVE('',#300,#301,#338,.F.);
#233=EDGE_CURVE('',#301,#298,#339,.F.);
#234=EDGE_CURVE('',#302,#303,#42,.T.);
#235=EDGE_CURVE('',#303,#304,#340,.F.);
#236=EDGE_CURVE('',#305,#304,#341,.T.);
#237=EDGE_CURVE('',#305,#306,#342,.F.);
#238=EDGE_CURVE('',#306,#307,#43,.T.);
#239=EDGE_CURVE('',#307,#308,#343,.F.);
#240=EDGE_CURVE('',#308,#295,#44,.T.);
#241=EDGE_CURVE('',#294,#309,#45,.T.);
#242=EDGE_CURVE('',#309,#302,#344,.T.);
#243=EDGE_CURVE('',#310,#311,#345,.T.);
#244=EDGE_CURVE('',#311,#312,#46,.F.);
#245=EDGE_CURVE('',#312,#313,#346,.F.);
#246=EDGE_CURVE('',#313,#297,#47,.F.);
#247=EDGE_CURVE('',#296,#314,#48,.F.);
#248=EDGE_CURVE('',#314,#315,#347,.T.);
#249=EDGE_CURVE('',#315,#316,#49,.F.);
#250=EDGE_CURVE('',#316,#317,#348,.T.);
#251=EDGE_CURVE('',#317,#310,#349,.T.);
#252=EDGE_CURVE('',#292,#315,#50,.T.);
#253=EDGE_CURVE('',#293,#314,#24,.F.);
#254=EDGE_CURVE('',#290,#308,#25,.F.);
#255=EDGE_CURVE('',#291,#289,#51,.T.);
#256=EDGE_CURVE('',#288,#292,#52,.F.);
#257=EDGE_CURVE('',#307,#291,#53,.F.);
#258=EDGE_CURVE('',#312,#299,#54,.F.);
#259=EDGE_CURVE('',#313,#298,#26,.F.);
#260=EDGE_CURVE('',#309,#301,#27,.F.);
#261=EDGE_CURVE('',#280,#300,#55,.T.);
#262=EDGE_CURVE('',#299,#281,#56,.F.);
#263=EDGE_CURVE('',#300,#302,#57,.T.);
#264=EDGE_CURVE('',#302,#280,#58,.T.);
#265=EDGE_CURVE('',#303,#278,#12,.F.);
#266=EDGE_CURVE('',#304,#283,#59,.T.);
#267=EDGE_CURVE('',#286,#305,#60,.T.);
#268=EDGE_CURVE('',#306,#284,#13,.F.);
#269=EDGE_CURVE('',#307,#289,#61,.T.);
#270=EDGE_CURVE('',#282,#310,#62,.T.);
#271=EDGE_CURVE('',#311,#279,#14,.F.);
#272=EDGE_CURVE('',#312,#281,#63,.T.);
#273=EDGE_CURVE('',#317,#287,#64,.T.);
#274=EDGE_CURVE('',#285,#316,#15,.T.);
#275=EDGE_CURVE('',#288,#315,#65,.T.);
#276=EDGE_CURVE('',#318,#318,#66,.T.);
#277=EDGE_CURVE('',#319,#319,#67,.T.);
#278=VERTEX_POINT('',#748);
#279=VERTEX_POINT('',#749);
#280=VERTEX_POINT('',#751);
#281=VERTEX_POINT('',#753);
#282=VERTEX_POINT('',#757);
#283=VERTEX_POINT('',#759);
#284=VERTEX_POINT('',#763);
#285=VERTEX_POINT('',#764);
#286=VERTEX_POINT('',#766);
#287=VERTEX_POINT('',#768);
#288=VERTEX_POINT('',#772);
#289=VERTEX_POINT('',#773);
#290=VERTEX_POINT('',#778);
#291=VERTEX_POINT('',#779);
#292=VERTEX_POINT('',#781);
#293=VERTEX_POINT('',#783);
#294=VERTEX_POINT('',#787);
#295=VERTEX_POINT('',#788);
#296=VERTEX_POINT('',#790);
#297=VERTEX_POINT('',#792);
#298=VERTEX_POINT('',#796);
#299=VERTEX_POINT('',#797);
#300=VERTEX_POINT('',#799);
#301=VERTEX_POINT('',#801);
#302=VERTEX_POINT('',#805);
#303=VERTEX_POINT('',#806);
#304=VERTEX_POINT('',#808);
#305=VERTEX_POINT('',#810);
#306=VERTEX_POINT('',#812);
#307=VERTEX_POINT('',#814);
#308=VERTEX_POINT('',#816);
#309=VERTEX_POINT('',#819);
#310=VERTEX_POINT('',#823);
#311=VERTEX_POINT('',#824);
#312=VERTEX_POINT('',#826);
#313=VERTEX_POINT('',#828);
#314=VERTEX_POINT('',#831);
#315=VERTEX_POINT('',#833);
#316=VERTEX_POINT('',#835);
#317=VERTEX_POINT('',#837);
#318=VERTEX_POINT('',#901);
#319=VERTEX_POINT('',#904);
#320=LINE('',#747,#350);
#321=LINE('',#752,#351);
#322=LINE('',#756,#352);
#323=LINE('',#758,#353);
#324=LINE('',#760,#354);
#325=LINE('',#762,#355);
#326=LINE('',#765,#356);
#327=LINE('',#767,#357);
#328=LINE('',#769,#358);
#329=LINE('',#771,#359);
#330=LINE('',#777,#360);
#331=LINE('',#780,#361);
#332=LINE('',#782,#362);
#333=LINE('',#784,#363);
#334=LINE('',#789,#364);
#335=LINE('',#793,#365);
#336=LINE('',#795,#366);
#337=LINE('',#798,#367);
#338=LINE('',#800,#368);
#339=LINE('',#802,#369);
#340=LINE('',#807,#370);
#341=LINE('',#809,#371);
#342=LINE('',#811,#372);
#343=LINE('',#815,#373);
#344=LINE('',#820,#374);
#345=LINE('',#822,#375);
#346=LINE('',#827,#376);
#347=LINE('',#832,#377);
#348=LINE('',#836,#378);
#349=LINE('',#838,#379);
#350=VECTOR('',#581,1.);
#351=VECTOR('',#584,1.);
#352=VECTOR('',#589,1.);
#353=VECTOR('',#590,1.);
#354=VECTOR('',#591,1.);
#355=VECTOR('',#594,1.);
#356=VECTOR('',#595,1.);
#357=VECTOR('',#596,1.);
#358=VECTOR('',#597,1.);
#359=VECTOR('',#600,1.);
#360=VECTOR('',#607,1.);
#361=VECTOR('',#608,1.);
#362=VECTOR('',#609,1.);
#363=VECTOR('',#610,1.);
#364=VECTOR('',#615,1.);
#365=VECTOR('',#618,1.);
#366=VECTOR('',#621,1.);
#367=VECTOR('',#622,1.);
#368=VECTOR('',#623,1.);
#369=VECTOR('',#624,1.);
#370=VECTOR('',#629,1.);
#371=VECTOR('',#630,1.);
#372=VECTOR('',#631,1.);
#373=VECTOR('',#634,1.);
#374=VECTOR('',#639,1.);
#375=VECTOR('',#642,1.);
#376=VECTOR('',#645,1.);
#377=VECTOR('',#650,1.);
#378=VECTOR('',#653,1.);
#379=VECTOR('',#654,1.);
#380=EDGE_LOOP('',(#68,#69,#70,#71));
#381=EDGE_LOOP('',(#72,#73,#74,#75));
#382=EDGE_LOOP('',(#76,#77,#78,#79));
#383=EDGE_LOOP('',(#80,#81,#82,#83));
#384=EDGE_LOOP('',(#84,#85,#86,#87));
#385=EDGE_LOOP('',(#88,#89,#90,#91));
#386=EDGE_LOOP('',(#92,#93,#94,#95));
#387=EDGE_LOOP('',(#96,#97,#98,#99,#100,#101,#102,#103,#104,#105));
#388=EDGE_LOOP('',(#106,#107,#108,#109,#110,#111,#112,#113,#114,#115));
#389=EDGE_LOOP('',(#116,#117,#118,#119));
#390=EDGE_LOOP('',(#120,#121,#122,#123,#124,#125));
#391=EDGE_LOOP('',(#126,#127,#128,#129));
#392=EDGE_LOOP('',(#130,#131,#132,#133));
#393=EDGE_LOOP('',(#134,#135,#136,#137));
#394=EDGE_LOOP('',(#138,#139,#140,#141,#142,#143));
#395=EDGE_LOOP('',(#144,#145,#146,#147));
#396=EDGE_LOOP('',(#148,#149,#150,#151));
#397=EDGE_LOOP('',(#152,#153,#154));
#398=EDGE_LOOP('',(#155,#156,#157,#158));
#399=EDGE_LOOP('',(#159,#160,#161,#162));
#400=EDGE_LOOP('',(#163,#164,#165,#166));
#401=EDGE_LOOP('',(#167,#168,#169,#170));
#402=EDGE_LOOP('',(#171,#172,#173));
#403=EDGE_LOOP('',(#174,#175,#176,#177));
#404=EDGE_LOOP('',(#178,#179,#180,#181));
#405=EDGE_LOOP('',(#182,#183,#184));
#406=EDGE_LOOP('',(#185,#186,#187,#188));
#407=EDGE_LOOP('',(#189,#190,#191,#192));
#408=EDGE_LOOP('',(#193,#194,#195));
#409=EDGE_LOOP('',(#196));
#410=EDGE_LOOP('',(#197,#198,#199,#200,#201,#202,#203,#204));
#411=EDGE_LOOP('',(#205));
#412=EDGE_LOOP('',(#206));
#413=EDGE_LOOP('',(#207));
#414=FACE_BOUND('',#380,.T.);
#415=FACE_BOUND('',#381,.T.);
#416=FACE_BOUND('',#382,.T.);
#417=FACE_BOUND('',#383,.T.);
#418=FACE_BOUND('',#384,.T.);
#419=FACE_BOUND('',#385,.T.);
#420=FACE_BOUND('',#386,.T.);
#421=FACE_BOUND('',#387,.T.);
#422=FACE_BOUND('',#388,.T.);
#423=FACE_BOUND('',#389,.T.);
#424=FACE_BOUND('',#390,.T.);
#425=FACE_BOUND('',#391,.T.);
#426=FACE_BOUND('',#392,.T.);
#427=FACE_BOUND('',#393,.T.);
#428=FACE_BOUND('',#394,.T.);
#429=FACE_BOUND('',#395,.T.);
#430=FACE_BOUND('',#396,.T.);
#431=FACE_BOUND('',#397,.T.);
#432=FACE_BOUND('',#398,.T.);
#433=FACE_BOUND('',#399,.T.);
#434=FACE_BOUND('',#400,.T.);
#435=FACE_BOUND('',#401,.T.);
#436=FACE_BOUND('',#402,.T.);
#437=FACE_BOUND('',#403,.T.);
#438=FACE_BOUND('',#404,.T.);
#439=FACE_BOUND('',#405,.T.);
#440=FACE_BOUND('',#406,.T.);
#441=FACE_BOUND('',#407,.T.);
#442=FACE_BOUND('',#408,.T.);
#443=FACE_BOUND('',#409,.T.);
#444=FACE_BOUND('',#410,.T.);
#445=FACE_BOUND('',#411,.T.);
#446=FACE_BOUND('',#412,.T.);
#447=FACE_BOUND('',#413,.T.);
#448=CYLINDRICAL_SURFACE('',#509,0.018);
#449=CYLINDRICAL_SURFACE('',#514,0.018);
#450=CYLINDRICAL_SURFACE('',#518,0.013);
#451=CYLINDRICAL_SURFACE('',#532,0.002);
#452=CYLINDRICAL_SURFACE('',#535,0.002);
#453=CYLINDRICAL_SURFACE('',#537,0.002);
#454=CYLINDRICAL_SURFACE('',#540,0.002);
#455=CYLINDRICAL_SURFACE('',#542,0.002);
#456=CYLINDRICAL_SURFACE('',#545,0.002);
#457=CYLINDRICAL_SURFACE('',#547,0.002);
#458=CYLINDRICAL_SURFACE('',#550,0.002);
#459=CYLINDRICAL_SURFACE('',#555,0.002);
#460=CYLINDRICAL_SURFACE('',#557,0.002);
#461=CYLINDRICAL_SURFACE('',#562,0.002);
#462=CYLINDRICAL_SURFACE('',#567,0.002);
#463=CYLINDRICAL_SURFACE('',#574,0.00175);
#464=ADVANCED_FACE('',(#414),#448,.T.);
#465=ADVANCED_FACE('',(#415),#28,.T.);
#466=ADVANCED_FACE('',(#416),#29,.T.);
#467=ADVANCED_FACE('',(#417),#449,.T.);
#468=ADVANCED_FACE('',(#418),#30,.T.);
#469=ADVANCED_FACE('',(#419),#450,.F.);
#470=ADVANCED_FACE('',(#420),#31,.F.);
#471=ADVANCED_FACE('',(#421),#32,.T.);
#472=ADVANCED_FACE('',(#422),#33,.F.);
#473=ADVANCED_FACE('',(#423),#451,.T.);
#474=ADVANCED_FACE('',(#424),#452,.T.);
#475=ADVANCED_FACE('',(#425),#453,.T.);
#476=ADVANCED_FACE('',(#426),#454,.T.);
#477=ADVANCED_FACE('',(#427),#455,.T.);
#478=ADVANCED_FACE('',(#428),#456,.T.);
#479=ADVANCED_FACE('',(#429),#457,.T.);
#480=ADVANCED_FACE('',(#430),#458,.T.);
#481=ADVANCED_FACE('',(#431),#20,.T.);
#482=ADVANCED_FACE('',(#432),#16,.T.);
#483=ADVANCED_FACE('',(#433),#459,.T.);
#484=ADVANCED_FACE('',(#434),#460,.T.);
#485=ADVANCED_FACE('',(#435),#17,.T.);
#486=ADVANCED_FACE('',(#436),#21,.T.);
#487=ADVANCED_FACE('',(#437),#461,.T.);
#488=ADVANCED_FACE('',(#438),#18,.T.);
#489=ADVANCED_FACE('',(#439),#22,.T.);
#490=ADVANCED_FACE('',(#440),#462,.T.);
#491=ADVANCED_FACE('',(#441),#19,.T.);
#492=ADVANCED_FACE('',(#442),#23,.T.);
#493=ADVANCED_FACE('',(#443,#444),#34,.T.);
#494=ADVANCED_FACE('',(#445,#446),#463,.F.);
#495=ADVANCED_FACE('',(#447),#35,.T.);
#496=CLOSED_SHELL('',(#464,#465,#466,#467,#468,#469,#470,#471,#472,#473,
#474,#475,#476,#477,#478,#479,#480,#481,#482,#483,#484,#485,#486,#487,#488,
#489,#490,#491,#492,#493,#494,#495));
#497=STYLED_ITEM('',(#498),#505);
#498=PRESENTATION_STYLE_ASSIGNMENT((#499));
#499=SURFACE_STYLE_USAGE(.BOTH.,#500);
#500=SURFACE_SIDE_STYLE('',(#501));
#501=SURFACE_STYLE_FILL_AREA(#502);
#502=FILL_AREA_STYLE('',(#503));
#503=FILL_AREA_STYLE_COLOUR('',#504);
#504=COLOUR_RGB('',0.615686274509804,0.811764705882353,0.929411764705882);
#505=MANIFOLD_SOLID_BREP('Part 1',#496);
#506=SHAPE_DEFINITION_REPRESENTATION(#912,#507);
#507=SHAPE_REPRESENTATION('Part 1',(#508),#907);
#508=AXIS2_PLACEMENT_3D('',#745,#577,#578);
#509=AXIS2_PLACEMENT_3D('',#746,#579,#580);
#510=AXIS2_PLACEMENT_3D('',#750,#582,#583);
#511=AXIS2_PLACEMENT_3D('',#754,#585,#586);
#512=AXIS2_PLACEMENT_3D('',#755,#587,#588);
#513=AXIS2_PLACEMENT_3D('',#761,#592,#593);
#514=AXIS2_PLACEMENT_3D('',#770,#598,#599);
#515=AXIS2_PLACEMENT_3D('',#774,#601,#602);
#516=AXIS2_PLACEMENT_3D('',#775,#603,#604);
#517=AXIS2_PLACEMENT_3D('',#776,#605,#606);
#518=AXIS2_PLACEMENT_3D('',#785,#611,#612);
#519=AXIS2_PLACEMENT_3D('',#786,#613,#614);
#520=AXIS2_PLACEMENT_3D('',#791,#616,#617);
#521=AXIS2_PLACEMENT_3D('',#794,#619,#620);
#522=AXIS2_PLACEMENT_3D('',#803,#625,#626);
#523=AXIS2_PLACEMENT_3D('',#804,#627,#628);
#524=AXIS2_PLACEMENT_3D('',#813,#632,#633);
#525=AXIS2_PLACEMENT_3D('',#817,#635,#636);
#526=AXIS2_PLACEMENT_3D('',#818,#637,#638);
#527=AXIS2_PLACEMENT_3D('',#821,#640,#641);
#528=AXIS2_PLACEMENT_3D('',#825,#643,#644);
#529=AXIS2_PLACEMENT_3D('',#829,#646,#647);
#530=AXIS2_PLACEMENT_3D('',#830,#648,#649);
#531=AXIS2_PLACEMENT_3D('',#834,#651,#652);
#532=AXIS2_PLACEMENT_3D('',#839,#655,#656);
#533=AXIS2_PLACEMENT_3D('',#840,#657,#658);
#534=AXIS2_PLACEMENT_3D('',#841,#659,#660);
#535=AXIS2_PLACEMENT_3D('',#842,#661,#662);
#536=AXIS2_PLACEMENT_3D('',#843,#663,#664);
#537=AXIS2_PLACEMENT_3D('',#844,#665,#666);
#538=AXIS2_PLACEMENT_3D('',#845,#667,#668);
#539=AXIS2_PLACEMENT_3D('',#846,#669,#670);
#540=AXIS2_PLACEMENT_3D('',#847,#671,#672);
#541=AXIS2_PLACEMENT_3D('',#848,#673,#674);
#542=AXIS2_PLACEMENT_3D('',#849,#675,#676);
#543=AXIS2_PLACEMENT_3D('',#850,#677,#678);
#544=AXIS2_PLACEMENT_3D('',#851,#679,#680);
#545=AXIS2_PLACEMENT_3D('',#852,#681,#682);
#546=AXIS2_PLACEMENT_3D('',#853,#683,#684);
#547=AXIS2_PLACEMENT_3D('',#854,#685,#686);
#548=AXIS2_PLACEMENT_3D('',#855,#687,#688);
#549=AXIS2_PLACEMENT_3D('',#856,#689,#690);
#550=AXIS2_PLACEMENT_3D('',#857,#691,#692);
#551=AXIS2_PLACEMENT_3D('',#858,#693,#694);
#552=AXIS2_PLACEMENT_3D('',#859,#695,#696);
#553=AXIS2_PLACEMENT_3D('',#860,#697,#698);
#554=AXIS2_PLACEMENT_3D('',#861,#699,#700);
#555=AXIS2_PLACEMENT_3D('',#867,#701,#702);
#556=AXIS2_PLACEMENT_3D('',#868,#703,#704);
#557=AXIS2_PLACEMENT_3D('',#869,#705,#706);
#558=AXIS2_PLACEMENT_3D('',#870,#707,#708);
#559=AXIS2_PLACEMENT_3D('',#876,#709,#710);
#560=AXIS2_PLACEMENT_3D('',#877,#711,#712);
#561=AXIS2_PLACEMENT_3D('',#878,#713,#714);
#562=AXIS2_PLACEMENT_3D('',#879,#715,#716);
#563=AXIS2_PLACEMENT_3D('',#880,#717,#718);
#564=AXIS2_PLACEMENT_3D('',#886,#719,#720);
#565=AXIS2_PLACEMENT_3D('',#887,#721,#722);
#566=AXIS2_PLACEMENT_3D('',#888,#723,#724);
#567=AXIS2_PLACEMENT_3D('',#889,#725,#726);
#568=AXIS2_PLACEMENT_3D('',#890,#727,#728);
#569=AXIS2_PLACEMENT_3D('',#896,#729,#730);
#570=AXIS2_PLACEMENT_3D('',#897,#731,#732);
#571=AXIS2_PLACEMENT_3D('',#898,#733,#734);
#572=AXIS2_PLACEMENT_3D('',#899,#735,#736);
#573=AXIS2_PLACEMENT_3D('',#900,#737,#738);
#574=AXIS2_PLACEMENT_3D('',#902,#739,#740);
#575=AXIS2_PLACEMENT_3D('',#903,#741,#742);
#576=AXIS2_PLACEMENT_3D('',#905,#743,#744);
#577=DIRECTION('',(0.,0.,1.));
#578=DIRECTION('',(1.,0.,0.));
#579=DIRECTION('',(0.,0.,-1.));
#580=DIRECTION('',(-1.,0.,0.));
#581=DIRECTION('',(0.,0.,-1.));
#582=DIRECTION('',(0.,0.,1.));
#583=DIRECTION('',(1.,0.,0.));
#584=DIRECTION('',(0.,0.,-1.));
#585=DIRECTION('',(0.,0.,1.));
#586=DIRECTION('',(1.,0.,0.));
#587=DIRECTION('',(-1.,0.,0.));
#588=DIRECTION('',(0.,0.,1.));
#589=DIRECTION('',(0.,1.,0.));
#590=DIRECTION('',(0.,0.,-1.));
#591=DIRECTION('',(0.,1.,0.));
#592=DIRECTION('',(1.,4.33680868994202E-16,0.));
#593=DIRECTION('',(-4.33680868994202E-16,1.,0.));
#594=DIRECTION('',(0.,0.,-1.));
#595=DIRECTION('',(4.33680868994202E-16,-1.,0.));
#596=DIRECTION('',(0.,0.,-1.));
#597=DIRECTION('',(4.33680868994202E-16,-1.,0.));
#598=DIRECTION('',(0.,0.,-1.));
#599=DIRECTION('',(-1.,0.,0.));
#600=DIRECTION('',(0.,0.,-1.));
#601=DIRECTION('',(0.,0.,1.));
#602=DIRECTION('',(1.,0.,0.));
#603=DIRECTION('',(0.,0.,1.));
#604=DIRECTION('',(1.,0.,0.));
#605=DIRECTION('',(0.,1.,0.));
#606=DIRECTION('',(0.,0.,1.));
#607=DIRECTION('',(1.,0.,0.));
#608=DIRECTION('',(0.,0.,1.));
#609=DIRECTION('',(1.,0.,0.));
#610=DIRECTION('',(0.,0.,-1.));
#611=DIRECTION('',(0.,0.,-1.));
#612=DIRECTION('',(-1.,0.,0.));
#613=DIRECTION('',(0.,0.,1.));
#614=DIRECTION('',(1.,0.,0.));
#615=DIRECTION('',(0.,0.,-1.));
#616=DIRECTION('',(0.,0.,1.));
#617=DIRECTION('',(1.,0.,0.));
#618=DIRECTION('',(0.,0.,-1.));
#619=DIRECTION('',(0.,-1.,0.));
#620=DIRECTION('',(0.,0.,-1.));
#621=DIRECTION('',(-1.,0.,0.));
#622=DIRECTION('',(0.,0.,-1.));
#623=DIRECTION('',(-1.,0.,0.));
#624=DIRECTION('',(0.,0.,1.));
#625=DIRECTION('',(0.,0.,1.));
#626=DIRECTION('',(1.,0.,0.));
#627=DIRECTION('',(0.,0.,1.));
#628=DIRECTION('',(1.,0.,0.));
#629=DIRECTION('',(0.,1.,0.));
#630=DIRECTION('',(-1.,0.,0.));
#631=DIRECTION('',(4.33680868994202E-16,-1.,0.));
#632=DIRECTION('',(0.,0.,1.));
#633=DIRECTION('',(1.,0.,0.));
#634=DIRECTION('',(1.,0.,0.));
#635=DIRECTION('',(0.,0.,1.));
#636=DIRECTION('',(1.,0.,0.));
#637=DIRECTION('',(0.,0.,1.));
#638=DIRECTION('',(1.,0.,0.));
#639=DIRECTION('',(-1.,0.,0.));
#640=DIRECTION('',(0.,0.,1.));
#641=DIRECTION('',(1.,0.,0.));
#642=DIRECTION('',(0.,1.,0.));
#643=DIRECTION('',(0.,0.,1.));
#644=DIRECTION('',(1.,0.,0.));
#645=DIRECTION('',(-1.,0.,0.));
#646=DIRECTION('',(0.,0.,1.));
#647=DIRECTION('',(1.,0.,0.));
#648=DIRECTION('',(0.,0.,1.));
#649=DIRECTION('',(1.,0.,0.));
#650=DIRECTION('',(1.,0.,0.));
#651=DIRECTION('',(0.,0.,1.));
#652=DIRECTION('',(1.,0.,0.));
#653=DIRECTION('',(4.33680868994202E-16,-1.,0.));
#654=DIRECTION('',(-1.,0.,0.));
#655=DIRECTION('',(-1.,0.,0.));
#656=DIRECTION('',(0.,0.,1.));
#657=DIRECTION('',(-1.,0.,0.));
#658=DIRECTION('',(0.,0.,1.));
#659=DIRECTION('',(0.707106781186548,0.,-0.707106781186548));
#660=DIRECTION('',(-0.707106781186548,0.,-0.707106781186548));
#661=DIRECTION('',(0.,0.,-1.));
#662=DIRECTION('',(-1.,0.,0.));
#663=DIRECTION('',(-0.707106781186548,0.,-0.707106781186548));
#664=DIRECTION('',(0.707106781186548,0.,-0.707106781186548));
#665=DIRECTION('',(0.,0.,-1.));
#666=DIRECTION('',(-1.,0.,0.));
#667=DIRECTION('',(0.,0.,-1.));
#668=DIRECTION('',(-1.,0.,0.));
#669=DIRECTION('',(0.,0.,-1.));
#670=DIRECTION('',(-1.,0.,0.));
#671=DIRECTION('',(1.,0.,0.));
#672=DIRECTION('',(0.,0.,-1.));
#673=DIRECTION('',(1.,0.,0.));
#674=DIRECTION('',(0.,0.,-1.));
#675=DIRECTION('',(-1.,0.,0.));
#676=DIRECTION('',(0.,0.,1.));
#677=DIRECTION('',(-1.,0.,0.));
#678=DIRECTION('',(0.,0.,1.));
#679=DIRECTION('',(-0.707106781186548,0.,-0.707106781186548));
#680=DIRECTION('',(0.707106781186548,0.,-0.707106781186548));
#681=DIRECTION('',(0.,0.,-1.));
#682=DIRECTION('',(-1.,0.,0.));
#683=DIRECTION('',(0.707106781186548,0.,-0.707106781186548));
#684=DIRECTION('',(-0.707106781186548,0.,-0.707106781186548));
#685=DIRECTION('',(0.,0.,-1.));
#686=DIRECTION('',(-1.,0.,0.));
#687=DIRECTION('',(0.,0.,-1.));
#688=DIRECTION('',(-1.,0.,0.));
#689=DIRECTION('',(0.,0.,-1.));
#690=DIRECTION('',(-1.,0.,0.));
#691=DIRECTION('',(1.,0.,0.));
#692=DIRECTION('',(0.,0.,-1.));
#693=DIRECTION('',(1.,0.,0.));
#694=DIRECTION('',(0.,0.,-1.));
#695=DIRECTION('',(0.,0.,1.));
#696=DIRECTION('',(1.,0.,0.));
#697=DIRECTION('',(-0.3125,-0.949917759598166,0.));
#698=DIRECTION('',(0.949917759598166,-0.3125,0.));
#699=DIRECTION('',(0.,0.,1.));
#700=DIRECTION('',(1.,0.,0.));
#701=DIRECTION('',(0.,1.,0.));
#702=DIRECTION('',(0.,0.,1.));
#703=DIRECTION('',(0.,-1.,0.));
#704=DIRECTION('',(0.,0.,-1.));
#705=DIRECTION('',(4.33680868994202E-16,-1.,0.));
#706=DIRECTION('',(1.,4.33680868994202E-16,0.));
#707=DIRECTION('',(0.,-1.,0.));
#708=DIRECTION('',(0.,0.,-1.));
#709=DIRECTION('',(0.,0.,1.));
#710=DIRECTION('',(1.,0.,0.));
#711=DIRECTION('',(-0.3125,0.949917759598167,0.));
#712=DIRECTION('',(-0.949917759598167,-0.3125,0.));
#713=DIRECTION('',(0.,0.,1.));
#714=DIRECTION('',(1.,0.,0.));
#715=DIRECTION('',(0.,-1.,0.));
#716=DIRECTION('',(0.,0.,-1.));
#717=DIRECTION('',(0.,-1.,0.));
#718=DIRECTION('',(0.,0.,-1.));
#719=DIRECTION('',(0.,0.,1.));
#720=DIRECTION('',(1.,0.,0.));
#721=DIRECTION('',(0.3125,0.949917759598167,0.));
#722=DIRECTION('',(-0.949917759598167,0.3125,0.));
#723=DIRECTION('',(0.,0.,1.));
#724=DIRECTION('',(1.,0.,0.));
#725=DIRECTION('',(-4.33680868994202E-16,1.,0.));
#726=DIRECTION('',(-1.,-4.33680868994202E-16,0.));
#727=DIRECTION('',(0.,-1.,0.));
#728=DIRECTION('',(0.,0.,-1.));
#729=DIRECTION('',(0.,0.,1.));
#730=DIRECTION('',(1.,0.,0.));
#731=DIRECTION('',(-0.3125,0.949917759598167,0.));
#732=DIRECTION('',(-0.949917759598167,-0.3125,0.));
#733=DIRECTION('',(0.,0.,1.));
#734=DIRECTION('',(1.,0.,0.));
#735=DIRECTION('',(0.,-1.,0.));
#736=DIRECTION('',(1.,0.,0.));
#737=DIRECTION('',(0.,-1.,0.));
#738=DIRECTION('',(0.,0.,-1.));
#739=DIRECTION('',(0.,-1.,0.));
#740=DIRECTION('',(0.,0.,-1.));
#741=DIRECTION('',(0.,-1.,0.));
#742=DIRECTION('',(0.,0.,-1.));
#743=DIRECTION('',(0.,-1.,0.));
#744=DIRECTION('',(1.,0.,0.));
#745=CARTESIAN_POINT('',(0.,0.,0.));
#746=CARTESIAN_POINT('',(2.16840434497101E-18,4.33680868994202E-19,0.013));
#747=CARTESIAN_POINT('',(-0.0065,-0.0167854103315945,0.013));
#748=CARTESIAN_POINT('',(-0.0065,-0.0167854103315945,0.011));
#749=CARTESIAN_POINT('',(-0.0065,-0.0167854103315945,0.002));
#750=CARTESIAN_POINT('',(2.16840434497101E-18,4.33680868994202E-19,0.011));
#751=CARTESIAN_POINT('',(-0.017098519672767,0.005625,0.011));
#752=CARTESIAN_POINT('',(-0.017098519672767,0.005625,0.013));
#753=CARTESIAN_POINT('',(-0.017098519672767,0.005625,0.002));
#754=CARTESIAN_POINT('',(2.16840434497101E-18,4.33680868994202E-19,0.002));
#755=CARTESIAN_POINT('',(-0.0065,-0.0177854103315945,0.013));
#756=CARTESIAN_POINT('',(-0.0065,-0.0187854103315945,0.002));
#757=CARTESIAN_POINT('',(-0.0065,-0.0437854103315946,0.002));
#758=CARTESIAN_POINT('',(-0.0065,-0.0437854103315946,0.013));
#759=CARTESIAN_POINT('',(-0.0065,-0.0437854103315946,0.011));
#760=CARTESIAN_POINT('',(-0.0065,-0.0177854103315945,0.011));
#761=CARTESIAN_POINT('',(0.0065,-0.0177854103315945,0.013));
#762=CARTESIAN_POINT('',(0.0065,-0.0167854103315945,0.013));
#763=CARTESIAN_POINT('',(0.0065,-0.0167854103315945,0.011));
#764=CARTESIAN_POINT('',(0.0065,-0.0167854103315945,0.002));
#765=CARTESIAN_POINT('',(0.0065,-0.0177854103315945,0.011));
#766=CARTESIAN_POINT('',(0.0065,-0.0437854103315946,0.011));
#767=CARTESIAN_POINT('',(0.0065,-0.0437854103315946,0.013));
#768=CARTESIAN_POINT('',(0.0065,-0.0437854103315946,0.002));
#769=CARTESIAN_POINT('',(0.0065,-0.0167854103315945,0.002));
#770=CARTESIAN_POINT('',(3.90312782094781E-18,4.77048955893622E-18,0.013));
#771=CARTESIAN_POINT('',(0.017098519672767,0.005625,0.013));
#772=CARTESIAN_POINT('',(0.017098519672767,0.005625,0.002));
#773=CARTESIAN_POINT('',(0.017098519672767,0.005625,0.011));
#774=CARTESIAN_POINT('',(3.90312782094781E-18,4.77048955893622E-18,0.011));
#775=CARTESIAN_POINT('',(3.90312782094781E-18,4.77048955893622E-18,0.002));
#776=CARTESIAN_POINT('',(0.0137687875509402,0.007,0.013));
#777=CARTESIAN_POINT('',(0.0137687875509402,0.007,0.011));
#778=CARTESIAN_POINT('',(0.014142135623731,0.007,0.011));
#779=CARTESIAN_POINT('',(0.0151986841535707,0.007,0.011));
#780=CARTESIAN_POINT('',(0.0151986841535707,0.007,0.));
#781=CARTESIAN_POINT('',(0.0151986841535707,0.007,0.002));
#782=CARTESIAN_POINT('',(0.0109544511501033,0.007,0.002));
#783=CARTESIAN_POINT('',(0.014142135623731,0.007,0.002));
#784=CARTESIAN_POINT('',(0.014142135623731,0.007,0.013));
#785=CARTESIAN_POINT('',(1.93909171715192E-18,-4.33680868994202E-19,0.013));
#786=CARTESIAN_POINT('',(1.93909171715192E-18,-4.33680868994202E-19,0.013));
#787=CARTESIAN_POINT('',(-0.0122565175405668,0.00433333333333334,0.013));
#788=CARTESIAN_POINT('',(0.0122565175405668,0.00433333333333334,0.013));
#789=CARTESIAN_POINT('',(0.0122565175405668,0.00433333333333334,0.013));
#790=CARTESIAN_POINT('',(0.0122565175405668,0.00433333333333334,0.));
#791=CARTESIAN_POINT('',(1.93909171715192E-18,-4.33680868994202E-19,0.));
#792=CARTESIAN_POINT('',(-0.0122565175405668,0.00433333333333334,0.));
#793=CARTESIAN_POINT('',(-0.0122565175405668,0.00433333333333334,0.013));
#794=CARTESIAN_POINT('',(-0.0137687875509402,0.007,0.013));
#795=CARTESIAN_POINT('',(-0.0137687875509402,0.007,0.002));
#796=CARTESIAN_POINT('',(-0.0141421356237309,0.007,0.002));
#797=CARTESIAN_POINT('',(-0.0151986841535707,0.007,0.002));
#798=CARTESIAN_POINT('',(-0.0151986841535707,0.007,0.013));
#799=CARTESIAN_POINT('',(-0.0151986841535707,0.007,0.011));
#800=CARTESIAN_POINT('',(-0.0109544511501033,0.007,0.011));
#801=CARTESIAN_POINT('',(-0.0141421356237309,0.007,0.011));
#802=CARTESIAN_POINT('',(-0.0141421356237309,0.007,0.));
#803=CARTESIAN_POINT('',(-3.46944695195361E-18,-0.00589270516579726,0.013));
#804=CARTESIAN_POINT('',(2.16840434497101E-18,4.33680868994202E-19,0.013));
#805=CARTESIAN_POINT('',(-0.0151986841535707,0.005,0.013));
#806=CARTESIAN_POINT('',(-0.0045,-0.0153541525327841,0.013));
#807=CARTESIAN_POINT('',(-0.0045,-0.00589270516579726,0.013));
#808=CARTESIAN_POINT('',(-0.0045,-0.0437854103315946,0.013));
#809=CARTESIAN_POINT('',(0.,-0.0437854103315946,0.013));
#810=CARTESIAN_POINT('',(0.0045,-0.0437854103315946,0.013));
#811=CARTESIAN_POINT('',(0.0045,-0.00589270516579726,0.013));
#812=CARTESIAN_POINT('',(0.0045,-0.0153541525327841,0.013));
#813=CARTESIAN_POINT('',(3.90312782094781E-18,4.77048955893622E-18,0.013));
#814=CARTESIAN_POINT('',(0.0151986841535707,0.005,0.013));
#815=CARTESIAN_POINT('',(-3.46944695195361E-18,0.005,0.013));
#816=CARTESIAN_POINT('',(0.012142135623731,0.005,0.013));
#817=CARTESIAN_POINT('',(0.014142135623731,0.005,0.013));
#818=CARTESIAN_POINT('',(-0.0141421356237309,0.005,0.013));
#819=CARTESIAN_POINT('',(-0.0121421356237309,0.005,0.013));
#820=CARTESIAN_POINT('',(-0.016583123951777,0.005,0.013));
#821=CARTESIAN_POINT('',(-3.46944695195361E-18,-0.00589270516579726,0.));
#822=CARTESIAN_POINT('',(-0.0045,-0.0167854103315945,0.));
#823=CARTESIAN_POINT('',(-0.0045,-0.0437854103315946,0.));
#824=CARTESIAN_POINT('',(-0.0045,-0.0153541525327841,0.));
#825=CARTESIAN_POINT('',(2.16840434497101E-18,4.33680868994202E-19,0.));
#826=CARTESIAN_POINT('',(-0.0151986841535707,0.005,0.));
#827=CARTESIAN_POINT('',(-3.46944695195361E-18,0.005,0.));
#828=CARTESIAN_POINT('',(-0.0121421356237309,0.005,0.));
#829=CARTESIAN_POINT('',(-0.0141421356237309,0.005,0.));
#830=CARTESIAN_POINT('',(0.014142135623731,0.005,0.));
#831=CARTESIAN_POINT('',(0.012142135623731,0.005,0.));
#832=CARTESIAN_POINT('',(0.016583123951777,0.005,0.));
#833=CARTESIAN_POINT('',(0.0151986841535707,0.005,0.));
#834=CARTESIAN_POINT('',(3.90312782094781E-18,4.77048955893622E-18,0.));
#835=CARTESIAN_POINT('',(0.0045,-0.0153541525327841,0.));
#836=CARTESIAN_POINT('',(0.0045,-0.0187854103315945,0.));
#837=CARTESIAN_POINT('',(0.0045,-0.0437854103315946,0.));
#838=CARTESIAN_POINT('',(0.,-0.0437854103315946,0.));
#839=CARTESIAN_POINT('',(-3.46944695195361E-18,0.005,0.002));
#840=CARTESIAN_POINT('',(0.0151986841535707,0.005,0.002));
#841=CARTESIAN_POINT('',(0.014142135623731,0.005,0.002));
#842=CARTESIAN_POINT('',(0.014142135623731,0.005,0.013));
#843=CARTESIAN_POINT('',(0.014142135623731,0.005,0.011));
#844=CARTESIAN_POINT('',(0.0151986841535707,0.005,0.013));
#845=CARTESIAN_POINT('',(0.0151986841535707,0.005,0.011));
#846=CARTESIAN_POINT('',(0.0151986841535707,0.005,0.002));
#847=CARTESIAN_POINT('',(0.0137687875509402,0.005,0.011));
#848=CARTESIAN_POINT('',(0.0151986841535707,0.005,0.011));
#849=CARTESIAN_POINT('',(-0.0137687875509402,0.005,0.002));
#850=CARTESIAN_POINT('',(-0.0151986841535707,0.005,0.002));
#851=CARTESIAN_POINT('',(-0.0141421356237309,0.005,0.002));
#852=CARTESIAN_POINT('',(-0.0141421356237309,0.005,0.013));
#853=CARTESIAN_POINT('',(-0.0141421356237309,0.005,0.011));
#854=CARTESIAN_POINT('',(-0.0151986841535707,0.005,0.013));
#855=CARTESIAN_POINT('',(-0.0151986841535707,0.005,0.011));
#856=CARTESIAN_POINT('',(-0.0151986841535707,0.005,0.002));
#857=CARTESIAN_POINT('',(-3.46944695195361E-18,0.005,0.011));
#858=CARTESIAN_POINT('',(-0.0151986841535707,0.005,0.011));
#859=CARTESIAN_POINT('',(-0.0151986841535707,0.005,0.011));
#860=CARTESIAN_POINT('',(-0.0151986841535707,0.005,0.011));
#861=CARTESIAN_POINT('',(2.16840434497101E-18,4.33680868994202E-19,0.011));
#862=CARTESIAN_POINT('',(-0.0065,-0.0167854103315945,0.011));
#863=CARTESIAN_POINT('',(-0.0065,-0.0167854103315945,0.0115918816056123));
#864=CARTESIAN_POINT('',(-0.00593895838807045,-0.0164040061179485,0.0126805606353489));
#865=CARTESIAN_POINT('',(-0.00496640326991202,-0.0157034184298866,0.013));
#866=CARTESIAN_POINT('',(-0.0045,-0.0153541525327841,0.013));
#867=CARTESIAN_POINT('',(-0.0045,-0.0177854103315945,0.011));
#868=CARTESIAN_POINT('',(-0.0045,-0.0437854103315946,0.011));
#869=CARTESIAN_POINT('',(0.0045,-0.0177854103315945,0.011));
#870=CARTESIAN_POINT('',(0.0045,-0.0437854103315946,0.011));
#871=CARTESIAN_POINT('',(0.0065,-0.0167854103315945,0.011));
#872=CARTESIAN_POINT('',(0.0065,-0.0167854103315945,0.0115918816056123));
#873=CARTESIAN_POINT('',(0.00593895838807044,-0.0164040061179485,0.0126805606353489));
#874=CARTESIAN_POINT('',(0.00496640326991202,-0.0157034184298866,0.013));
#875=CARTESIAN_POINT('',(0.0045,-0.0153541525327841,0.013));
#876=CARTESIAN_POINT('',(3.90312782094781E-18,4.77048955893622E-18,0.011));
#877=CARTESIAN_POINT('',(0.0151986841535707,0.005,0.011));
#878=CARTESIAN_POINT('',(0.0151986841535707,0.005,0.011));
#879=CARTESIAN_POINT('',(-0.0045,-0.00589270516579726,0.002));
#880=CARTESIAN_POINT('',(-0.0045,-0.0437854103315946,0.002));
#881=CARTESIAN_POINT('',(-0.0065,-0.0167854103315945,0.002));
#882=CARTESIAN_POINT('',(-0.0065,-0.0167854103315945,0.00140811839438769));
#883=CARTESIAN_POINT('',(-0.00593895838807045,-0.0164040061179485,0.000319439364651074));
#884=CARTESIAN_POINT('',(-0.00496640326991202,-0.0157034184298866,2.32378007924312E-18));
#885=CARTESIAN_POINT('',(-0.0045,-0.0153541525327841,0.));
#886=CARTESIAN_POINT('',(2.16840434497101E-18,4.33680868994202E-19,0.002));
#887=CARTESIAN_POINT('',(-0.0151986841535707,0.005,0.002));
#888=CARTESIAN_POINT('',(-0.0151986841535707,0.005,0.002));
#889=CARTESIAN_POINT('',(0.0045,-0.00589270516579726,0.002));
#890=CARTESIAN_POINT('',(0.0045,-0.0437854103315946,0.002));
#891=CARTESIAN_POINT('',(0.0065,-0.0167854103315945,0.002));
#892=CARTESIAN_POINT('',(0.0065,-0.0167854103315945,0.00140811839438769));
#893=CARTESIAN_POINT('',(0.00593895838807046,-0.0164040061179485,0.000319439364651075));
#894=CARTESIAN_POINT('',(0.00496640326991202,-0.0157034184298866,-9.56884309215812E-19));
#895=CARTESIAN_POINT('',(0.0045,-0.0153541525327841,-2.72751307004112E-35));
#896=CARTESIAN_POINT('',(3.90312782094781E-18,4.77048955893622E-18,0.002));
#897=CARTESIAN_POINT('',(0.0151986841535707,0.005,0.002));
#898=CARTESIAN_POINT('',(0.0151986841535707,0.005,0.002));
#899=CARTESIAN_POINT('',(0.,-0.0437854103315946,0.0065));
#900=CARTESIAN_POINT('',(2.16840434497101E-19,-0.0437854103315946,0.0065));
#901=CARTESIAN_POINT('',(2.16840434497101E-19,-0.0437854103315946,0.00475));
#902=CARTESIAN_POINT('',(2.16840434497101E-19,-0.0337854103315946,0.0065));
#903=CARTESIAN_POINT('',(2.16840434497101E-19,-0.0337854103315946,0.0065));
#904=CARTESIAN_POINT('',(2.16840434497101E-19,-0.0337854103315946,0.00475));
#905=CARTESIAN_POINT('',(0.,-0.0337854103315946,0.0065));
#906=MECHANICAL_DESIGN_GEOMETRIC_PRESENTATION_REPRESENTATION('',(#497),
#907);
#907=(
GEOMETRIC_REPRESENTATION_CONTEXT(3)
GLOBAL_UNCERTAINTY_ASSIGNED_CONTEXT((#908))
GLOBAL_UNIT_ASSIGNED_CONTEXT((#911,#910,#909))
REPRESENTATION_CONTEXT('Part 1','TOP_LEVEL_ASSEMBLY_PART')
);
#908=UNCERTAINTY_MEASURE_WITH_UNIT(LENGTH_MEASURE(2.E-5),#911,
'DISTANCE_ACCURACY_VALUE','Maximum Tolerance applied to model');
#909=(
NAMED_UNIT(*)
SI_UNIT($,.STERADIAN.)
SOLID_ANGLE_UNIT()
);
#910=(
NAMED_UNIT(*)
PLANE_ANGLE_UNIT()
SI_UNIT($,.RADIAN.)
);
#911=(
LENGTH_UNIT()
NAMED_UNIT(*)
SI_UNIT($,.METRE.)
);
#912=PRODUCT_DEFINITION_SHAPE('','',#913);
#913=PRODUCT_DEFINITION('','',#915,#914);
#914=PRODUCT_DEFINITION_CONTEXT('',#921,'design');
#915=PRODUCT_DEFINITION_FORMATION_WITH_SPECIFIED_SOURCE('','',#917,
 .NOT_KNOWN.);
#916=PRODUCT_RELATED_PRODUCT_CATEGORY('','',(#917));
#917=PRODUCT('Part 1','Part 1','Part 1',(#919));
#918=PRODUCT_CATEGORY('','');
#919=PRODUCT_CONTEXT('',#921,'mechanical');
#920=APPLICATION_PROTOCOL_DEFINITION('international standard',
'ap242_managed_model_based_3d_engineering',2020,#921);
#921=APPLICATION_CONTEXT('managed model based 3d engineering');
ENDSEC;
END-ISO-10303-21;
