ISO-10303-21;
HEADER;
/* Generated by software containing ST-Developer
 * from STEP Tools, Inc. (www.steptools.com) 
 */
/* OPTION: using custom renumber hook */

FILE_DESCRIPTION(
/* description */ ('STEP AP242 Edition 2',
'CAx-IF Rec.Pracs.---Representation and Presentation of Product Manufa
cturing Information (PMI)---4.0---2014-10-13',
'CAx-IF Rec.Pracs.---3D Tessellated Geometry---0.4---2014-09-14','2;1',
'CAx-IF Rec.Pracs.---User Defined Attributes---1.5---2016-08-15'),
/* implementation_level */ '2;1');

FILE_NAME(
/* name */ '69554f4044b2cdb18115f174',
/* time_stamp */ '2025-12-31T16:28:48Z',
/* author */ (''),
/* organization */ (''),
/* preprocessor_version */ 'ST-DEVELOPER v20',
/* originating_system */ 'ONSHAPE BY PTC INC, 1.208',
/* authorisation */ '  ');

FILE_SCHEMA (('AP242_MANAGED_MODEL_BASED_3D_ENGINEERING_MIM_LF { 1 0 10303 442 3 1 4 }'));
ENDSEC;

DATA;
#10=SHAPE_REPRESENTATION_RELATIONSHIP('','',#569,#11);
#11=ADVANCED_BREP_SHAPE_REPRESENTATION('',(#567),#999);
#12=B_SPLINE_CURVE_WITH_KNOTS('',3,(#952,#953,#954,#955,#956),
 .UNSPECIFIED.,.F.,.F.,(4,1,4),(0.,0.00174804506746343,0.00349609013492685),
 .UNSPECIFIED.);
#13=B_SPLINE_CURVE_WITH_KNOTS('',3,(#961,#962,#963,#964,#965),
 .UNSPECIFIED.,.F.,.F.,(4,1,4),(0.,0.00174804506746343,0.00349609013492685),
 .UNSPECIFIED.);
#14=B_SPLINE_CURVE_WITH_KNOTS('',3,(#971,#972,#973,#974,#975),
 .UNSPECIFIED.,.F.,.F.,(4,1,4),(0.,0.00174804506746343,0.00349609013492685),
 .UNSPECIFIED.);
#15=B_SPLINE_CURVE_WITH_KNOTS('',3,(#981,#982,#983,#984,#985),
 .UNSPECIFIED.,.F.,.F.,(4,1,4),(0.,0.00174804506746342,0.00349609013492685),
 .UNSPECIFIED.);
#16=TOROIDAL_SURFACE('',#616,0.016,0.002);
#17=TOROIDAL_SURFACE('',#621,0.016,0.002);
#18=TOROIDAL_SURFACE('',#626,0.016,0.002);
#19=TOROIDAL_SURFACE('',#631,0.016,0.002);
#20=SPHERICAL_SURFACE('',#614,0.002);
#21=SPHERICAL_SURFACE('',#623,0.002);
#22=SPHERICAL_SURFACE('',#628,0.002);
#23=SPHERICAL_SURFACE('',#633,0.002);
#24=ELLIPSE('',#596,0.00282842712474619,0.002);
#25=ELLIPSE('',#598,0.00282842712474619,0.002);
#26=ELLIPSE('',#606,0.00282842712474619,0.002);
#27=ELLIPSE('',#608,0.00282842712474619,0.002);
#28=PLANE('',#574);
#29=PLANE('',#575);
#30=PLANE('',#579);
#31=PLANE('',#583);
#32=PLANE('',#584);
#33=PLANE('',#589);
#34=PLANE('',#634);
#35=PLANE('',#635);
#36=PLANE('',#636);
#37=PLANE('',#637);
#38=PLANE('',#638);
#39=CIRCLE('',#572,0.018);
#40=CIRCLE('',#573,0.018);
#41=CIRCLE('',#577,0.018);
#42=CIRCLE('',#578,0.018);
#43=CIRCLE('',#581,0.013);
#44=CIRCLE('',#582,0.013);
#45=CIRCLE('',#585,0.016);
#46=CIRCLE('',#586,0.016);
#47=CIRCLE('',#587,0.002);
#48=CIRCLE('',#588,0.002);
#49=CIRCLE('',#590,0.016);
#50=CIRCLE('',#591,0.002);
#51=CIRCLE('',#592,0.002);
#52=CIRCLE('',#593,0.016);
#53=CIRCLE('',#595,0.002);
#54=CIRCLE('',#600,0.002);
#55=CIRCLE('',#601,0.002);
#56=CIRCLE('',#603,0.002);
#57=CIRCLE('',#605,0.002);
#58=CIRCLE('',#610,0.002);
#59=CIRCLE('',#611,0.002);
#60=CIRCLE('',#613,0.002);
#61=CIRCLE('',#615,0.002);
#62=CIRCLE('',#618,0.002);
#63=CIRCLE('',#620,0.002);
#64=CIRCLE('',#622,0.002);
#65=CIRCLE('',#625,0.002);
#66=CIRCLE('',#627,0.002);
#67=CIRCLE('',#630,0.002);
#68=CIRCLE('',#632,0.002);
#69=ORIENTED_EDGE('',*,*,#229,.F.);
#70=ORIENTED_EDGE('',*,*,#230,.T.);
#71=ORIENTED_EDGE('',*,*,#231,.T.);
#72=ORIENTED_EDGE('',*,*,#232,.T.);
#73=ORIENTED_EDGE('',*,*,#233,.T.);
#74=ORIENTED_EDGE('',*,*,#234,.F.);
#75=ORIENTED_EDGE('',*,*,#235,.T.);
#76=ORIENTED_EDGE('',*,*,#229,.T.);
#77=ORIENTED_EDGE('',*,*,#236,.F.);
#78=ORIENTED_EDGE('',*,*,#237,.T.);
#79=ORIENTED_EDGE('',*,*,#238,.T.);
#80=ORIENTED_EDGE('',*,*,#239,.T.);
#81=ORIENTED_EDGE('',*,*,#240,.T.);
#82=ORIENTED_EDGE('',*,*,#241,.T.);
#83=ORIENTED_EDGE('',*,*,#236,.T.);
#84=ORIENTED_EDGE('',*,*,#242,.T.);
#85=ORIENTED_EDGE('',*,*,#243,.T.);
#86=ORIENTED_EDGE('',*,*,#244,.T.);
#87=ORIENTED_EDGE('',*,*,#245,.T.);
#88=ORIENTED_EDGE('',*,*,#246,.T.);
#89=ORIENTED_EDGE('',*,*,#247,.T.);
#90=ORIENTED_EDGE('',*,*,#248,.T.);
#91=ORIENTED_EDGE('',*,*,#249,.F.);
#92=ORIENTED_EDGE('',*,*,#250,.T.);
#93=ORIENTED_EDGE('',*,*,#251,.T.);
#94=ORIENTED_EDGE('',*,*,#252,.T.);
#95=ORIENTED_EDGE('',*,*,#253,.T.);
#96=ORIENTED_EDGE('',*,*,#254,.T.);
#97=ORIENTED_EDGE('',*,*,#255,.T.);
#98=ORIENTED_EDGE('',*,*,#256,.T.);
#99=ORIENTED_EDGE('',*,*,#257,.T.);
#100=ORIENTED_EDGE('',*,*,#258,.F.);
#101=ORIENTED_EDGE('',*,*,#259,.F.);
#102=ORIENTED_EDGE('',*,*,#260,.T.);
#103=ORIENTED_EDGE('',*,*,#261,.T.);
#104=ORIENTED_EDGE('',*,*,#262,.T.);
#105=ORIENTED_EDGE('',*,*,#263,.T.);
#106=ORIENTED_EDGE('',*,*,#264,.T.);
#107=ORIENTED_EDGE('',*,*,#265,.T.);
#108=ORIENTED_EDGE('',*,*,#247,.F.);
#109=ORIENTED_EDGE('',*,*,#266,.T.);
#110=ORIENTED_EDGE('',*,*,#267,.T.);
#111=ORIENTED_EDGE('',*,*,#268,.T.);
#112=ORIENTED_EDGE('',*,*,#269,.T.);
#113=ORIENTED_EDGE('',*,*,#270,.T.);
#114=ORIENTED_EDGE('',*,*,#271,.T.);
#115=ORIENTED_EDGE('',*,*,#249,.T.);
#116=ORIENTED_EDGE('',*,*,#272,.T.);
#117=ORIENTED_EDGE('',*,*,#273,.T.);
#118=ORIENTED_EDGE('',*,*,#274,.T.);
#119=ORIENTED_EDGE('',*,*,#275,.T.);
#120=ORIENTED_EDGE('',*,*,#276,.F.);
#121=ORIENTED_EDGE('',*,*,#277,.F.);
#122=ORIENTED_EDGE('',*,*,#278,.T.);
#123=ORIENTED_EDGE('',*,*,#279,.T.);
#124=ORIENTED_EDGE('',*,*,#280,.F.);
#125=ORIENTED_EDGE('',*,*,#245,.F.);
#126=ORIENTED_EDGE('',*,*,#281,.T.);
#127=ORIENTED_EDGE('',*,*,#273,.F.);
#128=ORIENTED_EDGE('',*,*,#282,.F.);
#129=ORIENTED_EDGE('',*,*,#248,.F.);
#130=ORIENTED_EDGE('',*,*,#265,.F.);
#131=ORIENTED_EDGE('',*,*,#283,.F.);
#132=ORIENTED_EDGE('',*,*,#246,.F.);
#133=ORIENTED_EDGE('',*,*,#282,.T.);
#134=ORIENTED_EDGE('',*,*,#272,.F.);
#135=ORIENTED_EDGE('',*,*,#244,.F.);
#136=ORIENTED_EDGE('',*,*,#284,.T.);
#137=ORIENTED_EDGE('',*,*,#240,.F.);
#138=ORIENTED_EDGE('',*,*,#285,.T.);
#139=ORIENTED_EDGE('',*,*,#264,.F.);
#140=ORIENTED_EDGE('',*,*,#286,.T.);
#141=ORIENTED_EDGE('',*,*,#243,.F.);
#142=ORIENTED_EDGE('',*,*,#283,.T.);
#143=ORIENTED_EDGE('',*,*,#270,.F.);
#144=ORIENTED_EDGE('',*,*,#287,.T.);
#145=ORIENTED_EDGE('',*,*,#251,.F.);
#146=ORIENTED_EDGE('',*,*,#288,.F.);
#147=ORIENTED_EDGE('',*,*,#288,.T.);
#148=ORIENTED_EDGE('',*,*,#254,.F.);
#149=ORIENTED_EDGE('',*,*,#289,.F.);
#150=ORIENTED_EDGE('',*,*,#266,.F.);
#151=ORIENTED_EDGE('',*,*,#250,.F.);
#152=ORIENTED_EDGE('',*,*,#271,.F.);
#153=ORIENTED_EDGE('',*,*,#231,.F.);
#154=ORIENTED_EDGE('',*,*,#290,.T.);
#155=ORIENTED_EDGE('',*,*,#252,.F.);
#156=ORIENTED_EDGE('',*,*,#291,.T.);
#157=ORIENTED_EDGE('',*,*,#253,.F.);
#158=ORIENTED_EDGE('',*,*,#292,.T.);
#159=ORIENTED_EDGE('',*,*,#267,.F.);
#160=ORIENTED_EDGE('',*,*,#289,.T.);
#161=ORIENTED_EDGE('',*,*,#293,.F.);
#162=ORIENTED_EDGE('',*,*,#292,.F.);
#163=ORIENTED_EDGE('',*,*,#290,.F.);
#164=ORIENTED_EDGE('',*,*,#293,.T.);
#165=ORIENTED_EDGE('',*,*,#230,.F.);
#166=ORIENTED_EDGE('',*,*,#294,.F.);
#167=ORIENTED_EDGE('',*,*,#255,.F.);
#168=ORIENTED_EDGE('',*,*,#235,.F.);
#169=ORIENTED_EDGE('',*,*,#295,.F.);
#170=ORIENTED_EDGE('',*,*,#256,.F.);
#171=ORIENTED_EDGE('',*,*,#294,.T.);
#172=ORIENTED_EDGE('',*,*,#262,.F.);
#173=ORIENTED_EDGE('',*,*,#296,.F.);
#174=ORIENTED_EDGE('',*,*,#237,.F.);
#175=ORIENTED_EDGE('',*,*,#297,.F.);
#176=ORIENTED_EDGE('',*,*,#298,.F.);
#177=ORIENTED_EDGE('',*,*,#263,.F.);
#178=ORIENTED_EDGE('',*,*,#297,.T.);
#179=ORIENTED_EDGE('',*,*,#241,.F.);
#180=ORIENTED_EDGE('',*,*,#298,.T.);
#181=ORIENTED_EDGE('',*,*,#284,.F.);
#182=ORIENTED_EDGE('',*,*,#286,.F.);
#183=ORIENTED_EDGE('',*,*,#268,.F.);
#184=ORIENTED_EDGE('',*,*,#299,.F.);
#185=ORIENTED_EDGE('',*,*,#233,.F.);
#186=ORIENTED_EDGE('',*,*,#300,.F.);
#187=ORIENTED_EDGE('',*,*,#301,.F.);
#188=ORIENTED_EDGE('',*,*,#269,.F.);
#189=ORIENTED_EDGE('',*,*,#300,.T.);
#190=ORIENTED_EDGE('',*,*,#232,.F.);
#191=ORIENTED_EDGE('',*,*,#291,.F.);
#192=ORIENTED_EDGE('',*,*,#287,.F.);
#193=ORIENTED_EDGE('',*,*,#301,.T.);
#194=ORIENTED_EDGE('',*,*,#239,.F.);
#195=ORIENTED_EDGE('',*,*,#302,.F.);
#196=ORIENTED_EDGE('',*,*,#275,.F.);
#197=ORIENTED_EDGE('',*,*,#303,.F.);
#198=ORIENTED_EDGE('',*,*,#304,.F.);
#199=ORIENTED_EDGE('',*,*,#242,.F.);
#200=ORIENTED_EDGE('',*,*,#303,.T.);
#201=ORIENTED_EDGE('',*,*,#274,.F.);
#202=ORIENTED_EDGE('',*,*,#304,.T.);
#203=ORIENTED_EDGE('',*,*,#281,.F.);
#204=ORIENTED_EDGE('',*,*,#285,.F.);
#205=ORIENTED_EDGE('',*,*,#257,.F.);
#206=ORIENTED_EDGE('',*,*,#295,.T.);
#207=ORIENTED_EDGE('',*,*,#234,.T.);
#208=ORIENTED_EDGE('',*,*,#299,.T.);
#209=ORIENTED_EDGE('',*,*,#280,.T.);
#210=ORIENTED_EDGE('',*,*,#305,.F.);
#211=ORIENTED_EDGE('',*,*,#238,.F.);
#212=ORIENTED_EDGE('',*,*,#296,.T.);
#213=ORIENTED_EDGE('',*,*,#261,.F.);
#214=ORIENTED_EDGE('',*,*,#306,.T.);
#215=ORIENTED_EDGE('',*,*,#276,.T.);
#216=ORIENTED_EDGE('',*,*,#302,.T.);
#217=ORIENTED_EDGE('',*,*,#305,.T.);
#218=ORIENTED_EDGE('',*,*,#279,.F.);
#219=ORIENTED_EDGE('',*,*,#307,.F.);
#220=ORIENTED_EDGE('',*,*,#258,.T.);
#221=ORIENTED_EDGE('',*,*,#306,.F.);
#222=ORIENTED_EDGE('',*,*,#260,.F.);
#223=ORIENTED_EDGE('',*,*,#308,.T.);
#224=ORIENTED_EDGE('',*,*,#277,.T.);
#225=ORIENTED_EDGE('',*,*,#259,.T.);
#226=ORIENTED_EDGE('',*,*,#307,.T.);
#227=ORIENTED_EDGE('',*,*,#278,.F.);
#228=ORIENTED_EDGE('',*,*,#308,.F.);
#229=EDGE_CURVE('',#309,#310,#357,.T.);
#230=EDGE_CURVE('',#309,#311,#39,.F.);
#231=EDGE_CURVE('',#311,#312,#358,.T.);
#232=EDGE_CURVE('',#312,#310,#40,.T.);
#233=EDGE_CURVE('',#310,#313,#359,.F.);
#234=EDGE_CURVE('',#314,#313,#360,.T.);
#235=EDGE_CURVE('',#314,#309,#361,.T.);
#236=EDGE_CURVE('',#315,#316,#362,.T.);
#237=EDGE_CURVE('',#315,#317,#363,.T.);
#238=EDGE_CURVE('',#317,#318,#364,.T.);
#239=EDGE_CURVE('',#318,#316,#365,.F.);
#240=EDGE_CURVE('',#319,#320,#366,.F.);
#241=EDGE_CURVE('',#320,#315,#41,.F.);
#242=EDGE_CURVE('',#316,#319,#42,.T.);
#243=EDGE_CURVE('',#321,#322,#367,.T.);
#244=EDGE_CURVE('',#322,#323,#368,.F.);
#245=EDGE_CURVE('',#323,#324,#369,.F.);
#246=EDGE_CURVE('',#324,#321,#370,.F.);
#247=EDGE_CURVE('',#325,#326,#43,.T.);
#248=EDGE_CURVE('',#326,#327,#371,.T.);
#249=EDGE_CURVE('',#328,#327,#44,.T.);
#250=EDGE_CURVE('',#328,#325,#372,.F.);
#251=EDGE_CURVE('',#329,#330,#373,.T.);
#252=EDGE_CURVE('',#330,#331,#374,.F.);
#253=EDGE_CURVE('',#331,#332,#375,.F.);
#254=EDGE_CURVE('',#332,#329,#376,.F.);
#255=EDGE_CURVE('',#333,#334,#45,.T.);
#256=EDGE_CURVE('',#334,#335,#377,.F.);
#257=EDGE_CURVE('',#335,#336,#378,.T.);
#258=EDGE_CURVE('',#337,#336,#379,.T.);
#259=EDGE_CURVE('',#338,#337,#380,.T.);
#260=EDGE_CURVE('',#338,#339,#381,.T.);
#261=EDGE_CURVE('',#339,#340,#382,.T.);
#262=EDGE_CURVE('',#340,#341,#383,.F.);
#263=EDGE_CURVE('',#341,#342,#46,.T.);
#264=EDGE_CURVE('',#342,#343,#384,.F.);
#265=EDGE_CURVE('',#343,#326,#47,.T.);
#266=EDGE_CURVE('',#325,#344,#48,.T.);
#267=EDGE_CURVE('',#344,#333,#385,.T.);
#268=EDGE_CURVE('',#345,#346,#386,.T.);
#269=EDGE_CURVE('',#346,#347,#49,.F.);
#270=EDGE_CURVE('',#347,#348,#387,.F.);
#271=EDGE_CURVE('',#348,#328,#50,.F.);
#272=EDGE_CURVE('',#327,#349,#51,.F.);
#273=EDGE_CURVE('',#349,#350,#388,.T.);
#274=EDGE_CURVE('',#350,#351,#52,.F.);
#275=EDGE_CURVE('',#351,#352,#389,.T.);
#276=EDGE_CURVE('',#353,#352,#390,.T.);
#277=EDGE_CURVE('',#354,#353,#391,.T.);
#278=EDGE_CURVE('',#354,#355,#392,.T.);
#279=EDGE_CURVE('',#355,#356,#393,.T.);
#280=EDGE_CURVE('',#345,#356,#394,.T.);
#281=EDGE_CURVE('',#323,#350,#53,.T.);
#282=EDGE_CURVE('',#324,#349,#24,.F.);
#283=EDGE_CURVE('',#321,#343,#25,.F.);
#284=EDGE_CURVE('',#322,#320,#54,.T.);
#285=EDGE_CURVE('',#319,#323,#55,.F.);
#286=EDGE_CURVE('',#342,#322,#56,.F.);
#287=EDGE_CURVE('',#347,#330,#57,.F.);
#288=EDGE_CURVE('',#348,#329,#26,.F.);
#289=EDGE_CURVE('',#344,#332,#27,.F.);
#290=EDGE_CURVE('',#311,#331,#58,.T.);
#291=EDGE_CURVE('',#330,#312,#59,.F.);
#292=EDGE_CURVE('',#331,#333,#60,.T.);
#293=EDGE_CURVE('',#333,#311,#61,.T.);
#294=EDGE_CURVE('',#334,#309,#12,.F.);
#295=EDGE_CURVE('',#335,#314,#62,.T.);
#296=EDGE_CURVE('',#317,#340,#63,.T.);
#297=EDGE_CURVE('',#341,#315,#13,.F.);
#298=EDGE_CURVE('',#342,#320,#64,.T.);
#299=EDGE_CURVE('',#313,#345,#65,.T.);
#300=EDGE_CURVE('',#346,#310,#14,.F.);
#301=EDGE_CURVE('',#347,#312,#66,.T.);
#302=EDGE_CURVE('',#352,#318,#67,.T.);
#303=EDGE_CURVE('',#316,#351,#15,.T.);
#304=EDGE_CURVE('',#319,#350,#68,.T.);
#305=EDGE_CURVE('',#336,#356,#395,.T.);
#306=EDGE_CURVE('',#339,#353,#396,.T.);
#307=EDGE_CURVE('',#337,#355,#397,.T.);
#308=EDGE_CURVE('',#338,#354,#398,.T.);
#309=VERTEX_POINT('',#822);
#310=VERTEX_POINT('',#823);
#311=VERTEX_POINT('',#825);
#312=VERTEX_POINT('',#827);
#313=VERTEX_POINT('',#831);
#314=VERTEX_POINT('',#833);
#315=VERTEX_POINT('',#837);
#316=VERTEX_POINT('',#838);
#317=VERTEX_POINT('',#840);
#318=VERTEX_POINT('',#842);
#319=VERTEX_POINT('',#846);
#320=VERTEX_POINT('',#847);
#321=VERTEX_POINT('',#852);
#322=VERTEX_POINT('',#853);
#323=VERTEX_POINT('',#855);
#324=VERTEX_POINT('',#857);
#325=VERTEX_POINT('',#861);
#326=VERTEX_POINT('',#862);
#327=VERTEX_POINT('',#864);
#328=VERTEX_POINT('',#866);
#329=VERTEX_POINT('',#870);
#330=VERTEX_POINT('',#871);
#331=VERTEX_POINT('',#873);
#332=VERTEX_POINT('',#875);
#333=VERTEX_POINT('',#879);
#334=VERTEX_POINT('',#880);
#335=VERTEX_POINT('',#882);
#336=VERTEX_POINT('',#884);
#337=VERTEX_POINT('',#886);
#338=VERTEX_POINT('',#888);
#339=VERTEX_POINT('',#890);
#340=VERTEX_POINT('',#892);
#341=VERTEX_POINT('',#894);
#342=VERTEX_POINT('',#896);
#343=VERTEX_POINT('',#898);
#344=VERTEX_POINT('',#901);
#345=VERTEX_POINT('',#905);
#346=VERTEX_POINT('',#906);
#347=VERTEX_POINT('',#908);
#348=VERTEX_POINT('',#910);
#349=VERTEX_POINT('',#913);
#350=VERTEX_POINT('',#915);
#351=VERTEX_POINT('',#917);
#352=VERTEX_POINT('',#919);
#353=VERTEX_POINT('',#921);
#354=VERTEX_POINT('',#923);
#355=VERTEX_POINT('',#925);
#356=VERTEX_POINT('',#927);
#357=LINE('',#821,#399);
#358=LINE('',#826,#400);
#359=LINE('',#830,#401);
#360=LINE('',#832,#402);
#361=LINE('',#834,#403);
#362=LINE('',#836,#404);
#363=LINE('',#839,#405);
#364=LINE('',#841,#406);
#365=LINE('',#843,#407);
#366=LINE('',#845,#408);
#367=LINE('',#851,#409);
#368=LINE('',#854,#410);
#369=LINE('',#856,#411);
#370=LINE('',#858,#412);
#371=LINE('',#863,#413);
#372=LINE('',#867,#414);
#373=LINE('',#869,#415);
#374=LINE('',#872,#416);
#375=LINE('',#874,#417);
#376=LINE('',#876,#418);
#377=LINE('',#881,#419);
#378=LINE('',#883,#420);
#379=LINE('',#885,#421);
#380=LINE('',#887,#422);
#381=LINE('',#889,#423);
#382=LINE('',#891,#424);
#383=LINE('',#893,#425);
#384=LINE('',#897,#426);
#385=LINE('',#902,#427);
#386=LINE('',#904,#428);
#387=LINE('',#909,#429);
#388=LINE('',#914,#430);
#389=LINE('',#918,#431);
#390=LINE('',#920,#432);
#391=LINE('',#922,#433);
#392=LINE('',#924,#434);
#393=LINE('',#926,#435);
#394=LINE('',#928,#436);
#395=LINE('',#990,#437);
#396=LINE('',#992,#438);
#397=LINE('',#994,#439);
#398=LINE('',#996,#440);
#399=VECTOR('',#643,1.);
#400=VECTOR('',#646,1.);
#401=VECTOR('',#651,1.);
#402=VECTOR('',#652,1.);
#403=VECTOR('',#653,1.);
#404=VECTOR('',#656,1.);
#405=VECTOR('',#657,1.);
#406=VECTOR('',#658,1.);
#407=VECTOR('',#659,1.);
#408=VECTOR('',#662,1.);
#409=VECTOR('',#669,1.);
#410=VECTOR('',#670,1.);
#411=VECTOR('',#671,1.);
#412=VECTOR('',#672,1.);
#413=VECTOR('',#677,1.);
#414=VECTOR('',#680,1.);
#415=VECTOR('',#683,1.);
#416=VECTOR('',#684,1.);
#417=VECTOR('',#685,1.);
#418=VECTOR('',#686,1.);
#419=VECTOR('',#691,1.);
#420=VECTOR('',#692,1.);
#421=VECTOR('',#693,1.);
#422=VECTOR('',#694,1.);
#423=VECTOR('',#695,1.);
#424=VECTOR('',#696,1.);
#425=VECTOR('',#697,1.);
#426=VECTOR('',#700,1.);
#427=VECTOR('',#705,1.);
#428=VECTOR('',#708,1.);
#429=VECTOR('',#711,1.);
#430=VECTOR('',#716,1.);
#431=VECTOR('',#719,1.);
#432=VECTOR('',#720,1.);
#433=VECTOR('',#721,1.);
#434=VECTOR('',#722,1.);
#435=VECTOR('',#723,1.);
#436=VECTOR('',#724,1.);
#437=VECTOR('',#807,1.);
#438=VECTOR('',#810,1.);
#439=VECTOR('',#813,1.);
#440=VECTOR('',#816,1.);
#441=EDGE_LOOP('',(#69,#70,#71,#72));
#442=EDGE_LOOP('',(#73,#74,#75,#76));
#443=EDGE_LOOP('',(#77,#78,#79,#80));
#444=EDGE_LOOP('',(#81,#82,#83,#84));
#445=EDGE_LOOP('',(#85,#86,#87,#88));
#446=EDGE_LOOP('',(#89,#90,#91,#92));
#447=EDGE_LOOP('',(#93,#94,#95,#96));
#448=EDGE_LOOP('',(#97,#98,#99,#100,#101,#102,#103,#104,#105,#106,#107,
#108,#109,#110));
#449=EDGE_LOOP('',(#111,#112,#113,#114,#115,#116,#117,#118,#119,#120,#121,
#122,#123,#124));
#450=EDGE_LOOP('',(#125,#126,#127,#128));
#451=EDGE_LOOP('',(#129,#130,#131,#132,#133,#134));
#452=EDGE_LOOP('',(#135,#136,#137,#138));
#453=EDGE_LOOP('',(#139,#140,#141,#142));
#454=EDGE_LOOP('',(#143,#144,#145,#146));
#455=EDGE_LOOP('',(#147,#148,#149,#150,#151,#152));
#456=EDGE_LOOP('',(#153,#154,#155,#156));
#457=EDGE_LOOP('',(#157,#158,#159,#160));
#458=EDGE_LOOP('',(#161,#162,#163));
#459=EDGE_LOOP('',(#164,#165,#166,#167));
#460=EDGE_LOOP('',(#168,#169,#170,#171));
#461=EDGE_LOOP('',(#172,#173,#174,#175));
#462=EDGE_LOOP('',(#176,#177,#178,#179));
#463=EDGE_LOOP('',(#180,#181,#182));
#464=EDGE_LOOP('',(#183,#184,#185,#186));
#465=EDGE_LOOP('',(#187,#188,#189,#190));
#466=EDGE_LOOP('',(#191,#192,#193));
#467=EDGE_LOOP('',(#194,#195,#196,#197));
#468=EDGE_LOOP('',(#198,#199,#200,#201));
#469=EDGE_LOOP('',(#202,#203,#204));
#470=EDGE_LOOP('',(#205,#206,#207,#208,#209,#210));
#471=EDGE_LOOP('',(#211,#212,#213,#214,#215,#216));
#472=EDGE_LOOP('',(#217,#218,#219,#220));
#473=EDGE_LOOP('',(#221,#222,#223,#224));
#474=EDGE_LOOP('',(#225,#226,#227,#228));
#475=FACE_BOUND('',#441,.T.);
#476=FACE_BOUND('',#442,.T.);
#477=FACE_BOUND('',#443,.T.);
#478=FACE_BOUND('',#444,.T.);
#479=FACE_BOUND('',#445,.T.);
#480=FACE_BOUND('',#446,.T.);
#481=FACE_BOUND('',#447,.T.);
#482=FACE_BOUND('',#448,.T.);
#483=FACE_BOUND('',#449,.T.);
#484=FACE_BOUND('',#450,.T.);
#485=FACE_BOUND('',#451,.T.);
#486=FACE_BOUND('',#452,.T.);
#487=FACE_BOUND('',#453,.T.);
#488=FACE_BOUND('',#454,.T.);
#489=FACE_BOUND('',#455,.T.);
#490=FACE_BOUND('',#456,.T.);
#491=FACE_BOUND('',#457,.T.);
#492=FACE_BOUND('',#458,.T.);
#493=FACE_BOUND('',#459,.T.);
#494=FACE_BOUND('',#460,.T.);
#495=FACE_BOUND('',#461,.T.);
#496=FACE_BOUND('',#462,.T.);
#497=FACE_BOUND('',#463,.T.);
#498=FACE_BOUND('',#464,.T.);
#499=FACE_BOUND('',#465,.T.);
#500=FACE_BOUND('',#466,.T.);
#501=FACE_BOUND('',#467,.T.);
#502=FACE_BOUND('',#468,.T.);
#503=FACE_BOUND('',#469,.T.);
#504=FACE_BOUND('',#470,.T.);
#505=FACE_BOUND('',#471,.T.);
#506=FACE_BOUND('',#472,.T.);
#507=FACE_BOUND('',#473,.T.);
#508=FACE_BOUND('',#474,.T.);
#509=CYLINDRICAL_SURFACE('',#571,0.018);
#510=CYLINDRICAL_SURFACE('',#576,0.018);
#511=CYLINDRICAL_SURFACE('',#580,0.013);
#512=CYLINDRICAL_SURFACE('',#594,0.002);
#513=CYLINDRICAL_SURFACE('',#597,0.002);
#514=CYLINDRICAL_SURFACE('',#599,0.002);
#515=CYLINDRICAL_SURFACE('',#602,0.002);
#516=CYLINDRICAL_SURFACE('',#604,0.002);
#517=CYLINDRICAL_SURFACE('',#607,0.002);
#518=CYLINDRICAL_SURFACE('',#609,0.002);
#519=CYLINDRICAL_SURFACE('',#612,0.002);
#520=CYLINDRICAL_SURFACE('',#617,0.002);
#521=CYLINDRICAL_SURFACE('',#619,0.002);
#522=CYLINDRICAL_SURFACE('',#624,0.002);
#523=CYLINDRICAL_SURFACE('',#629,0.002);
#524=ADVANCED_FACE('',(#475),#509,.T.);
#525=ADVANCED_FACE('',(#476),#28,.T.);
#526=ADVANCED_FACE('',(#477),#29,.T.);
#527=ADVANCED_FACE('',(#478),#510,.T.);
#528=ADVANCED_FACE('',(#479),#30,.T.);
#529=ADVANCED_FACE('',(#480),#511,.F.);
#530=ADVANCED_FACE('',(#481),#31,.F.);
#531=ADVANCED_FACE('',(#482),#32,.T.);
#532=ADVANCED_FACE('',(#483),#33,.F.);
#533=ADVANCED_FACE('',(#484),#512,.T.);
#534=ADVANCED_FACE('',(#485),#513,.T.);
#535=ADVANCED_FACE('',(#486),#514,.T.);
#536=ADVANCED_FACE('',(#487),#515,.T.);
#537=ADVANCED_FACE('',(#488),#516,.T.);
#538=ADVANCED_FACE('',(#489),#517,.T.);
#539=ADVANCED_FACE('',(#490),#518,.T.);
#540=ADVANCED_FACE('',(#491),#519,.T.);
#541=ADVANCED_FACE('',(#492),#20,.T.);
#542=ADVANCED_FACE('',(#493),#16,.T.);
#543=ADVANCED_FACE('',(#494),#520,.T.);
#544=ADVANCED_FACE('',(#495),#521,.T.);
#545=ADVANCED_FACE('',(#496),#17,.T.);
#546=ADVANCED_FACE('',(#497),#21,.T.);
#547=ADVANCED_FACE('',(#498),#522,.T.);
#548=ADVANCED_FACE('',(#499),#18,.T.);
#549=ADVANCED_FACE('',(#500),#22,.T.);
#550=ADVANCED_FACE('',(#501),#523,.T.);
#551=ADVANCED_FACE('',(#502),#19,.T.);
#552=ADVANCED_FACE('',(#503),#23,.T.);
#553=ADVANCED_FACE('',(#504),#34,.F.);
#554=ADVANCED_FACE('',(#505),#35,.F.);
#555=ADVANCED_FACE('',(#506),#36,.F.);
#556=ADVANCED_FACE('',(#507),#37,.T.);
#557=ADVANCED_FACE('',(#508),#38,.T.);
#558=CLOSED_SHELL('',(#524,#525,#526,#527,#528,#529,#530,#531,#532,#533,
#534,#535,#536,#537,#538,#539,#540,#541,#542,#543,#544,#545,#546,#547,#548,
#549,#550,#551,#552,#553,#554,#555,#556,#557));
#559=STYLED_ITEM('',(#560),#567);
#560=PRESENTATION_STYLE_ASSIGNMENT((#561));
#561=SURFACE_STYLE_USAGE(.BOTH.,#562);
#562=SURFACE_SIDE_STYLE('',(#563));
#563=SURFACE_STYLE_FILL_AREA(#564);
#564=FILL_AREA_STYLE('',(#565));
#565=FILL_AREA_STYLE_COLOUR('',#566);
#566=COLOUR_RGB('',0.615686274509804,0.811764705882353,0.929411764705882);
#567=MANIFOLD_SOLID_BREP('Part 1',#558);
#568=SHAPE_DEFINITION_REPRESENTATION(#1004,#569);
#569=SHAPE_REPRESENTATION('Part 1',(#570),#999);
#570=AXIS2_PLACEMENT_3D('',#819,#639,#640);
#571=AXIS2_PLACEMENT_3D('',#820,#641,#642);
#572=AXIS2_PLACEMENT_3D('',#824,#644,#645);
#573=AXIS2_PLACEMENT_3D('',#828,#647,#648);
#574=AXIS2_PLACEMENT_3D('',#829,#649,#650);
#575=AXIS2_PLACEMENT_3D('',#835,#654,#655);
#576=AXIS2_PLACEMENT_3D('',#844,#660,#661);
#577=AXIS2_PLACEMENT_3D('',#848,#663,#664);
#578=AXIS2_PLACEMENT_3D('',#849,#665,#666);
#579=AXIS2_PLACEMENT_3D('',#850,#667,#668);
#580=AXIS2_PLACEMENT_3D('',#859,#673,#674);
#581=AXIS2_PLACEMENT_3D('',#860,#675,#676);
#582=AXIS2_PLACEMENT_3D('',#865,#678,#679);
#583=AXIS2_PLACEMENT_3D('',#868,#681,#682);
#584=AXIS2_PLACEMENT_3D('',#877,#687,#688);
#585=AXIS2_PLACEMENT_3D('',#878,#689,#690);
#586=AXIS2_PLACEMENT_3D('',#895,#698,#699);
#587=AXIS2_PLACEMENT_3D('',#899,#701,#702);
#588=AXIS2_PLACEMENT_3D('',#900,#703,#704);
#589=AXIS2_PLACEMENT_3D('',#903,#706,#707);
#590=AXIS2_PLACEMENT_3D('',#907,#709,#710);
#591=AXIS2_PLACEMENT_3D('',#911,#712,#713);
#592=AXIS2_PLACEMENT_3D('',#912,#714,#715);
#593=AXIS2_PLACEMENT_3D('',#916,#717,#718);
#594=AXIS2_PLACEMENT_3D('',#929,#725,#726);
#595=AXIS2_PLACEMENT_3D('',#930,#727,#728);
#596=AXIS2_PLACEMENT_3D('',#931,#729,#730);
#597=AXIS2_PLACEMENT_3D('',#932,#731,#732);
#598=AXIS2_PLACEMENT_3D('',#933,#733,#734);
#599=AXIS2_PLACEMENT_3D('',#934,#735,#736);
#600=AXIS2_PLACEMENT_3D('',#935,#737,#738);
#601=AXIS2_PLACEMENT_3D('',#936,#739,#740);
#602=AXIS2_PLACEMENT_3D('',#937,#741,#742);
#603=AXIS2_PLACEMENT_3D('',#938,#743,#744);
#604=AXIS2_PLACEMENT_3D('',#939,#745,#746);
#605=AXIS2_PLACEMENT_3D('',#940,#747,#748);
#606=AXIS2_PLACEMENT_3D('',#941,#749,#750);
#607=AXIS2_PLACEMENT_3D('',#942,#751,#752);
#608=AXIS2_PLACEMENT_3D('',#943,#753,#754);
#609=AXIS2_PLACEMENT_3D('',#944,#755,#756);
#610=AXIS2_PLACEMENT_3D('',#945,#757,#758);
#611=AXIS2_PLACEMENT_3D('',#946,#759,#760);
#612=AXIS2_PLACEMENT_3D('',#947,#761,#762);
#613=AXIS2_PLACEMENT_3D('',#948,#763,#764);
#614=AXIS2_PLACEMENT_3D('',#949,#765,#766);
#615=AXIS2_PLACEMENT_3D('',#950,#767,#768);
#616=AXIS2_PLACEMENT_3D('',#951,#769,#770);
#617=AXIS2_PLACEMENT_3D('',#957,#771,#772);
#618=AXIS2_PLACEMENT_3D('',#958,#773,#774);
#619=AXIS2_PLACEMENT_3D('',#959,#775,#776);
#620=AXIS2_PLACEMENT_3D('',#960,#777,#778);
#621=AXIS2_PLACEMENT_3D('',#966,#779,#780);
#622=AXIS2_PLACEMENT_3D('',#967,#781,#782);
#623=AXIS2_PLACEMENT_3D('',#968,#783,#784);
#624=AXIS2_PLACEMENT_3D('',#969,#785,#786);
#625=AXIS2_PLACEMENT_3D('',#970,#787,#788);
#626=AXIS2_PLACEMENT_3D('',#976,#789,#790);
#627=AXIS2_PLACEMENT_3D('',#977,#791,#792);
#628=AXIS2_PLACEMENT_3D('',#978,#793,#794);
#629=AXIS2_PLACEMENT_3D('',#979,#795,#796);
#630=AXIS2_PLACEMENT_3D('',#980,#797,#798);
#631=AXIS2_PLACEMENT_3D('',#986,#799,#800);
#632=AXIS2_PLACEMENT_3D('',#987,#801,#802);
#633=AXIS2_PLACEMENT_3D('',#988,#803,#804);
#634=AXIS2_PLACEMENT_3D('',#989,#805,#806);
#635=AXIS2_PLACEMENT_3D('',#991,#808,#809);
#636=AXIS2_PLACEMENT_3D('',#993,#811,#812);
#637=AXIS2_PLACEMENT_3D('',#995,#814,#815);
#638=AXIS2_PLACEMENT_3D('',#997,#817,#818);
#639=DIRECTION('',(0.,0.,1.));
#640=DIRECTION('',(1.,0.,0.));
#641=DIRECTION('',(0.,0.,-1.));
#642=DIRECTION('',(-1.,0.,0.));
#643=DIRECTION('',(0.,0.,-1.));
#644=DIRECTION('',(0.,0.,1.));
#645=DIRECTION('',(1.,0.,0.));
#646=DIRECTION('',(0.,0.,-1.));
#647=DIRECTION('',(0.,0.,1.));
#648=DIRECTION('',(1.,0.,0.));
#649=DIRECTION('',(-1.,0.,0.));
#650=DIRECTION('',(0.,0.,1.));
#651=DIRECTION('',(0.,1.,0.));
#652=DIRECTION('',(0.,0.,-1.));
#653=DIRECTION('',(0.,1.,0.));
#654=DIRECTION('',(1.,4.33680868994202E-16,0.));
#655=DIRECTION('',(-4.33680868994202E-16,1.,0.));
#656=DIRECTION('',(0.,0.,-1.));
#657=DIRECTION('',(4.33680868994202E-16,-1.,0.));
#658=DIRECTION('',(0.,0.,-1.));
#659=DIRECTION('',(4.33680868994202E-16,-1.,0.));
#660=DIRECTION('',(0.,0.,-1.));
#661=DIRECTION('',(-1.,0.,0.));
#662=DIRECTION('',(0.,0.,-1.));
#663=DIRECTION('',(0.,0.,1.));
#664=DIRECTION('',(1.,0.,0.));
#665=DIRECTION('',(0.,0.,1.));
#666=DIRECTION('',(1.,0.,0.));
#667=DIRECTION('',(0.,1.,0.));
#668=DIRECTION('',(0.,0.,1.));
#669=DIRECTION('',(1.,0.,0.));
#670=DIRECTION('',(0.,0.,1.));
#671=DIRECTION('',(1.,0.,0.));
#672=DIRECTION('',(0.,0.,-1.));
#673=DIRECTION('',(0.,0.,-1.));
#674=DIRECTION('',(-1.,0.,0.));
#675=DIRECTION('',(0.,0.,1.));
#676=DIRECTION('',(1.,0.,0.));
#677=DIRECTION('',(0.,0.,-1.));
#678=DIRECTION('',(0.,0.,1.));
#679=DIRECTION('',(1.,0.,0.));
#680=DIRECTION('',(0.,0.,-1.));
#681=DIRECTION('',(0.,-1.,0.));
#682=DIRECTION('',(0.,0.,-1.));
#683=DIRECTION('',(-1.,0.,0.));
#684=DIRECTION('',(0.,0.,-1.));
#685=DIRECTION('',(-1.,0.,0.));
#686=DIRECTION('',(0.,0.,1.));
#687=DIRECTION('',(0.,0.,1.));
#688=DIRECTION('',(1.,0.,0.));
#689=DIRECTION('',(0.,0.,1.));
#690=DIRECTION('',(1.,0.,0.));
#691=DIRECTION('',(0.,1.,0.));
#692=DIRECTION('',(-1.,0.,0.));
#693=DIRECTION('',(0.,1.,0.));
#694=DIRECTION('',(-1.,0.,0.));
#695=DIRECTION('',(0.,1.,0.));
#696=DIRECTION('',(-1.,0.,0.));
#697=DIRECTION('',(4.33680868994202E-16,-1.,0.));
#698=DIRECTION('',(0.,0.,1.));
#699=DIRECTION('',(1.,0.,0.));
#700=DIRECTION('',(1.,0.,0.));
#701=DIRECTION('',(0.,0.,1.));
#702=DIRECTION('',(1.,0.,0.));
#703=DIRECTION('',(0.,0.,1.));
#704=DIRECTION('',(1.,0.,0.));
#705=DIRECTION('',(-1.,0.,0.));
#706=DIRECTION('',(0.,0.,1.));
#707=DIRECTION('',(1.,0.,0.));
#708=DIRECTION('',(0.,1.,0.));
#709=DIRECTION('',(0.,0.,1.));
#710=DIRECTION('',(1.,0.,0.));
#711=DIRECTION('',(-1.,0.,0.));
#712=DIRECTION('',(0.,0.,1.));
#713=DIRECTION('',(1.,0.,0.));
#714=DIRECTION('',(0.,0.,1.));
#715=DIRECTION('',(1.,0.,0.));
#716=DIRECTION('',(1.,0.,0.));
#717=DIRECTION('',(0.,0.,1.));
#718=DIRECTION('',(1.,0.,0.));
#719=DIRECTION('',(4.33680868994202E-16,-1.,0.));
#720=DIRECTION('',(-1.,0.,0.));
#721=DIRECTION('',(0.,1.,0.));
#722=DIRECTION('',(-1.,0.,0.));
#723=DIRECTION('',(0.,1.,0.));
#724=DIRECTION('',(-1.,0.,0.));
#725=DIRECTION('',(-1.,0.,0.));
#726=DIRECTION('',(0.,0.,1.));
#727=DIRECTION('',(-1.,0.,0.));
#728=DIRECTION('',(0.,0.,1.));
#729=DIRECTION('',(0.707106781186548,0.,-0.707106781186548));
#730=DIRECTION('',(-0.707106781186548,0.,-0.707106781186548));
#731=DIRECTION('',(0.,0.,-1.));
#732=DIRECTION('',(-1.,0.,0.));
#733=DIRECTION('',(-0.707106781186548,0.,-0.707106781186548));
#734=DIRECTION('',(0.707106781186548,0.,-0.707106781186548));
#735=DIRECTION('',(0.,0.,-1.));
#736=DIRECTION('',(-1.,0.,0.));
#737=DIRECTION('',(0.,0.,-1.));
#738=DIRECTION('',(-1.,0.,0.));
#739=DIRECTION('',(0.,0.,-1.));
#740=DIRECTION('',(-1.,0.,0.));
#741=DIRECTION('',(1.,0.,0.));
#742=DIRECTION('',(0.,0.,-1.));
#743=DIRECTION('',(1.,0.,0.));
#744=DIRECTION('',(0.,0.,-1.));
#745=DIRECTION('',(-1.,0.,0.));
#746=DIRECTION('',(0.,0.,1.));
#747=DIRECTION('',(-1.,0.,0.));
#748=DIRECTION('',(0.,0.,1.));
#749=DIRECTION('',(-0.707106781186548,0.,-0.707106781186548));
#750=DIRECTION('',(0.707106781186548,0.,-0.707106781186548));
#751=DIRECTION('',(0.,0.,-1.));
#752=DIRECTION('',(-1.,0.,0.));
#753=DIRECTION('',(0.707106781186548,0.,-0.707106781186548));
#754=DIRECTION('',(-0.707106781186548,0.,-0.707106781186548));
#755=DIRECTION('',(0.,0.,-1.));
#756=DIRECTION('',(-1.,0.,0.));
#757=DIRECTION('',(0.,0.,-1.));
#758=DIRECTION('',(-1.,0.,0.));
#759=DIRECTION('',(0.,0.,-1.));
#760=DIRECTION('',(-1.,0.,0.));
#761=DIRECTION('',(1.,0.,0.));
#762=DIRECTION('',(0.,0.,-1.));
#763=DIRECTION('',(1.,0.,0.));
#764=DIRECTION('',(0.,0.,-1.));
#765=DIRECTION('',(0.,0.,1.));
#766=DIRECTION('',(1.,0.,0.));
#767=DIRECTION('',(-0.3125,-0.949917759598166,0.));
#768=DIRECTION('',(0.949917759598166,-0.3125,0.));
#769=DIRECTION('',(0.,0.,1.));
#770=DIRECTION('',(1.,0.,0.));
#771=DIRECTION('',(0.,1.,0.));
#772=DIRECTION('',(0.,0.,1.));
#773=DIRECTION('',(0.,-1.,0.));
#774=DIRECTION('',(0.,0.,-1.));
#775=DIRECTION('',(4.33680868994202E-16,-1.,0.));
#776=DIRECTION('',(1.,4.33680868994202E-16,0.));
#777=DIRECTION('',(0.,-1.,0.));
#778=DIRECTION('',(0.,0.,-1.));
#779=DIRECTION('',(0.,0.,1.));
#780=DIRECTION('',(1.,0.,0.));
#781=DIRECTION('',(-0.3125,0.949917759598167,0.));
#782=DIRECTION('',(-0.949917759598167,-0.3125,0.));
#783=DIRECTION('',(0.,0.,1.));
#784=DIRECTION('',(1.,0.,0.));
#785=DIRECTION('',(0.,-1.,0.));
#786=DIRECTION('',(0.,0.,-1.));
#787=DIRECTION('',(0.,-1.,0.));
#788=DIRECTION('',(0.,0.,-1.));
#789=DIRECTION('',(0.,0.,1.));
#790=DIRECTION('',(1.,0.,0.));
#791=DIRECTION('',(0.3125,0.949917759598167,0.));
#792=DIRECTION('',(-0.949917759598167,0.3125,0.));
#793=DIRECTION('',(0.,0.,1.));
#794=DIRECTION('',(1.,0.,0.));
#795=DIRECTION('',(-4.33680868994202E-16,1.,0.));
#796=DIRECTION('',(-1.,-4.33680868994202E-16,0.));
#797=DIRECTION('',(0.,-1.,0.));
#798=DIRECTION('',(0.,0.,-1.));
#799=DIRECTION('',(0.,0.,1.));
#800=DIRECTION('',(1.,0.,0.));
#801=DIRECTION('',(-0.3125,0.949917759598167,0.));
#802=DIRECTION('',(-0.949917759598167,-0.3125,0.));
#803=DIRECTION('',(0.,0.,1.));
#804=DIRECTION('',(1.,0.,0.));
#805=DIRECTION('',(0.,-1.,0.));
#806=DIRECTION('',(1.,0.,0.));
#807=DIRECTION('',(0.,0.,-1.));
#808=DIRECTION('',(0.,-1.,0.));
#809=DIRECTION('',(1.,0.,0.));
#810=DIRECTION('',(0.,0.,-1.));
#811=DIRECTION('',(1.,0.,0.));
#812=DIRECTION('',(0.,0.,-1.));
#813=DIRECTION('',(0.,0.,-1.));
#814=DIRECTION('',(1.,0.,0.));
#815=DIRECTION('',(0.,0.,-1.));
#816=DIRECTION('',(0.,0.,-1.));
#817=DIRECTION('',(0.,-1.,0.));
#818=DIRECTION('',(1.,0.,0.));
#819=CARTESIAN_POINT('',(0.,0.,0.));
#820=CARTESIAN_POINT('',(2.16840434497101E-18,4.33680868994202E-19,0.013));
#821=CARTESIAN_POINT('',(-0.0065,-0.0167854103315945,0.013));
#822=CARTESIAN_POINT('',(-0.0065,-0.0167854103315945,0.011));
#823=CARTESIAN_POINT('',(-0.0065,-0.0167854103315945,0.002));
#824=CARTESIAN_POINT('',(2.16840434497101E-18,4.33680868994202E-19,0.011));
#825=CARTESIAN_POINT('',(-0.017098519672767,0.005625,0.011));
#826=CARTESIAN_POINT('',(-0.017098519672767,0.005625,0.013));
#827=CARTESIAN_POINT('',(-0.017098519672767,0.005625,0.002));
#828=CARTESIAN_POINT('',(2.16840434497101E-18,4.33680868994202E-19,0.002));
#829=CARTESIAN_POINT('',(-0.0065,-0.0177854103315945,0.013));
#830=CARTESIAN_POINT('',(-0.0065,-0.0187854103315945,0.002));
#831=CARTESIAN_POINT('',(-0.0065,-0.0607854103315945,0.002));
#832=CARTESIAN_POINT('',(-0.0065,-0.0607854103315945,0.013));
#833=CARTESIAN_POINT('',(-0.0065,-0.0607854103315945,0.011));
#834=CARTESIAN_POINT('',(-0.0065,-0.0177854103315945,0.011));
#835=CARTESIAN_POINT('',(0.0065,-0.0177854103315945,0.013));
#836=CARTESIAN_POINT('',(0.0065,-0.0167854103315945,0.013));
#837=CARTESIAN_POINT('',(0.0065,-0.0167854103315945,0.011));
#838=CARTESIAN_POINT('',(0.0065,-0.0167854103315945,0.002));
#839=CARTESIAN_POINT('',(0.0065,-0.0177854103315945,0.011));
#840=CARTESIAN_POINT('',(0.0065,-0.0607854103315945,0.011));
#841=CARTESIAN_POINT('',(0.0065,-0.0607854103315945,0.013));
#842=CARTESIAN_POINT('',(0.0065,-0.0607854103315945,0.002));
#843=CARTESIAN_POINT('',(0.0065,-0.0167854103315945,0.002));
#844=CARTESIAN_POINT('',(3.90312782094781E-18,4.77048955893622E-18,0.013));
#845=CARTESIAN_POINT('',(0.017098519672767,0.005625,0.013));
#846=CARTESIAN_POINT('',(0.017098519672767,0.005625,0.002));
#847=CARTESIAN_POINT('',(0.017098519672767,0.005625,0.011));
#848=CARTESIAN_POINT('',(3.90312782094781E-18,4.77048955893622E-18,0.011));
#849=CARTESIAN_POINT('',(3.90312782094781E-18,4.77048955893622E-18,0.002));
#850=CARTESIAN_POINT('',(0.0137687875509402,0.007,0.013));
#851=CARTESIAN_POINT('',(0.0137687875509402,0.007,0.011));
#852=CARTESIAN_POINT('',(0.014142135623731,0.007,0.011));
#853=CARTESIAN_POINT('',(0.0151986841535707,0.007,0.011));
#854=CARTESIAN_POINT('',(0.0151986841535707,0.007,0.));
#855=CARTESIAN_POINT('',(0.0151986841535707,0.007,0.002));
#856=CARTESIAN_POINT('',(0.0109544511501033,0.007,0.002));
#857=CARTESIAN_POINT('',(0.014142135623731,0.007,0.002));
#858=CARTESIAN_POINT('',(0.014142135623731,0.007,0.013));
#859=CARTESIAN_POINT('',(1.93909171715192E-18,-4.33680868994202E-19,0.013));
#860=CARTESIAN_POINT('',(1.93909171715192E-18,-4.33680868994202E-19,0.013));
#861=CARTESIAN_POINT('',(-0.0122565175405668,0.00433333333333334,0.013));
#862=CARTESIAN_POINT('',(0.0122565175405668,0.00433333333333334,0.013));
#863=CARTESIAN_POINT('',(0.0122565175405668,0.00433333333333334,0.013));
#864=CARTESIAN_POINT('',(0.0122565175405668,0.00433333333333334,0.));
#865=CARTESIAN_POINT('',(1.93909171715192E-18,-4.33680868994202E-19,0.));
#866=CARTESIAN_POINT('',(-0.0122565175405668,0.00433333333333334,0.));
#867=CARTESIAN_POINT('',(-0.0122565175405668,0.00433333333333334,0.013));
#868=CARTESIAN_POINT('',(-0.0137687875509402,0.007,0.013));
#869=CARTESIAN_POINT('',(-0.0137687875509402,0.007,0.002));
#870=CARTESIAN_POINT('',(-0.0141421356237309,0.007,0.002));
#871=CARTESIAN_POINT('',(-0.0151986841535707,0.007,0.002));
#872=CARTESIAN_POINT('',(-0.0151986841535707,0.007,0.013));
#873=CARTESIAN_POINT('',(-0.0151986841535707,0.007,0.011));
#874=CARTESIAN_POINT('',(-0.0109544511501033,0.007,0.011));
#875=CARTESIAN_POINT('',(-0.0141421356237309,0.007,0.011));
#876=CARTESIAN_POINT('',(-0.0141421356237309,0.007,0.));
#877=CARTESIAN_POINT('',(-3.46944695195361E-18,-0.00589270516579726,0.013));
#878=CARTESIAN_POINT('',(2.16840434497101E-18,4.33680868994202E-19,0.013));
#879=CARTESIAN_POINT('',(-0.0151986841535707,0.005,0.013));
#880=CARTESIAN_POINT('',(-0.0045,-0.0153541525327841,0.013));
#881=CARTESIAN_POINT('',(-0.0045,-0.00589270516579726,0.013));
#882=CARTESIAN_POINT('',(-0.0045,-0.0607854103315945,0.013));
#883=CARTESIAN_POINT('',(0.,-0.0607854103315945,0.013));
#884=CARTESIAN_POINT('',(-0.015,-0.0607854103315945,0.013));
#885=CARTESIAN_POINT('',(-0.015,-0.0627854103315945,0.013));
#886=CARTESIAN_POINT('',(-0.015,-0.0627854103315945,0.013));
#887=CARTESIAN_POINT('',(0.,-0.0627854103315945,0.013));
#888=CARTESIAN_POINT('',(0.015,-0.0627854103315945,0.013));
#889=CARTESIAN_POINT('',(0.015,-0.0627854103315945,0.013));
#890=CARTESIAN_POINT('',(0.015,-0.0607854103315945,0.013));
#891=CARTESIAN_POINT('',(0.,-0.0607854103315945,0.013));
#892=CARTESIAN_POINT('',(0.0045,-0.0607854103315945,0.013));
#893=CARTESIAN_POINT('',(0.0045,-0.00589270516579726,0.013));
#894=CARTESIAN_POINT('',(0.0045,-0.0153541525327841,0.013));
#895=CARTESIAN_POINT('',(3.90312782094781E-18,4.77048955893622E-18,0.013));
#896=CARTESIAN_POINT('',(0.0151986841535707,0.005,0.013));
#897=CARTESIAN_POINT('',(-3.46944695195361E-18,0.005,0.013));
#898=CARTESIAN_POINT('',(0.012142135623731,0.005,0.013));
#899=CARTESIAN_POINT('',(0.014142135623731,0.005,0.013));
#900=CARTESIAN_POINT('',(-0.0141421356237309,0.005,0.013));
#901=CARTESIAN_POINT('',(-0.0121421356237309,0.005,0.013));
#902=CARTESIAN_POINT('',(-0.016583123951777,0.005,0.013));
#903=CARTESIAN_POINT('',(-3.46944695195361E-18,-0.00589270516579726,0.));
#904=CARTESIAN_POINT('',(-0.0045,-0.0167854103315945,0.));
#905=CARTESIAN_POINT('',(-0.0045,-0.0607854103315945,0.));
#906=CARTESIAN_POINT('',(-0.0045,-0.0153541525327841,0.));
#907=CARTESIAN_POINT('',(2.16840434497101E-18,4.33680868994202E-19,0.));
#908=CARTESIAN_POINT('',(-0.0151986841535707,0.005,0.));
#909=CARTESIAN_POINT('',(-3.46944695195361E-18,0.005,0.));
#910=CARTESIAN_POINT('',(-0.0121421356237309,0.005,0.));
#911=CARTESIAN_POINT('',(-0.0141421356237309,0.005,0.));
#912=CARTESIAN_POINT('',(0.014142135623731,0.005,0.));
#913=CARTESIAN_POINT('',(0.012142135623731,0.005,0.));
#914=CARTESIAN_POINT('',(0.016583123951777,0.005,0.));
#915=CARTESIAN_POINT('',(0.0151986841535707,0.005,0.));
#916=CARTESIAN_POINT('',(3.90312782094781E-18,4.77048955893622E-18,0.));
#917=CARTESIAN_POINT('',(0.0045,-0.0153541525327841,0.));
#918=CARTESIAN_POINT('',(0.0045,-0.0187854103315945,0.));
#919=CARTESIAN_POINT('',(0.0045,-0.0607854103315945,0.));
#920=CARTESIAN_POINT('',(0.,-0.0607854103315945,0.));
#921=CARTESIAN_POINT('',(0.015,-0.0607854103315945,0.));
#922=CARTESIAN_POINT('',(0.015,-0.0627854103315945,0.));
#923=CARTESIAN_POINT('',(0.015,-0.0627854103315945,0.));
#924=CARTESIAN_POINT('',(0.,-0.0627854103315945,0.));
#925=CARTESIAN_POINT('',(-0.015,-0.0627854103315945,0.));
#926=CARTESIAN_POINT('',(-0.015,-0.0627854103315945,0.));
#927=CARTESIAN_POINT('',(-0.015,-0.0607854103315945,0.));
#928=CARTESIAN_POINT('',(0.,-0.0607854103315945,0.));
#929=CARTESIAN_POINT('',(-3.46944695195361E-18,0.005,0.002));
#930=CARTESIAN_POINT('',(0.0151986841535707,0.005,0.002));
#931=CARTESIAN_POINT('',(0.014142135623731,0.005,0.002));
#932=CARTESIAN_POINT('',(0.014142135623731,0.005,0.013));
#933=CARTESIAN_POINT('',(0.014142135623731,0.005,0.011));
#934=CARTESIAN_POINT('',(0.0151986841535707,0.005,0.013));
#935=CARTESIAN_POINT('',(0.0151986841535707,0.005,0.011));
#936=CARTESIAN_POINT('',(0.0151986841535707,0.005,0.002));
#937=CARTESIAN_POINT('',(0.0137687875509402,0.005,0.011));
#938=CARTESIAN_POINT('',(0.0151986841535707,0.005,0.011));
#939=CARTESIAN_POINT('',(-0.0137687875509402,0.005,0.002));
#940=CARTESIAN_POINT('',(-0.0151986841535707,0.005,0.002));
#941=CARTESIAN_POINT('',(-0.0141421356237309,0.005,0.002));
#942=CARTESIAN_POINT('',(-0.0141421356237309,0.005,0.013));
#943=CARTESIAN_POINT('',(-0.0141421356237309,0.005,0.011));
#944=CARTESIAN_POINT('',(-0.0151986841535707,0.005,0.013));
#945=CARTESIAN_POINT('',(-0.0151986841535707,0.005,0.011));
#946=CARTESIAN_POINT('',(-0.0151986841535707,0.005,0.002));
#947=CARTESIAN_POINT('',(-3.46944695195361E-18,0.005,0.011));
#948=CARTESIAN_POINT('',(-0.0151986841535707,0.005,0.011));
#949=CARTESIAN_POINT('',(-0.0151986841535707,0.005,0.011));
#950=CARTESIAN_POINT('',(-0.0151986841535707,0.005,0.011));
#951=CARTESIAN_POINT('',(2.16840434497101E-18,4.33680868994202E-19,0.011));
#952=CARTESIAN_POINT('',(-0.0065,-0.0167854103315945,0.011));
#953=CARTESIAN_POINT('',(-0.0065,-0.0167854103315945,0.0115918816056123));
#954=CARTESIAN_POINT('',(-0.00593895838807045,-0.0164040061179485,0.0126805606353489));
#955=CARTESIAN_POINT('',(-0.00496640326991202,-0.0157034184298866,0.013));
#956=CARTESIAN_POINT('',(-0.0045,-0.0153541525327841,0.013));
#957=CARTESIAN_POINT('',(-0.0045,-0.0177854103315945,0.011));
#958=CARTESIAN_POINT('',(-0.0045,-0.0607854103315945,0.011));
#959=CARTESIAN_POINT('',(0.0045,-0.0177854103315945,0.011));
#960=CARTESIAN_POINT('',(0.0045,-0.0607854103315945,0.011));
#961=CARTESIAN_POINT('',(0.0065,-0.0167854103315945,0.011));
#962=CARTESIAN_POINT('',(0.0065,-0.0167854103315945,0.0115918816056123));
#963=CARTESIAN_POINT('',(0.00593895838807044,-0.0164040061179485,0.0126805606353489));
#964=CARTESIAN_POINT('',(0.00496640326991202,-0.0157034184298866,0.013));
#965=CARTESIAN_POINT('',(0.0045,-0.0153541525327841,0.013));
#966=CARTESIAN_POINT('',(3.90312782094781E-18,4.77048955893622E-18,0.011));
#967=CARTESIAN_POINT('',(0.0151986841535707,0.005,0.011));
#968=CARTESIAN_POINT('',(0.0151986841535707,0.005,0.011));
#969=CARTESIAN_POINT('',(-0.0045,-0.00589270516579726,0.002));
#970=CARTESIAN_POINT('',(-0.0045,-0.0607854103315945,0.002));
#971=CARTESIAN_POINT('',(-0.0065,-0.0167854103315945,0.002));
#972=CARTESIAN_POINT('',(-0.0065,-0.0167854103315945,0.00140811839438769));
#973=CARTESIAN_POINT('',(-0.00593895838807045,-0.0164040061179485,0.000319439364651074));
#974=CARTESIAN_POINT('',(-0.00496640326991202,-0.0157034184298866,2.32378007924312E-18));
#975=CARTESIAN_POINT('',(-0.0045,-0.0153541525327841,0.));
#976=CARTESIAN_POINT('',(2.16840434497101E-18,4.33680868994202E-19,0.002));
#977=CARTESIAN_POINT('',(-0.0151986841535707,0.005,0.002));
#978=CARTESIAN_POINT('',(-0.0151986841535707,0.005,0.002));
#979=CARTESIAN_POINT('',(0.0045,-0.00589270516579726,0.002));
#980=CARTESIAN_POINT('',(0.0045,-0.0607854103315945,0.002));
#981=CARTESIAN_POINT('',(0.0065,-0.0167854103315945,0.002));
#982=CARTESIAN_POINT('',(0.0065,-0.0167854103315945,0.00140811839438769));
#983=CARTESIAN_POINT('',(0.00593895838807046,-0.0164040061179485,0.000319439364651075));
#984=CARTESIAN_POINT('',(0.00496640326991202,-0.0157034184298866,-9.56884309215812E-19));
#985=CARTESIAN_POINT('',(0.0045,-0.0153541525327841,-2.72751307004112E-35));
#986=CARTESIAN_POINT('',(3.90312782094781E-18,4.77048955893622E-18,0.002));
#987=CARTESIAN_POINT('',(0.0151986841535707,0.005,0.002));
#988=CARTESIAN_POINT('',(0.0151986841535707,0.005,0.002));
#989=CARTESIAN_POINT('',(0.,-0.0607854103315945,0.0065));
#990=CARTESIAN_POINT('',(-0.015,-0.0607854103315945,0.0065));
#991=CARTESIAN_POINT('',(0.,-0.0607854103315945,0.0065));
#992=CARTESIAN_POINT('',(0.015,-0.0607854103315945,0.0065));
#993=CARTESIAN_POINT('',(-0.015,-0.0627854103315945,0.0065));
#994=CARTESIAN_POINT('',(-0.015,-0.0627854103315945,0.0065));
#995=CARTESIAN_POINT('',(0.015,-0.0627854103315945,0.0065));
#996=CARTESIAN_POINT('',(0.015,-0.0627854103315945,0.0065));
#997=CARTESIAN_POINT('',(0.,-0.0627854103315945,0.0065));
#998=MECHANICAL_DESIGN_GEOMETRIC_PRESENTATION_REPRESENTATION('',(#559),
#999);
#999=(
GEOMETRIC_REPRESENTATION_CONTEXT(3)
GLOBAL_UNCERTAINTY_ASSIGNED_CONTEXT((#1000))
GLOBAL_UNIT_ASSIGNED_CONTEXT((#1003,#1002,#1001))
REPRESENTATION_CONTEXT('Part 1','TOP_LEVEL_ASSEMBLY_PART')
);
#1000=UNCERTAINTY_MEASURE_WITH_UNIT(LENGTH_MEASURE(2.E-5),#1003,
'DISTANCE_ACCURACY_VALUE','Maximum Tolerance applied to model');
#1001=(
NAMED_UNIT(*)
SI_UNIT($,.STERADIAN.)
SOLID_ANGLE_UNIT()
);
#1002=(
NAMED_UNIT(*)
PLANE_ANGLE_UNIT()
SI_UNIT($,.RADIAN.)
);
#1003=(
LENGTH_UNIT()
NAMED_UNIT(*)
SI_UNIT($,.METRE.)
);
#1004=PRODUCT_DEFINITION_SHAPE('','',#1005);
#1005=PRODUCT_DEFINITION('','',#1007,#1006);
#1006=PRODUCT_DEFINITION_CONTEXT('',#1013,'design');
#1007=PRODUCT_DEFINITION_FORMATION_WITH_SPECIFIED_SOURCE('','',#1009,
 .NOT_KNOWN.);
#1008=PRODUCT_RELATED_PRODUCT_CATEGORY('','',(#1009));
#1009=PRODUCT('Part 1','Part 1','Part 1',(#1011));
#1010=PRODUCT_CATEGORY('','');
#1011=PRODUCT_CONTEXT('',#1013,'mechanical');
#1012=APPLICATION_PROTOCOL_DEFINITION('international standard',
'ap242_managed_model_based_3d_engineering',2020,#1013);
#1013=APPLICATION_CONTEXT('managed model based 3d engineering');
ENDSEC;
END-ISO-10303-21;
