ISO-10303-21;
HEADER;
/* Generated by software containing ST-Developer
 * from STEP Tools, Inc. (www.steptools.com) 
 */
/* OPTION: using custom renumber hook */

FILE_DESCRIPTION(
/* description */ ('STEP AP242 Edition 2',
'CAx-IF Rec.Pracs.---Representation and Presentation of Product Manufa
cturing Information (PMI)---4.0---2014-10-13',
'CAx-IF Rec.Pracs.---3D Tessellated Geometry---0.4---2014-09-14','2;1',
'CAx-IF Rec.Pracs.---User Defined Attributes---1.5---2016-08-15'),
/* implementation_level */ '2;1');

FILE_NAME(
/* name */ '69554f4544b2cdb18115f188',
/* time_stamp */ '2025-12-31T16:28:53Z',
/* author */ (''),
/* organization */ (''),
/* preprocessor_version */ 'ST-DEVELOPER v20',
/* originating_system */ 'ONSHAPE BY PTC INC, 1.208',
/* authorisation */ '  ');

FILE_SCHEMA (('AP242_MANAGED_MODEL_BASED_3D_ENGINEERING_MIM_LF { 1 0 10303 442 3 1 4 }'));
ENDSEC;

DATA;
#10=SHAPE_REPRESENTATION_RELATIONSHIP('','',#651,#11);
#11=ADVANCED_BREP_SHAPE_REPRESENTATION('',(#649),#1149);
#12=TOROIDAL_SURFACE('',#717,0.016,0.002);
#13=TOROIDAL_SURFACE('',#718,0.016,0.002);
#14=TOROIDAL_SURFACE('',#721,0.016,0.002);
#15=TOROIDAL_SURFACE('',#724,0.016,0.002);
#16=SPHERICAL_SURFACE('',#715,0.002);
#17=SPHERICAL_SURFACE('',#720,0.002);
#18=SPHERICAL_SURFACE('',#723,0.002);
#19=SPHERICAL_SURFACE('',#726,0.002);
#20=ELLIPSE('',#697,0.00282842712474619,0.002);
#21=ELLIPSE('',#699,0.00282842712474619,0.002);
#22=ELLIPSE('',#707,0.00282842712474619,0.002);
#23=ELLIPSE('',#709,0.00282842712474619,0.002);
#24=B_SPLINE_CURVE_WITH_KNOTS('',3,(#1044,#1045,#1046,#1047,#1048),
 .UNSPECIFIED.,.F.,.F.,(4,1,4),(0.,0.00174804506746343,0.00349609013492685),
 .UNSPECIFIED.);
#25=B_SPLINE_CURVE_WITH_KNOTS('',3,(#1051,#1052,#1053,#1054,#1055),
 .UNSPECIFIED.,.F.,.F.,(4,1,4),(0.,0.00174804506746343,0.00349609013492685),
 .UNSPECIFIED.);
#26=B_SPLINE_CURVE_WITH_KNOTS('',3,(#1058,#1059,#1060,#1061,#1062),
 .UNSPECIFIED.,.F.,.F.,(4,1,4),(0.,0.00174804506746343,0.00349609013492685),
 .UNSPECIFIED.);
#27=B_SPLINE_CURVE_WITH_KNOTS('',3,(#1065,#1066,#1067,#1068,#1069),
 .UNSPECIFIED.,.F.,.F.,(4,1,4),(0.,0.00174804506746342,0.00349609013492685),
 .UNSPECIFIED.);
#28=CYLINDRICAL_SURFACE('',#656,0.0125);
#29=CYLINDRICAL_SURFACE('',#660,0.0125);
#30=CYLINDRICAL_SURFACE('',#678,0.002);
#31=CYLINDRICAL_SURFACE('',#680,0.002);
#32=CYLINDRICAL_SURFACE('',#682,0.002);
#33=CYLINDRICAL_SURFACE('',#684,0.002);
#34=CYLINDRICAL_SURFACE('',#686,0.018);
#35=CYLINDRICAL_SURFACE('',#689,0.018);
#36=CYLINDRICAL_SURFACE('',#693,0.013);
#37=CYLINDRICAL_SURFACE('',#695,0.002);
#38=CYLINDRICAL_SURFACE('',#698,0.002);
#39=CYLINDRICAL_SURFACE('',#700,0.002);
#40=CYLINDRICAL_SURFACE('',#703,0.002);
#41=CYLINDRICAL_SURFACE('',#705,0.002);
#42=CYLINDRICAL_SURFACE('',#708,0.002);
#43=CYLINDRICAL_SURFACE('',#710,0.002);
#44=CYLINDRICAL_SURFACE('',#713,0.002);
#45=LINE('',#949,#91);
#46=LINE('',#953,#92);
#47=LINE('',#958,#93);
#48=LINE('',#959,#94);
#49=LINE('',#963,#95);
#50=LINE('',#967,#96);
#51=LINE('',#972,#97);
#52=LINE('',#976,#98);
#53=LINE('',#980,#99);
#54=LINE('',#981,#100);
#55=LINE('',#983,#101);
#56=LINE('',#986,#102);
#57=LINE('',#988,#103);
#58=LINE('',#990,#104);
#59=LINE('',#992,#105);
#60=LINE('',#995,#106);
#61=LINE('',#997,#107);
#62=LINE('',#999,#108);
#63=LINE('',#1001,#109);
#64=LINE('',#1004,#110);
#65=LINE('',#1006,#111);
#66=LINE('',#1010,#112);
#67=LINE('',#1018,#113);
#68=LINE('',#1022,#114);
#69=LINE('',#1025,#115);
#70=LINE('',#1029,#116);
#71=LINE('',#1037,#117);
#72=LINE('',#1041,#118);
#73=LINE('',#1073,#119);
#74=LINE('',#1077,#120);
#75=LINE('',#1083,#121);
#76=LINE('',#1086,#122);
#77=LINE('',#1088,#123);
#78=LINE('',#1090,#124);
#79=LINE('',#1092,#125);
#80=LINE('',#1093,#126);
#81=LINE('',#1095,#127);
#82=LINE('',#1098,#128);
#83=LINE('',#1100,#129);
#84=LINE('',#1102,#130);
#85=LINE('',#1136,#131);
#86=LINE('',#1138,#132);
#87=LINE('',#1139,#133);
#88=LINE('',#1142,#134);
#89=LINE('',#1144,#135);
#90=LINE('',#1146,#136);
#91=VECTOR('',#740,1.);
#92=VECTOR('',#743,1.);
#93=VECTOR('',#748,1.);
#94=VECTOR('',#749,1.);
#95=VECTOR('',#752,1.);
#96=VECTOR('',#755,1.);
#97=VECTOR('',#760,1.);
#98=VECTOR('',#763,1.);
#99=VECTOR('',#766,1.);
#100=VECTOR('',#767,1.);
#101=VECTOR('',#770,1.);
#102=VECTOR('',#771,1.);
#103=VECTOR('',#772,1.);
#104=VECTOR('',#773,1.);
#105=VECTOR('',#776,1.);
#106=VECTOR('',#777,1.);
#107=VECTOR('',#778,1.);
#108=VECTOR('',#779,1.);
#109=VECTOR('',#782,1.);
#110=VECTOR('',#783,1.);
#111=VECTOR('',#784,1.);
#112=VECTOR('',#787,1.);
#113=VECTOR('',#794,1.);
#114=VECTOR('',#799,1.);
#115=VECTOR('',#800,1.);
#116=VECTOR('',#803,1.);
#117=VECTOR('',#810,1.);
#118=VECTOR('',#813,1.);
#119=VECTOR('',#834,1.);
#120=VECTOR('',#839,1.);
#121=VECTOR('',#846,1.);
#122=VECTOR('',#847,1.);
#123=VECTOR('',#848,1.);
#124=VECTOR('',#849,1.);
#125=VECTOR('',#852,1.);
#126=VECTOR('',#853,1.);
#127=VECTOR('',#856,1.);
#128=VECTOR('',#857,1.);
#129=VECTOR('',#858,1.);
#130=VECTOR('',#859,1.);
#131=VECTOR('',#926,1.);
#132=VECTOR('',#929,1.);
#133=VECTOR('',#930,1.);
#134=VECTOR('',#935,1.);
#135=VECTOR('',#938,1.);
#136=VECTOR('',#941,1.);
#137=ORIENTED_EDGE('',*,*,#321,.T.);
#138=ORIENTED_EDGE('',*,*,#322,.T.);
#139=ORIENTED_EDGE('',*,*,#323,.T.);
#140=ORIENTED_EDGE('',*,*,#324,.F.);
#141=ORIENTED_EDGE('',*,*,#325,.F.);
#142=ORIENTED_EDGE('',*,*,#326,.T.);
#143=ORIENTED_EDGE('',*,*,#321,.F.);
#144=ORIENTED_EDGE('',*,*,#327,.F.);
#145=ORIENTED_EDGE('',*,*,#328,.T.);
#146=ORIENTED_EDGE('',*,*,#329,.T.);
#147=ORIENTED_EDGE('',*,*,#330,.F.);
#148=ORIENTED_EDGE('',*,*,#331,.F.);
#149=ORIENTED_EDGE('',*,*,#332,.F.);
#150=ORIENTED_EDGE('',*,*,#333,.T.);
#151=ORIENTED_EDGE('',*,*,#334,.F.);
#152=ORIENTED_EDGE('',*,*,#335,.F.);
#153=ORIENTED_EDGE('',*,*,#336,.T.);
#154=ORIENTED_EDGE('',*,*,#337,.T.);
#155=ORIENTED_EDGE('',*,*,#323,.F.);
#156=ORIENTED_EDGE('',*,*,#338,.F.);
#157=ORIENTED_EDGE('',*,*,#339,.T.);
#158=ORIENTED_EDGE('',*,*,#340,.F.);
#159=ORIENTED_EDGE('',*,*,#341,.T.);
#160=ORIENTED_EDGE('',*,*,#342,.T.);
#161=ORIENTED_EDGE('',*,*,#343,.T.);
#162=ORIENTED_EDGE('',*,*,#344,.T.);
#163=ORIENTED_EDGE('',*,*,#345,.T.);
#164=ORIENTED_EDGE('',*,*,#346,.F.);
#165=ORIENTED_EDGE('',*,*,#347,.T.);
#166=ORIENTED_EDGE('',*,*,#348,.F.);
#167=ORIENTED_EDGE('',*,*,#349,.T.);
#168=ORIENTED_EDGE('',*,*,#350,.T.);
#169=ORIENTED_EDGE('',*,*,#351,.T.);
#170=ORIENTED_EDGE('',*,*,#352,.T.);
#171=ORIENTED_EDGE('',*,*,#353,.F.);
#172=ORIENTED_EDGE('',*,*,#354,.T.);
#173=ORIENTED_EDGE('',*,*,#355,.T.);
#174=ORIENTED_EDGE('',*,*,#356,.T.);
#175=ORIENTED_EDGE('',*,*,#357,.T.);
#176=ORIENTED_EDGE('',*,*,#358,.T.);
#177=ORIENTED_EDGE('',*,*,#359,.T.);
#178=ORIENTED_EDGE('',*,*,#360,.T.);
#179=ORIENTED_EDGE('',*,*,#361,.T.);
#180=ORIENTED_EDGE('',*,*,#362,.T.);
#181=ORIENTED_EDGE('',*,*,#363,.T.);
#182=ORIENTED_EDGE('',*,*,#364,.T.);
#183=ORIENTED_EDGE('',*,*,#365,.T.);
#184=ORIENTED_EDGE('',*,*,#366,.T.);
#185=ORIENTED_EDGE('',*,*,#341,.F.);
#186=ORIENTED_EDGE('',*,*,#367,.F.);
#187=ORIENTED_EDGE('',*,*,#347,.F.);
#188=ORIENTED_EDGE('',*,*,#368,.T.);
#189=ORIENTED_EDGE('',*,*,#349,.F.);
#190=ORIENTED_EDGE('',*,*,#369,.F.);
#191=ORIENTED_EDGE('',*,*,#343,.F.);
#192=ORIENTED_EDGE('',*,*,#370,.F.);
#193=ORIENTED_EDGE('',*,*,#358,.F.);
#194=ORIENTED_EDGE('',*,*,#371,.F.);
#195=ORIENTED_EDGE('',*,*,#339,.F.);
#196=ORIENTED_EDGE('',*,*,#372,.F.);
#197=ORIENTED_EDGE('',*,*,#345,.F.);
#198=ORIENTED_EDGE('',*,*,#373,.F.);
#199=ORIENTED_EDGE('',*,*,#366,.F.);
#200=ORIENTED_EDGE('',*,*,#374,.F.);
#201=ORIENTED_EDGE('',*,*,#342,.F.);
#202=ORIENTED_EDGE('',*,*,#375,.T.);
#203=ORIENTED_EDGE('',*,*,#376,.T.);
#204=ORIENTED_EDGE('',*,*,#377,.T.);
#205=ORIENTED_EDGE('',*,*,#378,.T.);
#206=ORIENTED_EDGE('',*,*,#379,.T.);
#207=ORIENTED_EDGE('',*,*,#346,.T.);
#208=ORIENTED_EDGE('',*,*,#380,.T.);
#209=ORIENTED_EDGE('',*,*,#381,.T.);
#210=ORIENTED_EDGE('',*,*,#382,.T.);
#211=ORIENTED_EDGE('',*,*,#383,.T.);
#212=ORIENTED_EDGE('',*,*,#384,.T.);
#213=ORIENTED_EDGE('',*,*,#353,.T.);
#214=ORIENTED_EDGE('',*,*,#385,.T.);
#215=ORIENTED_EDGE('',*,*,#362,.F.);
#216=ORIENTED_EDGE('',*,*,#386,.T.);
#217=ORIENTED_EDGE('',*,*,#387,.T.);
#218=ORIENTED_EDGE('',*,*,#388,.T.);
#219=ORIENTED_EDGE('',*,*,#389,.T.);
#220=ORIENTED_EDGE('',*,*,#390,.T.);
#221=ORIENTED_EDGE('',*,*,#383,.F.);
#222=ORIENTED_EDGE('',*,*,#391,.T.);
#223=ORIENTED_EDGE('',*,*,#364,.F.);
#224=ORIENTED_EDGE('',*,*,#392,.F.);
#225=ORIENTED_EDGE('',*,*,#385,.F.);
#226=ORIENTED_EDGE('',*,*,#352,.F.);
#227=ORIENTED_EDGE('',*,*,#393,.F.);
#228=ORIENTED_EDGE('',*,*,#384,.F.);
#229=ORIENTED_EDGE('',*,*,#392,.T.);
#230=ORIENTED_EDGE('',*,*,#363,.F.);
#231=ORIENTED_EDGE('',*,*,#382,.F.);
#232=ORIENTED_EDGE('',*,*,#394,.T.);
#233=ORIENTED_EDGE('',*,*,#378,.F.);
#234=ORIENTED_EDGE('',*,*,#395,.T.);
#235=ORIENTED_EDGE('',*,*,#351,.F.);
#236=ORIENTED_EDGE('',*,*,#396,.T.);
#237=ORIENTED_EDGE('',*,*,#381,.F.);
#238=ORIENTED_EDGE('',*,*,#393,.T.);
#239=ORIENTED_EDGE('',*,*,#360,.F.);
#240=ORIENTED_EDGE('',*,*,#397,.T.);
#241=ORIENTED_EDGE('',*,*,#387,.F.);
#242=ORIENTED_EDGE('',*,*,#398,.F.);
#243=ORIENTED_EDGE('',*,*,#398,.T.);
#244=ORIENTED_EDGE('',*,*,#390,.F.);
#245=ORIENTED_EDGE('',*,*,#399,.F.);
#246=ORIENTED_EDGE('',*,*,#354,.F.);
#247=ORIENTED_EDGE('',*,*,#386,.F.);
#248=ORIENTED_EDGE('',*,*,#361,.F.);
#249=ORIENTED_EDGE('',*,*,#376,.F.);
#250=ORIENTED_EDGE('',*,*,#400,.T.);
#251=ORIENTED_EDGE('',*,*,#388,.F.);
#252=ORIENTED_EDGE('',*,*,#401,.T.);
#253=ORIENTED_EDGE('',*,*,#389,.F.);
#254=ORIENTED_EDGE('',*,*,#402,.T.);
#255=ORIENTED_EDGE('',*,*,#355,.F.);
#256=ORIENTED_EDGE('',*,*,#399,.T.);
#257=ORIENTED_EDGE('',*,*,#403,.F.);
#258=ORIENTED_EDGE('',*,*,#402,.F.);
#259=ORIENTED_EDGE('',*,*,#400,.F.);
#260=ORIENTED_EDGE('',*,*,#403,.T.);
#261=ORIENTED_EDGE('',*,*,#375,.F.);
#262=ORIENTED_EDGE('',*,*,#368,.F.);
#263=ORIENTED_EDGE('',*,*,#356,.F.);
#264=ORIENTED_EDGE('',*,*,#404,.F.);
#265=ORIENTED_EDGE('',*,*,#350,.F.);
#266=ORIENTED_EDGE('',*,*,#370,.T.);
#267=ORIENTED_EDGE('',*,*,#379,.F.);
#268=ORIENTED_EDGE('',*,*,#404,.T.);
#269=ORIENTED_EDGE('',*,*,#394,.F.);
#270=ORIENTED_EDGE('',*,*,#396,.F.);
#271=ORIENTED_EDGE('',*,*,#405,.F.);
#272=ORIENTED_EDGE('',*,*,#359,.F.);
#273=ORIENTED_EDGE('',*,*,#372,.T.);
#274=ORIENTED_EDGE('',*,*,#377,.F.);
#275=ORIENTED_EDGE('',*,*,#401,.F.);
#276=ORIENTED_EDGE('',*,*,#397,.F.);
#277=ORIENTED_EDGE('',*,*,#405,.T.);
#278=ORIENTED_EDGE('',*,*,#406,.F.);
#279=ORIENTED_EDGE('',*,*,#380,.F.);
#280=ORIENTED_EDGE('',*,*,#374,.T.);
#281=ORIENTED_EDGE('',*,*,#365,.F.);
#282=ORIENTED_EDGE('',*,*,#406,.T.);
#283=ORIENTED_EDGE('',*,*,#391,.F.);
#284=ORIENTED_EDGE('',*,*,#395,.F.);
#285=ORIENTED_EDGE('',*,*,#324,.T.);
#286=ORIENTED_EDGE('',*,*,#337,.F.);
#287=ORIENTED_EDGE('',*,*,#407,.F.);
#288=ORIENTED_EDGE('',*,*,#327,.T.);
#289=ORIENTED_EDGE('',*,*,#408,.F.);
#290=ORIENTED_EDGE('',*,*,#329,.F.);
#291=ORIENTED_EDGE('',*,*,#409,.T.);
#292=ORIENTED_EDGE('',*,*,#335,.T.);
#293=ORIENTED_EDGE('',*,*,#407,.T.);
#294=ORIENTED_EDGE('',*,*,#336,.F.);
#295=ORIENTED_EDGE('',*,*,#409,.F.);
#296=ORIENTED_EDGE('',*,*,#328,.F.);
#297=ORIENTED_EDGE('',*,*,#348,.T.);
#298=ORIENTED_EDGE('',*,*,#367,.T.);
#299=ORIENTED_EDGE('',*,*,#340,.T.);
#300=ORIENTED_EDGE('',*,*,#371,.T.);
#301=ORIENTED_EDGE('',*,*,#357,.F.);
#302=ORIENTED_EDGE('',*,*,#373,.T.);
#303=ORIENTED_EDGE('',*,*,#344,.F.);
#304=ORIENTED_EDGE('',*,*,#369,.T.);
#305=ORIENTED_EDGE('',*,*,#410,.F.);
#306=ORIENTED_EDGE('',*,*,#330,.T.);
#307=ORIENTED_EDGE('',*,*,#408,.T.);
#308=ORIENTED_EDGE('',*,*,#334,.T.);
#309=ORIENTED_EDGE('',*,*,#322,.F.);
#310=ORIENTED_EDGE('',*,*,#326,.F.);
#311=ORIENTED_EDGE('',*,*,#411,.T.);
#312=ORIENTED_EDGE('',*,*,#338,.T.);
#313=ORIENTED_EDGE('',*,*,#410,.T.);
#314=ORIENTED_EDGE('',*,*,#333,.F.);
#315=ORIENTED_EDGE('',*,*,#412,.F.);
#316=ORIENTED_EDGE('',*,*,#331,.T.);
#317=ORIENTED_EDGE('',*,*,#411,.F.);
#318=ORIENTED_EDGE('',*,*,#325,.T.);
#319=ORIENTED_EDGE('',*,*,#412,.T.);
#320=ORIENTED_EDGE('',*,*,#332,.T.);
#321=EDGE_CURVE('',#413,#414,#469,.T.);
#322=EDGE_CURVE('',#414,#415,#45,.T.);
#323=EDGE_CURVE('',#415,#416,#470,.T.);
#324=EDGE_CURVE('',#413,#416,#46,.T.);
#325=EDGE_CURVE('',#417,#418,#471,.T.);
#326=EDGE_CURVE('',#417,#414,#47,.T.);
#327=EDGE_CURVE('',#419,#413,#48,.T.);
#328=EDGE_CURVE('',#419,#420,#472,.T.);
#329=EDGE_CURVE('',#420,#421,#49,.T.);
#330=EDGE_CURVE('',#422,#421,#473,.T.);
#331=EDGE_CURVE('',#418,#422,#50,.T.);
#332=EDGE_CURVE('',#423,#424,#474,.T.);
#333=EDGE_CURVE('',#423,#425,#51,.T.);
#334=EDGE_CURVE('',#426,#425,#475,.T.);
#335=EDGE_CURVE('',#427,#426,#52,.T.);
#336=EDGE_CURVE('',#427,#428,#476,.T.);
#337=EDGE_CURVE('',#428,#416,#53,.T.);
#338=EDGE_CURVE('',#424,#415,#54,.T.);
#339=EDGE_CURVE('',#429,#430,#55,.F.);
#340=EDGE_CURVE('',#431,#430,#56,.T.);
#341=EDGE_CURVE('',#431,#432,#57,.T.);
#342=EDGE_CURVE('',#432,#429,#58,.T.);
#343=EDGE_CURVE('',#433,#434,#59,.T.);
#344=EDGE_CURVE('',#434,#435,#60,.T.);
#345=EDGE_CURVE('',#435,#436,#61,.F.);
#346=EDGE_CURVE('',#433,#436,#62,.T.);
#347=EDGE_CURVE('',#437,#438,#63,.F.);
#348=EDGE_CURVE('',#439,#438,#64,.T.);
#349=EDGE_CURVE('',#439,#440,#65,.F.);
#350=EDGE_CURVE('',#440,#441,#477,.T.);
#351=EDGE_CURVE('',#441,#442,#66,.F.);
#352=EDGE_CURVE('',#442,#443,#478,.T.);
#353=EDGE_CURVE('',#444,#443,#479,.T.);
#354=EDGE_CURVE('',#444,#445,#480,.T.);
#355=EDGE_CURVE('',#445,#446,#67,.T.);
#356=EDGE_CURVE('',#446,#437,#481,.T.);
#357=EDGE_CURVE('',#447,#448,#68,.T.);
#358=EDGE_CURVE('',#448,#449,#69,.T.);
#359=EDGE_CURVE('',#449,#450,#482,.F.);
#360=EDGE_CURVE('',#450,#451,#70,.F.);
#361=EDGE_CURVE('',#451,#452,#483,.F.);
#362=EDGE_CURVE('',#452,#453,#484,.T.);
#363=EDGE_CURVE('',#453,#454,#485,.F.);
#364=EDGE_CURVE('',#454,#455,#71,.T.);
#365=EDGE_CURVE('',#455,#456,#486,.F.);
#366=EDGE_CURVE('',#456,#447,#72,.T.);
#367=EDGE_CURVE('',#438,#431,#487,.T.);
#368=EDGE_CURVE('',#437,#432,#24,.F.);
#369=EDGE_CURVE('',#434,#439,#488,.T.);
#370=EDGE_CURVE('',#440,#433,#25,.F.);
#371=EDGE_CURVE('',#430,#448,#489,.T.);
#372=EDGE_CURVE('',#449,#429,#26,.F.);
#373=EDGE_CURVE('',#447,#435,#490,.T.);
#374=EDGE_CURVE('',#436,#456,#27,.T.);
#375=EDGE_CURVE('',#432,#457,#491,.F.);
#376=EDGE_CURVE('',#457,#458,#73,.T.);
#377=EDGE_CURVE('',#458,#429,#492,.T.);
#378=EDGE_CURVE('',#459,#460,#74,.F.);
#379=EDGE_CURVE('',#460,#433,#493,.F.);
#380=EDGE_CURVE('',#436,#459,#494,.T.);
#381=EDGE_CURVE('',#461,#462,#75,.T.);
#382=EDGE_CURVE('',#462,#463,#76,.F.);
#383=EDGE_CURVE('',#463,#464,#77,.F.);
#384=EDGE_CURVE('',#464,#461,#78,.F.);
#385=EDGE_CURVE('',#443,#453,#79,.T.);
#386=EDGE_CURVE('',#452,#444,#80,.F.);
#387=EDGE_CURVE('',#465,#466,#81,.T.);
#388=EDGE_CURVE('',#466,#467,#82,.F.);
#389=EDGE_CURVE('',#467,#468,#83,.F.);
#390=EDGE_CURVE('',#468,#465,#84,.F.);
#391=EDGE_CURVE('',#463,#455,#495,.T.);
#392=EDGE_CURVE('',#464,#454,#20,.F.);
#393=EDGE_CURVE('',#461,#442,#21,.F.);
#394=EDGE_CURVE('',#462,#460,#496,.T.);
#395=EDGE_CURVE('',#459,#463,#497,.F.);
#396=EDGE_CURVE('',#441,#462,#498,.F.);
#397=EDGE_CURVE('',#450,#466,#499,.F.);
#398=EDGE_CURVE('',#451,#465,#22,.F.);
#399=EDGE_CURVE('',#445,#468,#23,.F.);
#400=EDGE_CURVE('',#457,#467,#500,.T.);
#401=EDGE_CURVE('',#466,#458,#501,.F.);
#402=EDGE_CURVE('',#467,#446,#502,.T.);
#403=EDGE_CURVE('',#446,#457,#503,.T.);
#404=EDGE_CURVE('',#441,#460,#504,.T.);
#405=EDGE_CURVE('',#450,#458,#505,.T.);
#406=EDGE_CURVE('',#459,#455,#506,.T.);
#407=EDGE_CURVE('',#419,#428,#85,.T.);
#408=EDGE_CURVE('',#421,#426,#86,.T.);
#409=EDGE_CURVE('',#420,#427,#87,.T.);
#410=EDGE_CURVE('',#422,#425,#88,.T.);
#411=EDGE_CURVE('',#417,#424,#89,.T.);
#412=EDGE_CURVE('',#418,#423,#90,.T.);
#413=VERTEX_POINT('',#947);
#414=VERTEX_POINT('',#948);
#415=VERTEX_POINT('',#950);
#416=VERTEX_POINT('',#952);
#417=VERTEX_POINT('',#956);
#418=VERTEX_POINT('',#957);
#419=VERTEX_POINT('',#960);
#420=VERTEX_POINT('',#962);
#421=VERTEX_POINT('',#964);
#422=VERTEX_POINT('',#966);
#423=VERTEX_POINT('',#970);
#424=VERTEX_POINT('',#971);
#425=VERTEX_POINT('',#973);
#426=VERTEX_POINT('',#975);
#427=VERTEX_POINT('',#977);
#428=VERTEX_POINT('',#979);
#429=VERTEX_POINT('',#984);
#430=VERTEX_POINT('',#985);
#431=VERTEX_POINT('',#987);
#432=VERTEX_POINT('',#989);
#433=VERTEX_POINT('',#993);
#434=VERTEX_POINT('',#994);
#435=VERTEX_POINT('',#996);
#436=VERTEX_POINT('',#998);
#437=VERTEX_POINT('',#1002);
#438=VERTEX_POINT('',#1003);
#439=VERTEX_POINT('',#1005);
#440=VERTEX_POINT('',#1007);
#441=VERTEX_POINT('',#1009);
#442=VERTEX_POINT('',#1011);
#443=VERTEX_POINT('',#1013);
#444=VERTEX_POINT('',#1015);
#445=VERTEX_POINT('',#1017);
#446=VERTEX_POINT('',#1019);
#447=VERTEX_POINT('',#1023);
#448=VERTEX_POINT('',#1024);
#449=VERTEX_POINT('',#1026);
#450=VERTEX_POINT('',#1028);
#451=VERTEX_POINT('',#1030);
#452=VERTEX_POINT('',#1032);
#453=VERTEX_POINT('',#1034);
#454=VERTEX_POINT('',#1036);
#455=VERTEX_POINT('',#1038);
#456=VERTEX_POINT('',#1040);
#457=VERTEX_POINT('',#1072);
#458=VERTEX_POINT('',#1074);
#459=VERTEX_POINT('',#1078);
#460=VERTEX_POINT('',#1079);
#461=VERTEX_POINT('',#1084);
#462=VERTEX_POINT('',#1085);
#463=VERTEX_POINT('',#1087);
#464=VERTEX_POINT('',#1089);
#465=VERTEX_POINT('',#1096);
#466=VERTEX_POINT('',#1097);
#467=VERTEX_POINT('',#1099);
#468=VERTEX_POINT('',#1101);
#469=CIRCLE('',#654,0.0125);
#470=CIRCLE('',#655,0.0125);
#471=CIRCLE('',#657,0.0125);
#472=CIRCLE('',#658,0.0125);
#473=CIRCLE('',#659,0.0125);
#474=CIRCLE('',#661,0.0125);
#475=CIRCLE('',#662,0.0125);
#476=CIRCLE('',#663,0.0125);
#477=CIRCLE('',#667,0.016);
#478=CIRCLE('',#668,0.002);
#479=CIRCLE('',#669,0.013);
#480=CIRCLE('',#670,0.002);
#481=CIRCLE('',#671,0.016);
#482=CIRCLE('',#673,0.016);
#483=CIRCLE('',#674,0.002);
#484=CIRCLE('',#675,0.013);
#485=CIRCLE('',#676,0.002);
#486=CIRCLE('',#677,0.016);
#487=CIRCLE('',#679,0.002);
#488=CIRCLE('',#681,0.002);
#489=CIRCLE('',#683,0.002);
#490=CIRCLE('',#685,0.002);
#491=CIRCLE('',#687,0.018);
#492=CIRCLE('',#688,0.018);
#493=CIRCLE('',#690,0.018);
#494=CIRCLE('',#691,0.018);
#495=CIRCLE('',#696,0.002);
#496=CIRCLE('',#701,0.002);
#497=CIRCLE('',#702,0.002);
#498=CIRCLE('',#704,0.002);
#499=CIRCLE('',#706,0.002);
#500=CIRCLE('',#711,0.002);
#501=CIRCLE('',#712,0.002);
#502=CIRCLE('',#714,0.002);
#503=CIRCLE('',#716,0.002);
#504=CIRCLE('',#719,0.002);
#505=CIRCLE('',#722,0.002);
#506=CIRCLE('',#725,0.002);
#507=EDGE_LOOP('',(#137,#138,#139,#140));
#508=EDGE_LOOP('',(#141,#142,#143,#144,#145,#146,#147,#148));
#509=EDGE_LOOP('',(#149,#150,#151,#152,#153,#154,#155,#156));
#510=EDGE_LOOP('',(#157,#158,#159,#160));
#511=EDGE_LOOP('',(#161,#162,#163,#164));
#512=EDGE_LOOP('',(#165,#166,#167,#168,#169,#170,#171,#172,#173,#174));
#513=EDGE_LOOP('',(#175,#176,#177,#178,#179,#180,#181,#182,#183,#184));
#514=EDGE_LOOP('',(#185,#186,#187,#188));
#515=EDGE_LOOP('',(#189,#190,#191,#192));
#516=EDGE_LOOP('',(#193,#194,#195,#196));
#517=EDGE_LOOP('',(#197,#198,#199,#200));
#518=EDGE_LOOP('',(#201,#202,#203,#204));
#519=EDGE_LOOP('',(#205,#206,#207,#208));
#520=EDGE_LOOP('',(#209,#210,#211,#212));
#521=EDGE_LOOP('',(#213,#214,#215,#216));
#522=EDGE_LOOP('',(#217,#218,#219,#220));
#523=EDGE_LOOP('',(#221,#222,#223,#224));
#524=EDGE_LOOP('',(#225,#226,#227,#228,#229,#230));
#525=EDGE_LOOP('',(#231,#232,#233,#234));
#526=EDGE_LOOP('',(#235,#236,#237,#238));
#527=EDGE_LOOP('',(#239,#240,#241,#242));
#528=EDGE_LOOP('',(#243,#244,#245,#246,#247,#248));
#529=EDGE_LOOP('',(#249,#250,#251,#252));
#530=EDGE_LOOP('',(#253,#254,#255,#256));
#531=EDGE_LOOP('',(#257,#258,#259));
#532=EDGE_LOOP('',(#260,#261,#262,#263));
#533=EDGE_LOOP('',(#264,#265,#266,#267));
#534=EDGE_LOOP('',(#268,#269,#270));
#535=EDGE_LOOP('',(#271,#272,#273,#274));
#536=EDGE_LOOP('',(#275,#276,#277));
#537=EDGE_LOOP('',(#278,#279,#280,#281));
#538=EDGE_LOOP('',(#282,#283,#284));
#539=EDGE_LOOP('',(#285,#286,#287,#288));
#540=EDGE_LOOP('',(#289,#290,#291,#292));
#541=EDGE_LOOP('',(#293,#294,#295,#296));
#542=EDGE_LOOP('',(#297,#298,#299,#300,#301,#302,#303,#304));
#543=EDGE_LOOP('',(#305,#306,#307,#308));
#544=EDGE_LOOP('',(#309,#310,#311,#312));
#545=EDGE_LOOP('',(#313,#314,#315,#316));
#546=EDGE_LOOP('',(#317,#318,#319,#320));
#547=FACE_BOUND('',#507,.T.);
#548=FACE_BOUND('',#508,.T.);
#549=FACE_BOUND('',#509,.T.);
#550=FACE_BOUND('',#510,.T.);
#551=FACE_BOUND('',#511,.T.);
#552=FACE_BOUND('',#512,.T.);
#553=FACE_BOUND('',#513,.T.);
#554=FACE_BOUND('',#514,.T.);
#555=FACE_BOUND('',#515,.T.);
#556=FACE_BOUND('',#516,.T.);
#557=FACE_BOUND('',#517,.T.);
#558=FACE_BOUND('',#518,.T.);
#559=FACE_BOUND('',#519,.T.);
#560=FACE_BOUND('',#520,.T.);
#561=FACE_BOUND('',#521,.T.);
#562=FACE_BOUND('',#522,.T.);
#563=FACE_BOUND('',#523,.T.);
#564=FACE_BOUND('',#524,.T.);
#565=FACE_BOUND('',#525,.T.);
#566=FACE_BOUND('',#526,.T.);
#567=FACE_BOUND('',#527,.T.);
#568=FACE_BOUND('',#528,.T.);
#569=FACE_BOUND('',#529,.T.);
#570=FACE_BOUND('',#530,.T.);
#571=FACE_BOUND('',#531,.T.);
#572=FACE_BOUND('',#532,.T.);
#573=FACE_BOUND('',#533,.T.);
#574=FACE_BOUND('',#534,.T.);
#575=FACE_BOUND('',#535,.T.);
#576=FACE_BOUND('',#536,.T.);
#577=FACE_BOUND('',#537,.T.);
#578=FACE_BOUND('',#538,.T.);
#579=FACE_BOUND('',#539,.T.);
#580=FACE_BOUND('',#540,.T.);
#581=FACE_BOUND('',#541,.T.);
#582=FACE_BOUND('',#542,.T.);
#583=FACE_BOUND('',#543,.T.);
#584=FACE_BOUND('',#544,.T.);
#585=FACE_BOUND('',#545,.T.);
#586=FACE_BOUND('',#546,.T.);
#587=PLANE('',#653);
#588=PLANE('',#664);
#589=PLANE('',#665);
#590=PLANE('',#666);
#591=PLANE('',#672);
#592=PLANE('',#692);
#593=PLANE('',#694);
#594=PLANE('',#727);
#595=PLANE('',#728);
#596=PLANE('',#729);
#597=PLANE('',#730);
#598=PLANE('',#731);
#599=PLANE('',#732);
#600=PLANE('',#733);
#601=ADVANCED_FACE('',(#547),#587,.T.);
#602=ADVANCED_FACE('',(#548),#28,.T.);
#603=ADVANCED_FACE('',(#549),#29,.T.);
#604=ADVANCED_FACE('',(#550),#588,.T.);
#605=ADVANCED_FACE('',(#551),#589,.T.);
#606=ADVANCED_FACE('',(#552),#590,.T.);
#607=ADVANCED_FACE('',(#553),#591,.F.);
#608=ADVANCED_FACE('',(#554),#30,.T.);
#609=ADVANCED_FACE('',(#555),#31,.T.);
#610=ADVANCED_FACE('',(#556),#32,.T.);
#611=ADVANCED_FACE('',(#557),#33,.T.);
#612=ADVANCED_FACE('',(#558),#34,.T.);
#613=ADVANCED_FACE('',(#559),#35,.T.);
#614=ADVANCED_FACE('',(#560),#592,.T.);
#615=ADVANCED_FACE('',(#561),#36,.F.);
#616=ADVANCED_FACE('',(#562),#593,.F.);
#617=ADVANCED_FACE('',(#563),#37,.T.);
#618=ADVANCED_FACE('',(#564),#38,.T.);
#619=ADVANCED_FACE('',(#565),#39,.T.);
#620=ADVANCED_FACE('',(#566),#40,.T.);
#621=ADVANCED_FACE('',(#567),#41,.T.);
#622=ADVANCED_FACE('',(#568),#42,.T.);
#623=ADVANCED_FACE('',(#569),#43,.T.);
#624=ADVANCED_FACE('',(#570),#44,.T.);
#625=ADVANCED_FACE('',(#571),#16,.T.);
#626=ADVANCED_FACE('',(#572),#12,.T.);
#627=ADVANCED_FACE('',(#573),#13,.T.);
#628=ADVANCED_FACE('',(#574),#17,.T.);
#629=ADVANCED_FACE('',(#575),#14,.T.);
#630=ADVANCED_FACE('',(#576),#18,.T.);
#631=ADVANCED_FACE('',(#577),#15,.T.);
#632=ADVANCED_FACE('',(#578),#19,.T.);
#633=ADVANCED_FACE('',(#579),#594,.F.);
#634=ADVANCED_FACE('',(#580),#595,.T.);
#635=ADVANCED_FACE('',(#581,#582),#596,.F.);
#636=ADVANCED_FACE('',(#583),#597,.T.);
#637=ADVANCED_FACE('',(#584),#598,.T.);
#638=ADVANCED_FACE('',(#585),#599,.F.);
#639=ADVANCED_FACE('',(#586),#600,.T.);
#640=CLOSED_SHELL('',(#601,#602,#603,#604,#605,#606,#607,#608,#609,#610,
#611,#612,#613,#614,#615,#616,#617,#618,#619,#620,#621,#622,#623,#624,#625,
#626,#627,#628,#629,#630,#631,#632,#633,#634,#635,#636,#637,#638,#639));
#641=STYLED_ITEM('',(#642),#649);
#642=PRESENTATION_STYLE_ASSIGNMENT((#643));
#643=SURFACE_STYLE_USAGE(.BOTH.,#644);
#644=SURFACE_SIDE_STYLE('',(#645));
#645=SURFACE_STYLE_FILL_AREA(#646);
#646=FILL_AREA_STYLE('',(#647));
#647=FILL_AREA_STYLE_COLOUR('',#648);
#648=COLOUR_RGB('',0.615686274509804,0.811764705882353,0.929411764705882);
#649=MANIFOLD_SOLID_BREP('Part 1',#640);
#650=SHAPE_DEFINITION_REPRESENTATION(#1154,#651);
#651=SHAPE_REPRESENTATION('Part 1',(#652),#1149);
#652=AXIS2_PLACEMENT_3D('',#944,#734,#735);
#653=AXIS2_PLACEMENT_3D('',#945,#736,#737);
#654=AXIS2_PLACEMENT_3D('',#946,#738,#739);
#655=AXIS2_PLACEMENT_3D('',#951,#741,#742);
#656=AXIS2_PLACEMENT_3D('',#954,#744,#745);
#657=AXIS2_PLACEMENT_3D('',#955,#746,#747);
#658=AXIS2_PLACEMENT_3D('',#961,#750,#751);
#659=AXIS2_PLACEMENT_3D('',#965,#753,#754);
#660=AXIS2_PLACEMENT_3D('',#968,#756,#757);
#661=AXIS2_PLACEMENT_3D('',#969,#758,#759);
#662=AXIS2_PLACEMENT_3D('',#974,#761,#762);
#663=AXIS2_PLACEMENT_3D('',#978,#764,#765);
#664=AXIS2_PLACEMENT_3D('',#982,#768,#769);
#665=AXIS2_PLACEMENT_3D('',#991,#774,#775);
#666=AXIS2_PLACEMENT_3D('',#1000,#780,#781);
#667=AXIS2_PLACEMENT_3D('',#1008,#785,#786);
#668=AXIS2_PLACEMENT_3D('',#1012,#788,#789);
#669=AXIS2_PLACEMENT_3D('',#1014,#790,#791);
#670=AXIS2_PLACEMENT_3D('',#1016,#792,#793);
#671=AXIS2_PLACEMENT_3D('',#1020,#795,#796);
#672=AXIS2_PLACEMENT_3D('',#1021,#797,#798);
#673=AXIS2_PLACEMENT_3D('',#1027,#801,#802);
#674=AXIS2_PLACEMENT_3D('',#1031,#804,#805);
#675=AXIS2_PLACEMENT_3D('',#1033,#806,#807);
#676=AXIS2_PLACEMENT_3D('',#1035,#808,#809);
#677=AXIS2_PLACEMENT_3D('',#1039,#811,#812);
#678=AXIS2_PLACEMENT_3D('',#1042,#814,#815);
#679=AXIS2_PLACEMENT_3D('',#1043,#816,#817);
#680=AXIS2_PLACEMENT_3D('',#1049,#818,#819);
#681=AXIS2_PLACEMENT_3D('',#1050,#820,#821);
#682=AXIS2_PLACEMENT_3D('',#1056,#822,#823);
#683=AXIS2_PLACEMENT_3D('',#1057,#824,#825);
#684=AXIS2_PLACEMENT_3D('',#1063,#826,#827);
#685=AXIS2_PLACEMENT_3D('',#1064,#828,#829);
#686=AXIS2_PLACEMENT_3D('',#1070,#830,#831);
#687=AXIS2_PLACEMENT_3D('',#1071,#832,#833);
#688=AXIS2_PLACEMENT_3D('',#1075,#835,#836);
#689=AXIS2_PLACEMENT_3D('',#1076,#837,#838);
#690=AXIS2_PLACEMENT_3D('',#1080,#840,#841);
#691=AXIS2_PLACEMENT_3D('',#1081,#842,#843);
#692=AXIS2_PLACEMENT_3D('',#1082,#844,#845);
#693=AXIS2_PLACEMENT_3D('',#1091,#850,#851);
#694=AXIS2_PLACEMENT_3D('',#1094,#854,#855);
#695=AXIS2_PLACEMENT_3D('',#1103,#860,#861);
#696=AXIS2_PLACEMENT_3D('',#1104,#862,#863);
#697=AXIS2_PLACEMENT_3D('',#1105,#864,#865);
#698=AXIS2_PLACEMENT_3D('',#1106,#866,#867);
#699=AXIS2_PLACEMENT_3D('',#1107,#868,#869);
#700=AXIS2_PLACEMENT_3D('',#1108,#870,#871);
#701=AXIS2_PLACEMENT_3D('',#1109,#872,#873);
#702=AXIS2_PLACEMENT_3D('',#1110,#874,#875);
#703=AXIS2_PLACEMENT_3D('',#1111,#876,#877);
#704=AXIS2_PLACEMENT_3D('',#1112,#878,#879);
#705=AXIS2_PLACEMENT_3D('',#1113,#880,#881);
#706=AXIS2_PLACEMENT_3D('',#1114,#882,#883);
#707=AXIS2_PLACEMENT_3D('',#1115,#884,#885);
#708=AXIS2_PLACEMENT_3D('',#1116,#886,#887);
#709=AXIS2_PLACEMENT_3D('',#1117,#888,#889);
#710=AXIS2_PLACEMENT_3D('',#1118,#890,#891);
#711=AXIS2_PLACEMENT_3D('',#1119,#892,#893);
#712=AXIS2_PLACEMENT_3D('',#1120,#894,#895);
#713=AXIS2_PLACEMENT_3D('',#1121,#896,#897);
#714=AXIS2_PLACEMENT_3D('',#1122,#898,#899);
#715=AXIS2_PLACEMENT_3D('',#1123,#900,#901);
#716=AXIS2_PLACEMENT_3D('',#1124,#902,#903);
#717=AXIS2_PLACEMENT_3D('',#1125,#904,#905);
#718=AXIS2_PLACEMENT_3D('',#1126,#906,#907);
#719=AXIS2_PLACEMENT_3D('',#1127,#908,#909);
#720=AXIS2_PLACEMENT_3D('',#1128,#910,#911);
#721=AXIS2_PLACEMENT_3D('',#1129,#912,#913);
#722=AXIS2_PLACEMENT_3D('',#1130,#914,#915);
#723=AXIS2_PLACEMENT_3D('',#1131,#916,#917);
#724=AXIS2_PLACEMENT_3D('',#1132,#918,#919);
#725=AXIS2_PLACEMENT_3D('',#1133,#920,#921);
#726=AXIS2_PLACEMENT_3D('',#1134,#922,#923);
#727=AXIS2_PLACEMENT_3D('',#1135,#924,#925);
#728=AXIS2_PLACEMENT_3D('',#1137,#927,#928);
#729=AXIS2_PLACEMENT_3D('',#1140,#931,#932);
#730=AXIS2_PLACEMENT_3D('',#1141,#933,#934);
#731=AXIS2_PLACEMENT_3D('',#1143,#936,#937);
#732=AXIS2_PLACEMENT_3D('',#1145,#939,#940);
#733=AXIS2_PLACEMENT_3D('',#1147,#942,#943);
#734=DIRECTION('',(0.,0.,1.));
#735=DIRECTION('',(1.,0.,0.));
#736=DIRECTION('',(0.,-1.,0.));
#737=DIRECTION('',(0.,0.,-1.));
#738=DIRECTION('',(0.,-1.,0.));
#739=DIRECTION('',(0.,0.,-1.));
#740=DIRECTION('',(0.,0.,-1.));
#741=DIRECTION('',(0.,-1.,0.));
#742=DIRECTION('',(0.,0.,-1.));
#743=DIRECTION('',(0.,0.,-1.));
#744=DIRECTION('',(0.,-1.,0.));
#745=DIRECTION('',(0.,0.,-1.));
#746=DIRECTION('',(0.,-1.,0.));
#747=DIRECTION('',(0.,0.,-1.));
#748=DIRECTION('',(0.,-1.,0.));
#749=DIRECTION('',(0.,-1.,0.));
#750=DIRECTION('',(0.,-1.,0.));
#751=DIRECTION('',(0.,0.,-1.));
#752=DIRECTION('',(0.,-1.,0.));
#753=DIRECTION('',(0.,-1.,0.));
#754=DIRECTION('',(0.,0.,-1.));
#755=DIRECTION('',(0.,-1.,0.));
#756=DIRECTION('',(0.,-1.,0.));
#757=DIRECTION('',(0.,0.,-1.));
#758=DIRECTION('',(0.,-1.,0.));
#759=DIRECTION('',(0.,0.,-1.));
#760=DIRECTION('',(0.,-1.,0.));
#761=DIRECTION('',(0.,-1.,0.));
#762=DIRECTION('',(0.,0.,-1.));
#763=DIRECTION('',(0.,-1.,0.));
#764=DIRECTION('',(0.,-1.,0.));
#765=DIRECTION('',(0.,0.,-1.));
#766=DIRECTION('',(0.,-1.,0.));
#767=DIRECTION('',(0.,-1.,0.));
#768=DIRECTION('',(-1.,0.,0.));
#769=DIRECTION('',(0.,0.,1.));
#770=DIRECTION('',(0.,1.,0.));
#771=DIRECTION('',(0.,0.,-1.));
#772=DIRECTION('',(0.,1.,0.));
#773=DIRECTION('',(0.,0.,-1.));
#774=DIRECTION('',(1.,4.33680868994202E-16,0.));
#775=DIRECTION('',(-4.33680868994202E-16,1.,0.));
#776=DIRECTION('',(4.33680868994202E-16,-1.,0.));
#777=DIRECTION('',(0.,0.,-1.));
#778=DIRECTION('',(4.33680868994202E-16,-1.,0.));
#779=DIRECTION('',(0.,0.,-1.));
#780=DIRECTION('',(0.,0.,1.));
#781=DIRECTION('',(1.,0.,0.));
#782=DIRECTION('',(0.,1.,0.));
#783=DIRECTION('',(-1.,0.,0.));
#784=DIRECTION('',(4.33680868994202E-16,-1.,0.));
#785=DIRECTION('',(0.,0.,1.));
#786=DIRECTION('',(1.,0.,0.));
#787=DIRECTION('',(1.,0.,0.));
#788=DIRECTION('',(0.,0.,1.));
#789=DIRECTION('',(1.,0.,0.));
#790=DIRECTION('',(0.,0.,1.));
#791=DIRECTION('',(1.,0.,0.));
#792=DIRECTION('',(0.,0.,1.));
#793=DIRECTION('',(1.,0.,0.));
#794=DIRECTION('',(-1.,0.,0.));
#795=DIRECTION('',(0.,0.,1.));
#796=DIRECTION('',(1.,0.,0.));
#797=DIRECTION('',(0.,0.,1.));
#798=DIRECTION('',(1.,0.,0.));
#799=DIRECTION('',(-1.,0.,0.));
#800=DIRECTION('',(0.,1.,0.));
#801=DIRECTION('',(0.,0.,1.));
#802=DIRECTION('',(1.,0.,0.));
#803=DIRECTION('',(-1.,0.,0.));
#804=DIRECTION('',(0.,0.,1.));
#805=DIRECTION('',(1.,0.,0.));
#806=DIRECTION('',(0.,0.,1.));
#807=DIRECTION('',(1.,0.,0.));
#808=DIRECTION('',(0.,0.,1.));
#809=DIRECTION('',(1.,0.,0.));
#810=DIRECTION('',(1.,0.,0.));
#811=DIRECTION('',(0.,0.,1.));
#812=DIRECTION('',(1.,0.,0.));
#813=DIRECTION('',(4.33680868994202E-16,-1.,0.));
#814=DIRECTION('',(0.,1.,0.));
#815=DIRECTION('',(0.,0.,1.));
#816=DIRECTION('',(0.,-1.,0.));
#817=DIRECTION('',(0.,0.,-1.));
#818=DIRECTION('',(4.33680868994202E-16,-1.,0.));
#819=DIRECTION('',(1.,4.33680868994202E-16,0.));
#820=DIRECTION('',(0.,-1.,0.));
#821=DIRECTION('',(0.,0.,-1.));
#822=DIRECTION('',(0.,-1.,0.));
#823=DIRECTION('',(0.,0.,-1.));
#824=DIRECTION('',(0.,-1.,0.));
#825=DIRECTION('',(0.,0.,-1.));
#826=DIRECTION('',(-4.33680868994202E-16,1.,0.));
#827=DIRECTION('',(-1.,-4.33680868994202E-16,0.));
#828=DIRECTION('',(0.,-1.,0.));
#829=DIRECTION('',(0.,0.,-1.));
#830=DIRECTION('',(0.,0.,-1.));
#831=DIRECTION('',(-1.,0.,0.));
#832=DIRECTION('',(0.,0.,1.));
#833=DIRECTION('',(1.,0.,0.));
#834=DIRECTION('',(0.,0.,-1.));
#835=DIRECTION('',(0.,0.,1.));
#836=DIRECTION('',(1.,0.,0.));
#837=DIRECTION('',(0.,0.,-1.));
#838=DIRECTION('',(-1.,0.,0.));
#839=DIRECTION('',(0.,0.,-1.));
#840=DIRECTION('',(0.,0.,1.));
#841=DIRECTION('',(1.,0.,0.));
#842=DIRECTION('',(0.,0.,1.));
#843=DIRECTION('',(1.,0.,0.));
#844=DIRECTION('',(0.,1.,0.));
#845=DIRECTION('',(0.,0.,1.));
#846=DIRECTION('',(1.,0.,0.));
#847=DIRECTION('',(0.,0.,1.));
#848=DIRECTION('',(1.,0.,0.));
#849=DIRECTION('',(0.,0.,-1.));
#850=DIRECTION('',(0.,0.,-1.));
#851=DIRECTION('',(-1.,0.,0.));
#852=DIRECTION('',(0.,0.,-1.));
#853=DIRECTION('',(0.,0.,-1.));
#854=DIRECTION('',(0.,-1.,0.));
#855=DIRECTION('',(0.,0.,-1.));
#856=DIRECTION('',(-1.,0.,0.));
#857=DIRECTION('',(0.,0.,-1.));
#858=DIRECTION('',(-1.,0.,0.));
#859=DIRECTION('',(0.,0.,1.));
#860=DIRECTION('',(-1.,0.,0.));
#861=DIRECTION('',(0.,0.,1.));
#862=DIRECTION('',(-1.,0.,0.));
#863=DIRECTION('',(0.,0.,1.));
#864=DIRECTION('',(0.707106781186548,0.,-0.707106781186548));
#865=DIRECTION('',(-0.707106781186548,0.,-0.707106781186548));
#866=DIRECTION('',(0.,0.,-1.));
#867=DIRECTION('',(-1.,0.,0.));
#868=DIRECTION('',(-0.707106781186548,0.,-0.707106781186548));
#869=DIRECTION('',(0.707106781186548,0.,-0.707106781186548));
#870=DIRECTION('',(0.,0.,-1.));
#871=DIRECTION('',(-1.,0.,0.));
#872=DIRECTION('',(0.,0.,-1.));
#873=DIRECTION('',(-1.,0.,0.));
#874=DIRECTION('',(0.,0.,-1.));
#875=DIRECTION('',(-1.,0.,0.));
#876=DIRECTION('',(1.,0.,0.));
#877=DIRECTION('',(0.,0.,-1.));
#878=DIRECTION('',(1.,0.,0.));
#879=DIRECTION('',(0.,0.,-1.));
#880=DIRECTION('',(-1.,0.,0.));
#881=DIRECTION('',(0.,0.,1.));
#882=DIRECTION('',(-1.,0.,0.));
#883=DIRECTION('',(0.,0.,1.));
#884=DIRECTION('',(-0.707106781186548,0.,-0.707106781186548));
#885=DIRECTION('',(0.707106781186548,0.,-0.707106781186548));
#886=DIRECTION('',(0.,0.,-1.));
#887=DIRECTION('',(-1.,0.,0.));
#888=DIRECTION('',(0.707106781186548,0.,-0.707106781186548));
#889=DIRECTION('',(-0.707106781186548,0.,-0.707106781186548));
#890=DIRECTION('',(0.,0.,-1.));
#891=DIRECTION('',(-1.,0.,0.));
#892=DIRECTION('',(0.,0.,-1.));
#893=DIRECTION('',(-1.,0.,0.));
#894=DIRECTION('',(0.,0.,-1.));
#895=DIRECTION('',(-1.,0.,0.));
#896=DIRECTION('',(1.,0.,0.));
#897=DIRECTION('',(0.,0.,-1.));
#898=DIRECTION('',(1.,0.,0.));
#899=DIRECTION('',(0.,0.,-1.));
#900=DIRECTION('',(0.,0.,1.));
#901=DIRECTION('',(1.,0.,0.));
#902=DIRECTION('',(-0.3125,-0.949917759598166,0.));
#903=DIRECTION('',(0.949917759598166,-0.3125,0.));
#904=DIRECTION('',(0.,0.,1.));
#905=DIRECTION('',(1.,0.,0.));
#906=DIRECTION('',(0.,0.,1.));
#907=DIRECTION('',(1.,0.,0.));
#908=DIRECTION('',(-0.3125,0.949917759598167,0.));
#909=DIRECTION('',(-0.949917759598167,-0.3125,0.));
#910=DIRECTION('',(0.,0.,1.));
#911=DIRECTION('',(1.,0.,0.));
#912=DIRECTION('',(0.,0.,1.));
#913=DIRECTION('',(1.,0.,0.));
#914=DIRECTION('',(0.3125,0.949917759598167,0.));
#915=DIRECTION('',(-0.949917759598167,0.3125,0.));
#916=DIRECTION('',(0.,0.,1.));
#917=DIRECTION('',(1.,0.,0.));
#918=DIRECTION('',(0.,0.,1.));
#919=DIRECTION('',(1.,0.,0.));
#920=DIRECTION('',(-0.3125,0.949917759598167,0.));
#921=DIRECTION('',(-0.949917759598167,-0.3125,0.));
#922=DIRECTION('',(0.,0.,1.));
#923=DIRECTION('',(1.,0.,0.));
#924=DIRECTION('',(-1.,0.,0.));
#925=DIRECTION('',(0.,0.,1.));
#926=DIRECTION('',(0.,0.,-1.));
#927=DIRECTION('',(-1.,0.,4.49063567039185E-16));
#928=DIRECTION('',(4.49063567039185E-16,0.,1.));
#929=DIRECTION('',(-4.49063567039185E-16,0.,-1.));
#930=DIRECTION('',(-4.49063567039185E-16,0.,-1.));
#931=DIRECTION('',(0.,-1.,0.));
#932=DIRECTION('',(1.,0.,0.));
#933=DIRECTION('',(0.,-1.,0.));
#934=DIRECTION('',(0.,0.,-1.));
#935=DIRECTION('',(0.,0.,-1.));
#936=DIRECTION('',(-1.,0.,0.));
#937=DIRECTION('',(0.,0.,1.));
#938=DIRECTION('',(0.,0.,-1.));
#939=DIRECTION('',(-1.,0.,0.));
#940=DIRECTION('',(0.,0.,1.));
#941=DIRECTION('',(0.,0.,-1.));
#942=DIRECTION('',(0.,-1.,0.));
#943=DIRECTION('',(1.,0.,0.));
#944=CARTESIAN_POINT('',(0.,0.,0.));
#945=CARTESIAN_POINT('',(0.,-0.0487854103315945,0.013));
#946=CARTESIAN_POINT('',(8.67361737988404E-19,-0.0487854103315945,0.00544871624172603));
#947=CARTESIAN_POINT('',(0.0089,-0.0487854103315945,0.0142259595447227));
#948=CARTESIAN_POINT('',(0.0033,-0.0487854103315945,0.0175052497402073));
#949=CARTESIAN_POINT('',(0.0033,-0.0487854103315945,0.00099737512989637));
#950=CARTESIAN_POINT('',(0.0033,-0.0487854103315945,-0.00450524974020726));
#951=CARTESIAN_POINT('',(1.7347234759768E-18,-0.0487854103315945,0.00755128375827397));
#952=CARTESIAN_POINT('',(0.0089,-0.0487854103315945,-0.0012259595447227));
#953=CARTESIAN_POINT('',(0.0089,-0.0487854103315945,0.0065));
#954=CARTESIAN_POINT('',(8.67361737988404E-19,-0.0459854103315945,0.00544871624172603));
#955=CARTESIAN_POINT('',(8.67361737988404E-19,-0.0480354103315945,0.00544871624172603));
#956=CARTESIAN_POINT('',(0.0033,-0.0480354103315945,0.0175052497402073));
#957=CARTESIAN_POINT('',(-0.0033,-0.0480354103315945,0.0175052497402073));
#958=CARTESIAN_POINT('',(0.0033,-0.0480354103315945,0.0175052497402073));
#959=CARTESIAN_POINT('',(0.0089,-0.0459854103315945,0.0142259595447227));
#960=CARTESIAN_POINT('',(0.0089,-0.0459854103315945,0.0142259595447227));
#961=CARTESIAN_POINT('',(8.67361737988404E-19,-0.0459854103315945,0.00544871624172603));
#962=CARTESIAN_POINT('',(-0.0089,-0.0459854103315945,0.0142259595447227));
#963=CARTESIAN_POINT('',(-0.0089,-0.0459854103315945,0.0142259595447227));
#964=CARTESIAN_POINT('',(-0.0089,-0.0487854103315945,0.0142259595447227));
#965=CARTESIAN_POINT('',(8.67361737988404E-19,-0.0487854103315945,0.00544871624172603));
#966=CARTESIAN_POINT('',(-0.0033,-0.0487854103315945,0.0175052497402073));
#967=CARTESIAN_POINT('',(-0.0033,-0.0480354103315945,0.0175052497402073));
#968=CARTESIAN_POINT('',(1.7347234759768E-18,-0.0459854103315945,0.00755128375827397));
#969=CARTESIAN_POINT('',(1.7347234759768E-18,-0.0480354103315945,0.00755128375827397));
#970=CARTESIAN_POINT('',(-0.0033,-0.0480354103315945,-0.00450524974020726));
#971=CARTESIAN_POINT('',(0.0033,-0.0480354103315945,-0.00450524974020726));
#972=CARTESIAN_POINT('',(-0.0033,-0.0480354103315945,-0.00450524974020726));
#973=CARTESIAN_POINT('',(-0.0033,-0.0487854103315945,-0.00450524974020726));
#974=CARTESIAN_POINT('',(1.7347234759768E-18,-0.0487854103315945,0.00755128375827397));
#975=CARTESIAN_POINT('',(-0.0089,-0.0487854103315945,-0.00122595954472271));
#976=CARTESIAN_POINT('',(-0.0089,-0.0459854103315945,-0.00122595954472271));
#977=CARTESIAN_POINT('',(-0.0089,-0.0459854103315945,-0.00122595954472271));
#978=CARTESIAN_POINT('',(1.7347234759768E-18,-0.0459854103315945,0.00755128375827397));
#979=CARTESIAN_POINT('',(0.0089,-0.0459854103315945,-0.0012259595447227));
#980=CARTESIAN_POINT('',(0.0089,-0.0459854103315945,-0.0012259595447227));
#981=CARTESIAN_POINT('',(0.0033,-0.0480354103315945,-0.00450524974020726));
#982=CARTESIAN_POINT('',(-0.0065,-0.0177854103315945,0.013));
#983=CARTESIAN_POINT('',(-0.0065,-0.0487854103315945,0.002));
#984=CARTESIAN_POINT('',(-0.0065,-0.0167854103315945,0.002));
#985=CARTESIAN_POINT('',(-0.0065,-0.0459854103315945,0.002));
#986=CARTESIAN_POINT('',(-0.0065,-0.0459854103315945,0.013));
#987=CARTESIAN_POINT('',(-0.0065,-0.0459854103315945,0.011));
#988=CARTESIAN_POINT('',(-0.0065,-0.0177854103315945,0.011));
#989=CARTESIAN_POINT('',(-0.0065,-0.0167854103315945,0.011));
#990=CARTESIAN_POINT('',(-0.0065,-0.0167854103315945,0.013));
#991=CARTESIAN_POINT('',(0.0065,-0.0177854103315945,0.013));
#992=CARTESIAN_POINT('',(0.0065,-0.0177854103315945,0.011));
#993=CARTESIAN_POINT('',(0.0065,-0.0167854103315945,0.011));
#994=CARTESIAN_POINT('',(0.0065,-0.0459854103315945,0.011));
#995=CARTESIAN_POINT('',(0.0065,-0.0459854103315945,0.013));
#996=CARTESIAN_POINT('',(0.0065,-0.0459854103315945,0.002));
#997=CARTESIAN_POINT('',(0.0065,-0.0167854103315945,0.002));
#998=CARTESIAN_POINT('',(0.0065,-0.0167854103315945,0.002));
#999=CARTESIAN_POINT('',(0.0065,-0.0167854103315945,0.013));
#1000=CARTESIAN_POINT('',(-3.46944695195361E-18,-0.00589270516579726,0.013));
#1001=CARTESIAN_POINT('',(-0.0045,-0.00589270516579726,0.013));
#1002=CARTESIAN_POINT('',(-0.0045,-0.0153541525327841,0.013));
#1003=CARTESIAN_POINT('',(-0.0045,-0.0459854103315945,0.013));
#1004=CARTESIAN_POINT('',(0.,-0.0459854103315945,0.013));
#1005=CARTESIAN_POINT('',(0.0045,-0.0459854103315945,0.013));
#1006=CARTESIAN_POINT('',(0.0045,-0.00589270516579726,0.013));
#1007=CARTESIAN_POINT('',(0.0045,-0.0153541525327841,0.013));
#1008=CARTESIAN_POINT('',(3.90312782094781E-18,4.77048955893622E-18,0.013));
#1009=CARTESIAN_POINT('',(0.0151986841535707,0.005,0.013));
#1010=CARTESIAN_POINT('',(-3.46944695195361E-18,0.005,0.013));
#1011=CARTESIAN_POINT('',(0.012142135623731,0.005,0.013));
#1012=CARTESIAN_POINT('',(0.014142135623731,0.005,0.013));
#1013=CARTESIAN_POINT('',(0.0122565175405668,0.00433333333333334,0.013));
#1014=CARTESIAN_POINT('',(1.93909171715192E-18,-4.33680868994202E-19,0.013));
#1015=CARTESIAN_POINT('',(-0.0122565175405668,0.00433333333333334,0.013));
#1016=CARTESIAN_POINT('',(-0.0141421356237309,0.005,0.013));
#1017=CARTESIAN_POINT('',(-0.0121421356237309,0.005,0.013));
#1018=CARTESIAN_POINT('',(-0.016583123951777,0.005,0.013));
#1019=CARTESIAN_POINT('',(-0.0151986841535707,0.005,0.013));
#1020=CARTESIAN_POINT('',(2.16840434497101E-18,4.33680868994202E-19,0.013));
#1021=CARTESIAN_POINT('',(-3.46944695195361E-18,-0.00589270516579726,0.));
#1022=CARTESIAN_POINT('',(0.,-0.0459854103315945,0.));
#1023=CARTESIAN_POINT('',(0.0045,-0.0459854103315945,0.));
#1024=CARTESIAN_POINT('',(-0.0045,-0.0459854103315945,0.));
#1025=CARTESIAN_POINT('',(-0.0045,-0.0167854103315945,0.));
#1026=CARTESIAN_POINT('',(-0.0045,-0.0153541525327841,0.));
#1027=CARTESIAN_POINT('',(2.16840434497101E-18,4.33680868994202E-19,0.));
#1028=CARTESIAN_POINT('',(-0.0151986841535707,0.005,0.));
#1029=CARTESIAN_POINT('',(-3.46944695195361E-18,0.005,0.));
#1030=CARTESIAN_POINT('',(-0.0121421356237309,0.005,0.));
#1031=CARTESIAN_POINT('',(-0.0141421356237309,0.005,0.));
#1032=CARTESIAN_POINT('',(-0.0122565175405668,0.00433333333333334,0.));
#1033=CARTESIAN_POINT('',(1.93909171715192E-18,-4.33680868994202E-19,0.));
#1034=CARTESIAN_POINT('',(0.0122565175405668,0.00433333333333334,0.));
#1035=CARTESIAN_POINT('',(0.014142135623731,0.005,0.));
#1036=CARTESIAN_POINT('',(0.012142135623731,0.005,0.));
#1037=CARTESIAN_POINT('',(0.016583123951777,0.005,0.));
#1038=CARTESIAN_POINT('',(0.0151986841535707,0.005,0.));
#1039=CARTESIAN_POINT('',(3.90312782094781E-18,4.77048955893622E-18,0.));
#1040=CARTESIAN_POINT('',(0.0045,-0.0153541525327841,0.));
#1041=CARTESIAN_POINT('',(0.0045,-0.0487854103315945,0.));
#1042=CARTESIAN_POINT('',(-0.0045,-0.0177854103315945,0.011));
#1043=CARTESIAN_POINT('',(-0.0045,-0.0459854103315945,0.011));
#1044=CARTESIAN_POINT('',(-0.0065,-0.0167854103315945,0.011));
#1045=CARTESIAN_POINT('',(-0.0065,-0.0167854103315945,0.0115918816056123));
#1046=CARTESIAN_POINT('',(-0.00593895838807045,-0.0164040061179485,0.0126805606353489));
#1047=CARTESIAN_POINT('',(-0.00496640326991202,-0.0157034184298866,0.013));
#1048=CARTESIAN_POINT('',(-0.0045,-0.0153541525327841,0.013));
#1049=CARTESIAN_POINT('',(0.0045,-0.0177854103315945,0.011));
#1050=CARTESIAN_POINT('',(0.0045,-0.0459854103315945,0.011));
#1051=CARTESIAN_POINT('',(0.0065,-0.0167854103315945,0.011));
#1052=CARTESIAN_POINT('',(0.0065,-0.0167854103315945,0.0115918816056123));
#1053=CARTESIAN_POINT('',(0.00593895838807044,-0.0164040061179485,0.0126805606353489));
#1054=CARTESIAN_POINT('',(0.00496640326991202,-0.0157034184298866,0.013));
#1055=CARTESIAN_POINT('',(0.0045,-0.0153541525327841,0.013));
#1056=CARTESIAN_POINT('',(-0.0045,-0.00589270516579726,0.002));
#1057=CARTESIAN_POINT('',(-0.0045,-0.0459854103315945,0.002));
#1058=CARTESIAN_POINT('',(-0.0065,-0.0167854103315945,0.002));
#1059=CARTESIAN_POINT('',(-0.0065,-0.0167854103315945,0.00140811839438769));
#1060=CARTESIAN_POINT('',(-0.00593895838807045,-0.0164040061179485,0.000319439364651074));
#1061=CARTESIAN_POINT('',(-0.00496640326991202,-0.0157034184298866,2.32378007924312E-18));
#1062=CARTESIAN_POINT('',(-0.0045,-0.0153541525327841,0.));
#1063=CARTESIAN_POINT('',(0.0045,-0.00589270516579726,0.002));
#1064=CARTESIAN_POINT('',(0.0045,-0.0459854103315945,0.002));
#1065=CARTESIAN_POINT('',(0.0065,-0.0167854103315945,0.002));
#1066=CARTESIAN_POINT('',(0.0065,-0.0167854103315945,0.00140811839438769));
#1067=CARTESIAN_POINT('',(0.00593895838807046,-0.0164040061179485,0.000319439364651075));
#1068=CARTESIAN_POINT('',(0.00496640326991202,-0.0157034184298866,-9.56884309215812E-19));
#1069=CARTESIAN_POINT('',(0.0045,-0.0153541525327841,-2.72751307004112E-35));
#1070=CARTESIAN_POINT('',(2.16840434497101E-18,4.33680868994202E-19,0.013));
#1071=CARTESIAN_POINT('',(2.16840434497101E-18,4.33680868994202E-19,0.011));
#1072=CARTESIAN_POINT('',(-0.017098519672767,0.005625,0.011));
#1073=CARTESIAN_POINT('',(-0.017098519672767,0.005625,0.013));
#1074=CARTESIAN_POINT('',(-0.017098519672767,0.005625,0.002));
#1075=CARTESIAN_POINT('',(2.16840434497101E-18,4.33680868994202E-19,0.002));
#1076=CARTESIAN_POINT('',(3.90312782094781E-18,4.77048955893622E-18,0.013));
#1077=CARTESIAN_POINT('',(0.017098519672767,0.005625,0.013));
#1078=CARTESIAN_POINT('',(0.017098519672767,0.005625,0.002));
#1079=CARTESIAN_POINT('',(0.017098519672767,0.005625,0.011));
#1080=CARTESIAN_POINT('',(3.90312782094781E-18,4.77048955893622E-18,0.011));
#1081=CARTESIAN_POINT('',(3.90312782094781E-18,4.77048955893622E-18,0.002));
#1082=CARTESIAN_POINT('',(0.0137687875509402,0.007,0.013));
#1083=CARTESIAN_POINT('',(0.0137687875509402,0.007,0.011));
#1084=CARTESIAN_POINT('',(0.014142135623731,0.007,0.011));
#1085=CARTESIAN_POINT('',(0.0151986841535707,0.007,0.011));
#1086=CARTESIAN_POINT('',(0.0151986841535707,0.007,0.));
#1087=CARTESIAN_POINT('',(0.0151986841535707,0.007,0.002));
#1088=CARTESIAN_POINT('',(0.0109544511501033,0.007,0.002));
#1089=CARTESIAN_POINT('',(0.014142135623731,0.007,0.002));
#1090=CARTESIAN_POINT('',(0.014142135623731,0.007,0.013));
#1091=CARTESIAN_POINT('',(1.93909171715192E-18,-4.33680868994202E-19,0.013));
#1092=CARTESIAN_POINT('',(0.0122565175405668,0.00433333333333334,0.013));
#1093=CARTESIAN_POINT('',(-0.0122565175405668,0.00433333333333334,0.013));
#1094=CARTESIAN_POINT('',(-0.0137687875509402,0.007,0.013));
#1095=CARTESIAN_POINT('',(-0.0137687875509402,0.007,0.002));
#1096=CARTESIAN_POINT('',(-0.0141421356237309,0.007,0.002));
#1097=CARTESIAN_POINT('',(-0.0151986841535707,0.007,0.002));
#1098=CARTESIAN_POINT('',(-0.0151986841535707,0.007,0.013));
#1099=CARTESIAN_POINT('',(-0.0151986841535707,0.007,0.011));
#1100=CARTESIAN_POINT('',(-0.0109544511501033,0.007,0.011));
#1101=CARTESIAN_POINT('',(-0.0141421356237309,0.007,0.011));
#1102=CARTESIAN_POINT('',(-0.0141421356237309,0.007,0.));
#1103=CARTESIAN_POINT('',(-3.46944695195361E-18,0.005,0.002));
#1104=CARTESIAN_POINT('',(0.0151986841535707,0.005,0.002));
#1105=CARTESIAN_POINT('',(0.014142135623731,0.005,0.002));
#1106=CARTESIAN_POINT('',(0.014142135623731,0.005,0.013));
#1107=CARTESIAN_POINT('',(0.014142135623731,0.005,0.011));
#1108=CARTESIAN_POINT('',(0.0151986841535707,0.005,0.013));
#1109=CARTESIAN_POINT('',(0.0151986841535707,0.005,0.011));
#1110=CARTESIAN_POINT('',(0.0151986841535707,0.005,0.002));
#1111=CARTESIAN_POINT('',(0.0137687875509402,0.005,0.011));
#1112=CARTESIAN_POINT('',(0.0151986841535707,0.005,0.011));
#1113=CARTESIAN_POINT('',(-0.0137687875509402,0.005,0.002));
#1114=CARTESIAN_POINT('',(-0.0151986841535707,0.005,0.002));
#1115=CARTESIAN_POINT('',(-0.0141421356237309,0.005,0.002));
#1116=CARTESIAN_POINT('',(-0.0141421356237309,0.005,0.013));
#1117=CARTESIAN_POINT('',(-0.0141421356237309,0.005,0.011));
#1118=CARTESIAN_POINT('',(-0.0151986841535707,0.005,0.013));
#1119=CARTESIAN_POINT('',(-0.0151986841535707,0.005,0.011));
#1120=CARTESIAN_POINT('',(-0.0151986841535707,0.005,0.002));
#1121=CARTESIAN_POINT('',(-3.46944695195361E-18,0.005,0.011));
#1122=CARTESIAN_POINT('',(-0.0151986841535707,0.005,0.011));
#1123=CARTESIAN_POINT('',(-0.0151986841535707,0.005,0.011));
#1124=CARTESIAN_POINT('',(-0.0151986841535707,0.005,0.011));
#1125=CARTESIAN_POINT('',(2.16840434497101E-18,4.33680868994202E-19,0.011));
#1126=CARTESIAN_POINT('',(3.90312782094781E-18,4.77048955893622E-18,0.011));
#1127=CARTESIAN_POINT('',(0.0151986841535707,0.005,0.011));
#1128=CARTESIAN_POINT('',(0.0151986841535707,0.005,0.011));
#1129=CARTESIAN_POINT('',(2.16840434497101E-18,4.33680868994202E-19,0.002));
#1130=CARTESIAN_POINT('',(-0.0151986841535707,0.005,0.002));
#1131=CARTESIAN_POINT('',(-0.0151986841535707,0.005,0.002));
#1132=CARTESIAN_POINT('',(3.90312782094781E-18,4.77048955893622E-18,0.002));
#1133=CARTESIAN_POINT('',(0.0151986841535707,0.005,0.002));
#1134=CARTESIAN_POINT('',(0.0151986841535707,0.005,0.002));
#1135=CARTESIAN_POINT('',(0.0089,-0.0459854103315945,0.0065));
#1136=CARTESIAN_POINT('',(0.0089,-0.0459854103315945,0.0065));
#1137=CARTESIAN_POINT('',(-0.0089,-0.0459854103315945,0.0065));
#1138=CARTESIAN_POINT('',(-0.0089,-0.0487854103315945,0.0065));
#1139=CARTESIAN_POINT('',(-0.0089,-0.0459854103315945,0.0065));
#1140=CARTESIAN_POINT('',(0.,-0.0459854103315945,0.0065));
#1141=CARTESIAN_POINT('',(0.,-0.0487854103315945,0.013));
#1142=CARTESIAN_POINT('',(-0.0033,-0.0487854103315945,0.0065));
#1143=CARTESIAN_POINT('',(0.0033,-0.0480354103315945,0.00099737512989637));
#1144=CARTESIAN_POINT('',(0.0033,-0.0480354103315945,0.00099737512989637));
#1145=CARTESIAN_POINT('',(-0.0033,-0.0480354103315945,0.0065));
#1146=CARTESIAN_POINT('',(-0.0033,-0.0480354103315945,0.0065));
#1147=CARTESIAN_POINT('',(-3.46944695195361E-18,-0.0480354103315945,0.0065));
#1148=MECHANICAL_DESIGN_GEOMETRIC_PRESENTATION_REPRESENTATION('',(#641),
#1149);
#1149=(
GEOMETRIC_REPRESENTATION_CONTEXT(3)
GLOBAL_UNCERTAINTY_ASSIGNED_CONTEXT((#1150))
GLOBAL_UNIT_ASSIGNED_CONTEXT((#1153,#1152,#1151))
REPRESENTATION_CONTEXT('Part 1','TOP_LEVEL_ASSEMBLY_PART')
);
#1150=UNCERTAINTY_MEASURE_WITH_UNIT(LENGTH_MEASURE(2.E-5),#1153,
'DISTANCE_ACCURACY_VALUE','Maximum Tolerance applied to model');
#1151=(
NAMED_UNIT(*)
SI_UNIT($,.STERADIAN.)
SOLID_ANGLE_UNIT()
);
#1152=(
NAMED_UNIT(*)
PLANE_ANGLE_UNIT()
SI_UNIT($,.RADIAN.)
);
#1153=(
LENGTH_UNIT()
NAMED_UNIT(*)
SI_UNIT($,.METRE.)
);
#1154=PRODUCT_DEFINITION_SHAPE('','',#1155);
#1155=PRODUCT_DEFINITION('','',#1157,#1156);
#1156=PRODUCT_DEFINITION_CONTEXT('',#1163,'design');
#1157=PRODUCT_DEFINITION_FORMATION_WITH_SPECIFIED_SOURCE('','',#1159,
 .NOT_KNOWN.);
#1158=PRODUCT_RELATED_PRODUCT_CATEGORY('','',(#1159));
#1159=PRODUCT('Part 1','Part 1','Part 1',(#1161));
#1160=PRODUCT_CATEGORY('','');
#1161=PRODUCT_CONTEXT('',#1163,'mechanical');
#1162=APPLICATION_PROTOCOL_DEFINITION('international standard',
'ap242_managed_model_based_3d_engineering',2020,#1163);
#1163=APPLICATION_CONTEXT('managed model based 3d engineering');
ENDSEC;
END-ISO-10303-21;
