ISO-10303-21;
HEADER;
/* Generated by software containing ST-Developer
 * from STEP Tools, Inc. (www.steptools.com) 
 */
/* OPTION: using custom renumber hook */

FILE_DESCRIPTION(
/* description */ ('STEP AP242 Edition 2',
'CAx-IF Rec.Pracs.---Representation and Presentation of Product Manufa
cturing Information (PMI)---4.0---2014-10-13',
'CAx-IF Rec.Pracs.---3D Tessellated Geometry---0.4---2014-09-14','2;1',
'CAx-IF Rec.Pracs.---User Defined Attributes---1.5---2016-08-15'),
/* implementation_level */ '2;1');

FILE_NAME(
/* name */ '69554f3a44b2cdb18115f163',
/* time_stamp */ '2025-12-31T16:28:42Z',
/* author */ (''),
/* organization */ (''),
/* preprocessor_version */ 'ST-DEVELOPER v20',
/* originating_system */ 'ONSHAPE BY PTC INC, 1.208',
/* authorisation */ '  ');

FILE_SCHEMA (('AP242_MANAGED_MODEL_BASED_3D_ENGINEERING_MIM_LF { 1 0 10303 442 3 1 4 }'));
ENDSEC;

DATA;
#10=SHAPE_REPRESENTATION_RELATIONSHIP('','',#428,#11);
#11=ADVANCED_BREP_SHAPE_REPRESENTATION('',(#426),#736);
#12=ELLIPSE('',#451,0.00282842712474619,0.002);
#13=ELLIPSE('',#452,0.00282842712474619,0.002);
#14=ELLIPSE('',#454,0.00282842712474619,0.002);
#15=ELLIPSE('',#456,0.00282842712474619,0.002);
#16=ELLIPSE('',#459,0.00282842712474619,0.002);
#17=ELLIPSE('',#460,0.00282842712474619,0.002);
#18=ELLIPSE('',#462,0.00282842712474619,0.002);
#19=ELLIPSE('',#464,0.00282842712474619,0.002);
#20=PLANE('',#433);
#21=PLANE('',#437);
#22=PLANE('',#441);
#23=PLANE('',#442);
#24=PLANE('',#446);
#25=PLANE('',#466);
#26=PLANE('',#468);
#27=PLANE('',#469);
#28=PLANE('',#470);
#29=PLANE('',#474);
#30=LINE('',#610,#63);
#31=LINE('',#619,#64);
#32=LINE('',#621,#65);
#33=LINE('',#623,#66);
#34=LINE('',#625,#67);
#35=LINE('',#627,#68);
#36=LINE('',#637,#69);
#37=LINE('',#646,#70);
#38=LINE('',#649,#71);
#39=LINE('',#651,#72);
#40=LINE('',#653,#73);
#41=LINE('',#658,#74);
#42=LINE('',#662,#75);
#43=LINE('',#664,#76);
#44=LINE('',#667,#77);
#45=LINE('',#669,#78);
#46=LINE('',#671,#79);
#47=LINE('',#673,#80);
#48=LINE('',#678,#81);
#49=LINE('',#681,#82);
#50=LINE('',#683,#83);
#51=LINE('',#685,#84);
#52=LINE('',#687,#85);
#53=LINE('',#691,#86);
#54=LINE('',#692,#87);
#55=LINE('',#694,#88);
#56=LINE('',#696,#89);
#57=LINE('',#698,#90);
#58=LINE('',#701,#91);
#59=LINE('',#721,#92);
#60=LINE('',#723,#93);
#61=LINE('',#725,#94);
#62=LINE('',#727,#95);
#63=VECTOR('',#481,1.);
#64=VECTOR('',#484,1.);
#65=VECTOR('',#487,1.);
#66=VECTOR('',#488,1.);
#67=VECTOR('',#489,1.);
#68=VECTOR('',#492,1.);
#69=VECTOR('',#495,1.);
#70=VECTOR('',#500,1.);
#71=VECTOR('',#501,1.);
#72=VECTOR('',#502,1.);
#73=VECTOR('',#503,1.);
#74=VECTOR('',#508,1.);
#75=VECTOR('',#511,1.);
#76=VECTOR('',#514,1.);
#77=VECTOR('',#515,1.);
#78=VECTOR('',#516,1.);
#79=VECTOR('',#517,1.);
#80=VECTOR('',#520,1.);
#81=VECTOR('',#525,1.);
#82=VECTOR('',#528,1.);
#83=VECTOR('',#529,1.);
#84=VECTOR('',#530,1.);
#85=VECTOR('',#531,1.);
#86=VECTOR('',#536,1.);
#87=VECTOR('',#537,1.);
#88=VECTOR('',#538,1.);
#89=VECTOR('',#539,1.);
#90=VECTOR('',#540,1.);
#91=VECTOR('',#543,1.);
#92=VECTOR('',#580,1.);
#93=VECTOR('',#583,1.);
#94=VECTOR('',#586,1.);
#95=VECTOR('',#589,1.);
#96=B_SPLINE_CURVE_WITH_KNOTS('',3,(#605,#606,#607,#608),.UNSPECIFIED.,
 .F.,.F.,(4,4),(0.,0.000661773597758833),.UNSPECIFIED.);
#97=B_SPLINE_CURVE_WITH_KNOTS('',3,(#612,#613,#614,#615),.UNSPECIFIED.,
 .F.,.F.,(4,4),(0.,0.000661773597758832),.UNSPECIFIED.);
#98=B_SPLINE_CURVE_WITH_KNOTS('',3,(#630,#631,#632,#633),.UNSPECIFIED.,
 .F.,.F.,(4,4),(0.,0.000661773597758833),.UNSPECIFIED.);
#99=B_SPLINE_CURVE_WITH_KNOTS('',3,(#641,#642,#643,#644),.UNSPECIFIED.,
 .F.,.F.,(4,4),(0.,0.000661773597758831),.UNSPECIFIED.);
#100=ORIENTED_EDGE('',*,*,#218,.F.);
#101=ORIENTED_EDGE('',*,*,#219,.T.);
#102=ORIENTED_EDGE('',*,*,#220,.T.);
#103=ORIENTED_EDGE('',*,*,#221,.T.);
#104=ORIENTED_EDGE('',*,*,#222,.T.);
#105=ORIENTED_EDGE('',*,*,#223,.F.);
#106=ORIENTED_EDGE('',*,*,#224,.F.);
#107=ORIENTED_EDGE('',*,*,#225,.F.);
#108=ORIENTED_EDGE('',*,*,#226,.T.);
#109=ORIENTED_EDGE('',*,*,#223,.T.);
#110=ORIENTED_EDGE('',*,*,#227,.T.);
#111=ORIENTED_EDGE('',*,*,#228,.T.);
#112=ORIENTED_EDGE('',*,*,#229,.F.);
#113=ORIENTED_EDGE('',*,*,#230,.T.);
#114=ORIENTED_EDGE('',*,*,#231,.T.);
#115=ORIENTED_EDGE('',*,*,#232,.T.);
#116=ORIENTED_EDGE('',*,*,#233,.T.);
#117=ORIENTED_EDGE('',*,*,#234,.T.);
#118=ORIENTED_EDGE('',*,*,#235,.T.);
#119=ORIENTED_EDGE('',*,*,#236,.T.);
#120=ORIENTED_EDGE('',*,*,#237,.T.);
#121=ORIENTED_EDGE('',*,*,#238,.T.);
#122=ORIENTED_EDGE('',*,*,#239,.F.);
#123=ORIENTED_EDGE('',*,*,#240,.T.);
#124=ORIENTED_EDGE('',*,*,#241,.T.);
#125=ORIENTED_EDGE('',*,*,#242,.T.);
#126=ORIENTED_EDGE('',*,*,#243,.T.);
#127=ORIENTED_EDGE('',*,*,#244,.T.);
#128=ORIENTED_EDGE('',*,*,#229,.T.);
#129=ORIENTED_EDGE('',*,*,#245,.T.);
#130=ORIENTED_EDGE('',*,*,#246,.T.);
#131=ORIENTED_EDGE('',*,*,#237,.F.);
#132=ORIENTED_EDGE('',*,*,#247,.T.);
#133=ORIENTED_EDGE('',*,*,#248,.T.);
#134=ORIENTED_EDGE('',*,*,#218,.T.);
#135=ORIENTED_EDGE('',*,*,#226,.F.);
#136=ORIENTED_EDGE('',*,*,#249,.F.);
#137=ORIENTED_EDGE('',*,*,#250,.F.);
#138=ORIENTED_EDGE('',*,*,#251,.F.);
#139=ORIENTED_EDGE('',*,*,#252,.T.);
#140=ORIENTED_EDGE('',*,*,#253,.T.);
#141=ORIENTED_EDGE('',*,*,#254,.T.);
#142=ORIENTED_EDGE('',*,*,#255,.T.);
#143=ORIENTED_EDGE('',*,*,#231,.F.);
#144=ORIENTED_EDGE('',*,*,#256,.F.);
#145=ORIENTED_EDGE('',*,*,#257,.F.);
#146=ORIENTED_EDGE('',*,*,#258,.T.);
#147=ORIENTED_EDGE('',*,*,#259,.T.);
#148=ORIENTED_EDGE('',*,*,#260,.T.);
#149=ORIENTED_EDGE('',*,*,#224,.T.);
#150=ORIENTED_EDGE('',*,*,#222,.F.);
#151=ORIENTED_EDGE('',*,*,#261,.T.);
#152=ORIENTED_EDGE('',*,*,#262,.T.);
#153=ORIENTED_EDGE('',*,*,#239,.T.);
#154=ORIENTED_EDGE('',*,*,#232,.F.);
#155=ORIENTED_EDGE('',*,*,#255,.F.);
#156=ORIENTED_EDGE('',*,*,#263,.F.);
#157=ORIENTED_EDGE('',*,*,#235,.F.);
#158=ORIENTED_EDGE('',*,*,#264,.F.);
#159=ORIENTED_EDGE('',*,*,#238,.F.);
#160=ORIENTED_EDGE('',*,*,#246,.F.);
#161=ORIENTED_EDGE('',*,*,#265,.F.);
#162=ORIENTED_EDGE('',*,*,#236,.F.);
#163=ORIENTED_EDGE('',*,*,#263,.T.);
#164=ORIENTED_EDGE('',*,*,#254,.F.);
#165=ORIENTED_EDGE('',*,*,#264,.T.);
#166=ORIENTED_EDGE('',*,*,#234,.F.);
#167=ORIENTED_EDGE('',*,*,#266,.F.);
#168=ORIENTED_EDGE('',*,*,#227,.F.);
#169=ORIENTED_EDGE('',*,*,#265,.T.);
#170=ORIENTED_EDGE('',*,*,#245,.F.);
#171=ORIENTED_EDGE('',*,*,#228,.F.);
#172=ORIENTED_EDGE('',*,*,#266,.T.);
#173=ORIENTED_EDGE('',*,*,#233,.F.);
#174=ORIENTED_EDGE('',*,*,#267,.F.);
#175=ORIENTED_EDGE('',*,*,#241,.F.);
#176=ORIENTED_EDGE('',*,*,#268,.F.);
#177=ORIENTED_EDGE('',*,*,#261,.F.);
#178=ORIENTED_EDGE('',*,*,#221,.F.);
#179=ORIENTED_EDGE('',*,*,#268,.T.);
#180=ORIENTED_EDGE('',*,*,#244,.F.);
#181=ORIENTED_EDGE('',*,*,#269,.F.);
#182=ORIENTED_EDGE('',*,*,#247,.F.);
#183=ORIENTED_EDGE('',*,*,#240,.F.);
#184=ORIENTED_EDGE('',*,*,#262,.F.);
#185=ORIENTED_EDGE('',*,*,#267,.T.);
#186=ORIENTED_EDGE('',*,*,#220,.F.);
#187=ORIENTED_EDGE('',*,*,#270,.F.);
#188=ORIENTED_EDGE('',*,*,#242,.F.);
#189=ORIENTED_EDGE('',*,*,#269,.T.);
#190=ORIENTED_EDGE('',*,*,#243,.F.);
#191=ORIENTED_EDGE('',*,*,#270,.T.);
#192=ORIENTED_EDGE('',*,*,#219,.F.);
#193=ORIENTED_EDGE('',*,*,#248,.F.);
#194=ORIENTED_EDGE('',*,*,#230,.F.);
#195=ORIENTED_EDGE('',*,*,#253,.F.);
#196=ORIENTED_EDGE('',*,*,#271,.T.);
#197=ORIENTED_EDGE('',*,*,#256,.T.);
#198=ORIENTED_EDGE('',*,*,#272,.F.);
#199=ORIENTED_EDGE('',*,*,#249,.T.);
#200=ORIENTED_EDGE('',*,*,#225,.T.);
#201=ORIENTED_EDGE('',*,*,#260,.F.);
#202=ORIENTED_EDGE('',*,*,#271,.F.);
#203=ORIENTED_EDGE('',*,*,#252,.F.);
#204=ORIENTED_EDGE('',*,*,#273,.T.);
#205=ORIENTED_EDGE('',*,*,#257,.T.);
#206=ORIENTED_EDGE('',*,*,#272,.T.);
#207=ORIENTED_EDGE('',*,*,#259,.F.);
#208=ORIENTED_EDGE('',*,*,#274,.F.);
#209=ORIENTED_EDGE('',*,*,#250,.T.);
#210=ORIENTED_EDGE('',*,*,#275,.F.);
#211=ORIENTED_EDGE('',*,*,#258,.F.);
#212=ORIENTED_EDGE('',*,*,#273,.F.);
#213=ORIENTED_EDGE('',*,*,#251,.T.);
#214=ORIENTED_EDGE('',*,*,#274,.T.);
#215=ORIENTED_EDGE('',*,*,#276,.F.);
#216=ORIENTED_EDGE('',*,*,#275,.T.);
#217=ORIENTED_EDGE('',*,*,#276,.T.);
#218=EDGE_CURVE('',#277,#278,#317,.T.);
#219=EDGE_CURVE('',#277,#279,#96,.T.);
#220=EDGE_CURVE('',#279,#280,#30,.T.);
#221=EDGE_CURVE('',#280,#281,#97,.T.);
#222=EDGE_CURVE('',#281,#282,#318,.T.);
#223=EDGE_CURVE('',#278,#282,#31,.T.);
#224=EDGE_CURVE('',#283,#282,#32,.T.);
#225=EDGE_CURVE('',#284,#283,#33,.T.);
#226=EDGE_CURVE('',#284,#278,#34,.T.);
#227=EDGE_CURVE('',#285,#286,#35,.F.);
#228=EDGE_CURVE('',#286,#287,#98,.T.);
#229=EDGE_CURVE('',#288,#287,#319,.T.);
#230=EDGE_CURVE('',#288,#289,#36,.T.);
#231=EDGE_CURVE('',#289,#290,#320,.T.);
#232=EDGE_CURVE('',#290,#285,#99,.T.);
#233=EDGE_CURVE('',#291,#292,#37,.T.);
#234=EDGE_CURVE('',#292,#293,#38,.F.);
#235=EDGE_CURVE('',#293,#294,#39,.F.);
#236=EDGE_CURVE('',#294,#291,#40,.F.);
#237=EDGE_CURVE('',#295,#296,#321,.T.);
#238=EDGE_CURVE('',#296,#297,#41,.T.);
#239=EDGE_CURVE('',#298,#297,#322,.T.);
#240=EDGE_CURVE('',#298,#295,#42,.F.);
#241=EDGE_CURVE('',#299,#300,#43,.T.);
#242=EDGE_CURVE('',#300,#301,#44,.F.);
#243=EDGE_CURVE('',#301,#302,#45,.F.);
#244=EDGE_CURVE('',#302,#299,#46,.F.);
#245=EDGE_CURVE('',#287,#303,#47,.F.);
#246=EDGE_CURVE('',#303,#296,#323,.T.);
#247=EDGE_CURVE('',#295,#304,#324,.T.);
#248=EDGE_CURVE('',#304,#277,#48,.T.);
#249=EDGE_CURVE('',#305,#284,#325,.T.);
#250=EDGE_CURVE('',#306,#305,#49,.T.);
#251=EDGE_CURVE('',#307,#306,#50,.T.);
#252=EDGE_CURVE('',#307,#308,#51,.T.);
#253=EDGE_CURVE('',#308,#288,#52,.T.);
#254=EDGE_CURVE('',#297,#309,#326,.F.);
#255=EDGE_CURVE('',#309,#290,#53,.T.);
#256=EDGE_CURVE('',#310,#289,#54,.T.);
#257=EDGE_CURVE('',#311,#310,#55,.T.);
#258=EDGE_CURVE('',#311,#312,#56,.T.);
#259=EDGE_CURVE('',#312,#313,#57,.T.);
#260=EDGE_CURVE('',#313,#283,#327,.T.);
#261=EDGE_CURVE('',#281,#314,#58,.F.);
#262=EDGE_CURVE('',#314,#298,#328,.F.);
#263=EDGE_CURVE('',#294,#309,#12,.F.);
#264=EDGE_CURVE('',#285,#293,#13,.F.);
#265=EDGE_CURVE('',#291,#303,#14,.F.);
#266=EDGE_CURVE('',#286,#292,#15,.F.);
#267=EDGE_CURVE('',#300,#280,#16,.F.);
#268=EDGE_CURVE('',#314,#299,#17,.F.);
#269=EDGE_CURVE('',#304,#302,#18,.F.);
#270=EDGE_CURVE('',#301,#279,#19,.F.);
#271=EDGE_CURVE('',#308,#310,#59,.T.);
#272=EDGE_CURVE('',#305,#313,#60,.T.);
#273=EDGE_CURVE('',#307,#311,#61,.T.);
#274=EDGE_CURVE('',#306,#312,#62,.T.);
#275=EDGE_CURVE('',#315,#315,#329,.T.);
#276=EDGE_CURVE('',#316,#316,#330,.T.);
#277=VERTEX_POINT('',#603);
#278=VERTEX_POINT('',#604);
#279=VERTEX_POINT('',#609);
#280=VERTEX_POINT('',#611);
#281=VERTEX_POINT('',#616);
#282=VERTEX_POINT('',#618);
#283=VERTEX_POINT('',#622);
#284=VERTEX_POINT('',#624);
#285=VERTEX_POINT('',#628);
#286=VERTEX_POINT('',#629);
#287=VERTEX_POINT('',#634);
#288=VERTEX_POINT('',#636);
#289=VERTEX_POINT('',#638);
#290=VERTEX_POINT('',#640);
#291=VERTEX_POINT('',#647);
#292=VERTEX_POINT('',#648);
#293=VERTEX_POINT('',#650);
#294=VERTEX_POINT('',#652);
#295=VERTEX_POINT('',#656);
#296=VERTEX_POINT('',#657);
#297=VERTEX_POINT('',#659);
#298=VERTEX_POINT('',#661);
#299=VERTEX_POINT('',#665);
#300=VERTEX_POINT('',#666);
#301=VERTEX_POINT('',#668);
#302=VERTEX_POINT('',#670);
#303=VERTEX_POINT('',#674);
#304=VERTEX_POINT('',#677);
#305=VERTEX_POINT('',#680);
#306=VERTEX_POINT('',#682);
#307=VERTEX_POINT('',#684);
#308=VERTEX_POINT('',#686);
#309=VERTEX_POINT('',#690);
#310=VERTEX_POINT('',#693);
#311=VERTEX_POINT('',#695);
#312=VERTEX_POINT('',#697);
#313=VERTEX_POINT('',#699);
#314=VERTEX_POINT('',#702);
#315=VERTEX_POINT('',#730);
#316=VERTEX_POINT('',#733);
#317=CIRCLE('',#431,0.018);
#318=CIRCLE('',#432,0.018);
#319=CIRCLE('',#435,0.018);
#320=CIRCLE('',#436,0.018);
#321=CIRCLE('',#439,0.013);
#322=CIRCLE('',#440,0.013);
#323=CIRCLE('',#443,0.002);
#324=CIRCLE('',#444,0.002);
#325=CIRCLE('',#445,0.013);
#326=CIRCLE('',#447,0.002);
#327=CIRCLE('',#448,0.013);
#328=CIRCLE('',#449,0.002);
#329=CIRCLE('',#471,0.00175);
#330=CIRCLE('',#473,0.00175);
#331=EDGE_LOOP('',(#100,#101,#102,#103,#104,#105));
#332=EDGE_LOOP('',(#106,#107,#108,#109));
#333=EDGE_LOOP('',(#110,#111,#112,#113,#114,#115));
#334=EDGE_LOOP('',(#116,#117,#118,#119));
#335=EDGE_LOOP('',(#120,#121,#122,#123));
#336=EDGE_LOOP('',(#124,#125,#126,#127));
#337=EDGE_LOOP('',(#128,#129,#130,#131,#132,#133,#134,#135,#136,#137,#138,
#139,#140));
#338=EDGE_LOOP('',(#141,#142,#143,#144,#145,#146,#147,#148,#149,#150,#151,
#152,#153));
#339=EDGE_LOOP('',(#154,#155,#156,#157,#158));
#340=EDGE_LOOP('',(#159,#160,#161,#162,#163,#164));
#341=EDGE_LOOP('',(#165,#166,#167,#168));
#342=EDGE_LOOP('',(#169,#170,#171,#172,#173));
#343=EDGE_LOOP('',(#174,#175,#176,#177,#178));
#344=EDGE_LOOP('',(#179,#180,#181,#182,#183,#184));
#345=EDGE_LOOP('',(#185,#186,#187,#188));
#346=EDGE_LOOP('',(#189,#190,#191,#192,#193));
#347=EDGE_LOOP('',(#194,#195,#196,#197));
#348=EDGE_LOOP('',(#198,#199,#200,#201));
#349=EDGE_LOOP('',(#202,#203,#204,#205));
#350=EDGE_LOOP('',(#206,#207,#208,#209));
#351=EDGE_LOOP('',(#210));
#352=EDGE_LOOP('',(#211,#212,#213,#214));
#353=EDGE_LOOP('',(#215));
#354=EDGE_LOOP('',(#216));
#355=EDGE_LOOP('',(#217));
#356=FACE_BOUND('',#331,.T.);
#357=FACE_BOUND('',#332,.T.);
#358=FACE_BOUND('',#333,.T.);
#359=FACE_BOUND('',#334,.T.);
#360=FACE_BOUND('',#335,.T.);
#361=FACE_BOUND('',#336,.T.);
#362=FACE_BOUND('',#337,.T.);
#363=FACE_BOUND('',#338,.T.);
#364=FACE_BOUND('',#339,.T.);
#365=FACE_BOUND('',#340,.T.);
#366=FACE_BOUND('',#341,.T.);
#367=FACE_BOUND('',#342,.T.);
#368=FACE_BOUND('',#343,.T.);
#369=FACE_BOUND('',#344,.T.);
#370=FACE_BOUND('',#345,.T.);
#371=FACE_BOUND('',#346,.T.);
#372=FACE_BOUND('',#347,.T.);
#373=FACE_BOUND('',#348,.T.);
#374=FACE_BOUND('',#349,.T.);
#375=FACE_BOUND('',#350,.T.);
#376=FACE_BOUND('',#351,.T.);
#377=FACE_BOUND('',#352,.T.);
#378=FACE_BOUND('',#353,.T.);
#379=FACE_BOUND('',#354,.T.);
#380=FACE_BOUND('',#355,.T.);
#381=CYLINDRICAL_SURFACE('',#430,0.018);
#382=CYLINDRICAL_SURFACE('',#434,0.018);
#383=CYLINDRICAL_SURFACE('',#438,0.013);
#384=CYLINDRICAL_SURFACE('',#450,0.002);
#385=CYLINDRICAL_SURFACE('',#453,0.002);
#386=CYLINDRICAL_SURFACE('',#455,0.002);
#387=CYLINDRICAL_SURFACE('',#457,0.002);
#388=CYLINDRICAL_SURFACE('',#458,0.002);
#389=CYLINDRICAL_SURFACE('',#461,0.002);
#390=CYLINDRICAL_SURFACE('',#463,0.002);
#391=CYLINDRICAL_SURFACE('',#465,0.002);
#392=CYLINDRICAL_SURFACE('',#467,0.013);
#393=CYLINDRICAL_SURFACE('',#472,0.00175);
#394=ADVANCED_FACE('',(#356),#381,.T.);
#395=ADVANCED_FACE('',(#357),#20,.T.);
#396=ADVANCED_FACE('',(#358),#382,.T.);
#397=ADVANCED_FACE('',(#359),#21,.T.);
#398=ADVANCED_FACE('',(#360),#383,.F.);
#399=ADVANCED_FACE('',(#361),#22,.F.);
#400=ADVANCED_FACE('',(#362),#23,.T.);
#401=ADVANCED_FACE('',(#363),#24,.F.);
#402=ADVANCED_FACE('',(#364),#384,.T.);
#403=ADVANCED_FACE('',(#365),#385,.T.);
#404=ADVANCED_FACE('',(#366),#386,.T.);
#405=ADVANCED_FACE('',(#367),#387,.T.);
#406=ADVANCED_FACE('',(#368),#388,.T.);
#407=ADVANCED_FACE('',(#369),#389,.T.);
#408=ADVANCED_FACE('',(#370),#390,.T.);
#409=ADVANCED_FACE('',(#371),#391,.T.);
#410=ADVANCED_FACE('',(#372),#25,.T.);
#411=ADVANCED_FACE('',(#373),#392,.T.);
#412=ADVANCED_FACE('',(#374),#26,.T.);
#413=ADVANCED_FACE('',(#375),#27,.F.);
#414=ADVANCED_FACE('',(#376,#377),#28,.T.);
#415=ADVANCED_FACE('',(#378,#379),#393,.F.);
#416=ADVANCED_FACE('',(#380),#29,.T.);
#417=CLOSED_SHELL('',(#394,#395,#396,#397,#398,#399,#400,#401,#402,#403,
#404,#405,#406,#407,#408,#409,#410,#411,#412,#413,#414,#415,#416));
#418=STYLED_ITEM('',(#419),#426);
#419=PRESENTATION_STYLE_ASSIGNMENT((#420));
#420=SURFACE_STYLE_USAGE(.BOTH.,#421);
#421=SURFACE_SIDE_STYLE('',(#422));
#422=SURFACE_STYLE_FILL_AREA(#423);
#423=FILL_AREA_STYLE('',(#424));
#424=FILL_AREA_STYLE_COLOUR('',#425);
#425=COLOUR_RGB('',0.615686274509804,0.811764705882353,0.929411764705882);
#426=MANIFOLD_SOLID_BREP('Part 1',#417);
#427=SHAPE_DEFINITION_REPRESENTATION(#741,#428);
#428=SHAPE_REPRESENTATION('Part 1',(#429),#736);
#429=AXIS2_PLACEMENT_3D('',#600,#475,#476);
#430=AXIS2_PLACEMENT_3D('',#601,#477,#478);
#431=AXIS2_PLACEMENT_3D('',#602,#479,#480);
#432=AXIS2_PLACEMENT_3D('',#617,#482,#483);
#433=AXIS2_PLACEMENT_3D('',#620,#485,#486);
#434=AXIS2_PLACEMENT_3D('',#626,#490,#491);
#435=AXIS2_PLACEMENT_3D('',#635,#493,#494);
#436=AXIS2_PLACEMENT_3D('',#639,#496,#497);
#437=AXIS2_PLACEMENT_3D('',#645,#498,#499);
#438=AXIS2_PLACEMENT_3D('',#654,#504,#505);
#439=AXIS2_PLACEMENT_3D('',#655,#506,#507);
#440=AXIS2_PLACEMENT_3D('',#660,#509,#510);
#441=AXIS2_PLACEMENT_3D('',#663,#512,#513);
#442=AXIS2_PLACEMENT_3D('',#672,#518,#519);
#443=AXIS2_PLACEMENT_3D('',#675,#521,#522);
#444=AXIS2_PLACEMENT_3D('',#676,#523,#524);
#445=AXIS2_PLACEMENT_3D('',#679,#526,#527);
#446=AXIS2_PLACEMENT_3D('',#688,#532,#533);
#447=AXIS2_PLACEMENT_3D('',#689,#534,#535);
#448=AXIS2_PLACEMENT_3D('',#700,#541,#542);
#449=AXIS2_PLACEMENT_3D('',#703,#544,#545);
#450=AXIS2_PLACEMENT_3D('',#704,#546,#547);
#451=AXIS2_PLACEMENT_3D('',#705,#548,#549);
#452=AXIS2_PLACEMENT_3D('',#706,#550,#551);
#453=AXIS2_PLACEMENT_3D('',#707,#552,#553);
#454=AXIS2_PLACEMENT_3D('',#708,#554,#555);
#455=AXIS2_PLACEMENT_3D('',#709,#556,#557);
#456=AXIS2_PLACEMENT_3D('',#710,#558,#559);
#457=AXIS2_PLACEMENT_3D('',#711,#560,#561);
#458=AXIS2_PLACEMENT_3D('',#712,#562,#563);
#459=AXIS2_PLACEMENT_3D('',#713,#564,#565);
#460=AXIS2_PLACEMENT_3D('',#714,#566,#567);
#461=AXIS2_PLACEMENT_3D('',#715,#568,#569);
#462=AXIS2_PLACEMENT_3D('',#716,#570,#571);
#463=AXIS2_PLACEMENT_3D('',#717,#572,#573);
#464=AXIS2_PLACEMENT_3D('',#718,#574,#575);
#465=AXIS2_PLACEMENT_3D('',#719,#576,#577);
#466=AXIS2_PLACEMENT_3D('',#720,#578,#579);
#467=AXIS2_PLACEMENT_3D('',#722,#581,#582);
#468=AXIS2_PLACEMENT_3D('',#724,#584,#585);
#469=AXIS2_PLACEMENT_3D('',#726,#587,#588);
#470=AXIS2_PLACEMENT_3D('',#728,#590,#591);
#471=AXIS2_PLACEMENT_3D('',#729,#592,#593);
#472=AXIS2_PLACEMENT_3D('',#731,#594,#595);
#473=AXIS2_PLACEMENT_3D('',#732,#596,#597);
#474=AXIS2_PLACEMENT_3D('',#734,#598,#599);
#475=DIRECTION('',(0.,0.,1.));
#476=DIRECTION('',(1.,0.,0.));
#477=DIRECTION('',(0.,0.,-1.));
#478=DIRECTION('',(-1.,0.,0.));
#479=DIRECTION('',(0.,0.,1.));
#480=DIRECTION('',(1.,0.,0.));
#481=DIRECTION('',(0.,0.,-1.));
#482=DIRECTION('',(0.,0.,1.));
#483=DIRECTION('',(1.,0.,0.));
#484=DIRECTION('',(0.,0.,-1.));
#485=DIRECTION('',(5.78241158658936E-16,-1.,0.));
#486=DIRECTION('',(1.,5.78241158658936E-16,0.));
#487=DIRECTION('',(-1.,-5.78241158658936E-16,0.));
#488=DIRECTION('',(0.,0.,-1.));
#489=DIRECTION('',(-1.,-5.78241158658936E-16,0.));
#490=DIRECTION('',(0.,0.,-1.));
#491=DIRECTION('',(-1.,0.,0.));
#492=DIRECTION('',(0.,0.,-1.));
#493=DIRECTION('',(0.,0.,1.));
#494=DIRECTION('',(1.,0.,0.));
#495=DIRECTION('',(0.,0.,-1.));
#496=DIRECTION('',(0.,0.,1.));
#497=DIRECTION('',(1.,0.,0.));
#498=DIRECTION('',(0.,1.,0.));
#499=DIRECTION('',(0.,0.,1.));
#500=DIRECTION('',(1.,0.,0.));
#501=DIRECTION('',(0.,0.,1.));
#502=DIRECTION('',(1.,0.,0.));
#503=DIRECTION('',(0.,0.,-1.));
#504=DIRECTION('',(0.,0.,-1.));
#505=DIRECTION('',(-1.,0.,0.));
#506=DIRECTION('',(0.,0.,1.));
#507=DIRECTION('',(1.,0.,0.));
#508=DIRECTION('',(0.,0.,-1.));
#509=DIRECTION('',(0.,0.,1.));
#510=DIRECTION('',(1.,0.,0.));
#511=DIRECTION('',(0.,0.,-1.));
#512=DIRECTION('',(0.,-1.,0.));
#513=DIRECTION('',(0.,0.,-1.));
#514=DIRECTION('',(-1.,0.,0.));
#515=DIRECTION('',(0.,0.,-1.));
#516=DIRECTION('',(-1.,0.,0.));
#517=DIRECTION('',(0.,0.,1.));
#518=DIRECTION('',(0.,0.,1.));
#519=DIRECTION('',(1.,0.,0.));
#520=DIRECTION('',(1.,0.,0.));
#521=DIRECTION('',(0.,0.,1.));
#522=DIRECTION('',(1.,0.,0.));
#523=DIRECTION('',(0.,0.,1.));
#524=DIRECTION('',(1.,0.,0.));
#525=DIRECTION('',(-1.,0.,0.));
#526=DIRECTION('',(0.,0.,-1.));
#527=DIRECTION('',(-1.,0.,0.));
#528=DIRECTION('',(-0.707106781186547,-0.707106781186548,0.));
#529=DIRECTION('',(0.707106781186548,-0.707106781186547,0.));
#530=DIRECTION('',(-0.707106781186547,-0.707106781186548,0.));
#531=DIRECTION('',(-1.,-2.66880534765662E-16,0.));
#532=DIRECTION('',(0.,0.,1.));
#533=DIRECTION('',(1.,0.,0.));
#534=DIRECTION('',(0.,0.,1.));
#535=DIRECTION('',(1.,0.,0.));
#536=DIRECTION('',(1.,0.,0.));
#537=DIRECTION('',(-1.,-2.66880534765662E-16,0.));
#538=DIRECTION('',(-0.707106781186547,-0.707106781186548,0.));
#539=DIRECTION('',(0.707106781186548,-0.707106781186547,0.));
#540=DIRECTION('',(-0.707106781186547,-0.707106781186548,0.));
#541=DIRECTION('',(0.,0.,-1.));
#542=DIRECTION('',(-1.,0.,0.));
#543=DIRECTION('',(-1.,0.,0.));
#544=DIRECTION('',(0.,0.,1.));
#545=DIRECTION('',(1.,0.,0.));
#546=DIRECTION('',(-1.,0.,0.));
#547=DIRECTION('',(0.,0.,1.));
#548=DIRECTION('',(0.707106781186548,0.,-0.707106781186548));
#549=DIRECTION('',(-0.707106781186548,0.,-0.707106781186548));
#550=DIRECTION('',(-0.707106781186548,0.,-0.707106781186548));
#551=DIRECTION('',(0.707106781186548,0.,-0.707106781186548));
#552=DIRECTION('',(0.,0.,-1.));
#553=DIRECTION('',(-1.,0.,0.));
#554=DIRECTION('',(-0.707106781186548,0.,-0.707106781186548));
#555=DIRECTION('',(0.707106781186548,0.,-0.707106781186548));
#556=DIRECTION('',(0.,0.,-1.));
#557=DIRECTION('',(-1.,0.,0.));
#558=DIRECTION('',(0.707106781186548,0.,-0.707106781186548));
#559=DIRECTION('',(-0.707106781186548,0.,-0.707106781186548));
#560=DIRECTION('',(1.,0.,0.));
#561=DIRECTION('',(0.,0.,-1.));
#562=DIRECTION('',(-1.,0.,0.));
#563=DIRECTION('',(0.,0.,1.));
#564=DIRECTION('',(0.707106781186548,0.,-0.707106781186548));
#565=DIRECTION('',(-0.707106781186548,0.,-0.707106781186548));
#566=DIRECTION('',(-0.707106781186548,0.,-0.707106781186548));
#567=DIRECTION('',(0.707106781186548,0.,-0.707106781186548));
#568=DIRECTION('',(0.,0.,-1.));
#569=DIRECTION('',(-1.,0.,0.));
#570=DIRECTION('',(0.707106781186548,0.,-0.707106781186548));
#571=DIRECTION('',(-0.707106781186548,0.,-0.707106781186548));
#572=DIRECTION('',(0.,0.,-1.));
#573=DIRECTION('',(-1.,0.,0.));
#574=DIRECTION('',(-0.707106781186548,0.,-0.707106781186548));
#575=DIRECTION('',(0.707106781186548,0.,-0.707106781186548));
#576=DIRECTION('',(1.,0.,0.));
#577=DIRECTION('',(0.,0.,-1.));
#578=DIRECTION('',(-2.66880534765662E-16,1.,0.));
#579=DIRECTION('',(-1.,-2.66880534765662E-16,0.));
#580=DIRECTION('',(0.,0.,-1.));
#581=DIRECTION('',(0.,0.,-1.));
#582=DIRECTION('',(-1.,0.,0.));
#583=DIRECTION('',(0.,0.,-1.));
#584=DIRECTION('',(-0.707106781186548,0.707106781186547,0.));
#585=DIRECTION('',(-0.707106781186547,-0.707106781186548,0.));
#586=DIRECTION('',(0.,0.,-1.));
#587=DIRECTION('',(-0.707106781186548,0.707106781186547,0.));
#588=DIRECTION('',(-0.707106781186547,-0.707106781186548,0.));
#589=DIRECTION('',(0.,0.,-1.));
#590=DIRECTION('',(0.707106781186547,0.707106781186548,0.));
#591=DIRECTION('',(-0.707106781186548,0.707106781186547,0.));
#592=DIRECTION('',(0.707106781186547,0.707106781186548,0.));
#593=DIRECTION('',(-0.707106781186548,0.707106781186547,0.));
#594=DIRECTION('',(0.707106781186547,0.707106781186548,0.));
#595=DIRECTION('',(-0.707106781186548,0.707106781186547,0.));
#596=DIRECTION('',(0.707106781186547,0.707106781186548,0.));
#597=DIRECTION('',(-0.707106781186548,0.707106781186547,0.));
#598=DIRECTION('',(0.707106781186547,0.707106781186548,0.));
#599=DIRECTION('',(-0.707106781186548,0.707106781186547,0.));
#600=CARTESIAN_POINT('',(0.,0.,0.));
#601=CARTESIAN_POINT('',(7.37257477290143E-18,-6.93889390390723E-18,0.013));
#602=CARTESIAN_POINT('',(7.37257477290143E-18,-6.93889390390723E-18,0.013));
#603=CARTESIAN_POINT('',(-0.0172916164657906,0.005,0.013));
#604=CARTESIAN_POINT('',(0.00551908404017441,-0.0171330006524687,0.013));
#605=CARTESIAN_POINT('',(-0.0172916164657906,0.005,0.013));
#606=CARTESIAN_POINT('',(-0.0172296167194332,0.00521441516699785,0.013));
#607=CARTESIAN_POINT('',(-0.0171650837350683,0.00542266276822085,0.0129663995814976));
#608=CARTESIAN_POINT('',(-0.017098519672767,0.005625,0.0128998355191963));
#609=CARTESIAN_POINT('',(-0.017098519672767,0.005625,0.0128998355191963));
#610=CARTESIAN_POINT('',(-0.017098519672767,0.005625,0.013));
#611=CARTESIAN_POINT('',(-0.017098519672767,0.005625,0.000100164480803667));
#612=CARTESIAN_POINT('',(-0.017098519672767,0.005625,0.000100164480803668));
#613=CARTESIAN_POINT('',(-0.0171650837350683,0.00542266276822085,3.36004185023897E-5));
#614=CARTESIAN_POINT('',(-0.0172296167194332,0.00521441516699785,-1.36043745581748E-19));
#615=CARTESIAN_POINT('',(-0.0172916164657906,0.005,-1.36043745581748E-19));
#616=CARTESIAN_POINT('',(-0.0172916164657906,0.005,0.));
#617=CARTESIAN_POINT('',(7.37257477290143E-18,-6.93889390390723E-18,0.));
#618=CARTESIAN_POINT('',(0.00551908404017441,-0.0171330006524687,0.));
#619=CARTESIAN_POINT('',(0.00551908404017441,-0.0171330006524687,0.013));
#620=CARTESIAN_POINT('',(0.0115190840401744,-0.0171330006524687,0.013));
#621=CARTESIAN_POINT('',(0.0115190840401744,-0.0171330006524687,0.));
#622=CARTESIAN_POINT('',(0.0375190840401744,-0.0171330006524687,0.));
#623=CARTESIAN_POINT('',(0.0375190840401744,-0.0171330006524687,0.013));
#624=CARTESIAN_POINT('',(0.0375190840401744,-0.0171330006524687,0.013));
#625=CARTESIAN_POINT('',(0.0115190840401744,-0.0171330006524687,0.013));
#626=CARTESIAN_POINT('',(2.60208521396521E-17,-1.21430643318376E-17,0.013));
#627=CARTESIAN_POINT('',(0.017098519672767,0.005625,0.013));
#628=CARTESIAN_POINT('',(0.017098519672767,0.005625,0.000100164480803667));
#629=CARTESIAN_POINT('',(0.017098519672767,0.005625,0.0128998355191963));
#630=CARTESIAN_POINT('',(0.017098519672767,0.005625,0.0128998355191963));
#631=CARTESIAN_POINT('',(0.0171650837350683,0.00542266276822085,0.0129663995814976));
#632=CARTESIAN_POINT('',(0.0172296167194332,0.00521441516699785,0.013));
#633=CARTESIAN_POINT('',(0.0172916164657906,0.005,0.013));
#634=CARTESIAN_POINT('',(0.0172916164657906,0.005,0.013));
#635=CARTESIAN_POINT('',(2.60208521396521E-17,-1.21430643318376E-17,0.013));
#636=CARTESIAN_POINT('',(0.0175190840401744,-0.00413300065246867,0.013));
#637=CARTESIAN_POINT('',(0.0175190840401744,-0.00413300065246867,0.013));
#638=CARTESIAN_POINT('',(0.0175190840401744,-0.00413300065246867,0.));
#639=CARTESIAN_POINT('',(2.60208521396521E-17,-1.21430643318376E-17,0.));
#640=CARTESIAN_POINT('',(0.0172916164657906,0.005,0.));
#641=CARTESIAN_POINT('',(0.0172916164657906,0.005,0.));
#642=CARTESIAN_POINT('',(0.0172296167194332,0.00521441516699785,0.));
#643=CARTESIAN_POINT('',(0.0171650837350683,0.00542266276822085,3.36004185023893E-5));
#644=CARTESIAN_POINT('',(0.017098519672767,0.005625,0.000100164480803667));
#645=CARTESIAN_POINT('',(0.0137687875509402,0.007,0.013));
#646=CARTESIAN_POINT('',(0.0137687875509402,0.007,0.011));
#647=CARTESIAN_POINT('',(0.014142135623731,0.007,0.011));
#648=CARTESIAN_POINT('',(0.0151986841535707,0.007,0.011));
#649=CARTESIAN_POINT('',(0.0151986841535707,0.007,0.));
#650=CARTESIAN_POINT('',(0.0151986841535707,0.007,0.002));
#651=CARTESIAN_POINT('',(0.0109544511501033,0.007,0.002));
#652=CARTESIAN_POINT('',(0.014142135623731,0.007,0.002));
#653=CARTESIAN_POINT('',(0.014142135623731,0.007,0.013));
#654=CARTESIAN_POINT('',(1.93909171715192E-18,-4.33680868994202E-19,0.013));
#655=CARTESIAN_POINT('',(1.93909171715192E-18,-4.33680868994202E-19,0.013));
#656=CARTESIAN_POINT('',(-0.0122565175405668,0.00433333333333334,0.013));
#657=CARTESIAN_POINT('',(0.0122565175405668,0.00433333333333334,0.013));
#658=CARTESIAN_POINT('',(0.0122565175405668,0.00433333333333334,0.013));
#659=CARTESIAN_POINT('',(0.0122565175405668,0.00433333333333334,0.));
#660=CARTESIAN_POINT('',(1.93909171715192E-18,-4.33680868994202E-19,0.));
#661=CARTESIAN_POINT('',(-0.0122565175405668,0.00433333333333334,0.));
#662=CARTESIAN_POINT('',(-0.0122565175405668,0.00433333333333334,0.013));
#663=CARTESIAN_POINT('',(-0.0137687875509402,0.007,0.013));
#664=CARTESIAN_POINT('',(-0.0137687875509402,0.007,0.002));
#665=CARTESIAN_POINT('',(-0.0141421356237309,0.007,0.002));
#666=CARTESIAN_POINT('',(-0.0151986841535707,0.007,0.002));
#667=CARTESIAN_POINT('',(-0.0151986841535707,0.007,0.013));
#668=CARTESIAN_POINT('',(-0.0151986841535707,0.007,0.011));
#669=CARTESIAN_POINT('',(-0.0109544511501033,0.007,0.011));
#670=CARTESIAN_POINT('',(-0.0141421356237309,0.007,0.011));
#671=CARTESIAN_POINT('',(-0.0141421356237309,0.007,0.));
#672=CARTESIAN_POINT('',(-3.46944695195361E-18,-0.0055,0.013));
#673=CARTESIAN_POINT('',(-3.46944695195361E-18,0.005,0.013));
#674=CARTESIAN_POINT('',(0.012142135623731,0.005,0.013));
#675=CARTESIAN_POINT('',(0.014142135623731,0.005,0.013));
#676=CARTESIAN_POINT('',(-0.0141421356237309,0.005,0.013));
#677=CARTESIAN_POINT('',(-0.0121421356237309,0.005,0.013));
#678=CARTESIAN_POINT('',(-0.016583123951777,0.005,0.013));
#679=CARTESIAN_POINT('',(0.0375190840401744,-0.00413300065246867,0.013));
#680=CARTESIAN_POINT('',(0.0467114721955995,-0.0133253888078938,0.013));
#681=CARTESIAN_POINT('',(0.0495398993203457,-0.0104969616831476,0.013));
#682=CARTESIAN_POINT('',(0.0495398993203457,-0.0104969616831476,0.013));
#683=CARTESIAN_POINT('',(0.0449437052426332,-0.00590076760543503,0.013));
#684=CARTESIAN_POINT('',(0.0403475111649206,-0.00130457352772248,0.013));
#685=CARTESIAN_POINT('',(0.0403475111649206,-0.00130457352772248,0.013));
#686=CARTESIAN_POINT('',(0.0375190840401744,-0.00413300065246867,0.013));
#687=CARTESIAN_POINT('',(0.0375190840401744,-0.00413300065246867,0.013));
#688=CARTESIAN_POINT('',(-3.46944695195361E-18,-0.0055,0.));
#689=CARTESIAN_POINT('',(0.014142135623731,0.005,0.));
#690=CARTESIAN_POINT('',(0.012142135623731,0.005,0.));
#691=CARTESIAN_POINT('',(0.016583123951777,0.005,0.));
#692=CARTESIAN_POINT('',(0.0375190840401744,-0.00413300065246867,0.));
#693=CARTESIAN_POINT('',(0.0375190840401744,-0.00413300065246867,0.));
#694=CARTESIAN_POINT('',(0.0403475111649206,-0.00130457352772248,0.));
#695=CARTESIAN_POINT('',(0.0403475111649206,-0.00130457352772248,0.));
#696=CARTESIAN_POINT('',(0.0449437052426332,-0.00590076760543503,0.));
#697=CARTESIAN_POINT('',(0.0495398993203457,-0.0104969616831476,0.));
#698=CARTESIAN_POINT('',(0.0495398993203457,-0.0104969616831476,0.));
#699=CARTESIAN_POINT('',(0.0467114721955995,-0.0133253888078938,0.));
#700=CARTESIAN_POINT('',(0.0375190840401744,-0.00413300065246867,0.));
#701=CARTESIAN_POINT('',(-3.46944695195361E-18,0.005,0.));
#702=CARTESIAN_POINT('',(-0.0121421356237309,0.005,0.));
#703=CARTESIAN_POINT('',(-0.0141421356237309,0.005,0.));
#704=CARTESIAN_POINT('',(-3.46944695195361E-18,0.005,0.002));
#705=CARTESIAN_POINT('',(0.014142135623731,0.005,0.002));
#706=CARTESIAN_POINT('',(0.0151986841535707,0.005,0.002));
#707=CARTESIAN_POINT('',(0.014142135623731,0.005,0.013));
#708=CARTESIAN_POINT('',(0.014142135623731,0.005,0.011));
#709=CARTESIAN_POINT('',(0.0151986841535707,0.005,0.013));
#710=CARTESIAN_POINT('',(0.0151986841535707,0.005,0.011));
#711=CARTESIAN_POINT('',(0.0137687875509402,0.005,0.011));
#712=CARTESIAN_POINT('',(-0.0137687875509402,0.005,0.002));
#713=CARTESIAN_POINT('',(-0.0151986841535707,0.005,0.002));
#714=CARTESIAN_POINT('',(-0.0141421356237309,0.005,0.002));
#715=CARTESIAN_POINT('',(-0.0141421356237309,0.005,0.013));
#716=CARTESIAN_POINT('',(-0.0141421356237309,0.005,0.011));
#717=CARTESIAN_POINT('',(-0.0151986841535707,0.005,0.013));
#718=CARTESIAN_POINT('',(-0.0151986841535707,0.005,0.011));
#719=CARTESIAN_POINT('',(-3.46944695195361E-18,0.005,0.011));
#720=CARTESIAN_POINT('',(0.0375190840401744,-0.00413300065246867,0.013));
#721=CARTESIAN_POINT('',(0.0375190840401744,-0.00413300065246867,0.013));
#722=CARTESIAN_POINT('',(0.0375190840401744,-0.00413300065246867,0.0065));
#723=CARTESIAN_POINT('',(0.0467114721955995,-0.0133253888078938,0.013));
#724=CARTESIAN_POINT('',(0.0403475111649206,-0.00130457352772248,0.013));
#725=CARTESIAN_POINT('',(0.0403475111649206,-0.00130457352772248,0.013));
#726=CARTESIAN_POINT('',(0.0495398993203457,-0.0104969616831476,0.013));
#727=CARTESIAN_POINT('',(0.0495398993203457,-0.0104969616831476,0.013));
#728=CARTESIAN_POINT('',(0.0403358436723485,-0.00129290603515038,0.0065));
#729=CARTESIAN_POINT('',(0.0449437052426332,-0.00590076760543504,0.0065));
#730=CARTESIAN_POINT('',(0.0437062683755567,-0.00466333073835858,0.0065));
#731=CARTESIAN_POINT('',(0.0378726374307677,-0.0129718354173005,0.0065));
#732=CARTESIAN_POINT('',(0.0378726374307677,-0.0129718354173005,0.0065));
#733=CARTESIAN_POINT('',(0.0366352005636912,-0.0117343985502241,0.0065));
#734=CARTESIAN_POINT('',(0.0378726374307677,-0.0129718354173005,0.0065));
#735=MECHANICAL_DESIGN_GEOMETRIC_PRESENTATION_REPRESENTATION('',(#418),
#736);
#736=(
GEOMETRIC_REPRESENTATION_CONTEXT(3)
GLOBAL_UNCERTAINTY_ASSIGNED_CONTEXT((#737))
GLOBAL_UNIT_ASSIGNED_CONTEXT((#740,#739,#738))
REPRESENTATION_CONTEXT('Part 1','TOP_LEVEL_ASSEMBLY_PART')
);
#737=UNCERTAINTY_MEASURE_WITH_UNIT(LENGTH_MEASURE(2.E-5),#740,
'DISTANCE_ACCURACY_VALUE','Maximum Tolerance applied to model');
#738=(
NAMED_UNIT(*)
SI_UNIT($,.STERADIAN.)
SOLID_ANGLE_UNIT()
);
#739=(
NAMED_UNIT(*)
PLANE_ANGLE_UNIT()
SI_UNIT($,.RADIAN.)
);
#740=(
LENGTH_UNIT()
NAMED_UNIT(*)
SI_UNIT($,.METRE.)
);
#741=PRODUCT_DEFINITION_SHAPE('','',#742);
#742=PRODUCT_DEFINITION('','',#744,#743);
#743=PRODUCT_DEFINITION_CONTEXT('',#750,'design');
#744=PRODUCT_DEFINITION_FORMATION_WITH_SPECIFIED_SOURCE('','',#746,
 .NOT_KNOWN.);
#745=PRODUCT_RELATED_PRODUCT_CATEGORY('','',(#746));
#746=PRODUCT('Part 1','Part 1','Part 1',(#748));
#747=PRODUCT_CATEGORY('','');
#748=PRODUCT_CONTEXT('',#750,'mechanical');
#749=APPLICATION_PROTOCOL_DEFINITION('international standard',
'ap242_managed_model_based_3d_engineering',2020,#750);
#750=APPLICATION_CONTEXT('managed model based 3d engineering');
ENDSEC;
END-ISO-10303-21;
