<svg xmlns="http://www.w3.org/2000/svg" width="1500" height="1000" viewBox="0 0 1500 1000"><title>Kids toys</title><path d="M362.251,782.884v108.1c49.915,32.341,255.236,54.609,434.788,55.352,186.7.774,390.074-21.24,449.722-55.352v-108.1Z" fill="#9b663a"/><ellipse cx="804.506" cy="782.884" rx="442.255" ry="83.288" fill="#ca894e"/><path d="M1134.948,723.739c0,54.806-148.39,99.236-331.441,99.236s-331.442-44.43-331.442-99.236S620.459,624.5,803.507,624.5,1134.948,668.931,1134.948,723.739Z" fill="#ee1b24"/><path d="M1082.038,624.945c0,54.561-124.479,98.794-278.03,98.794s-278.033-44.233-278.033-98.794,124.479-98.793,278.033-98.793S1082.038,570.383,1082.038,624.945Z" fill="#fdb915"/><path d="M1033.122,527.923c0,43.064-104.368,77.972-233.108,77.972s-233.108-34.908-233.108-77.972,104.365-77.971,233.108-77.971S1033.122,484.861,1033.122,527.923Z" fill="#64b149"/><ellipse cx="800.014" cy="436.662" rx="190.181" ry="72.655" fill="#11a0da"/><path d="M949.263,352.487c0,37.192-65.705,67.339-146.752,67.339s-146.756-30.147-146.756-67.339,65.705-67.338,146.756-67.338S949.263,315.3,949.263,352.487Z" fill="#b16cac"/><path d="M738.865,307.769s-19.993,3.293-13.973,15.5c6.985,14.181,132.554,26.984,153.239-2.658,6.491-9.3-6.487-13.951-15.722-12.843,4.99,3.765,4.242,8.195-.748,10.411s-43.68,9.082-91.349,3.544S738.865,307.769,738.865,307.769Z" fill="#995997"/><path d="M834.455,320.59a53.59,53.59,0,0,1-33.43,9.191,52.085,52.085,0,0,1-26.468-9.191V67.182h59.9Z" fill="#9b663a"/><ellipse cx="804.506" cy="67.625" rx="29.949" ry="11.297" fill="#ca894e"/><path d="M768.169,349a142.635,142.635,0,0,1-38.211-4.94,122.218,122.218,0,0,1-30.429-13.52,5.456,5.456,0,0,0-3.226-.8c-.828-.49-1.679-.924-2.5-1.433-6.339-3.923-12.332,5.29-6.046,9.181,1.455.9,2.964,1.688,4.442,2.534,9.968,19.246,49.908,24.075,69.867,26.4,4.841.565,6.551-3.516,5.236-6.8.293,0,.578.016.871.011C775.86,359.477,775.9,348.972,768.169,349Z" fill="#d385d1"/><path d="M759.333,433.758c-3.827-.113-7.6-.365-11.355-.692,1.642-3.064.061-7.295-5.1-7.531a262.693,262.693,0,0,1-56.33-8.818,183.9,183.9,0,0,1-18.925-10.149c-6.434-3.97-12.043,5.142-6.046,9.182.406.275.843.5,1.254.769a4.942,4.942,0,0,0,2.728,4.748c28.217,16.342,60.112,24.189,93.77,23.123C767.036,444.146,767.055,433.987,759.333,433.758Z" fill="#30cdfc"/><path d="M723.418,530.3c-.81-.1-1.6-.255-2.406-.368.179-2.147-1-4.237-4.237-4.823a359.77,359.77,0,0,1-90.3-28.748c-6.8-3.216-12.86,5.96-6.047,9.181.282.133.567.251.852.384-.259,1.776.49,3.628,2.895,4.812,30.71,15.1,61.841,29.254,97.646,30.006C728.392,540.886,730.22,531.178,723.418,530.3Z" fill="#90ce76"/><path d="M695.574,627.978c-.164-.044-.327-.094-.5-.138,6.678-.135,9.478-9.071,2.155-10.2-5.21-.8-10.72-1.643-16.375-2.555a4.9,4.9,0,0,0-3.511-2.142c-9.721-1.551-19.412-3.233-28.912-5.343a277.7,277.7,0,0,1-53.522-22.058c-.5-.361-1.034-.651-1.524-1.023a6.584,6.584,0,0,0-2.6-1.164c-.091-.05-.186-.094-.278-.147-6.532-3.674-12.548,5.523-6.046,9.181.916.516,1.855.97,2.774,1.474.278.219.555.44.837.658-4.724-1.775-9.425-3.64-14.092-5.672-6.855-2.984-12.772,5.68-6.046,9.181a392.527,392.527,0,0,0,124.449,40.2C699.852,639.342,703.12,629.945,695.574,627.978Z" fill="#f9cd6b"/><path d="M629.522,719.7a231.27,231.27,0,0,1-65.131-24.5c-5.374-3.934-11.009-8.238-16.881-10.589-.365-.252-.744-.48-1.105-.735a6.817,6.817,0,0,0-5.88-.958,17.809,17.809,0,0,0-3.313.022c-2.972.329-4.636,1.484-5.773,3.9a9.7,9.7,0,0,0-.885,3.3c-3.014,1.646-4.652,5.341-1.33,8.115,26.069,21.8,58.458,33.925,94.237,35.354,3.112.125,4.917-1.584,5.507-3.655C634.474,728.9,636.12,721.13,629.522,719.7Z" fill="#f4626c"/></svg>