<svg xmlns="http://www.w3.org/2000/svg" width="1500" height="1000" viewBox="0 0 1500 1000"><title>Kids toys</title><path d="M756.976,721.132c0,6.625-6.3,11.994-14.068,11.994h0c-7.772,0-14.073-5.369-14.073-11.994V311.2c0-6.628,6.3-11.994,14.073-11.994h0c7.771,0,14.068,5.366,14.068,11.994Z" fill="#86452f"/><path d="M881.033,721.132c0,6.625-6.3,11.994-14.064,11.994h0c-7.768,0-14.069-5.369-14.069-11.994V311.2c0-6.628,6.3-11.994,14.069-11.994h0c7.764,0,14.064,5.366,14.064,11.994Z" fill="#86452f"/><path d="M899.578,340.59c0,13.248-12.6,23.987-28.136,23.987H738.431c-15.543,0-28.137-10.739-28.137-23.987h0c0-13.242,12.594-23.981,28.137-23.981H871.442c15.539,0,28.136,10.739,28.136,23.981Z" fill="#df574b"/><path d="M909.88,399.118c0,13.245-12.593,23.984-28.132,23.984H730.705c-15.535,0-28.136-10.739-28.136-23.984h0c0-13.248,12.6-23.988,28.136-23.988H881.748c15.539,0,28.132,10.74,28.132,23.988Z" fill="#ffe546"/><path d="M920.179,457.643c0,13.245-12.594,23.984-28.129,23.984H717.83c-15.543,0-28.14-10.739-28.14-23.984h0c0-13.245,12.6-23.984,28.14-23.984H892.05c15.535,0,28.129,10.739,28.129,23.984Z" fill="#e67d2c"/><path d="M930.485,516.168c0,13.244-12.594,23.98-28.133,23.98H707.528c-15.543,0-28.141-10.736-28.141-23.98h0c0-13.249,12.6-23.988,28.141-23.988H902.352c15.539,0,28.133,10.739,28.133,23.988Z" fill="#fbc348"/><path d="M940.788,574.689c0,13.248-12.594,23.987-28.137,23.987H697.222c-15.536,0-28.137-10.739-28.137-23.987h0c0-13.245,12.6-23.984,28.137-23.984H912.651c15.543,0,28.137,10.739,28.137,23.984Z" fill="#eb4d66"/><path d="M951.093,633.217c0,13.242-12.6,23.981-28.14,23.981H686.923c-15.539,0-28.137-10.739-28.137-23.981h0c0-13.248,12.6-23.987,28.137-23.987h236.03c15.543,0,28.14,10.739,28.14,23.987Z" fill="#3faa98"/><path d="M961.4,691.738c0,13.249-12.6,23.988-28.144,23.988H676.617c-15.539,0-28.133-10.739-28.133-23.988h0c0-13.245,12.594-23.984,28.133-23.984H933.252c15.542,0,28.144,10.739,28.144,23.984Z" fill="#ffe546"/><path d="M749.125,341.028c0-2.924-2.774-5.285-6.2-5.285s-6.206,2.361-6.206,5.285,2.782,5.289,6.206,5.289S749.125,343.949,749.125,341.028Z" fill="#460e04"/><path d="M873.8,341.028c0-2.924-2.777-5.285-6.205-5.285s-6.2,2.361-6.2,5.285,2.774,5.289,6.2,5.289S873.8,343.949,873.8,341.028Z" fill="#460e04"/><path d="M749.125,400.285c0-2.921-2.774-5.282-6.2-5.282s-6.206,2.361-6.206,5.282,2.782,5.288,6.206,5.288S749.125,403.209,749.125,400.285Z" fill="#460e04"/><path d="M873.8,400.285c0-2.921-2.777-5.282-6.205-5.282s-6.2,2.361-6.2,5.282,2.774,5.288,6.2,5.288S873.8,403.209,873.8,400.285Z" fill="#460e04"/><path d="M749.125,459.552c0-2.925-2.774-5.289-6.2-5.289s-6.206,2.364-6.206,5.289,2.782,5.282,6.206,5.282S749.125,462.466,749.125,459.552Z" fill="#460e04"/><path d="M873.8,459.552c0-2.925-2.777-5.289-6.205-5.289s-6.2,2.364-6.2,5.289,2.774,5.282,6.2,5.282S873.8,462.466,873.8,459.552Z" fill="#460e04"/><path d="M749.125,518.8c0-2.921-2.774-5.285-6.2-5.285s-6.206,2.364-6.206,5.285,2.782,5.289,6.206,5.289S749.125,521.726,749.125,518.8Z" fill="#460e04"/><path d="M873.8,518.8c0-2.921-2.777-5.285-6.205-5.285s-6.2,2.364-6.2,5.285,2.774,5.289,6.2,5.289S873.8,521.726,873.8,518.8Z" fill="#460e04"/><path d="M749.125,578.065c0-2.921-2.774-5.285-6.2-5.285s-6.206,2.364-6.206,5.285,2.782,5.289,6.206,5.289S749.125,580.986,749.125,578.065Z" fill="#460e04"/><path d="M873.8,578.065c0-2.921-2.777-5.285-6.205-5.285s-6.2,2.364-6.2,5.285,2.774,5.289,6.2,5.289S873.8,580.986,873.8,578.065Z" fill="#460e04"/><path d="M749.125,637.325c0-2.918-2.774-5.285-6.2-5.285s-6.206,2.367-6.206,5.285,2.782,5.292,6.206,5.292S749.125,640.246,749.125,637.325Z" fill="#460e04"/><path d="M873.8,637.325c0-2.918-2.777-5.285-6.205-5.285s-6.2,2.367-6.2,5.285,2.774,5.292,6.2,5.292S873.8,640.246,873.8,637.325Z" fill="#460e04"/><path d="M749.125,696.585c0-2.918-2.774-5.285-6.2-5.285s-6.206,2.367-6.206,5.285,2.782,5.292,6.206,5.292S749.125,699.506,749.125,696.585Z" fill="#460e04"/><path d="M873.8,696.585c0-2.918-2.777-5.285-6.205-5.285s-6.2,2.367-6.2,5.285,2.774,5.292,6.2,5.292S873.8,699.506,873.8,696.585Z" fill="#460e04"/><path d="M964.843,648.9c1.421,2.446.251,5.413-2.615,6.624h0c-2.869,1.211-6.346.213-7.767-2.233L841.755,459.545c-1.422-2.439-.251-5.407,2.61-6.621h0c2.873-1.211,6.35-.212,7.772,2.23Z" fill="#460e04"/><path d="M868.9,449.093c-5.856-10.068-20.179-14.18-31.982-9.188s-16.641,17.2-10.785,27.266,20.179,14.182,31.99,9.184S874.756,459.16,868.9,449.093Z" fill="#922041"/><path d="M850.237,453.238c-2.706-4.648-9.319-6.54-14.768-4.24s-7.672,7.94-4.975,12.584,9.315,6.547,14.768,4.243S852.938,457.889,850.237,453.238Z" fill="#eb4d66"/><polygon points="949.775 645.227 960.157 640.843 950.721 624.616 940.339 629.008 949.775 645.227" fill="#ffe546"/><polygon points="935.935 621.23 946.317 616.846 944.763 614.168 934.384 618.559 935.935 621.23" fill="#ffe546"/><polygon points="857.552 486.5 867.942 482.109 866.384 479.438 855.997 483.823 857.552 486.5" fill="#ffe546"/><polygon points="929.737 610.785 940.119 606.393 930.679 590.17 920.293 594.558 929.737 610.785" fill="#ffe546"/><path d="M1007.739,528.741c3.135.53,5.176,3.133,4.557,5.805h0c-.627,2.681-3.671,4.415-6.814,3.889L756.626,496.45c-3.146-.533-5.187-3.13-4.567-5.808h0c.626-2.675,3.674-4.418,6.813-3.885Z" fill="#460e04"/><path d="M763.459,471.731c-12.932-2.179-25.492,4.992-28.049,16s5.844,21.731,18.777,23.913,25.488-4.982,28.049-16.007S776.387,473.913,763.459,471.731Z" fill="#922041"/><path d="M755.931,486.868c-5.97-1-11.765,2.3-12.944,7.39s2.7,10.027,8.665,11.032S763.417,503,764.6,497.911,761.9,487.873,755.931,486.868Z" fill="#eb4d66"/><polygon points="995.134 536.684 997.388 526.997 976.544 523.48 974.298 533.173 995.134 536.684" fill="#ffe546"/><polygon points="964.383 531.406 966.637 521.709 963.197 521.132 960.951 530.826 964.383 531.406" fill="#ffe546"/><polygon points="791.318 502.204 793.564 492.514 790.129 491.934 787.879 501.621 791.318 502.204" fill="#ffe546"/><polygon points="950.881 529.224 953.131 519.527 932.298 516.012 930.045 525.706 950.881 529.224" fill="#ffe546"/></svg>