<svg xmlns="http://www.w3.org/2000/svg" width="1500" height="1000" viewBox="0 0 1500 1000"><title>Kids toys</title><path d="M598.53,432.144s-54.477-47.6-42.56-119.367,89.379-117.1,174.5-101.99,140.787,96.988,94.486,190.383c-18.728,37.773-72.354,46.084-62.99,66.483s65.87,20.888,145.558,36.262c19.579,3.778,62.664-4.5,108.956-62.705,10.215-12.844,39.157-10.577,45.967,77.06s-19.579,191.138-127.683,243.266-315.807,26.441-380.5-55.15S533.838,562.843,578.1,525.069,613.19,448.4,598.53,432.144Z" fill="#fdb915"/><path d="M571.931,320.332s-3.469,9.633-54.086,10.2-53.807,9.632-40.4,23.8,39.37,23.421,55.542,23.043c-40.433,3.778-59.16,15.488-50.222,22.288S547.458,415.9,596.4,412.88C604.489,349.419,571.931,320.332,571.931,320.332Z" fill="#fc8317"/><path d="M694.719,583.242s41.924-34.072,96.14-39.287c70.7-6.8,137.947,20.4,161.779,27.2s51.073-6.044,60.437,6.8-5.959,91.413-115.766,112.567S612.15,666.344,694.719,583.242Z" fill="#db9c0f"/><path d="M711.744,290.49c0,16.481-15.054,29.842-33.624,29.842S644.5,306.971,644.5,290.49s15.052-29.841,33.622-29.841S711.744,274.01,711.744,290.49Z" fill="#212121"/></svg>