<svg xmlns="http://www.w3.org/2000/svg" width="1500" height="1000" viewBox="0 0 1500 1000"><title>Kids toys</title><path d="M991.338,448.746,947.3,465.32c2.455-10.931,1.448-24.8-1.535-32.477a25.336,25.336,0,0,0-32.56-14.3,24.661,24.661,0,0,0-14.532,32.014c2.99,7.691,11.643,18.686,20.889,25.2l-44.025,16.57,16.455,42.319c6.312-9.893,18.644-19.569,27.1-22.743a25.325,25.325,0,0,1,32.544,14.3,24.655,24.655,0,0,1-14.528,32.011c-8.448,3.177-24.2,4.081-35.611.857l16.458,42.322,115.8-43.574Z" fill="#cb6128"/><path d="M820.432,507.473c-11.34.131-24.835-3.606-31.857-8.011a24.555,24.555,0,0,1-7.7-34.24,25.458,25.458,0,0,1,34.81-7.565c7.019,4.4,16.155,14.86,20.818,25.033l25.3-39.017-100.1-62.8L695.041,483.691,732.2,507c-10.166,4.654-20.5,13.451-24.9,20.223a24.559,24.559,0,0,0,7.7,34.241,25.453,25.453,0,0,0,34.806-7.565c4.4-6.779,8.148-19.707,8.148-30.737l37.17,23.323Z" fill="#7cc242"/><path d="M802.7,594.407c-7.346-4.608-21.809-8.53-33.453-7.994l25.769-39.738-37.056-23.249c-.06,10.972-3.781,23.748-8.14,30.477a25.453,25.453,0,0,1-34.806,7.565,24.559,24.559,0,0,1-7.7-34.241c4.363-6.718,14.574-15.42,24.66-20.112l-37.048-23.242L628.252,586.69l100.093,62.8,25.769-39.741c4.408,10.61,14.126,21.859,21.475,26.469a25.457,25.457,0,0,0,34.806-7.572A24.557,24.557,0,0,0,802.7,594.407Z" fill="#462e90"/><path d="M856.271,585.108c11.184-4.037,23.448-14.092,28.346-21.64a24.558,24.558,0,0,0-7.7-34.241,25.452,25.452,0,0,0-34.805,7.572c-4.895,7.555-9,22.723-8,34.4l-38.967-24.443-25.716,39.657c11.613-.489,25.959,3.41,33.267,7.991a24.557,24.557,0,0,1,7.7,34.24,25.457,25.457,0,0,1-34.806,7.572c-7.308-4.583-16.953-15.741-21.4-26.3l-25.716,39.653L828.572,712.37l66.666-102.82Z" fill="#e61953"/></svg>