<svg xmlns="http://www.w3.org/2000/svg" width="1500" height="1000" viewBox="0 0 1500 1000"><title>Kids toys</title><path d="M484.6,772.4c0,71.065,155.31,128.672,346.9,128.672s346.9-57.607,346.9-128.672Z" fill="#fad405"/><path d="M967.48,416.352c0,23.17-22.478,41.956-50.212,41.956H745.723c-27.73,0-50.2-18.786-50.2-41.956h0c0-23.164,22.474-41.952,50.2-41.952H917.268c27.734,0,50.212,18.788,50.212,41.952Z" fill="#27aad4"/><path d="M967.48,479.385c0,23.169-22.478,41.955-50.212,41.955H745.723c-27.73,0-50.2-18.786-50.2-41.955h0c0-23.165,22.474-41.951,50.2-41.951H917.268c27.734,0,50.212,18.786,50.212,41.951Z" fill="#238fb5"/><path d="M739.073,374.809c24.276,18.2,56.365,29.3,91.555,29.3,35.315,0,67.506-11.169,91.816-29.492q-2.554-.218-5.176-.219H745.723A60.355,60.355,0,0,0,739.073,374.809Z" fill="#238fb5"/><path d="M1006.744,495.083c0,23.165-22.483,41.956-50.209,41.956H706.46c-27.73,0-50.212-18.791-50.212-41.956h0c0-23.166,22.482-41.952,50.212-41.952H956.535c27.726,0,50.209,18.786,50.209,41.952Z" fill="#d0e200"/><path d="M1006.744,566.745c0,23.169-22.483,41.956-50.209,41.956H706.46c-27.73,0-50.212-18.787-50.212-41.956h0c0-23.166,22.482-41.952,50.212-41.952H956.535c27.726,0,50.209,18.786,50.209,41.952Z" fill="#c1c600"/><path d="M1058.411,575.535c0,23.174-22.482,41.956-50.212,41.956H654.792c-27.726,0-50.2-18.782-50.2-41.956h0c0-23.166,22.478-41.948,50.2-41.948H1008.2c27.73,0,50.212,18.782,50.212,41.948Z" fill="#fad405"/><path d="M1058.411,646.338c0,23.171-22.482,41.958-50.212,41.958H654.792c-27.726,0-50.2-18.787-50.2-41.958h0c0-23.164,22.478-41.951,50.2-41.951H1008.2c27.73,0,50.212,18.787,50.212,41.951Z" fill="#e5bb07"/><path d="M1116.276,659.441c0,23.172-22.481,41.958-50.211,41.958H596.931c-27.73,0-50.209-18.786-50.209-41.958h0c0-23.164,22.479-41.95,50.209-41.95h469.134c27.73,0,50.211,18.786,50.211,41.95Z" fill="#fe8e04"/><path d="M1116.276,726.364c0,23.168-22.481,41.955-50.211,41.955H596.931c-27.73,0-50.209-18.787-50.209-41.955h0c0-23.167,22.479-41.954,50.209-41.954h469.134c27.73,0,50.211,18.787,50.211,41.954Z" fill="#e57a05"/><path d="M1178.394,773.283c0,21.937-155.31,39.718-346.9,39.718S484.6,795.22,484.6,773.283s155.31-39.714,346.9-39.714S1178.394,751.347,1178.394,773.283Z" fill="#d3ac07"/><path d="M1165.869,743.357c0,23.167-22.478,41.954-50.208,41.954H547.327c-27.727,0-50.2-18.787-50.2-41.954h0c0-23.165,22.474-41.958,50.2-41.958h568.334c27.73,0,50.208,18.793,50.208,41.958Z" fill="#e74105"/><path d="M1010.783,183.611c0,24.5-23.763,44.357-53.081,44.357s-53.085-19.861-53.085-44.357,23.767-44.357,53.085-44.357S1010.783,159.113,1010.783,183.611Z" fill="#f3b3f0"/><path d="M966.237,227.341c-12.571-22.848-33.848-41.646-60.309-53.408a37.428,37.428,0,0,0-1.311,9.678c0,24.5,23.767,44.357,53.085,44.357A63.068,63.068,0,0,0,966.237,227.341Z" fill="#a76aa4"/><path d="M652.205,183.611c0,24.5,23.766,44.357,53.084,44.357s53.081-19.861,53.081-44.357-23.766-44.357-53.081-44.357S652.205,159.113,652.205,183.611Z" fill="#f3b3f0"/><path d="M696.751,227.341c12.57-22.848,33.855-41.646,60.316-53.408a37.424,37.424,0,0,1,1.3,9.678c0,24.5-23.766,44.357-53.081,44.357A63.209,63.209,0,0,1,696.751,227.341Z" fill="#a76aa4"/><path d="M967.742,275.71c0,63.279-61.388,114.584-137.114,114.584S693.505,338.989,693.505,275.71,754.9,161.129,830.628,161.129,967.742,212.431,967.742,275.71Z" fill="#29abe2"/><path d="M967.742,275.71c0,63.279-61.388,114.584-137.114,114.584S693.505,338.989,693.505,275.71,754.9,161.129,830.628,161.129,967.742,212.431,967.742,275.71Z" fill="#f3b3f0"/><path d="M886.08,326.508c0,26.449-24.827,47.892-55.452,47.892s-55.457-21.443-55.457-47.892S800,278.621,830.628,278.621,886.08,300.058,886.08,326.508Z" fill="#a76aa4"/><path d="M745.473,299.19c0,7.341-6.89,13.287-15.384,13.287s-15.383-5.946-15.383-13.287,6.886-13.286,15.383-13.286S745.473,291.855,745.473,299.19Z" fill="#e6e6e6"/><path d="M936.288,299.19c0,7.341-6.886,13.287-15.383,13.287s-15.383-5.946-15.383-13.287,6.886-13.286,15.383-13.286S936.288,291.855,936.288,299.19Z" fill="#e6e6e6"/><path d="M988.468,162.639c0,8.175-7.668,14.8-17.131,14.8s-17.135-6.623-17.135-14.8,7.673-14.792,17.135-14.792S988.468,154.471,988.468,162.639Z" fill="#7d4f7b"/><path d="M727.768,161.129c0,8.174-7.669,14.8-17.132,14.8s-17.131-6.621-17.131-14.8,7.669-14.793,17.131-14.793S727.768,152.962,727.768,161.129Z" fill="#a76aa4"/><path d="M845.752,307.652c0,7.218-6.772,13.065-15.124,13.065S815.5,314.87,815.5,307.652s6.768-13.068,15.129-13.068S845.752,300.434,845.752,307.652Z" fill="#333"/><path d="M783.208,261.322c0,11.462-11.119,20.754-24.838,20.754s-24.834-9.292-24.834-20.754,11.12-20.755,24.834-20.755S783.208,249.856,783.208,261.322Z" fill="#333"/><path d="M773.947,254.814c0,3.595-3.488,6.508-7.786,6.508s-7.791-2.913-7.791-6.508,3.489-6.511,7.791-6.511S773.947,251.218,773.947,254.814Z" fill="#666"/><path d="M925.8,261.322c0,11.462-11.119,20.754-24.838,20.754s-24.834-9.292-24.834-20.754,11.116-20.755,24.834-20.755S925.8,249.856,925.8,261.322Z" fill="#333"/><path d="M916.542,254.814c0,3.595-3.488,6.508-7.794,6.508s-7.783-2.913-7.783-6.508,3.489-6.511,7.783-6.511S916.542,251.218,916.542,254.814Z" fill="#666"/><path d="M866.862,330.627s-35.11,15.488-34.722-10.347c0,0-9.588,31.374-28.73,2.916" fill="none" stroke="#333" stroke-miterlimit="10"/></svg>