<svg xmlns="http://www.w3.org/2000/svg" width="1500" height="1000" viewBox="0 0 1500 1000"><title>Kids toys</title><path d="M626.632,470.507c67.443-21.427,129.955-52.587,193.521-81.721C736.55,330.435,616.5,266.472,568.922,247.914,492.489,218.1,441.262,278.689,492.4,334.4,536.335,382.254,582.521,428.452,626.632,470.507Z" fill="#329dd3"/><path d="M739.328,355.139c-33.071,4.6-64.52,14.051-93.181,29.615-12.124,6.583-39.708,18.29-29.119,34.328a5.431,5.431,0,0,0,.608.742c-.876,4.032,4.5,7.44,8.482,4.693a409.228,409.228,0,0,1,66.9-37.881c16.664-7.382,36.432-11.658,50.324-23.013C747.044,360.6,744.95,354.358,739.328,355.139Z" fill="#62c6ed"/><path d="M678.478,326.6c-28.073,4.506-54.653,13.124-78.718,26.895-10.182,5.825-33.417,16.292-24.03,29.768a4.681,4.681,0,0,0,.534.621c-.656,3.452,4.007,6.258,7.332,3.848a346.192,346.192,0,0,1,56.144-33.472c14.031-6.585,30.776-10.581,42.353-20.5C685.175,331.115,683.251,325.831,678.478,326.6Z" fill="#62c6ed"/><path d="M623.122,294.705c-23.839,3.514-46.469,10.528-67.039,21.935-8.7,4.825-28.524,13.442-20.759,24.955a3.81,3.81,0,0,0,.445.533c-.6,2.916,3.308,5.343,6.158,3.338a294.562,294.562,0,0,1,48.008-27.748c11.972-5.427,26.21-8.635,36.153-16.913A3.474,3.474,0,0,0,623.122,294.705Z" fill="#62c6ed"/><path d="M1075.133,340.327s-83.253-76.272-47.446-116,147.706,58,147.706,58L1076.027,346.2Z" fill="#d3c0b4"/><path d="M263.2,558.419S150.408,423.155,184.65,386.211,258.5,503,263.2,558.419Z" fill="#999091"/><path d="M285.581,536.273S385.842,523.858,421.649,488.9s107.437-94.071,217.09-100.266,365.871-24.47,433.805-55.456c14.225-86.6,104.639-139.039,140.446-131.092s35.808,126.325,0,170.022S964.556,479.229,809.029,521.8s-249.522,84.684-399.913,95.012S245.3,598.542,239.927,572.323,262,540.078,285.581,536.273Z" fill="#f7e5d7"/><path d="M239.927,572.322c4.232,20.66,13.523,42.785,90.833,46.192,11.5-30.536.349-62.832-23.014-85.787-13.324,2.443-22.165,3.546-22.165,3.546C262,540.078,234.556,546.1,239.927,572.322Z" fill="#ee1b24"/><path d="M276.85,589.366s111.8,135.908,77.3,172.657S281.146,644.808,276.85,589.366Z" fill="#999091"/><path d="M1136,379.258s128.906,49.259,196.939,40.52-40.282-85.886-98.469-99.352C1150.327,336.356,1136,379.258,1136,379.258Z" fill="#d3c0b4"/><path d="M502.215,492.277c-13.823,0-13.846,19.068,0,19.068C516.04,511.345,516.063,492.277,502.215,492.277Z" fill="#9cb9d8"/><path d="M548.541,483.934c-13.823,0-13.848,19.068,0,19.068C562.366,503,562.387,483.934,548.541,483.934Z" fill="#9cb9d8"/><path d="M600.91,471.421c-13.825,0-13.848,19.068,0,19.068C614.733,490.489,614.756,471.421,600.91,471.421Z" fill="#9cb9d8"/><path d="M659.319,457.119c-13.823,0-13.846,19.069,0,19.069C673.144,476.188,673.167,457.119,659.319,457.119Z" fill="#9cb9d8"/><path d="M709.673,443.415c-13.823,0-13.846,19.068,0,19.068C723.5,462.483,723.521,443.415,709.673,443.415Z" fill="#9cb9d8"/><path d="M700.051,517.5s189.406,162.211,401.935,294.762c66.246,41.313,130.7-8.344,91.758-73.89s-222.9-288.406-281.982-283.638S755.551,480.16,700.051,517.5Z" fill="#329dd3"/><path d="M902.565,480.229c-33.466.65-66.053,6.307-96.79,18.347-13,5.094-42.1,13.438-34.007,30.586a5.073,5.073,0,0,0,.491.807c-1.473,3.893,3.349,7.9,7.7,5.651a424.939,424.939,0,0,1,71.989-29.643c17.621-5.348,37.855-7.253,53.326-16.866C909.394,486.553,908.256,480.118,902.565,480.229Z" fill="#62c6ed"/><path d="M947.621,515.186c-33.467.651-66.053,6.308-96.791,18.348-13.007,5.094-42.1,13.44-34.008,30.585a5.209,5.209,0,0,0,.492.808c-1.473,3.892,3.35,7.906,7.7,5.652a425.029,425.029,0,0,1,71.989-29.645c17.622-5.347,37.854-7.251,53.324-16.864C954.448,521.512,953.31,515.077,947.621,515.186Z" fill="#62c6ed"/><path d="M1005.359,556.5c-33.466.65-66.053,6.308-96.791,18.347-13,5.1-42.1,13.439-34.006,30.586a5.278,5.278,0,0,0,.49.808c-1.473,3.892,3.35,7.9,7.7,5.651a424.861,424.861,0,0,1,71.989-29.644c17.622-5.347,37.856-7.253,53.327-16.865C1012.188,562.825,1011.05,556.39,1005.359,556.5Z" fill="#62c6ed"/><path d="M1055.937,596.622c-33.466.651-66.053,6.308-96.79,18.348-13.007,5.1-42.1,13.44-34.008,30.587a5.188,5.188,0,0,0,.492.806c-1.473,3.892,3.35,7.906,7.7,5.653a424.861,424.861,0,0,1,71.989-29.644c17.621-5.347,37.853-7.253,53.326-16.865C1062.765,602.948,1061.626,596.513,1055.937,596.622Z" fill="#62c6ed"/><path d="M1085.492,636.914c-28.521.555-56.291,5.375-82.487,15.636-11.084,4.341-35.878,11.453-28.983,26.065a4.471,4.471,0,0,0,.419.688c-1.255,3.317,2.855,6.738,6.564,4.818a362.008,362.008,0,0,1,61.353-25.263c15.016-4.559,32.261-6.181,45.444-14.374C1091.312,642.3,1090.342,636.82,1085.492,636.914Z" fill="#62c6ed"/><path d="M1118.394,676.318c-24.16.469-47.683,4.554-69.874,13.245-9.389,3.678-30.391,9.7-24.55,22.08a3.631,3.631,0,0,0,.356.582c-1.064,2.811,2.417,5.709,5.559,4.081a306.823,306.823,0,0,1,51.97-21.4c12.721-3.86,27.327-5.236,38.5-12.174C1123.322,680.885,1122.5,676.239,1118.394,676.318Z" fill="#62c6ed"/><path d="M1158.676,712.07c-24.158.47-47.683,4.553-69.873,13.245-9.388,3.678-30.389,9.7-24.549,22.08a3.794,3.794,0,0,0,.354.584c-1.062,2.809,2.418,5.706,5.561,4.081a306.526,306.526,0,0,1,51.968-21.4c12.721-3.86,27.329-5.236,38.5-12.176A3.419,3.419,0,0,0,1158.676,712.07Z" fill="#62c6ed"/></svg>