<svg xmlns="http://www.w3.org/2000/svg" width="1500" height="1000" viewBox="0 0 1500 1000"><title>Kids toys</title><polygon points="787.842 608.261 503.981 649.952 503.981 441.483 793.721 405.566 787.842 608.261" fill="#fdb915"/><polygon points="754.404 588.891 538.833 620.555 538.833 462.239 758.868 434.963 754.404 588.891" fill="#efe2d5"/><polygon points="348.612 553.736 503.981 649.952 503.981 441.483 348.612 334.363 348.612 553.736" fill="#ed1c24"/><polygon points="374.647 533.098 477.946 597.07 477.946 458.465 374.647 387.245 374.647 533.098" fill="#efe2d5"/><polygon points="793.721 405.566 503.981 441.483 348.612 334.363 642.971 291.869 793.721 405.566" fill="#64b149"/><polygon points="722.334 393.09 525.53 417.489 419.997 344.728 619.94 315.863 722.334 393.09" fill="#efe2d5"/><path d="M671.48,515.516a41.933,41.933,0,0,0,5.123-4.152c8.8-8.553,12.639-20.655,5.8-30.706-6.422-9.431-20.382-14.088-33.919-13.687-16.868.5-30.694,8.881-42.115,17.589-9.191,7.009,5.058,17.9,14.255,10.884,8.445-6.438,36.207-22.928,44.342-6.722,7.532,15.006-22.457,22.682-35.511,25.924-3.4.843-5.411,2.6-6.346,4.627-3.494,5.562,1.685,13.7,10.967,10.884,13.532-4.108,29.149-4.782,40.316,3.66,12.081,9.136,9.894,24.327-2,32.938-19.655,14.227-48.677,8.247-64.121-6.445-8.119-7.727-22.3,3.228-14.253,10.884,26.343,25.067,82.879,26.257,103.31-4.641C712.416,543.736,696.292,523.249,671.48,515.516Z" fill="#fdb915"/><path d="M422.163,451.024q-11.7,7.579-23.407,15.151c-9.91,6.415,4.408,17.262,14.252,10.888q1.542-1,3.084-2-5.235,31.236-10.473,62.464c-1.64,9.8,18.529,9.71,20.156,0q6.8-40.534,13.589-81.062C440.59,449.169,427.985,447.254,422.163,451.024Z" fill="#ed1c24"/><path d="M625.18,367.207q-24.678,5.185-49.362,10.375c8.339-12,11.84-25.37-.41-37.4-16.809-16.506-48.021-9.629-58.178,7.919-5.2,8.979,12.165,16.821,17.4,7.771,2.279-3.936,5.3-7.869,11.014-9.356,9.032-2.347,16.255,3.451,17.216,9.862,1.611,10.759-8.839,20.22-17.165,27.994a8.581,8.581,0,0,0-1.083,1.245c-.006,0-.01.01-.014.013-.064.088-.148.169-.207.257-4.594,5.069.773,14.108,10.793,12q37.675-7.918,75.352-15.839C643.03,379.427,637.727,364.57,625.18,367.207Z" fill="#64b149"/><polygon points="701.245 752.748 985.106 794.439 985.106 585.974 695.367 550.05 701.245 752.748" fill="#b16cac"/><polygon points="734.685 733.378 950.255 765.042 950.255 606.726 730.22 579.447 734.685 733.378" fill="#efe2d5"/><polygon points="1140.476 698.223 985.106 794.439 985.106 585.974 1140.476 478.85 1140.476 698.223" fill="#329dd3"/><polygon points="1114.44 677.589 1011.142 741.557 1011.142 602.956 1114.44 531.736 1114.44 677.589" fill="#efe2d5"/><polygon points="695.367 550.05 985.106 585.974 1140.476 478.85 846.116 436.356 695.367 550.05" fill="#c46e33"/><polygon points="766.314 536.066 962.683 562.428 1069.454 490.726 870.021 459.868 766.314 536.066" fill="#efe2d5"/><path d="M932.789,488.442q-7.537,8.646-15.079,17.293-12.9-3.537-25.8-7.083l15.708-15.562c2.907-2.877.545-7.458-3.139-9.144a10.666,10.666,0,0,0-11.975,2.4q-10.177,10.088-20.357,20.173a6.884,6.884,0,0,0-1.235,1.224c-.194.193-.388.385-.584.577-2.04,2.023-1.457,4.864.329,6.971a8.524,8.524,0,0,0,4.746,3q16.167,4.442,32.334,8.877l-16.548,18.976c-6.261,7.177,8.891,13.878,15.112,6.745q9.453-10.842,18.906-21.68c4.435-.486,6.99-4.075,6.53-7.485q8.08-9.267,16.161-18.533C954.162,488.011,939.012,481.309,932.789,488.442Z" fill="#c46e33"/><path d="M1101.159,641.6c-4.116-25.049-37.054-20.719-59.31-10.344l-1.075-16.321q20.928-9.557,41.851-19.1c9.658-4.411.869-15.973-8.832-11.544q-22.991,10.5-45.98,20.992a7.975,7.975,0,0,0-3.036,2.287,5.085,5.085,0,0,0-1.71,4.232q1.071,16.24,2.135,32.48c.01.149.063.274.082.415.35,5.167,8.893,9.548,14.713,4.685a55.9,55.9,0,0,1,20.015-10.982c10.053-3.059,24.8-3.733,23.959,7.613-1.137,15.295-23.347,24.479-41.307,22.263-11.018-1.359-15.761,11.522-4.653,12.891C1068.373,684.911,1105.52,668.145,1101.159,641.6Z" fill="#329dd3"/><path d="M853.16,617.31c-19.047-4.519-39.587,1.825-52.84,12.436-27.418,21.95-34.625,63.968-1.087,84.68,29.378,18.139,83.738,5.06,75.97-27.947-3.225-13.7-18.3-23.076-36.242-23.6-18.319-.536-33.216,7.562-44.309,17.852-1.927-12.779,3.544-26.446,12.976-36.777,7.445-8.155,19.354-15.036,33.012-14.725,14.139.327,24.808,8.651,22.773,19.653-1.579,8.536,15.86,9.714,17.431,1.221C883.554,635.459,871.631,621.7,853.16,617.31Zm-21.237,59.317c14.087-2.05,27.809,5.009,26.325,16.881-3.138,25.107-45.79,17.485-57.529,1.855a8.422,8.422,0,0,0,3.6-2.279C811.067,685.758,819.817,678.392,831.923,676.627Z" fill="#b16cac"/></svg>